
<svg mexport="1" xmlns="http://www.w3.org/2000/svg" xmlns:xlink="http://www.w3.org/1999/xlink" width="20" height="20" viewBox="0 0 20 20">
	<defs>
		<clipPath id="clipPath0:0:0">
			<path d="M0 0L20 0L20 20L0 20L0 0Z" fill-rule="nonzero" transform="matrix(1 0 0 1 0 0)"/>
		</clipPath>
	</defs>
	<g clip-path="url(#clipPath0:0:0)">
		<path d="M9.41074 -0.589256C9.73618 -0.91469 10.2638 -0.91469 10.5893 -0.589256C10.9147 -0.263822 10.9147 0.263821 10.5893 0.589256L0.589256 10.5893C0.263822 10.9147 -0.263822 10.9147 -0.589256 10.5893C-0.91469 10.2638 -0.91469 9.73618 -0.589256 9.41074L9.41074 -0.589256Z" fill-rule="evenodd" transform="matrix(1 0 0 1 5 5)" fill="rgb(156, 163, 175)"/>
		<path d="M-0.589256 -0.589256C-0.91469 -0.263821 -0.91469 0.263822 -0.589256 0.589256L9.41074 10.5893C9.73618 10.9147 10.2638 10.9147 10.5893 10.5893C10.9147 10.2638 10.9147 9.73618 10.5893 9.41074L0.589256 -0.589256C0.263821 -0.91469 -0.263822 -0.91469 -0.589256 -0.589256Z" fill-rule="evenodd" transform="matrix(1 0 0 1 5 5)" fill="rgb(156, 163, 175)"/>
	</g>
</svg>
