
<svg mexport="1" xmlns="http://www.w3.org/2000/svg" xmlns:xlink="http://www.w3.org/1999/xlink" width="18" height="18" viewBox="0 0 18 18">
	<defs>
		<clipPath id="clipPath0:0:0">
			<path d="M0 0L18 0L18 18L0 18L0 0Z" fill-rule="nonzero" transform="matrix(1 0 0 1 0 0)"/>
		</clipPath>
	</defs>
	<g clip-path="url(#clipPath0:0:0)">
		<path d="M1.5 -0.75L13.5 -0.75Q13.9565 -0.75 14.3757 -0.571929Q14.7787 -0.400713 15.0897 -0.0897049Q15.4007 0.221302 15.5719 0.624318Q15.75 1.04347 15.75 1.5L15.75 10.5Q15.75 10.9565 15.5719 11.3757Q15.4007 11.7787 15.0897 12.0897Q14.7787 12.4007 14.3757 12.5719Q13.9565 12.75 13.5 12.75L1.5 12.75Q1.04347 12.75 0.624318 12.5719Q0.221302 12.4007 -0.089705 12.0897Q-0.400713 11.7787 -0.571929 11.3757Q-0.75 10.9565 -0.75 10.5L-0.75 1.5Q-0.75 1.04347 -0.571929 0.624318Q-0.400714 0.221304 -0.089705 -0.0897051Q0.221304 -0.400714 0.624318 -0.571929Q1.04347 -0.75 1.5 -0.75L1.5 -0.75ZM1.5 0.75Q1.19191 0.75 0.970955 0.970955Q0.75 1.19191 0.75 1.5L0.75 10.5Q0.75 10.8081 0.970955 11.029Q1.19191 11.25 1.5 11.25L13.5 11.25Q13.8081 11.25 14.029 11.029Q14.25 10.8081 14.25 10.5L14.25 1.5Q14.25 1.19191 14.029 0.970955Q13.8081 0.75 13.5 0.75L1.5 0.75L1.5 0.75Z" fill-rule="nonzero" transform="matrix(1 0 0 1 1.5 3)" fill="rgb(107, 114, 128)"/>
		<path d="M15.6144 -0.430097C15.3769 -0.769431 14.9092 -0.851958 14.5699 -0.614424L7.5 4.33451L0.430097 -0.614424C0.0907627 -0.851958 -0.37689 -0.769431 -0.614424 -0.430097C-0.851958 -0.0907627 -0.769431 0.37689 -0.430097 0.614424L7.0699 5.86442Q7.16445 5.93061 7.27452 5.9653Q7.38459 6 7.5 6Q7.61541 6 7.72548 5.9653Q7.83555 5.93061 7.9301 5.86442L15.4301 0.614424C15.7694 0.37689 15.852 -0.0907629 15.6144 -0.430097Z" fill-rule="evenodd" transform="matrix(1 0 0 1 1.5 4.5)" fill="rgb(107, 114, 128)"/>
	</g>
</svg>
