
<svg mexport="1" xmlns="http://www.w3.org/2000/svg" xmlns:xlink="http://www.w3.org/1999/xlink" width="18" height="18" viewBox="0 0 18 18">
	<defs>
		<clipPath id="clipPath0:0:0">
			<path d="M0 0L18 0L18 18L0 18L0 0Z" fill-rule="nonzero" transform="matrix(1 0 0 1 0 0)"/>
		</clipPath>
	</defs>
	<g clip-path="url(#clipPath0:0:0)">
		<rect width="13.5" height="8.25" rx="1.5" ry="1.5" stroke-width="1.5" stroke-linejoin="round" transform="matrix(1 0 0 1 2.25 8.25)" stroke="rgb(107, 114, 128)" fill="transparent"/>
		<path d="M-0.75 3.75L-0.75 6.75C-0.75 7.16421 -0.41421 7.5 0 7.5C0.41421 7.5 0.75 7.16421 0.75 6.75L0.75 3.75Q0.75 2.50736 1.62868 1.62868Q2.50736 0.75 3.75 0.75Q4.99264 0.75 5.87132 1.62868Q6.75 2.50736 6.75 3.75L6.75 6.75C6.75 7.16421 7.08579 7.5 7.5 7.5C7.91421 7.5 8.25 7.16421 8.25 6.75L8.25 3.75Q8.25 1.88604 6.93198 0.568019Q5.61396 -0.75 3.75 -0.75Q1.88604 -0.75 0.56802 0.56802Q-0.75 1.88604 -0.75 3.75Z" fill-rule="evenodd" transform="matrix(1 0 0 1 5.25 1.5)" fill="rgb(107, 114, 128)"/>
	</g>
</svg>
