<svg width="84" height="84" viewBox="0 0 84 84" xmlns="http://www.w3.org/2000/svg">
  <defs>
    <!-- 主背景渐变 -->
    <linearGradient id="backgroundGradient" x1="0%" y1="0%" x2="100%" y2="100%">
      <stop offset="0%" style="stop-color:#3B82F6;stop-opacity:1" />
      <stop offset="100%" style="stop-color:#8B5CF6;stop-opacity:1" />
    </linearGradient>
    
    <!-- 面部渐变 -->
    <linearGradient id="faceGradient" x1="0%" y1="0%" x2="100%" y2="100%">
      <stop offset="0%" style="stop-color:#FEF3C7;stop-opacity:1" />
      <stop offset="100%" style="stop-color:#FCD34D;stop-opacity:1" />
    </linearGradient>
    
    <!-- 衣服渐变 -->
    <linearGradient id="clothGradient" x1="0%" y1="0%" x2="100%" y2="100%">
      <stop offset="0%" style="stop-color:#1E293B;stop-opacity:1" />
      <stop offset="100%" style="stop-color:#334155;stop-opacity:1" />
    </linearGradient>
    
    <!-- 头发渐变 -->
    <linearGradient id="hairGradient" x1="0%" y1="0%" x2="100%" y2="100%">
      <stop offset="0%" style="stop-color:#0F172A;stop-opacity:1" />
      <stop offset="100%" style="stop-color:#1E293B;stop-opacity:1" />
    </linearGradient>
    
    <!-- 圆形遮罩 -->
    <clipPath id="circleClip">
      <circle cx="42" cy="42" r="42"/>
    </clipPath>
  </defs>
  
  <!-- 外层圆形背景 -->
  <circle cx="42" cy="42" r="42" fill="url(#backgroundGradient)"/>
  
  <!-- 头像内容 -->
  <g clip-path="url(#circleClip)">
    <!-- 衣服/肩膀区域 -->
    <path d="M 12 70 Q 20 60 32 58 Q 42 56 52 58 Q 62 60 72 70 L 72 84 L 12 84 Z" 
          fill="url(#clothGradient)"/>
    
    <!-- 脖子 -->
    <path d="M 32 58 Q 37 54 42 54 Q 47 54 52 58 L 52 68 Q 47 66 42 66 Q 37 66 32 68 Z" 
          fill="url(#faceGradient)"/>
    
    <!-- 面部 -->
    <ellipse cx="42" cy="38" rx="15" ry="18" fill="url(#faceGradient)"/>
    
    <!-- 头发 -->
    <path d="M 26 28 Q 28 18 34 14 Q 38 12 42 12 Q 46 12 50 14 Q 56 18 58 28 Q 58 32 56 36 Q 54 38 52 38 Q 48 36 44 36 Q 40 36 36 36 Q 32 36 30 38 Q 28 36 26 32 Z" 
          fill="url(#hairGradient)"/>
    
    <!-- 眼睛 -->
    <ellipse cx="36" cy="35" rx="2" ry="3" fill="#1E293B"/>
    <ellipse cx="48" cy="35" rx="2" ry="3" fill="#1E293B"/>
    
    <!-- 眼睛高光 -->
    <ellipse cx="36.5" cy="34" rx="0.8" ry="1" fill="#FFFFFF" opacity="0.8"/>
    <ellipse cx="48.5" cy="34" rx="0.8" ry="1" fill="#FFFFFF" opacity="0.8"/>
    
    <!-- 鼻子 -->
    <path d="M 41 40 Q 42 42 43 40" stroke="#E5A955" stroke-width="0.8" fill="none" opacity="0.6"/>
    
    <!-- 嘴巴 -->
    <path d="M 38 45 Q 42 47 46 45" stroke="#E5A955" stroke-width="1" fill="none" opacity="0.7"/>
    
    <!-- 面部轮廓阴影 -->
    <path d="M 27 35 Q 30 50 35 52 Q 40 54 42 54 Q 44 54 49 52 Q 54 50 57 35" 
          stroke="#E5A955" stroke-width="0.3" fill="none" opacity="0.3"/>
  </g>
  
  <!-- 外层边框增强效果 -->
  <circle cx="42" cy="42" r="41" fill="none" stroke="rgba(255,255,255,0.1)" stroke-width="1"/>
  <circle cx="42" cy="42" r="40" fill="none" stroke="rgba(0,0,0,0.1)" stroke-width="0.5"/>
</svg> 