
<svg mexport="1" xmlns="http://www.w3.org/2000/svg" xmlns:xlink="http://www.w3.org/1999/xlink" width="20" height="20" viewBox="0 0 20 20">
	<defs>
		<clipPath id="clipPath0:0:0">
			<path d="M0 0L20 0L20 20L0 20L0 0Z" fill-rule="nonzero" transform="matrix(1 0 0 1 0 0)"/>
		</clipPath>
	</defs>
	<g clip-path="url(#clipPath0:0:0)">
		<path d="M16.7468 2.40937Q16.9905 1.03027 16.7749 0.08484Q16.7265 -0.137484 16.5674 -0.300975Q16.4053 -0.467522 16.179 -0.520796Q15.2721 -0.742631 13.8902 -0.497373Q12.6106 -0.270278 11.1587 0.310718Q9.68375 0.900932 8.35165 1.72924Q6.91781 2.62082 5.90141 3.63648Q5.52804 4.00677 5.18672 4.40988Q4.95975 4.67793 4.74883 4.95842Q3.43582 4.90027 2.46164 5.32525Q0.969587 5.98129 0.123238 7.6247Q-0.405614 8.65161 -0.611391 9.90082Q-0.689077 10.3778 -0.358443 10.7287Q-0.0278132 11.0795 0.451792 11.0304L2.96716 10.7543Q2.97167 10.7997 2.97672 10.845Q2.99935 11.07 3.09969 11.28Q3.20004 11.49 3.36556 11.6536L4.58914 12.8772Q4.75034 13.0402 4.96051 13.1406Q5.17068 13.2409 5.40243 13.2641Q5.44205 13.2686 5.482 13.2726L5.20669 15.7811Q5.15771 16.2653 5.50802 16.5954Q5.85833 16.9255 6.3335 16.8487Q7.57991 16.6485 8.61311 16.1175Q10.2586 15.2718 10.9108 13.7801Q11.3333 12.8105 11.2804 11.5016Q11.5624 11.2903 11.8319 11.0628Q12.2362 10.7214 12.6092 10.3461Q13.6285 9.33248 14.5185 7.91802Q15.3501 6.59634 15.9385 5.13659Q16.5198 3.69436 16.7468 2.40937ZM15.5549 0.356931Q15.5537 0.351911 15.5527 0.346826L15.5549 0.356931ZM15.6039 0.645011Q15.6775 1.27718 15.5159 2.1919Q15.3116 3.34823 14.7791 4.6693Q14.2326 6.0253 13.4605 7.25231Q12.6462 8.54641 11.7225 9.465Q11.388 9.8016 11.0255 10.1077Q10.6629 10.4139 10.275 10.6872Q10.208 10.7344 10.1555 10.7973Q10.1029 10.8601 10.0683 10.9344Q10.0338 11.0087 10.0195 11.0894Q10.0053 11.1701 10.0123 11.2517Q10.1174 12.4718 9.76545 13.2794Q9.29152 14.3634 8.04173 15.0057Q7.33253 15.3702 6.4897 15.5486L6.79649 12.7534Q6.79989 12.7224 6.80019 12.6913Q6.8014 12.567 6.75494 12.4517Q6.70849 12.3364 6.62144 12.2476Q6.53439 12.1588 6.42 12.1101Q6.30561 12.0615 6.1813 12.0602Q6.01906 12.0587 5.85713 12.0489Q5.69521 12.0391 5.52692 12.0204Q5.51234 12.0189 5.4991 12.0126Q5.48587 12.0063 5.47302 11.9933L4.24425 10.7645Q4.23383 10.7542 4.22752 10.741Q4.2212 10.7278 4.21904 10.7067Q4.20097 10.5444 4.19117 10.3815Q4.18138 10.2185 4.17988 10.0553Q4.17959 10.0239 4.17617 9.9928Q4.16261 9.86922 4.10278 9.76024Q4.04296 9.65126 3.94598 9.57347Q3.84901 9.49568 3.72964 9.46093Q3.61028 9.42617 3.4867 9.43973L0.689665 9.74681Q0.871298 8.90232 1.23453 8.19701Q1.87812 6.94731 2.96145 6.47097Q3.7727 6.11708 4.99429 6.2276Q5.0761 6.235 5.15703 6.22102Q5.23797 6.20703 5.31255 6.17261Q5.38712 6.13818 5.45027 6.08566Q5.51342 6.03313 5.56086 5.96608Q5.8345 5.57924 6.14068 5.21762Q6.44688 4.85601 6.78497 4.52068Q7.69981 3.60652 9.01171 2.79076Q10.2503 2.02057 11.6231 1.47125Q12.9556 0.938022 14.1086 0.733394Q15.0024 0.57476 15.6039 0.645011ZM9.34973 6.90651L9.34922 6.90599Q8.67803 6.23459 8.67796 5.28513Q8.67788 4.3353 9.34949 3.66364Q10.0211 2.99198 10.9709 2.99198Q11.9208 2.99198 12.5924 3.66364Q13.264 4.3353 13.2639 5.28513Q13.2638 6.23496 12.5921 6.90651Q11.9213 7.57873 10.9709 7.57873Q10.0209 7.57873 9.34973 6.90651ZM10.234 6.02304Q10.5391 6.32873 10.9709 6.32873Q11.4028 6.32873 11.7083 6.02253Q12.0139 5.71706 12.0139 5.28503Q12.0139 4.853 11.7084 4.54749Q11.403 4.24198 10.9709 4.24198Q10.5389 4.24198 10.2334 4.54749Q9.92792 4.853 9.92796 5.28503Q9.92799 5.71707 10.2335 6.02253L10.234 6.02304Z" fill-rule="evenodd" transform="matrix(1 0 0 1 1.87478 1.88197)" fill="rgb(59, 130, 246)"/>
		<path d="M2.40316 -0.0761495C2.3611 -0.418753 2.04927 -0.662399 1.70666 -0.620344Q1.3109 -0.571763 0.95246 -0.397099Q0.59402 -0.222435 0.311879 0.0593154Q-0.266443 0.639604 -0.500225 2.2975Q-0.607574 3.05878 -0.624797 3.73407Q-0.626366 3.7956 -0.6159 3.85626Q-0.605434 3.91692 -0.583335 3.97438Q-0.561236 4.03183 -0.528352 4.08387Q-0.495469 4.13591 -0.453066 4.18053Q-0.410662 4.22515 -0.360368 4.26065Q-0.310073 4.29614 -0.253821 4.32114Q-0.197569 4.34614 -0.13752 4.35968Q-0.0774719 4.37323 -0.0159348 4.3748Q-4.78886e-06 4.3752 0.0159252 4.3748Q0.691651 4.35757 1.4531 4.25012Q3.11193 4.01603 3.69011 3.43752Q3.97249 3.15634 4.14771 2.79676Q4.32293 2.43719 4.37055 2.04004C4.41165 1.69732 4.16714 1.38617 3.82442 1.34507C3.4817 1.30397 3.17055 1.54849 3.12945 1.89121Q3.10691 2.07909 3.02402 2.2492Q2.94113 2.41931 2.80598 2.55389Q2.67944 2.6805 2.26719 2.80659Q1.86505 2.9296 1.27844 3.01238Q0.963069 3.05689 0.665731 3.08427Q0.693089 2.78719 0.73753 2.47203Q0.820244 1.88545 0.94315 1.48306Q1.06928 1.07012 1.19515 0.943809Q1.32943 0.809718 1.50002 0.726591Q1.67061 0.643465 1.85896 0.620344C2.20157 0.578288 2.44521 0.266454 2.40316 -0.0761495Z" fill-rule="evenodd" transform="matrix(1 0 0 1 2.5 13.75)" fill="rgb(59, 130, 246)"/>
	</g>
</svg>
