
<svg mexport="1" xmlns="http://www.w3.org/2000/svg" xmlns:xlink="http://www.w3.org/1999/xlink" width="12" height="12" viewBox="0 0 12 12">
	<defs>
		<clipPath id="clipPath0:0:0">
			<path d="M0 0L12 0L12 12L0 12L0 0Z" fill-rule="nonzero" transform="matrix(1 0 0 1 0 0)"/>
		</clipPath>
	</defs>
	<g clip-path="url(#clipPath0:0:0)">
		<path d="M5.67705 0.983411L6.65255 0.00790623Q7.16046 -0.5 7.8788 -0.5Q8.59714 -0.5 9.10505 0.00790349L9.81588 0.718688Q10.3238 1.22661 10.3238 1.94495Q10.3238 2.66328 9.8159 3.17118L3.05081 9.9363Q2.53789 10.4492 1.77417 10.4492L0 10.4492Q-0.0492457 10.4492 -0.0975452 10.4396Q-0.145845 10.43 -0.191342 10.4112Q-0.236839 10.3923 -0.277785 10.365Q-0.318731 10.3376 -0.353553 10.3028Q-0.388375 10.268 -0.415735 10.227Q-0.443094 10.1861 -0.46194 10.1406Q-0.480785 10.0951 -0.490393 10.0468Q-0.5 9.99849 -0.5 9.94924L-0.5 8.17504Q-0.5 7.41131 0.0129208 6.89844L5.53236 1.37896C5.5205 1.23739 5.56873 1.09173 5.67705 0.983411ZM0.720002 7.60558L0.720031 7.60555L7.31403 1.01148L8.87634 1.19339L9.10882 1.42584Q9.32381 1.64083 9.32381 1.94495Q9.32381 2.24906 9.1088 2.46407L2.3437 9.22919Q2.12366 9.44924 1.77417 9.44924L0.5 9.44924L0.5 8.17504Q0.5 7.82554 0.720002 7.60558Z" fill-rule="evenodd" transform="matrix(1 0 0 1 1.5 1.37966)" fill="rgb(139, 92, 246)"/>
	</g>
</svg>
