
<svg mexport="1" xmlns="http://www.w3.org/2000/svg" xmlns:xlink="http://www.w3.org/1999/xlink" width="24" height="24" viewBox="0 0 24 24">
	<defs>
		<clipPath id="clipPath0:0:0">
			<path d="M0 0L24 0L24 24L0 24L0 0Z" fill-rule="nonzero" transform="matrix(1 0 0 1 0 0)"/>
		</clipPath>
	</defs>
	<g clip-path="url(#clipPath0:0:0)">
		<defs>
			<mask id="mask0:0:1" style="mask-type:alpha">
				<path d="M0 0L24 0L24 24L0 24L0 0Z" fill-rule="nonzero" transform="matrix(1 0 0 1 0 0)" fill="rgb(0, 0, 0)"/>
			</mask>
		</defs>
		<g mask="url(#mask0:0:1)">
			<defs>
				<mask id="mask0:0:2" style="mask-type:alpha">
					<path d="M0 0L24 0L24 24L0 24L0 0Z" fill-rule="nonzero" transform="matrix(1 0 0 1 0 0)" fill="rgb(0, 0, 0)"/>
				</mask>
			</defs>
			<g mask="url(#mask0:0:2)">
				<path d="M11 20C12.2211 20 13.3888 19.7644 14.5029 19.2931C15.5795 18.8378 16.5332 18.1947 17.3639 17.3639C18.1947 16.5332 18.8378 15.5795 19.2931 14.5029C19.7644 13.3888 20 12.2211 20 11C20 9.77886 19.7644 8.61123 19.2931 7.4971C18.8378 6.42047 18.1947 5.46679 17.3639 4.63604C16.5332 3.80529 15.5795 3.16223 14.5029 2.70685C13.3888 2.23562 12.2211 2 11 2C9.77886 2 8.61123 2.23562 7.4971 2.70685C6.42047 3.16222 5.46679 3.80529 4.63604 4.63604C3.80529 5.46679 3.16223 6.42047 2.70685 7.4971C2.23562 8.61123 2 9.77886 2 11C2 12.2211 2.23562 13.3888 2.70685 14.5029C3.16223 15.5795 3.80529 16.5332 4.63604 17.3639C5.46679 18.1947 6.42047 18.8378 7.4971 19.2931C8.61123 19.7644 9.77886 20 11 20ZM11 22C9.50848 22 8.08114 21.7117 6.71799 21.1351C5.40185 20.5784 4.23646 19.7928 3.22182 18.7782C2.20719 17.7635 1.42153 16.5981 0.864845 15.282C0.288282 13.9189 0 12.4915 0 11C0 9.50848 0.288282 8.08115 0.864845 6.718C1.42153 5.40185 2.20718 4.23646 3.22182 3.22182C4.23646 2.20718 5.40185 1.42153 6.718 0.864845C8.08115 0.288282 9.50848 0 11 0C12.4915 0 13.9189 0.288282 15.282 0.864845C16.5981 1.42153 17.7635 2.20719 18.7782 3.22182C19.7928 4.23646 20.5784 5.40185 21.1351 6.71799C21.7117 8.08114 22 9.50848 22 11C22 12.4915 21.7117 13.9189 21.1351 15.282C20.5784 16.5981 19.7928 17.7635 18.7782 18.7782C17.7635 19.7928 16.5981 20.5784 15.282 21.1351C13.9189 21.7117 12.4915 22 11 22Z" fill-rule="nonzero" transform="matrix(1 0 0 1 1 1)" fill="rgb(59, 130, 246)"/>
				<path d="M1 0C0.44772 0 0 0.44772 0 1L0 7C0 7.09285 0.0126873 7.18394 0.038062 7.27327C0.063436 7.36259 0.100532 7.44674 0.149349 7.52573C0.198166 7.60472 0.256847 7.67553 0.325391 7.73818C0.393935 7.80082 0.469733 7.8529 0.552786 7.89443L4.55279 9.89443C5.04676 10.1414 5.64744 9.94119 5.89443 9.44721C6.14141 8.95324 5.94119 8.35256 5.44721 8.10557L2 6.38197L2 1C2 0.44772 1.55228 0 1 0Z" fill-rule="evenodd" transform="matrix(1 0 0 1 11 5)" fill="rgb(59, 130, 246)"/>
			</g>
		</g>
	</g>
</svg>
