
<svg mexport="1" xmlns="http://www.w3.org/2000/svg" xmlns:xlink="http://www.w3.org/1999/xlink" width="16" height="16" viewBox="0 0 16 16">
	<defs>
		<clipPath id="clipPath0:0:0">
			<path d="M0 0L16 0L16 16L0 16L0 0Z" fill-rule="nonzero" transform="matrix(1 0 0 1 0 0)"/>
		</clipPath>
	</defs>
	<g clip-path="url(#clipPath0:0:0)">
		<path d="M4.19219 5.24609L0.220312 1.27734C-0.0734377 0.983594 -0.0734377 0.508594 0.220312 0.217969C0.514062 -0.0726564 0.989062 -0.0726564 1.28281 0.217969L5.78281 4.71484C6.06719 4.99922 6.07344 5.45547 5.80469 5.74922L1.28594 10.2773C1.13906 10.4242 0.945312 10.4961 0.754687 10.4961C0.564062 10.4961 0.370312 10.4242 0.223437 10.2773C-0.0703125 9.98359 -0.0703125 9.50859 0.223437 9.21797L4.19219 5.24609Z" fill-rule="nonzero" transform="matrix(1 0 0 1 4.99844 2.75391)" fill="rgb(96, 165, 250)"/>
	</g>
</svg>
