
<svg mexport="1" xmlns="http://www.w3.org/2000/svg" xmlns:xlink="http://www.w3.org/1999/xlink" width="20" height="20" viewBox="0 0 20 20">
	<defs>
		<clipPath id="clipPath0:0:0">
			<path d="M0 0L20 0L20 20L0 20L0 0Z" fill-rule="nonzero" transform="matrix(1 0 0 1 0 0)"/>
		</clipPath>
	</defs>
	<g clip-path="url(#clipPath0:0:0)">
		<path d="M7.5 0.0714499Q8.17255 -0.296453 8.96636 -0.522069Q10.0615 -0.833333 11.25 -0.833333Q12.4385 -0.833333 13.5336 -0.522069Q14.6086 -0.216554 15.4611 0.349874Q15.547 0.406905 15.6164 0.483131Q15.6857 0.559357 15.7344 0.650184Q15.7831 0.741011 15.8082 0.840967Q15.8333 0.940923 15.8333 1.04398L15.8333 11.8773Q15.8333 11.9594 15.8173 12.0399Q15.8013 12.1204 15.7699 12.1962Q15.7385 12.2721 15.6929 12.3403Q15.6473 12.4086 15.5893 12.4666Q15.5312 12.5246 15.463 12.5702Q15.3947 12.6158 15.3189 12.6472Q15.2431 12.6786 15.1626 12.6947Q15.0821 12.7107 15 12.7107Q14.7484 12.7107 14.5389 12.5714Q13.9028 12.1489 13.078 11.9144Q12.2062 11.6667 11.25 11.6667Q10.2938 11.6667 9.42202 11.9144Q8.59718 12.1489 7.96114 12.5714Q7.85865 12.6395 7.74085 12.6751Q7.62305 12.7107 7.5 12.7107Q7.37695 12.7107 7.25915 12.6751Q7.14135 12.6395 7.03886 12.5714Q6.40282 12.1489 5.57798 11.9144Q4.70621 11.6667 3.75 11.6667Q2.79379 11.6667 1.92202 11.9144Q1.09717 12.1489 0.461141 12.5714Q0.392777 12.6169 0.316866 12.6481Q0.240955 12.6793 0.160414 12.6951Q0.0798725 12.7109 -0.00220342 12.7107Q-0.0842793 12.7104 -0.164736 12.6942Q-0.245192 12.678 -0.320937 12.6464Q-0.396683 12.6148 -0.464806 12.569Q-0.532929 12.5232 -0.590812 12.465Q-0.648695 12.4068 -0.694113 12.3385Q-0.833333 12.1289 -0.833333 11.8773L-0.833333 1.04398Q-0.833333 0.940923 -0.808226 0.840968Q-0.783119 0.741013 -0.734417 0.650186Q-0.685715 0.559359 -0.616353 0.483133Q-0.546991 0.406907 -0.46115 0.349876Q0.391419 -0.216552 1.46636 -0.522069Q2.56152 -0.833333 3.75 -0.833333Q4.93847 -0.833333 6.03363 -0.522069Q6.82745 -0.296453 7.5 0.0714499ZM1.92201 1.0811Q2.79377 0.833333 3.75 0.833333Q4.70623 0.833333 5.57798 1.0811Q6.17115 1.24969 6.66667 1.51556L6.66667 10.5212Q6.36043 10.4042 6.03364 10.3113Q4.93847 10 3.75 10Q2.56153 10 1.46636 10.3113Q1.13957 10.4042 0.833333 10.5212L0.833333 1.51556Q1.32884 1.24969 1.92201 1.0811ZM9.42201 1.0811Q10.2938 0.833333 11.25 0.833333Q12.2062 0.833333 13.078 1.0811Q13.6712 1.24969 14.1667 1.51556L14.1667 10.5212Q13.8604 10.4042 13.5336 10.3113Q12.4385 10 11.25 10Q10.0615 10 8.96635 10.3113Q8.63957 10.4042 8.33333 10.5212L8.33333 1.51556Q8.82885 1.24969 9.42201 1.0811Z" fill-rule="evenodd" transform="matrix(1 0 0 1 2.5 4.16667)" fill="rgb(255, 255, 255)"/>
	</g>
</svg>
