
<svg mexport="1" xmlns="http://www.w3.org/2000/svg" xmlns:xlink="http://www.w3.org/1999/xlink" width="24" height="34" viewBox="0 0 24 34">
	<defs>
		<clipPath id="clipPath0:0:0">
			<path d="M0 0L24 0L24 34L0 34L0 0Z" fill-rule="nonzero" transform="matrix(1 0 0 1 0 0)"/>
		</clipPath>
	</defs>
	<g clip-path="url(#clipPath0:0:0)">
		<defs>
			<clipPath id="clipPath0:0:1">
				<path d="M0 0L24 0L24 34.3125L0 34.3125L0 0Z" fill-rule="nonzero" transform="matrix(1 0 0 1 0 -0.15625)"/>
			</clipPath>
		</defs>
		<g clip-path="url(#clipPath0:0:1)">
			<defs>
				<mask id="mask0:0:2" style="mask-type:alpha">
					<path d="M0 0L23.9919 0L23.9919 34.3125L0 34.3125L0 0Z" fill-rule="nonzero" transform="matrix(1 0 0 1 0.0121651 -0.156203)" fill="rgb(0, 0, 0)"/>
				</mask>
			</defs>
			<g mask="url(#mask0:0:2)">
				<defs>
					<mask id="mask0:0:3" style="mask-type:alpha">
						<path d="M0 0L23.9919 0L23.9919 23.9919L0 23.9919L0 0Z" fill-rule="nonzero" transform="matrix(1 0 0 1 0.0202751 -0.156203)" fill="rgb(0, 0, 0)"/>
					</mask>
				</defs>
				<g mask="url(#mask0:0:3)">
					<defs>
						<mask id="mask0:0:4" style="mask-type:alpha">
							<path d="M0 0L23.9919 0L23.9919 23.9919L0 23.9919L0 0Z" fill-rule="nonzero" transform="matrix(1 0 0 1 0.0283852 -0.156203)" fill="rgb(0, 0, 0)"/>
						</mask>
					</defs>
					<g mask="url(#mask0:0:4)">
						<path d="M18.4315 3.51874L11.4326 0.327631C10.9547 0.10921 10.3912 0 9.74202 0C9.09284 0 8.5291 0.109307 8.05081 0.327921L1.05707 3.51882C0.758736 3.65442 0.520976 3.82199 0.343796 4.02149C0.114598 4.27956 0 4.56657 0 4.88249C0 5.19841 0.114598 5.48542 0.343796 5.74349C0.520977 5.94299 0.759058 6.11069 1.05804 6.2466L7.99233 9.4092C8.4869 9.63467 9.07153 9.74741 9.74623 9.74741C10.4209 9.74741 11.0055 9.63468 11.5 9.40925L18.4353 6.24621C18.7338 6.10992 18.9713 5.94183 19.1478 5.74191C19.3761 5.48361 19.4898 5.19659 19.4892 4.88089C19.4886 4.56534 19.3738 4.27873 19.1448 4.02108C18.9677 3.82183 18.7299 3.65438 18.4315 3.51874ZM10.8105 1.692L17.8094 4.88311L10.878 8.04485C10.5811 8.18022 10.2039 8.24791 9.74623 8.24791C9.28866 8.24791 8.91143 8.18024 8.61456 8.0449L1.68068 4.88249L8.67416 1.69171C8.95451 1.56356 9.31047 1.49949 9.74202 1.49949C10.1736 1.49949 10.5297 1.56366 10.8105 1.692ZM14.0531 12.8196C13.6801 12.64 13.5231 12.192 13.7027 11.8189C13.8822 11.4458 14.3303 11.2889 14.7034 11.4684L18.4345 13.2641C18.7335 13.4001 18.9716 13.5678 19.1487 13.7674C19.3779 14.0256 19.4925 14.3126 19.4925 14.6285C19.4925 14.9444 19.3779 15.2315 19.1487 15.4896C18.9716 15.6892 18.7338 15.8567 18.4353 15.9924L11.4997 19.1556C11.0053 19.3807 10.4208 19.4933 9.74623 19.4933C9.07167 19.4933 8.48703 19.3806 7.99233 19.1554L1.05804 15.9928C0.759017 15.8569 0.520905 15.6892 0.343702 15.4896C0.114567 15.2315 0 14.9444 0 14.6285C0 14.3126 0.114567 14.0256 0.343702 13.7674C0.520905 13.5678 0.760117 13.3996 1.06134 13.2626L4.93659 11.5237C5.31437 11.3542 5.75805 11.523 5.92758 11.9008C6.0971 12.2785 5.92827 12.7223 5.55048 12.8917L1.68019 14.6285L8.61456 17.7912C8.91131 17.9262 9.28853 17.9938 9.74623 17.9938C10.204 17.9938 10.5813 17.9261 10.8783 17.7909L17.8124 14.6285L14.0531 12.8196Z" fill-rule="evenodd" transform="matrix(1 0 0 1 2.28231 2.09304)" fill="rgb(59, 130, 246)"/>
						<path d="M13.561 0.443196C13.3917 0.821026 13.5606 1.26465 13.9385 1.43407L17.8146 3.17196L10.878 6.33515C10.5811 6.47051 10.2039 6.5382 9.74623 6.5382C9.28866 6.5382 8.91142 6.47052 8.61452 6.33517L1.68019 3.17303L5.55521 1.43395C5.93297 1.26441 6.10179 0.820719 5.93224 0.442949C5.7627 0.0651785 5.31901 -0.103628 4.94124 0.0659124L1.0613 1.8072C0.760106 1.9441 0.520905 2.11236 0.343702 2.31196C0.114567 2.57006 0 2.85708 0 3.17302C0 3.48895 0.114567 3.77597 0.343702 4.03408C0.520905 4.23368 0.759018 4.40144 1.05804 4.53736L7.99237 7.69952C8.48691 7.92497 9.07153 8.03769 9.74623 8.03769C10.4209 8.03769 11.0055 7.92498 11.5 7.69954L18.4353 4.53699C18.7337 4.40209 18.9719 4.23505 19.1499 4.03585C19.3802 3.77801 19.4958 3.49099 19.4966 3.17479C19.4973 2.85831 19.3829 2.57077 19.1535 2.31215C18.9764 2.11248 18.7383 1.94464 18.4392 1.80867L14.5519 0.0658014C14.1741 -0.103602 13.7305 0.0653645 13.561 0.443196Z" fill-rule="evenodd" transform="matrix(1 0 0 1 2.27762 8.67563)" fill="rgb(59, 130, 246)"/>
					</g>
				</g>
			</g>
		</g>
	</g>
</svg>
