
<svg mexport="1" xmlns="http://www.w3.org/2000/svg" xmlns:xlink="http://www.w3.org/1999/xlink" width="16" height="16" viewBox="0 0 16 16">
	<defs>
		<clipPath id="clipPath0:0:0">
			<path d="M0 0L16 0L16 16L0 16L0 0Z" fill-rule="nonzero" transform="matrix(1 0 0 1 0 0)"/>
		</clipPath>
	</defs>
	<g clip-path="url(#clipPath0:0:0)">
		<path d="M5.66667 10.8333Q6.71815 10.8333 7.67761 10.4275Q8.60471 10.0354 9.32005 9.32005Q10.0354 8.60471 10.4275 7.67761Q10.8333 6.71815 10.8333 5.66667Q10.8333 4.61518 10.4275 3.65572Q10.0354 2.72861 9.32005 2.01328Q8.60472 1.29795 7.67761 0.905818Q6.71815 0.5 5.66667 0.5Q4.61518 0.5 3.65572 0.905817Q2.72861 1.29795 2.01328 2.01328Q1.29795 2.72861 0.905818 3.65572Q0.500001 4.61518 0.5 5.66667Q0.5 7.41761 1.49757 8.82476Q1.78374 9.21972 1.693 9.68331L1.69084 9.69431L1.32415 11.2052L0.838253 11.0873L1.32926 11.1817Q1.32306 11.2139 1.34459 11.2354Q1.3661 11.2569 1.39828 11.2507L1.49274 11.7417L1.37481 11.2558L2.88567 10.8891L2.89665 10.887Q3.36036 10.7962 3.75951 11.0855L3.46608 11.4903L3.7296 11.0654Q4.65827 11.6413 5.74773 11.6413L5.74773 12.6413Q4.37336 12.6413 3.20256 11.9153L3.18724 11.9058L3.17265 11.8952Q3.12567 11.8611 3.0888 11.8683L2.99273 11.3777L3.11066 11.8636L1.599 12.2305L1.5872 12.2327Q1.31937 12.2843 1.06298 12.2022Q0.819241 12.1243 0.637496 11.9425Q0.455752 11.7608 0.377771 11.5171Q0.295743 11.2607 0.34725 10.9928L0.349522 10.981L0.716413 9.46934L1.20231 9.58727L0.711618 9.49122Q0.718843 9.45431 0.681775 9.4031Q0.11345 8.60143 -0.188663 7.6622Q-0.5 6.6943 -0.5 5.66667Q-0.5 4.41239 -0.0151868 3.26617Q0.452927 2.15942 1.30618 1.30618Q2.15942 0.452926 3.26617 -0.0151874Q4.41239 -0.5 5.66667 -0.5Q6.92094 -0.499999 8.06716 -0.0151868Q9.17391 0.452927 10.0272 1.30617Q10.8804 2.15942 11.3485 3.26617Q11.8333 4.41239 11.8333 5.66667Q11.8333 6.92093 11.3485 8.06716Q10.8804 9.17391 10.0272 10.0272Q9.17391 10.8804 8.06716 11.3485Q6.92093 11.8333 5.66667 11.8333L5.66667 10.8333Z" fill-rule="nonzero" transform="matrix(1 0 0 1 2.33333 2.33333)" fill="rgb(156, 163, 175)"/>
		<path d="M-0.666667 0C-0.666667 -0.368187 -0.368187 -0.666667 0 -0.666667C0.368187 -0.666667 0.666667 -0.368187 0.666667 0L-0.666667 0ZM0 0.673334C0.368187 0.673334 0.666667 0.374853 0.666667 0.00666682L-0.666667 0.00666682C-0.666667 0.374853 -0.368187 0.673334 0 0.673334Z" fill-rule="evenodd" transform="matrix(1 0 0 1 8 9)" fill="rgb(156, 163, 175)"/>
		<path d="M-0.666667 0C-0.666667 -0.368187 -0.368187 -0.666667 0 -0.666667C0.368187 -0.666667 0.666667 -0.368187 0.666667 0L-0.666667 0ZM0 0.673334C0.368187 0.673334 0.666667 0.374853 0.666667 0.00666682L-0.666667 0.00666682C-0.666667 0.374853 -0.368187 0.673334 0 0.673334Z" fill-rule="evenodd" transform="matrix(1 0 0 1 10.6667 9)" fill="rgb(156, 163, 175)"/>
		<path d="M-0.666667 0C-0.666667 -0.368187 -0.368187 -0.666667 0 -0.666667C0.368187 -0.666667 0.666667 -0.368187 0.666667 0L-0.666667 0ZM0 0.673334C0.368187 0.673334 0.666667 0.374853 0.666667 0.00666682L-0.666667 0.00666682C-0.666667 0.374853 -0.368187 0.673334 0 0.673334Z" fill-rule="evenodd" transform="matrix(1 0 0 1 5.33333 9)" fill="rgb(156, 163, 175)"/>
	</g>
</svg>
