
<svg mexport="1" xmlns="http://www.w3.org/2000/svg" xmlns:xlink="http://www.w3.org/1999/xlink" width="24" height="24" viewBox="0 0 24 24">
	<defs>
		<clipPath id="clipPath0:0:0">
			<path d="M0 0L24 0L24 24L0 24L0 0Z" fill-rule="nonzero" transform="matrix(1 0 0 1 0 0)"/>
		</clipPath>
	</defs>
	<g clip-path="url(#clipPath0:0:0)">
		<defs>
			<mask id="mask0:0:1" style="mask-type:alpha">
				<path d="M0 0L24 0L24 24L0 24L0 0Z" fill-rule="nonzero" transform="matrix(1 0 0 1 0 0)" fill="rgb(0, 0, 0)"/>
			</mask>
		</defs>
		<g mask="url(#mask0:0:1)">
			<defs>
				<mask id="mask0:0:2" style="mask-type:alpha">
					<path d="M0 0L24 0L24 24L0 24L0 0Z" fill-rule="nonzero" transform="matrix(1 0 0 1 0 0)" fill="rgb(0, 0, 0)"/>
				</mask>
			</defs>
			<g mask="url(#mask0:0:2)">
				<path d="M0.386059 7.21065L9.38606 0.210648C9.42964 0.176751 9.47571 0.146669 9.52428 0.120403C9.57285 0.0941376 9.62324 0.0720456 9.67546 0.054127C9.72769 0.0362083 9.78103 0.0227077 9.83549 0.013625C9.88995 0.00454167 9.94479 0 10 0C10.0552 0 10.1101 0.00454167 10.1645 0.013625C10.219 0.0227077 10.2723 0.0362083 10.3245 0.054127C10.3768 0.0720456 10.4272 0.0941376 10.4757 0.120403C10.5243 0.146669 10.5704 0.176751 10.6139 0.210648L19.6139 7.21065C19.674 7.2574 19.7281 7.31032 19.7761 7.36941C19.8241 7.4285 19.8648 7.49225 19.8983 7.56065C19.9318 7.62905 19.9571 7.70034 19.9742 7.77452C19.9914 7.8487 20 7.92386 20 8L20 19C20 19.3978 19.9239 19.7805 19.7716 20.148C19.6194 20.5155 19.4026 20.84 19.1213 21.1213C18.84 21.4026 18.5155 21.6194 18.148 21.7716C17.7805 21.9239 17.3978 22 17 22L3 22C2.60217 22 2.21949 21.9239 1.85195 21.7716C1.48439 21.6194 1.15996 21.4026 0.878654 21.1213C0.597364 20.84 0.3806 20.5155 0.228362 20.148C0.0761207 19.7805 0 19.3978 0 19L0 8C0 7.92386 0.00858434 7.8487 0.025753 7.77452C0.0429217 7.70034 0.0682323 7.62905 0.101685 7.56065C0.135138 7.49225 0.175871 7.4285 0.223885 7.36941C0.271899 7.31032 0.325957 7.2574 0.386059 7.21065ZM1.61394 8.78935L1 8L2 8L2 19C2 19.2761 2.09764 19.5118 2.29293 19.7071C2.48816 19.9024 2.72385 20 3 20L17 20C17.2761 20 17.5118 19.9024 17.7071 19.7071C17.9024 19.5118 18 19.2761 18 19L18 8L19 8L18.3861 8.78935L9.38606 1.78935L10 1L10.6139 1.78935L1.61394 8.78935Z" fill-rule="nonzero" transform="matrix(1 0 0 1 2 1)" fill="rgb(59, 130, 246)"/>
				<path d="M0 1L0 11C0 11.5523 0.44772 12 1 12C1.55228 12 2 11.5523 2 11L2 2L6 2L6 11C6 11.5523 6.44772 12 7 12C7.55228 12 8 11.5523 8 11L8 1C8 0.934339 7.99359 0.869309 7.98078 0.80491C7.96797 0.740511 7.94901 0.67798 7.92388 0.617317C7.89875 0.556654 7.86795 0.499025 7.83147 0.44443C7.79499 0.389835 7.75354 0.339322 7.70711 0.292893C7.66068 0.246464 7.61016 0.20501 7.55557 0.168531C7.50098 0.132052 7.44335 0.101248 7.38268 0.076121C7.32202 0.050993 7.25949 0.0320243 7.19509 0.019215C7.13069 0.006405 7.06566 0 7 0L1 0C0.934339 0 0.869309 0.006405 0.80491 0.019215C0.740511 0.032025 0.67798 0.0509936 0.617317 0.076121C0.556654 0.101248 0.499025 0.132051 0.44443 0.16853C0.389835 0.205009 0.339322 0.246464 0.292893 0.292893C0.246464 0.339322 0.20501 0.389835 0.168531 0.44443C0.132052 0.499025 0.101248 0.556654 0.076121 0.617317C0.050993 0.67798 0.0320243 0.740511 0.019215 0.80491C0.006405 0.869309 0 0.934339 0 1Z" fill-rule="evenodd" transform="matrix(1 0 0 1 8 11)" fill="rgb(59, 130, 246)"/>
			</g>
		</g>
	</g>
</svg>
