
<svg mexport="1" xmlns="http://www.w3.org/2000/svg" xmlns:xlink="http://www.w3.org/1999/xlink" width="16" height="16" viewBox="0 0 16 16">
	<defs>
		<clipPath id="clipPath0:0:0">
			<path d="M0 0L16 0L16 16L0 16L0 0Z" fill-rule="nonzero" transform="matrix(1 0 0 1 0 0)"/>
		</clipPath>
	</defs>
	<g clip-path="url(#clipPath0:0:0)">
		<rect width="13" height="12" rx="1.5" ry="1.5" stroke-width="1" stroke-linejoin="round" transform="matrix(1 0 0 1 1.5 2.5)" stroke="rgb(156, 163, 175)" fill="transparent"/>
		<circle cx="0.75" cy="0.75" r="0.75" transform="matrix(1 0 0 1 8.5 6.5)" fill="rgb(156, 163, 175)"/>
		<circle cx="0.75" cy="0.75" r="0.75" transform="matrix(1 0 0 1 11 6.5)" fill="rgb(156, 163, 175)"/>
		<circle cx="0.75" cy="0.75" r="0.75" transform="matrix(1 0 0 1 8.5 9)" fill="rgb(156, 163, 175)"/>
		<circle cx="0.75" cy="0.75" r="0.75" transform="matrix(1 0 0 1 11 9)" fill="rgb(156, 163, 175)"/>
		<circle cx="0.75" cy="0.75" r="0.75" transform="matrix(1 0 0 1 3.5 9)" fill="rgb(156, 163, 175)"/>
		<circle cx="0.75" cy="0.75" r="0.75" transform="matrix(1 0 0 1 6 9)" fill="rgb(156, 163, 175)"/>
		<circle cx="0.75" cy="0.75" r="0.75" transform="matrix(1 0 0 1 3.5 11.5)" fill="rgb(156, 163, 175)"/>
		<circle cx="0.75" cy="0.75" r="0.75" transform="matrix(1 0 0 1 6 11.5)" fill="rgb(156, 163, 175)"/>
		<circle cx="0.75" cy="0.75" r="0.75" transform="matrix(1 0 0 1 8.5 11.5)" fill="rgb(156, 163, 175)"/>
		<path d="M0 -0.5C-0.27614 -0.5 -0.5 -0.27614 -0.5 0L-0.5 1C-0.5 1.27614 -0.27614 1.5 0 1.5C0.27614 1.5 0.5 1.27614 0.5 1L0.5 0C0.5 -0.27614 0.27614 -0.5 0 -0.5ZM8 -0.5C7.72386 -0.5 7.5 -0.27614 7.5 0L7.5 1C7.5 1.27614 7.72386 1.5 8 1.5C8.27614 1.5 8.5 1.27614 8.5 1L8.5 0C8.5 -0.27614 8.27614 -0.5 8 -0.5Z" fill-rule="evenodd" transform="matrix(1 0 0 1 4 1.5)" fill="rgb(156, 163, 175)"/>
		<path d="M13 0.5L0 0.5L0 -0.5L13 -0.5L13 0.5Z" fill-rule="nonzero" transform="matrix(1 0 0 1 1.5 5)" fill="rgb(156, 163, 175)"/>
	</g>
</svg>
