
<svg mexport="1" xmlns="http://www.w3.org/2000/svg" xmlns:xlink="http://www.w3.org/1999/xlink" width="16" height="16" viewBox="0 0 16 16">
	<defs>
		<clipPath id="clipPath0:0:0">
			<path d="M0 0L16 0L16 16L0 16L0 0Z" fill-rule="nonzero" transform="matrix(1 0 0 1 0 0)"/>
		</clipPath>
	</defs>
	<g clip-path="url(#clipPath0:0:0)">
		<path d="M0 -0.5C-0.27614 -0.5 -0.5 -0.27614 -0.5 0L-0.5 2C-0.5 2.27614 -0.27614 2.5 0 2.5C0.27614 2.5 0.5 2.27614 0.5 2L0.5 0C0.5 -0.27614 0.27614 -0.5 0 -0.5Z" fill-rule="evenodd" transform="matrix(1 0 0 1 5.33333 1.33333)" fill="rgb(156, 163, 175)"/>
		<path d="M0 -0.5C-0.27614 -0.5 -0.5 -0.27614 -0.5 0L-0.5 2C-0.5 2.27614 -0.27614 2.5 0 2.5C0.27614 2.5 0.5 2.27614 0.5 2L0.5 0C0.5 -0.27614 0.27614 -0.5 0 -0.5Z" fill-rule="evenodd" transform="matrix(1 0 0 1 10.6667 1.33333)" fill="rgb(156, 163, 175)"/>
		<path d="M-0.5 0C-0.5 0.27614 -0.27614 0.5 0 0.5L11.3333 0.5C11.6095 0.5 11.8333 0.27614 11.8333 0C11.8333 -0.27614 11.6095 -0.5 11.3333 -0.5L0 -0.5C-0.27614 -0.5 -0.5 -0.27614 -0.5 0Z" fill-rule="evenodd" transform="matrix(1 0 0 1 2.33333 6)" fill="rgb(156, 163, 175)"/>
		<path d="M10.6667 0.5L0.666667 0.5Q0.597634 0.5 0.548817 0.548817Q0.5 0.597633 0.5 0.666667L0.5 9.33333Q0.5 9.40237 0.548814 9.45119Q0.597629 9.5 0.666667 9.5L10.6667 9.5Q10.7357 9.5 10.7845 9.45119Q10.8333 9.40238 10.8333 9.33333L10.8333 0.666667Q10.8333 0.59763 10.7845 0.548815Q10.7357 0.5 10.6667 0.5L10.6667 0.5ZM10.6667 -0.5Q11.1499 -0.5 11.4916 -0.158288Q11.8333 0.18342 11.8333 0.666667L11.8333 9.33333Q11.8333 9.81659 11.4916 10.1583Q11.1499 10.5 10.6667 10.5L0.666667 10.5Q0.18342 10.5 -0.158287 10.1583Q-0.5 9.81659 -0.5 9.33333L-0.5 0.666667Q-0.5 0.18342 -0.15829 -0.15829Q0.18342 -0.5 0.666667 -0.5L10.6667 -0.5L10.6667 -0.5Z" fill-rule="nonzero" transform="matrix(1 0 0 1 2.33333 3.33333)" fill="rgb(156, 163, 175)"/>
	</g>
</svg>
