
<svg mexport="1" xmlns="http://www.w3.org/2000/svg" xmlns:xlink="http://www.w3.org/1999/xlink" width="16" height="16" viewBox="0 0 16 16">
	<defs>
		<clipPath id="clipPath0:0:0">
			<path d="M0 0L16 0L16 16L0 16L0 0Z" fill-rule="nonzero" transform="matrix(1 0 0 1 0 0)"/>
		</clipPath>
	</defs>
	<g clip-path="url(#clipPath0:0:0)">
		<path d="M9.33333 10.5L2.66667 10.5Q2.02274 10.5 1.4339 10.2509Q0.865532 10.0105 0.427494 9.57249Q-0.0105412 9.13446 -0.250942 8.56609Q-0.5 7.97725 -0.5 7.33333L-0.5 2.66667Q-0.5 2.02274 -0.250942 1.4339Q-0.0105415 0.865532 0.427495 0.427495Q0.865532 -0.0105413 1.4339 -0.250942Q2.02274 -0.5 2.66667 -0.5L9.33333 -0.5Q9.97725 -0.5 10.5661 -0.250942Q11.1345 -0.0105417 11.5725 0.427494Q12.0105 0.865532 12.2509 1.4339Q12.5 2.02274 12.5 2.66667L12.5 7.33333Q12.5 7.97725 12.2509 8.56609Q12.0105 9.13446 11.5725 9.5725Q11.1345 10.0105 10.5661 10.2509Q9.97725 10.5 9.33333 10.5ZM9.33333 9.5Q10.2308 9.5 10.8654 8.86539Q11.5 8.23078 11.5 7.33333L11.5 2.66667Q11.5 1.76921 10.8654 1.1346Q10.2308 0.5 9.33333 0.5L2.66667 0.5Q1.7692 0.5 1.1346 1.1346Q0.5 1.7692 0.5 2.66667L0.5 7.33333Q0.5 8.23078 1.1346 8.86539Q1.76921 9.5 2.66667 9.5L9.33333 9.5Z" fill-rule="nonzero" transform="matrix(1 0 0 1 2 4)" fill="rgb(156, 163, 175)"/>
		<path d="M6.16667 1.33333L6.16667 2C6.16667 2.27614 6.39053 2.5 6.66667 2.5C6.94281 2.5 7.16667 2.27614 7.16667 2L7.16667 1.33333Q7.16667 0.57394 6.62971 0.0369727Q6.09274 -0.5 5.33333 -0.5L1.33333 -0.5Q0.573942 -0.5 0.0369709 0.0369708Q-0.5 0.573942 -0.5 1.33333L-0.5 2C-0.5 2.27614 -0.27614 2.5 0 2.5C0.27614 2.5 0.5 2.27614 0.5 2L0.5 1.33333Q0.5 0.988155 0.744078 0.744078Q0.988155 0.5 1.33333 0.5L5.33333 0.5Q5.67852 0.5 5.9226 0.744076Q6.16667 0.98815 6.16667 1.33333Z" fill-rule="evenodd" transform="matrix(1 0 0 1 4.66667 2)" fill="rgb(156, 163, 175)"/>
		<path d="M5.68689 -0.353553C5.49163 -0.548814 5.17504 -0.548814 4.97978 -0.353553L1.66667 2.95956L0.353553 1.64645C0.158293 1.45119 -0.158293 1.45119 -0.353553 1.64645C-0.548814 1.84171 -0.548814 2.15829 -0.353553 2.35355L1.31311 4.02022Q1.34794 4.05504 1.38888 4.0824Q1.42983 4.10976 1.47532 4.12861Q1.52082 4.14745 1.56912 4.15706Q1.61742 4.16667 1.66667 4.16667Q1.71591 4.16667 1.76421 4.15706Q1.81251 4.14745 1.85801 4.12861Q1.90351 4.10976 1.94445 4.0824Q1.9854 4.05504 2.02022 4.02022L5.68689 0.353553C5.88215 0.158293 5.88215 -0.158293 5.68689 -0.353553Z" fill-rule="evenodd" transform="matrix(1 0 0 1 5.33333 6)" fill="rgb(156, 163, 175)"/>
	</g>
</svg>
