
<svg mexport="1" xmlns="http://www.w3.org/2000/svg" xmlns:xlink="http://www.w3.org/1999/xlink" width="16" height="16" viewBox="0 0 16 16">
	<defs>
		<clipPath id="clipPath0:0:0">
			<path d="M0 0L16 0L16 16L0 16L0 0Z" fill-rule="nonzero" transform="matrix(1 0 0 1 0 0)"/>
		</clipPath>
	</defs>
	<g clip-path="url(#clipPath0:0:0)">
		<path d="M-0.5 0C-0.5 0.27614 -0.27614 0.5 0 0.5L12 0.5C12.2761 0.5 12.5 0.27614 12.5 0C12.5 -0.27614 12.2761 -0.5 12 -0.5L0 -0.5C-0.27614 -0.5 -0.5 -0.27614 -0.5 0ZM-0.5 2.66667C-0.5 2.94281 -0.27614 3.16667 0 3.16667L12 3.16667C12.2761 3.16667 12.5 2.94281 12.5 2.66667C12.5 2.39053 12.2761 2.16667 12 2.16667L0 2.16667C-0.27614 2.16667 -0.5 2.39053 -0.5 2.66667Z" fill-rule="evenodd" transform="matrix(1 0 0 1 2 6.66667)" fill="rgb(156, 163, 175)"/>
		<path d="M-0.5 0C-0.5 0.27614 -0.27614 0.5 0 0.5L6.66667 0.5C6.94281 0.5 7.16667 0.27614 7.16667 0C7.16667 -0.27614 6.94281 -0.5 6.66667 -0.5L0 -0.5C-0.27614 -0.5 -0.5 -0.27614 -0.5 0Z" fill-rule="evenodd" transform="matrix(1 0 0 1 7.33333 3.33333)" fill="rgb(156, 163, 175)"/>
		<path d="M-0.5 0C-0.5 0.27614 -0.27614 0.5 0 0.5L6.66667 0.5C6.94281 0.5 7.16667 0.27614 7.16667 0C7.16667 -0.27614 6.94281 -0.5 6.66667 -0.5L0 -0.5C-0.27614 -0.5 -0.5 -0.27614 -0.5 0Z" fill-rule="evenodd" transform="matrix(1 0 0 1 7.33333 12.6667)" fill="rgb(156, 163, 175)"/>
		<path d="M2 -0.5C1.72386 -0.5 1.5 -0.27614 1.5 0L1.5 2.16667L0 2.16667C-0.27614 2.16667 -0.5 2.39053 -0.5 2.66667C-0.5 2.94281 -0.27614 3.16667 0 3.16667L4 3.16667C4.27614 3.16667 4.5 2.94281 4.5 2.66667C4.5 2.39053 4.27614 2.16667 4 2.16667L2.5 2.16667L2.5 0C2.5 -0.27614 2.27614 -0.5 2 -0.5Z" fill-rule="evenodd" transform="matrix(1 0 0 1 2.66667 2)" fill="rgb(156, 163, 175)"/>
		<path d="M-0.5 0C-0.5 0.27614 -0.27614 0.5 0 0.5L1.5 0.5L1.5 2.66667C1.5 2.94281 1.72386 3.16667 2 3.16667C2.27614 3.16667 2.5 2.94281 2.5 2.66667L2.5 0.5L4 0.5C4.27614 0.5 4.5 0.27614 4.5 0C4.5 -0.27614 4.27614 -0.5 4 -0.5L0 -0.5C-0.27614 -0.5 -0.5 -0.27614 -0.5 0Z" fill-rule="evenodd" transform="matrix(1 0 0 1 2.66667 11.3333)" fill="rgb(156, 163, 175)"/>
	</g>
</svg>
