
<svg mexport="1" xmlns="http://www.w3.org/2000/svg" xmlns:xlink="http://www.w3.org/1999/xlink" width="16" height="16" viewBox="0 0 16 16">
	<defs>
		<clipPath id="clipPath0:0:0">
			<path d="M0 0L16 0L16 16L0 16L0 0Z" fill-rule="nonzero" transform="matrix(1 0 0 1 0 0)"/>
		</clipPath>
	</defs>
	<g clip-path="url(#clipPath0:0:0)">
		<path d="M-0.53033 0.53033C-0.823221 0.237439 -0.823221 -0.237439 -0.53033 -0.53033C-0.237439 -0.823221 0.237439 -0.823221 0.53033 -0.53033L4.5 3.43934L8.46967 -0.53033C8.76256 -0.823221 9.23744 -0.823221 9.53033 -0.53033C9.82322 -0.23744 9.82322 0.237439 9.53033 0.53033L5.03033 5.03033Q4.9781 5.08256 4.91668 5.1236Q4.85526 5.16464 4.78701 5.19291Q4.71877 5.22118 4.64632 5.23559Q4.57387 5.25 4.5 5.25Q4.42613 5.25 4.35368 5.23559Q4.28123 5.22118 4.21299 5.19291Q4.14474 5.16464 4.08332 5.1236Q4.0219 5.08256 3.96967 5.03033L-0.53033 0.53033Z" fill-rule="evenodd" transform="matrix(1 0 0 1 3.5 5.75)" fill="rgb(255, 255, 255)"/>
	</g>
</svg>
