
<svg mexport="1" xmlns="http://www.w3.org/2000/svg" xmlns:xlink="http://www.w3.org/1999/xlink" width="16" height="16" viewBox="0 0 16 16">
	<defs>
		<clipPath id="clipPath0:0:0">
			<path d="M0 0L16 0L16 16L0 16L0 0Z" fill-rule="nonzero" transform="matrix(1 0 0 1 0 0)"/>
		</clipPath>
	</defs>
	<g clip-path="url(#clipPath0:0:0)">
		<path d="M12.6667 10.6667L12.6667 7.10667C12.6667 6.73848 12.3682 6.44 12 6.44C11.6318 6.44 11.3333 6.73848 11.3333 7.10667L11.3333 10.6667Q11.3333 10.9428 11.1381 11.1381Q10.9428 11.3333 10.6667 11.3333L1.33333 11.3333Q1.05719 11.3333 0.861929 11.1381Q0.666667 10.9428 0.666667 10.6667L0.666667 1.33333Q0.666667 1.05719 0.861928 0.86193Q1.05719 0.666667 1.33333 0.666667L4.89333 0.666667C5.26152 0.666667 5.56 0.368187 5.56 0C5.56 -0.368187 5.26152 -0.666667 4.89333 -0.666667L1.33333 -0.666667Q0.504906 -0.666667 -0.08088 -0.0808801Q-0.666667 0.504906 -0.666667 1.33333L-0.666667 10.6667Q-0.666667 11.4951 -0.08088 12.0809Q0.504906 12.6667 1.33333 12.6667L10.6667 12.6667Q11.4951 12.6667 12.0809 12.0809Q12.6667 11.4951 12.6667 10.6667Z" fill-rule="evenodd" transform="matrix(1 0 0 1 1.33333 2.66667)" fill="rgb(255, 255, 255)"/>
		<path d="M7.13807 -0.471405L9.80474 2.19526Q9.85117 2.24169 9.88765 2.29629Q9.92413 2.35088 9.94925 2.41154Q9.97438 2.47221 9.98719 2.53661Q10 2.60101 10 2.66667Q10 2.73233 9.98719 2.79673Q9.97438 2.86113 9.94925 2.92179Q9.92413 2.98245 9.88765 3.03705Q9.85117 3.09164 9.80474 3.13807L3.13807 9.80474Q3.0443 9.89851 2.92179 9.94925Q2.79927 10 2.66667 10L0 10Q-0.0656609 10 -0.13006 9.98719Q-0.194459 9.97438 -0.255122 9.94925Q-0.315785 9.92413 -0.37038 9.88765Q-0.424975 9.85117 -0.471404 9.80474Q-0.517834 9.75831 -0.554313 9.70371Q-0.590792 9.64912 -0.61592 9.58846Q-0.641047 9.52779 -0.653857 9.46339Q-0.666667 9.39899 -0.666667 9.33333L-0.666667 6.66667Q-0.666667 6.53406 -0.61592 6.41154Q-0.565173 6.28903 -0.471405 6.19526L6.19526 -0.471405Q6.24169 -0.517834 6.29629 -0.554313Q6.35088 -0.590792 6.41154 -0.61592Q6.47221 -0.641047 6.53661 -0.653857Q6.60101 -0.666667 6.66667 -0.666667Q6.73233 -0.666667 6.79673 -0.653857Q6.86113 -0.641047 6.92179 -0.61592Q6.98245 -0.590792 7.03705 -0.554313Q7.09164 -0.517834 7.13807 -0.471405L7.13807 -0.471405ZM6.19526 0.471405L6.66667 0L7.13807 0.471405L0.471405 7.13807L0 6.66667L0.666667 6.66667L0.666667 9.33333L0 9.33333L0 8.66667L2.66667 8.66667L2.66667 9.33333L2.19526 8.86193L8.86193 2.19526L9.33333 2.66667L8.86193 3.13807L6.19526 0.471405Z" fill-rule="nonzero" transform="matrix(1 0 0 1 5.33333 1.33333)" fill="rgb(255, 255, 255)"/>
	</g>
</svg>
