
<svg mexport="1" xmlns="http://www.w3.org/2000/svg" xmlns:xlink="http://www.w3.org/1999/xlink" width="14" height="14" viewBox="0 0 14 14">
	<defs>
		<clipPath id="clipPath0:0:0">
			<path d="M0 0L14 0L14 14L0 14L0 0Z" fill-rule="nonzero" transform="matrix(1 0 0 1 0 0)"/>
		</clipPath>
	</defs>
	<g clip-path="url(#clipPath0:0:0)">
		<defs>
			<mask id="mask0:0:1" style="mask-type:alpha">
				<path d="M0 0L14 0L14 14L0 14L0 0Z" fill-rule="nonzero" transform="matrix(1 0 0 1 0 0)" fill="rgb(0, 0, 0)"/>
			</mask>
		</defs>
		<g mask="url(#mask0:0:1)">
			<defs>
				<mask id="mask0:0:2" style="mask-type:alpha">
					<path d="M0 0L14 0L14 14L0 14L0 0Z" fill-rule="nonzero" transform="matrix(1 0 0 1 0 0)" fill="rgb(0, 0, 0)"/>
				</mask>
			</defs>
			<g mask="url(#mask0:0:2)">
				<path d="M1.75 9.33333C1.26675 9.33333 0.854271 9.16248 0.512563 8.82077C0.170854 8.47906 0 8.06658 0 7.58333L0 2.34122L0 2.32437L0 1.75C0 1.26675 0.170854 0.854272 0.512563 0.512563C0.854272 0.170854 1.26675 0 1.75 0L9.91666 0C10.3999 0 10.8124 0.170854 11.1541 0.512562C11.4958 0.85427 11.6666 1.26675 11.6666 1.75L11.6666 2.32436L11.6666 2.34122L11.6666 7.58333C11.6666 8.06658 11.4958 8.47906 11.1541 8.82077C10.8124 9.16248 10.3999 9.33333 9.91666 9.33333L1.75 9.33333ZM10.5 2.02114L10.5 1.75C10.5 1.58892 10.443 1.45142 10.3291 1.33752C10.2152 1.22362 10.0777 1.16667 9.91666 1.16667L1.75 1.16667C1.58892 1.16667 1.45142 1.22362 1.33752 1.33752C1.22362 1.45142 1.16667 1.58892 1.16667 1.75L1.16667 2.02114L5.5094 4.9163C5.60754 4.98177 5.71551 5.0145 5.83333 5.0145C5.95115 5.0145 6.05907 4.98181 6.15708 4.91642L10.5 2.02114ZM1.16667 3.4233L4.86225 5.88703C5.15617 6.08313 5.47987 6.18117 5.83333 6.18117C6.1868 6.18117 6.51055 6.08309 6.80458 5.88691L10.5 3.4233L10.5 7.58333C10.5 7.74441 10.443 7.88191 10.3291 7.99581C10.2152 8.10971 10.0777 8.16666 9.91666 8.16666L1.75 8.16666C1.58892 8.16666 1.45142 8.10971 1.33752 7.99581C1.22362 7.88191 1.16667 7.74441 1.16667 7.58333L1.16667 3.4233Z" fill-rule="evenodd" transform="matrix(1 0 0 1 1.16667 2.33334)" fill="rgb(156, 163, 175)"/>
			</g>
		</g>
	</g>
</svg>
