
<svg mexport="1" xmlns="http://www.w3.org/2000/svg" xmlns:xlink="http://www.w3.org/1999/xlink" width="16" height="16" viewBox="0 0 16 16">
	<defs>
		<clipPath id="clipPath0:0:0">
			<path d="M0 0L16 0L16 16L0 16L0 0Z" fill-rule="nonzero" transform="matrix(1 0 0 1 0 0)"/>
		</clipPath>
	</defs>
	<g clip-path="url(#clipPath0:0:0)">
		<defs>
			<mask id="mask0:0:1" style="mask-type:alpha">
				<path d="M0 0L16 0L16 16L0 16L0 0Z" fill-rule="nonzero" transform="matrix(1 0 0 1 0 0)" fill="rgb(0, 0, 0)"/>
			</mask>
		</defs>
		<g mask="url(#mask0:0:1)">
			<defs>
				<mask id="mask0:0:2" style="mask-type:alpha">
					<path d="M0 0L16 0L16 16L0 16L0 0Z" fill-rule="nonzero" transform="matrix(1 0 0 1 0 0)" fill="rgb(0, 0, 0)"/>
				</mask>
			</defs>
			<g mask="url(#mask0:0:2)">
				<defs>
					<mask id="mask0:0:3" style="mask-type:alpha">
						<path d="M0 0L16 0L16 16L0 16L0 0Z" fill-rule="nonzero" transform="matrix(1 0 0 1 0 0)" fill="rgb(0, 0, 0)"/>
					</mask>
				</defs>
				<g mask="url(#mask0:0:3)">
					<path d="M5.33334 2.66667C5.33334 3.02807 5.26339 3.37413 5.12351 3.70487C4.98853 4.02399 4.79813 4.30646 4.5523 4.5523C4.30646 4.79813 4.02399 4.98853 3.70487 5.12351C3.37413 5.26339 3.02807 5.33334 2.66667 5.33334C2.30527 5.33334 1.9592 5.26339 1.62847 5.12351C1.30935 4.98853 1.02687 4.79813 0.781036 4.5523C0.535201 4.30646 0.344798 4.02399 0.209826 3.70487C0.0699413 3.37413 -6.75514e-07 3.02807 4.89321e-12 2.66667C-6.75514e-07 2.30527 0.0699413 1.9592 0.209826 1.62847C0.344798 1.30935 0.535201 1.02687 0.781036 0.781036C1.02687 0.535201 1.30935 0.344798 1.62847 0.209826C1.9592 0.0699413 2.30527 -6.75514e-07 2.66667 4.89321e-12C3.02807 -6.75514e-07 3.37413 0.0699413 3.70487 0.209826C4.02399 0.344798 4.30646 0.535201 4.5523 0.781036C4.79813 1.02687 4.98853 1.30935 5.12351 1.62847C5.26339 1.9592 5.33334 2.30527 5.33334 2.66667ZM4 2.66667C4 2.29846 3.86983 1.98419 3.60949 1.72385C3.34915 1.4635 3.03487 1.33333 2.66667 1.33333C2.29846 1.33333 1.98419 1.4635 1.72385 1.72385C1.4635 1.98419 1.33333 2.29846 1.33333 2.66667C1.33333 3.03487 1.4635 3.34915 1.72385 3.60949C1.98419 3.86983 2.29846 4 2.66667 4C3.03487 4 3.34915 3.86983 3.60949 3.60949C3.86983 3.34915 4 3.03487 4 2.66667Z" fill-rule="nonzero" transform="matrix(1 0 0 1 5.33333 5.33333)" fill="rgb(107, 114, 128)"/>
					<path d="M7.02883 1.33333C6.36803 1.33333 5.72784 1.43793 5.10826 1.64711C4.50919 1.84938 3.95505 2.14039 3.44584 2.52014C2.94208 2.89582 2.50764 3.3393 2.14251 3.85056C1.77288 4.36813 1.49318 4.92898 1.30344 5.53311L0.667404 5.33334L1.30344 5.13357C1.49318 5.73769 1.77287 6.29853 2.1425 6.81611C2.50763 7.32736 2.94208 7.77083 3.44584 8.14653C3.95506 8.52628 4.5092 8.81729 5.10828 9.01955C5.72788 9.22874 6.36808 9.33334 7.0289 9.33334C7.68971 9.33334 8.3299 9.22874 8.94948 9.01955C9.54856 8.81728 10.1027 8.52627 10.6119 8.14653C11.1156 7.77083 11.5501 7.32736 11.9152 6.81612C12.2849 6.29854 12.5646 5.7377 12.7543 5.13358L13.3903 5.33334L12.7543 5.5331C12.5646 4.92898 12.2849 4.36813 11.9152 3.85056C11.5501 3.3393 11.1156 2.89583 10.6119 2.52015C10.1027 2.14039 9.54854 1.84938 8.94945 1.64712C8.32986 1.43793 7.68965 1.33333 7.02883 1.33333ZM7.02883 0C7.83567 0 8.61805 0.127948 9.37597 0.383844C10.1089 0.631293 10.7866 0.987115 11.409 1.45131C12.0241 1.90999 12.5545 2.45144 13.0003 3.07566C13.4522 3.70843 13.7942 4.3944 14.0263 5.13358C14.0682 5.26675 14.0682 5.39992 14.0263 5.53309C13.7942 6.27226 13.4522 6.95823 13.0003 7.59101C12.5545 8.21523 12.0241 8.75668 11.409 9.21536C10.7866 9.67955 10.1089 10.0354 9.376 10.2828C8.61808 10.5387 7.83572 10.6667 7.0289 10.6667C6.22208 10.6667 5.4397 10.5387 4.68177 10.2828C3.94887 10.0354 3.27119 9.67956 2.64874 9.21536C2.0337 8.75668 1.50327 8.21524 1.05747 7.59102C0.605566 6.95824 0.263532 6.27227 0.0313712 5.5331C-0.0104574 5.39992 -0.0104571 5.26675 0.0313722 5.13357C0.263536 4.39439 0.605572 3.70841 1.05748 3.07565C1.50328 2.45143 2.0337 1.90998 2.64874 1.4513C3.27118 0.98711 3.94884 0.631289 4.68174 0.383841C5.43966 0.127946 6.22202 0 7.02883 0Z" fill-rule="nonzero" transform="matrix(1 0 0 1 0.971426 2.66666)" fill="rgb(107, 114, 128)"/>
				</g>
			</g>
		</g>
	</g>
</svg>
