
<svg mexport="1" xmlns="http://www.w3.org/2000/svg" xmlns:xlink="http://www.w3.org/1999/xlink" width="16" height="16" viewBox="0 0 16 16">
	<defs>
		<clipPath id="clipPath0:0:0">
			<path d="M0 0L16 0L16 16L0 16L0 0Z" fill-rule="nonzero" transform="matrix(1 0 0 1 0 0)"/>
		</clipPath>
	</defs>
	<g clip-path="url(#clipPath0:0:0)">
		<path d="M14.25 1.5L0.75 1.5C0.542893 1.5 0.366116 1.42678 0.21967 1.28033C0.0732232 1.13388 -1.98682e-08 0.957107 0 0.75C-1.98682e-08 0.542893 0.0732232 0.366116 0.21967 0.21967C0.366116 0.0732233 0.542893 0 0.75 0L14.25 0C14.4571 0 14.6339 0.0732232 14.7803 0.21967C14.9268 0.366116 15 0.542893 15 0.75C15 0.957107 14.9268 1.13388 14.7803 1.28033C14.6339 1.42678 14.4571 1.5 14.25 1.5ZM11.75 5L3.25 5C3.04289 5 2.86612 4.92678 2.71967 4.78033C2.57322 4.63388 2.5 4.45711 2.5 4.25C2.5 4.04289 2.57322 3.86612 2.71967 3.71967C2.86612 3.57322 3.04289 3.5 3.25 3.5L11.75 3.5C11.9571 3.5 12.1339 3.57322 12.2803 3.71967C12.4268 3.86612 12.5 4.04289 12.5 4.25C12.5 4.45711 12.4268 4.63388 12.2803 4.78033C12.1339 4.92678 11.9571 5 11.75 5ZM8.75 8.5L6.25 8.5C6.04289 8.5 5.86612 8.42678 5.71967 8.28033C5.57322 8.13388 5.5 7.95711 5.5 7.75C5.5 7.54289 5.57322 7.36612 5.71967 7.21967C5.86612 7.07322 6.04289 7 6.25 7L8.75 7C8.95711 7 9.13388 7.07322 9.28033 7.21967C9.42678 7.36612 9.5 7.54289 9.5 7.75C9.5 7.95711 9.42678 8.13388 9.28033 8.28033C9.13388 8.42678 8.95711 8.5 8.75 8.5Z" fill-rule="nonzero" transform="matrix(1 0 0 1 0.5 3.75)" fill="rgb(255, 255, 255)"/>
	</g>
</svg>
