
<svg mexport="1" xmlns="http://www.w3.org/2000/svg" xmlns:xlink="http://www.w3.org/1999/xlink" width="16" height="16" viewBox="0 0 16 16">
	<defs>
		<clipPath id="clipPath0:0:0">
			<path d="M0 0L16 0L16 16L0 16L0 0Z" fill-rule="nonzero" transform="matrix(1 0 0 1 0 0)"/>
		</clipPath>
	</defs>
	<g clip-path="url(#clipPath0:0:0)">
		<path d="M3.0084 5.5L1.33333 5.5Q0.57391 5.5 0.0369591 6.03699Q-0.5 6.57398 -0.5 7.33333L-0.5 12Q-0.5 12.7594 0.0369644 13.2963Q0.573909 13.8333 1.33333 13.8333L10.8533 13.8333Q11.5333 13.8411 12.0558 13.397Q12.5783 12.9528 12.681 12.2749L13.6009 6.27578Q13.6616 5.87603 13.549 5.48868Q13.4367 5.10146 13.1719 4.79696Q12.9071 4.49245 12.5391 4.32732Q12.1711 4.16214 11.7677 4.1667L8.5 4.16667L8.5 2Q8.5 1.50272 8.30969 1.04328Q8.11938 0.583867 7.76776 0.232236Q7.41613 -0.119394 6.95669 -0.309699Q6.49726 -0.5 6 -0.5Q5.92746 -0.5 5.85791 -0.479387Q5.78837 -0.458773 5.72754 -0.419246Q5.66672 -0.379719 5.61964 -0.324537Q5.57255 -0.269356 5.54309 -0.203069L3.0084 5.5ZM3.83333 6.10611L6.31166 0.529874Q6.73588 0.614564 7.06064 0.939337Q7.5 1.3787 7.5 2L7.5 4.66667Q7.5 4.71591 7.50961 4.76421Q7.51921 4.81251 7.53806 4.85801Q7.5569 4.90351 7.58426 4.94445Q7.61162 4.9854 7.64645 5.02022Q7.68127 5.05504 7.72221 5.0824Q7.76316 5.10976 7.80866 5.12861Q7.85415 5.14745 7.90245 5.15706Q7.95075 5.16667 8 5.16667L11.779 5.16664Q11.9624 5.16456 12.1297 5.23964Q12.2969 5.31471 12.4173 5.45305Q12.5376 5.59146 12.5887 5.76772Q12.6398 5.94365 12.6124 6.12422L11.6923 12.1251Q11.6456 12.4331 11.4081 12.635Q11.1706 12.8369 10.8533 12.8333L3.83333 12.8333L3.83333 6.10611ZM2.83333 6.5L2.83333 12.8333L1.33333 12.8333Q0.988146 12.8333 0.744089 12.5893Q0.5 12.3452 0.5 12L0.5 7.33333Q0.5 6.98818 0.744094 6.74407Q0.988147 6.5 1.33333 6.5L2.83333 6.5Z" fill-rule="evenodd" transform="matrix(1 0 0 1 1.33333 1.33333)" fill="rgb(156, 163, 175)"/>
	</g>
</svg>
