
<svg mexport="1" xmlns="http://www.w3.org/2000/svg" xmlns:xlink="http://www.w3.org/1999/xlink" width="20" height="20" viewBox="0 0 20 20">
	<defs>
		<clipPath id="clipPath0:0:0">
			<path d="M0 0L20 0L20 20L0 20L0 0Z" fill-rule="nonzero" transform="matrix(1 0 0 1 0 0)"/>
		</clipPath>
	</defs>
	<g clip-path="url(#clipPath0:0:0)">
		<defs>
			<mask id="mask0:0:1" style="mask-type:alpha">
				<path d="M0 0L20 0L20 20L0 20L0 0Z" fill-rule="nonzero" transform="matrix(1 0 0 1 0 0)" fill="rgb(0, 0, 0)"/>
			</mask>
		</defs>
		<g mask="url(#mask0:0:1)">
			<path d="M10.625 10L10.625 11.5625C10.625 12.1666 10.4114 12.6822 9.98429 13.1093C9.55716 13.5364 9.04156 13.75 8.4375 13.75L2.1875 13.75C1.58344 13.75 1.06784 13.5364 0.640703 13.1093C0.213568 12.6822 0 12.1666 0 11.5625L0 2.1875C0 1.58344 0.213568 1.06784 0.640704 0.640704C1.06784 0.213568 1.58344 0 2.1875 0L8.125 0C8.41293 0 8.70348 0.053604 8.99665 0.160812C9.27949 0.264241 9.53779 0.407535 9.77155 0.590693C10.0233 0.787964 10.2225 1.01302 10.3691 1.26587C10.5397 1.56017 10.625 1.86738 10.625 2.1875L10.625 3.75C10.625 4.09518 10.3452 4.375 10 4.375C9.65483 4.375 9.375 4.09518 9.375 3.75L9.375 2.1875C9.375 1.97449 9.2502 1.7702 9.00061 1.57464C8.72439 1.35821 8.43252 1.25 8.125 1.25L2.1875 1.25C1.92861 1.25 1.70764 1.34153 1.52459 1.52459C1.34153 1.70764 1.25 1.92861 1.25 2.1875L1.25 11.5625C1.25 11.8214 1.34153 12.0423 1.52459 12.2254C1.70765 12.4085 1.92862 12.5 2.1875 12.5L8.4375 12.5C8.69638 12.5 8.91735 12.4085 9.10041 12.2254C9.28347 12.0423 9.375 11.8214 9.375 11.5625L9.375 10C9.375 9.65483 9.65483 9.375 10 9.375C10.3452 9.375 10.625 9.65483 10.625 10ZM12.0581 3.30806C12.3021 3.06398 12.6979 3.06398 12.9419 3.30806L16.0669 6.43306C16.096 6.46208 16.1219 6.49365 16.1447 6.52777C16.1675 6.56189 16.1867 6.59791 16.2024 6.63582C16.2181 6.67373 16.23 6.71282 16.238 6.75307C16.246 6.79332 16.25 6.83396 16.25 6.875C16.25 6.91604 16.246 6.95668 16.238 6.99693C16.23 7.03718 16.2181 7.07627 16.2024 7.11418C16.1867 7.15209 16.1675 7.18811 16.1447 7.22223C16.1219 7.25635 16.096 7.28792 16.0669 7.31694L12.9419 10.4419C12.6979 10.686 12.3021 10.686 12.0581 10.4419C11.814 10.1979 11.814 9.80213 12.0581 9.55806L14.1161 7.5L5 7.5C4.65483 7.5 4.375 7.22017 4.375 6.875C4.375 6.52983 4.65483 6.25 5 6.25L14.1161 6.25L12.0581 4.19194C11.814 3.94787 11.814 3.55213 12.0581 3.30806Z" fill-rule="evenodd" transform="matrix(1 0 0 1 1.875 3.125)" fill="rgb(156, 163, 175)"/>
		</g>
	</g>
</svg>
