
<svg mexport="1" xmlns="http://www.w3.org/2000/svg" xmlns:xlink="http://www.w3.org/1999/xlink" width="20" height="20" viewBox="0 0 20 20">
	<defs>
		<clipPath id="clipPath0:0:0">
			<path d="M0 0L20 0L20 20L0 20L0 0Z" fill-rule="nonzero" transform="matrix(1 0 0 1 0 0)"/>
		</clipPath>
	</defs>
	<g clip-path="url(#clipPath0:0:0)">
		<defs>
			<mask id="mask0:0:1" style="mask-type:alpha">
				<path d="M0 0L20 0L20 20L0 20L0 0Z" fill-rule="nonzero" transform="matrix(1 0 0 1 0 0)" fill="rgb(0, 0, 0)"/>
			</mask>
		</defs>
		<g mask="url(#mask0:0:1)">
			<defs>
				<mask id="mask0:0:2" style="mask-type:alpha">
					<path d="M0 0L20 0L20 20L0 20L0 0Z" fill-rule="nonzero" transform="matrix(1 0 0 1 0 0)" fill="rgb(0, 0, 0)"/>
				</mask>
			</defs>
			<g mask="url(#mask0:0:2)">
				<defs>
					<mask id="mask0:0:3" style="mask-type:alpha">
						<path d="M0 0L20 0L20 20L0 20L0 0Z" fill-rule="nonzero" transform="matrix(1 0 0 1 0 0)" fill="rgb(0, 0, 0)"/>
					</mask>
				</defs>
				<g mask="url(#mask0:0:3)">
					<defs>
						<mask id="mask0:0:4" style="mask-type:alpha">
							<path d="M0 0L20 0L20 20L0 20L0 0Z" fill-rule="nonzero" transform="matrix(1 0 0 1 0 0)" fill="rgb(0, 0, 0)"/>
						</mask>
					</defs>
					<g mask="url(#mask0:0:4)">
						<path d="M5.14812 0L11.8147 0C11.8695 0 11.9237 0.00533734 11.9773 0.016012C12.031 0.0266867 12.0831 0.042494 12.1336 0.063434C12.1842 0.0843734 12.2323 0.110043 12.2777 0.140442C12.3233 0.170841 12.3654 0.205386 12.404 0.244077C12.4427 0.282768 12.4772 0.324862 12.5076 0.370358C12.538 0.415854 12.5637 0.463878 12.5846 0.51443C12.6056 0.564983 12.6214 0.617092 12.6321 0.670758C12.6428 0.724424 12.6481 0.778616 12.6481 0.833333C12.6481 0.94384 12.627 1.05014 12.5846 1.15224C12.5424 1.25433 12.4822 1.34445 12.404 1.42259L11.8147 2.01184L11.8147 5.97666C11.8148 6.08704 11.836 6.19327 11.8782 6.29535C11.9206 6.39743 11.9808 6.48753 12.0589 6.56565L16.2257 10.7324C16.6033 11.11 16.8365 11.5549 16.9251 12.067C17.0073 12.5417 16.9547 13.005 16.7673 13.457C16.5799 13.909 16.2893 14.2736 15.8955 14.551C15.4707 14.8504 14.9912 15 14.4572 15L2.50478 15C1.97076 15 1.49134 14.8504 1.06653 14.551C0.672768 14.2736 0.382282 13.9088 0.195073 13.4567C0.00787057 13.0047 -0.0445946 12.5414 0.0376767 12.0668C0.126434 11.5548 0.359606 11.11 0.737192 10.7324L4.90386 6.56574C4.98206 6.48756 5.04232 6.39743 5.08463 6.29535C5.12693 6.19327 5.14809 6.08699 5.14812 5.97649L5.14812 2.01184L4.55886 1.42259C4.52016 1.3839 4.48562 1.3418 4.45523 1.29631C4.42483 1.25081 4.39916 1.20279 4.37822 1.15224C4.35728 1.10168 4.34147 1.04957 4.3308 0.995908C4.32012 0.942242 4.31478 0.88805 4.31478 0.833333C4.31478 0.778616 4.32012 0.724424 4.3308 0.670758C4.34147 0.617092 4.35728 0.564983 4.37822 0.51443C4.39916 0.463878 4.42483 0.415854 4.45523 0.370358C4.48562 0.324862 4.52016 0.282768 4.55886 0.244077C4.637 0.165937 4.72711 0.105722 4.82921 0.063433C4.93131 0.0211443 5.03761 0 5.14812 0ZM14.0832 10.9469C14.0251 10.8887 13.9587 10.8392 13.8861 10.8004C13.8136 10.7616 13.737 10.7341 13.6563 10.718L11.6673 10.3205C11.2129 10.2296 10.7562 10.215 10.297 10.2765C9.8378 10.338 9.40102 10.4723 8.98665 10.6795L8.71975 10.8121C8.14089 11.1016 7.53003 11.2894 6.88717 11.3754C6.24431 11.4616 5.60487 11.441 4.96887 11.3138L3.35977 10.9921C3.22325 10.9649 3.08834 10.9714 2.95504 11.0118C2.82174 11.0522 2.70584 11.1216 2.60736 11.2201C2.59987 11.2276 2.59228 11.2349 2.58459 11.242L1.91571 11.9109C1.78709 12.0395 1.70847 12.1864 1.67985 12.3515C1.65259 12.5088 1.67094 12.6646 1.73491 12.819C1.79886 12.9735 1.89607 13.0967 2.02652 13.1885C2.16348 13.2851 2.3229 13.3333 2.50478 13.3333L14.4572 13.3333C14.6392 13.3333 14.7987 13.2851 14.9357 13.1885C15.0663 13.0965 15.1636 12.9733 15.2276 12.8188C15.2917 12.6644 15.3101 12.5085 15.2828 12.3513C15.2543 12.1863 15.1757 12.0395 15.0471 11.9109L14.0832 10.9469ZM4.33846 9.48816L5.2957 9.67951C5.74999 9.77037 6.20673 9.78504 6.66592 9.72353C7.1251 9.66203 7.56251 9.52737 7.97815 9.31954L8.24126 9.18882C8.82138 8.89874 9.43287 8.71065 10.0757 8.62455C10.648 8.5479 11.2176 8.55576 11.7844 8.64813L10.8806 7.74434C10.6462 7.50998 10.4655 7.23968 10.3386 6.93344C10.2117 6.6272 10.1482 6.30828 10.1481 5.97666L10.1481 1.66667L6.81478 1.66667L6.81478 5.97684C6.81471 6.30834 6.75122 6.6272 6.62431 6.93344C6.49739 7.23968 6.31675 7.50995 6.08237 7.74425L4.33846 9.48816Z" fill-rule="evenodd" transform="matrix(1 0 0 1 1.51855 2.5)" fill="rgb(255, 255, 255)"/>
					</g>
				</g>
			</g>
		</g>
	</g>
</svg>
