
<svg mexport="1" xmlns="http://www.w3.org/2000/svg" xmlns:xlink="http://www.w3.org/1999/xlink" width="16" height="16" viewBox="0 0 16 16">
	<defs>
		<clipPath id="clipPath0:0:0">
			<path d="M0 0L16 0L16 16L0 16L0 0Z" fill-rule="nonzero" transform="matrix(1 0 0 1 0 0)"/>
		</clipPath>
	</defs>
	<g clip-path="url(#clipPath0:0:0)">
		<defs>
			<mask id="mask0:0:1" style="mask-type:alpha">
				<path d="M0 0L16 0L16 16L0 16L0 0Z" fill-rule="nonzero" transform="matrix(1 0 0 1 0 0)" fill="rgb(0, 0, 0)"/>
			</mask>
		</defs>
		<g mask="url(#mask0:0:1)">
			<defs>
				<mask id="mask0:0:2" style="mask-type:alpha">
					<path d="M0 0L16 0L16 16L0 16L0 0Z" fill-rule="nonzero" transform="matrix(1 0 0 1 0 0)" fill="rgb(0, 0, 0)"/>
				</mask>
			</defs>
			<g mask="url(#mask0:0:2)">
				<defs>
					<mask id="mask0:0:3" style="mask-type:alpha">
						<path d="M0 0L16 0L16 16L0 16L0 0Z" fill-rule="nonzero" transform="matrix(1 0 0 1 0 0)" fill="rgb(0, 0, 0)"/>
					</mask>
				</defs>
				<g mask="url(#mask0:0:3)">
					<defs>
						<mask id="mask0:0:4" style="mask-type:alpha">
							<path d="M0 0L16 0L16 16L0 16L0 0Z" fill-rule="nonzero" transform="matrix(1 0 0 1 0 0)" fill="rgb(0, 0, 0)"/>
						</mask>
					</defs>
					<g mask="url(#mask0:0:4)">
						<defs>
							<mask id="mask0:0:5" style="mask-type:alpha">
								<path d="M0 0L16 0L16 16L0 16L0 0Z" fill-rule="nonzero" transform="matrix(1 0 0 1 0 0)" fill="rgb(0, 0, 0)"/>
							</mask>
						</defs>
						<g mask="url(#mask0:0:5)">
							<defs>
								<mask id="mask0:0:6" style="mask-type:alpha">
									<path d="M0 0L16 0L16 16L0 16L0 0Z" fill-rule="nonzero" transform="matrix(1 0 0 1 0 0)" fill="rgb(0, 0, 0)"/>
								</mask>
							</defs>
							<g mask="url(#mask0:0:6)">
								<path d="M4.1185 0L9.45176 0C9.4956 0 9.53896 0.00426987 9.58184 0.0128096C9.6248 0.0213494 9.66648 0.0339952 9.70688 0.0507472C9.74736 0.0674987 9.78584 0.0880344 9.82216 0.112354C9.85864 0.136673 9.89232 0.164309 9.9232 0.195262C9.95416 0.226214 9.98176 0.25989 10.0061 0.296286C10.0304 0.332683 10.051 0.371102 10.0677 0.411544C10.0845 0.451986 10.0971 0.493674 10.1057 0.536606C10.1142 0.579539 10.1185 0.622893 10.1185 0.666666C10.1185 0.755072 10.1016 0.840112 10.0677 0.921792C10.0339 1.00346 9.98576 1.07556 9.9232 1.13807L9.45176 1.60947L9.45176 4.78133C9.45184 4.86963 9.4688 4.95462 9.50256 5.03628C9.53648 5.11794 9.58464 5.19002 9.64712 5.25252L12.9806 8.58592C13.2826 8.888 13.4692 9.24392 13.5401 9.6536C13.6058 10.0334 13.5638 10.404 13.4138 10.7656C13.2639 11.1272 13.0314 11.4189 12.7164 11.6408C12.3766 11.8803 11.993 12 11.5658 12L2.00382 12C1.57661 12 1.19307 11.8803 0.853224 11.6408C0.538214 11.4189 0.305826 11.127 0.156058 10.7654C0.00629649 10.4038 -0.0356757 10.0331 0.0301413 9.65344C0.101147 9.24384 0.287685 8.888 0.589754 8.58592L3.92309 5.25259C3.98565 5.19005 4.03386 5.11794 4.0677 5.03628C4.10154 4.95462 4.11847 4.86959 4.1185 4.78119L4.1185 1.60947L3.64709 1.13807C3.61613 1.10712 3.5885 1.07344 3.56418 1.03705C3.53986 1.00065 3.51933 0.962232 3.50258 0.921792C3.48582 0.881344 3.47318 0.839656 3.46464 0.796726C3.4561 0.753794 3.45182 0.71044 3.45182 0.666666C3.45182 0.622893 3.4561 0.579539 3.46464 0.536606C3.47318 0.493674 3.48582 0.451986 3.50258 0.411544C3.51933 0.371102 3.53986 0.332683 3.56418 0.296286C3.5885 0.25989 3.61613 0.226214 3.64709 0.195262C3.7096 0.13275 3.78169 0.0845776 3.86337 0.0507464C3.94505 0.0169154 4.03009 0 4.1185 0ZM11.2666 8.75752C11.2201 8.71096 11.167 8.67136 11.1089 8.64032C11.0509 8.60928 10.9896 8.58728 10.925 8.5744L9.33384 8.2564C8.97032 8.18368 8.60496 8.172 8.2376 8.2212C7.87024 8.2704 7.52082 8.37784 7.18932 8.5436L6.9758 8.64968C6.51271 8.88128 6.02402 9.03152 5.50974 9.10032C4.99545 9.16928 4.4839 9.1528 3.9751 9.05104L2.68782 8.79368C2.5786 8.77192 2.47067 8.77712 2.36403 8.80944C2.25739 8.84176 2.16467 8.89728 2.08589 8.97608L2.06767 8.9936L1.53257 9.52872C1.42967 9.6316 1.36678 9.74912 1.34388 9.8812C1.32207 10.007 1.33675 10.1317 1.38793 10.2552C1.43909 10.3788 1.51686 10.4774 1.62122 10.5508C1.73078 10.6281 1.85832 10.6666 2.00382 10.6666L11.5658 10.6666C11.7114 10.6666 11.839 10.6281 11.9486 10.5508C12.053 10.4772 12.1309 10.3786 12.1821 10.255C12.2334 10.1315 12.2481 10.0068 12.2262 9.88104C12.2034 9.74904 12.1406 9.6316 12.0377 9.52872L11.2666 8.75752ZM3.47077 7.59053L4.23656 7.74361C4.59999 7.8163 4.96538 7.82803 5.33274 7.77882C5.70008 7.72962 6.05001 7.6219 6.38252 7.45563L6.59301 7.35106C7.0571 7.11899 7.5463 6.96852 8.06056 6.89964C8.5184 6.83832 8.97408 6.84461 9.42752 6.9185L8.70448 6.19547C8.51696 6.00798 8.3724 5.79174 8.27088 5.54675C8.16936 5.30176 8.11856 5.04662 8.11848 4.78133L8.11848 1.33334L5.45182 1.33334L5.45182 4.78147C5.45177 5.04667 5.40098 5.30176 5.29945 5.54675C5.19791 5.79174 5.0534 6.00796 4.8659 6.1954L3.47077 7.59053Z" fill-rule="evenodd" transform="matrix(1 0 0 1 1.21484 2)" fill="rgb(255, 255, 255)"/>
							</g>
						</g>
					</g>
				</g>
			</g>
		</g>
	</g>
</svg>
