
<svg mexport="1" xmlns="http://www.w3.org/2000/svg" xmlns:xlink="http://www.w3.org/1999/xlink" width="14" height="16.3281" viewBox="0 0 14 16.3281">
	<defs>
		<clipPath id="clipPath0:0:0">
			<path d="M0 0L14 0L14 16.328L0 16.328L0 0Z" fill-rule="nonzero" transform="matrix(1 0 0 1 0 8.31485e-05)"/>
		</clipPath>
	</defs>
	<g clip-path="url(#clipPath0:0:0)">
		<defs>
			<mask id="mask0:0:1" style="mask-type:alpha">
				<path d="M0 0L13.9999 0L13.9999 16.3124L0 16.3124L0 0Z" fill-rule="nonzero" transform="matrix(1 0 0 1 -0.000193941 0.0234491)" fill="rgb(0, 0, 0)"/>
			</mask>
		</defs>
		<g mask="url(#mask0:0:1)">
			<defs>
				<mask id="mask0:0:2" style="mask-type:alpha">
					<path d="M0 0L13.9819 0L13.9819 16.3122L0 16.3122L0 0Z" fill-rule="nonzero" transform="matrix(1 0 0 1 0.0268061 0.0393516)" fill="rgb(0, 0, 0)"/>
				</mask>
			</defs>
			<g mask="url(#mask0:0:2)">
				<defs>
					<mask id="mask0:0:3" style="mask-type:alpha">
						<path d="M0 0L13.9819 0L13.9819 13.9819L0 13.9819L0 0Z" fill-rule="nonzero" transform="matrix(1 0 0 1 0.0448062 0.0549289)" fill="rgb(0, 0, 0)"/>
					</mask>
				</defs>
				<g mask="url(#mask0:0:3)">
					<path d="M3.59902 0L8.25964 0C8.2979 0 8.3358 0.00373117 8.37331 0.0111936C8.41082 0.0186566 8.44725 0.0297072 8.48259 0.0443456C8.51793 0.0589847 8.55151 0.0769301 8.58331 0.0981819C8.61513 0.119433 8.64455 0.143584 8.67159 0.170633C8.69865 0.197682 8.7228 0.227109 8.74404 0.258915C8.7653 0.29072 8.78324 0.324294 8.79788 0.359635C8.81252 0.394977 8.82358 0.431405 8.83103 0.468923C8.83851 0.50644 8.84223 0.544326 8.84223 0.582578C8.84223 0.659834 8.82746 0.734148 8.79788 0.805522C8.76832 0.876897 8.72623 0.939897 8.67159 0.994524L8.25964 1.40647L8.25964 4.17825C8.25966 4.25542 8.27447 4.32968 8.30404 4.40105C8.33362 4.47242 8.37571 4.53539 8.43035 4.59001L11.3433 7.50296C11.6073 7.76698 11.7703 8.07798 11.8323 8.436C11.8897 8.76782 11.853 9.09173 11.7219 9.40773C11.591 9.7237 11.3879 9.97865 11.1125 10.1726C10.8155 10.3818 10.4803 10.4864 10.107 10.4864L1.75107 10.4864C1.37774 10.4864 1.04259 10.3817 0.745606 10.1725C0.470329 9.97856 0.267252 9.72357 0.136376 9.40757C0.00550254 9.09157 -0.031176 8.76767 0.0263395 8.43586C0.0883892 8.0779 0.251398 7.76695 0.515368 7.50296L3.42826 4.59008C3.48293 4.53542 3.52505 4.47241 3.55463 4.40104C3.58421 4.32968 3.599 4.25538 3.59902 4.17813L3.59902 1.40647L3.18707 0.994524C3.16002 0.967475 3.13587 0.938049 3.11461 0.906243C3.09337 0.874438 3.07542 0.840864 3.06078 0.805522C3.04614 0.770181 3.0351 0.733752 3.02763 0.696235C3.02017 0.658717 3.01643 0.620831 3.01643 0.582578C3.01643 0.544326 3.02017 0.50644 3.02763 0.468923C3.0351 0.431405 3.04614 0.394977 3.06078 0.359635C3.07542 0.324294 3.09337 0.29072 3.11461 0.258915C3.13587 0.227109 3.16002 0.197682 3.18707 0.170633C3.2417 0.116006 3.30471 0.07391 3.37607 0.0443456C3.44745 0.0147819 3.52176 0 3.59902 0ZM9.84529 7.65273C9.80463 7.61206 9.75842 7.57765 9.70771 7.5505C9.65702 7.52337 9.60347 7.50416 9.54707 7.49288L8.15656 7.21501C7.83891 7.15149 7.51959 7.14122 7.19856 7.18422C6.87755 7.22722 6.5722 7.32114 6.28252 7.46599L6.09593 7.5587C5.69125 7.76105 5.26421 7.89232 4.81478 7.95251C4.36537 8.01271 3.91834 7.99836 3.4737 7.90944L2.34879 7.68456C2.25335 7.66549 2.15905 7.67008 2.06584 7.6983C1.97267 7.72652 1.89164 7.77506 1.82279 7.84391L1.80687 7.85924L1.33926 8.32686C1.24934 8.41678 1.19438 8.51945 1.17438 8.63486C1.15532 8.74481 1.16815 8.85377 1.21286 8.96174C1.25758 9.0697 1.32553 9.1558 1.41673 9.22006C1.51247 9.28754 1.62393 9.32126 1.75107 9.32126L10.107 9.32126C10.2342 9.32126 10.3457 9.28752 10.4415 9.22002C10.5328 9.15572 10.6008 9.06958 10.6457 8.96156C10.6903 8.8536 10.7033 8.74465 10.6842 8.63474C10.6642 8.51935 10.6093 8.41674 10.5193 8.32686L9.84529 7.65273ZM3.03299 6.63312L3.7022 6.7669C4.01979 6.83042 4.33909 6.84068 4.66011 6.79767C4.98112 6.75467 5.28691 6.66054 5.57748 6.51525L5.76141 6.42386C6.16698 6.22106 6.59447 6.08958 7.04389 6.02937C7.44399 5.97579 7.84217 5.98128 8.23842 6.04586L7.60659 5.41403C7.4427 5.25018 7.31638 5.06122 7.22765 4.84712C7.13893 4.63304 7.09454 4.41009 7.0945 4.17825L7.0945 1.16516L4.76417 1.16516L4.76417 4.17838C4.76413 4.41012 4.71974 4.63304 4.63101 4.84713C4.54228 5.06122 4.41601 5.25016 4.25216 5.41397L3.03299 6.63312Z" fill-rule="evenodd" transform="matrix(1 0 0 1 1.10642 1.80266)" fill="rgb(255, 255, 255)"/>
				</g>
			</g>
		</g>
	</g>
</svg>
