
<svg mexport="1" xmlns="http://www.w3.org/2000/svg" xmlns:xlink="http://www.w3.org/1999/xlink" width="13.7318" height="16" viewBox="0 0 13.7318 16">
	<defs>
		<clipPath id="clipPath0:0:0">
			<path d="M0 0L13.7318 0L13.7318 16L0 16L0 0Z" fill-rule="nonzero" transform="matrix(1 0 0 1 -7.12182e-06 0)"/>
		</clipPath>
	</defs>
	<g clip-path="url(#clipPath0:0:0)">
		<defs>
			<mask id="mask0:0:1" style="mask-type:alpha">
				<path d="M0 0L13.7141 0L13.7141 15.9998L0 15.9998L0 0Z" fill-rule="nonzero" transform="matrix(1 0 0 1 0.0264759 0.000318914)" fill="rgb(0, 0, 0)"/>
			</mask>
		</defs>
		<g mask="url(#mask0:0:1)">
			<defs>
				<mask id="mask0:0:2" style="mask-type:alpha">
					<path d="M0 0L13.7141 0L13.7141 13.7141L0 13.7141L0 0Z" fill-rule="nonzero" transform="matrix(1 0 0 1 0.0441313 0.000318914)" fill="rgb(0, 0, 0)"/>
				</mask>
			</defs>
			<g mask="url(#mask0:0:2)">
				<path d="M3.5301 0L8.10147 0C8.139 0 8.17617 0.00365972 8.21296 0.0109792C8.24975 0.0182993 8.28549 0.0291383 8.32015 0.0434964C8.35481 0.0578551 8.38775 0.0754569 8.41894 0.0963017C8.45015 0.117146 8.47901 0.140834 8.50553 0.167365C8.53207 0.193896 8.55576 0.22276 8.57659 0.253957C8.59744 0.285153 8.61504 0.318084 8.6294 0.352748C8.64376 0.387413 8.65461 0.423144 8.66192 0.459943C8.66925 0.496742 8.6729 0.533902 8.6729 0.571422C8.6729 0.647198 8.65841 0.720089 8.6294 0.790096C8.60041 0.860104 8.55912 0.921898 8.50553 0.975479L8.10147 1.37954L8.10147 4.09824C8.10149 4.17393 8.11601 4.24677 8.14502 4.31677C8.17403 4.38677 8.21532 4.44854 8.26891 4.50211L11.1261 7.35928C11.385 7.61824 11.5449 7.92329 11.6057 8.27445C11.662 8.59992 11.626 8.91762 11.4974 9.22757C11.369 9.53749 11.1698 9.78756 10.8997 9.97782C10.6084 10.183 10.2796 10.2856 9.91347 10.2856L1.71754 10.2856C1.35136 10.2856 1.02262 10.1829 0.731328 9.97773C0.461322 9.78747 0.262134 9.53736 0.133764 9.22741C0.00539716 8.91747 -0.030579 8.59977 0.0258351 8.27431C0.0866965 7.92321 0.246584 7.61821 0.505499 7.35928L3.36261 4.50218C3.41623 4.44857 3.45755 4.38676 3.48656 4.31676C3.51557 4.24677 3.53008 4.17389 3.5301 4.09812L3.5301 1.37954L3.12604 0.975479C3.09951 0.948948 3.07582 0.920085 3.05497 0.888888C3.03413 0.857692 3.01653 0.824761 3.00217 0.790096C2.98781 0.755432 2.97698 0.719701 2.96965 0.682902C2.96233 0.646103 2.95867 0.608942 2.95867 0.571422C2.95867 0.533902 2.96233 0.496742 2.96965 0.459943C2.97698 0.423144 2.98781 0.387413 3.00217 0.352748C3.01653 0.318084 3.03413 0.285153 3.05497 0.253957C3.07582 0.22276 3.09951 0.193896 3.12604 0.167365C3.17962 0.113784 3.24142 0.0724946 3.31142 0.0434964C3.38143 0.0144988 3.45432 0 3.5301 0ZM9.65675 7.50618C9.61687 7.46629 9.57155 7.43254 9.52181 7.40591C9.47209 7.3793 9.41956 7.36046 9.36424 7.34939L8.00036 7.07684C7.6888 7.01454 7.37559 7.00447 7.06071 7.04664C6.74585 7.08882 6.44634 7.18094 6.16221 7.32302L5.97919 7.41395C5.58226 7.61243 5.1634 7.74118 4.72258 7.80022C4.28177 7.85927 3.8433 7.84519 3.40718 7.75797L2.30381 7.5374C2.2102 7.5187 2.1177 7.5232 2.02628 7.55088C1.93489 7.57856 1.85542 7.62617 1.78788 7.6937L1.77227 7.70874L1.31361 8.1674C1.22542 8.2556 1.17151 8.3563 1.15189 8.4695C1.1332 8.57735 1.14578 8.68422 1.18963 8.79012C1.2335 8.89601 1.30015 8.98047 1.3896 9.0435C1.48351 9.10968 1.59283 9.14276 1.71754 9.14276L9.91347 9.14276C10.0382 9.14276 10.1476 9.10966 10.2415 9.04346C10.3311 8.98039 10.3978 8.8959 10.4418 8.78995C10.4856 8.68405 10.4983 8.57719 10.4796 8.46938C10.46 8.35621 10.4061 8.25556 10.3179 8.1674L9.65675 7.50618ZM2.97491 6.5061L3.6313 6.63731C3.94281 6.69962 4.256 6.70968 4.57087 6.66749C4.88573 6.62532 5.18567 6.53299 5.47067 6.39048L5.65108 6.30084C6.04888 6.10193 6.46819 5.97296 6.909 5.91391C7.30144 5.86135 7.69199 5.86674 8.08065 5.93008L7.46092 5.31035C7.30017 5.14964 7.17627 4.9643 7.08924 4.7543C7.00222 4.54432 6.95868 4.32564 6.95864 4.09824L6.95864 1.14285L4.67294 1.14285L4.67294 4.09836C4.6729 4.32567 4.62936 4.54432 4.54233 4.75431C4.4553 4.9643 4.33144 5.14962 4.17073 5.31029L2.97491 6.5061Z" fill-rule="evenodd" transform="matrix(1 0 0 1 1.08542 1.71458)" fill="rgb(255, 255, 255)"/>
			</g>
		</g>
	</g>
</svg>
