
<svg mexport="1" xmlns="http://www.w3.org/2000/svg" xmlns:xlink="http://www.w3.org/1999/xlink" width="24" height="24" viewBox="0 0 24 24">
	<defs>
		<clipPath id="clipPath0:0:0">
			<path d="M0 0L24 0L24 24L0 24L0 0Z" fill-rule="nonzero" transform="matrix(1 0 0 1 0 0)"/>
		</clipPath>
	</defs>
	<g clip-path="url(#clipPath0:0:0)">
		<defs>
			<mask id="mask0:0:1" style="mask-type:alpha">
				<path d="M0 0L24 0L24 24L0 24L0 0Z" fill-rule="nonzero" transform="matrix(1 0 0 1 0 0)" fill="rgb(0, 0, 0)"/>
			</mask>
		</defs>
		<g mask="url(#mask0:0:1)">
			<defs>
				<mask id="mask0:0:2" style="mask-type:alpha">
					<path d="M0 0L24 0L24 24L0 24L0 0Z" fill-rule="nonzero" transform="matrix(1 0 0 1 0 0)" fill="rgb(0, 0, 0)"/>
				</mask>
			</defs>
			<g mask="url(#mask0:0:2)">
				<defs>
					<mask id="mask0:0:3" style="mask-type:alpha">
						<path d="M0 0L24 0L24 24L0 24L0 0Z" fill-rule="nonzero" transform="matrix(1 0 0 1 0 0)" fill="rgb(0, 0, 0)"/>
					</mask>
				</defs>
				<g mask="url(#mask0:0:3)">
					<path d="M8 14C8.81424 14 9.59263 13.843 10.3352 13.5289C11.0529 13.2254 11.6887 12.7966 12.2426 12.2426C12.7966 11.6887 13.2254 11.0529 13.5289 10.3352C13.843 9.59263 14 8.81424 14 8C14 7.18576 13.843 6.40737 13.5289 5.66484C13.2254 4.94713 12.7966 4.3113 12.2426 3.75736C11.6887 3.20342 11.0529 2.77467 10.3352 2.4711C9.59264 2.15703 8.81425 2 8 2C7.18576 2 6.40737 2.15703 5.66484 2.4711C4.94713 2.77467 4.3113 3.20342 3.75736 3.75736C3.20342 4.3113 2.77467 4.94713 2.4711 5.66484C2.15703 6.40737 2 7.18576 2 8C2 8.81424 2.15703 9.59263 2.4711 10.3352C2.77467 11.0529 3.20342 11.6887 3.75736 12.2426C4.3113 12.7966 4.94713 13.2254 5.66484 13.5289C6.40737 13.843 7.18576 14 8 14ZM8 16C6.91538 16 5.87729 15.7903 4.88573 15.3709C3.9285 14.966 3.08098 14.3947 2.34315 13.6569C1.60532 12.919 1.03396 12.0715 0.629091 11.1143C0.209697 10.1227 0 9.08462 0 8C0 6.91538 0.209697 5.87729 0.629091 4.88573C1.03396 3.9285 1.60532 3.08098 2.34315 2.34315C3.08098 1.60532 3.9285 1.03396 4.88573 0.629091C5.87729 0.209697 6.91538 0 8 0C9.08463 0 10.1227 0.209697 11.1143 0.62909C12.0715 1.03396 12.919 1.60532 13.6569 2.34315C14.3947 3.08098 14.966 3.9285 15.3709 4.88573C15.7903 5.87729 16 6.91538 16 8C16 9.08462 15.7903 10.1227 15.3709 11.1143C14.966 12.0715 14.3947 12.919 13.6569 13.6569C12.919 14.3947 12.0715 14.966 11.1143 15.3709C10.1227 15.7903 9.08462 16 8 16Z" fill-rule="nonzero" transform="matrix(1 0 0 1 4 0)" fill="rgb(255, 255, 255)"/>
					<path d="M9.65863 0.00880134C9.11114 0.0814383 8.7262 0.584154 8.79884 1.13164L9.73603 8.19545L6.51465 6.26262C6.43694 6.216 6.35441 6.18059 6.26708 6.1564C6.17975 6.13221 6.09077 6.12011 6.00015 6.12011C5.90953 6.12011 5.82055 6.13221 5.73322 6.1564C5.64589 6.18059 5.56336 6.216 5.48565 6.26262L2.26459 8.19525L3.20144 1.14178C3.27416 0.594307 2.88929 0.0915363 2.34181 0.0188203C1.79434 -0.0538957 1.29157 0.330977 1.21885 0.87845L0.00885422 9.98844C-0.00860311 10.1199 -0.000245765 10.2497 0.0339262 10.3778C0.0681003 10.506 0.12549 10.6227 0.206096 10.728C0.286702 10.8333 0.384388 10.9191 0.499154 10.9856C0.61392 11.052 0.73703 11.0939 0.868483 11.1114C0.980645 11.1263 1.09212 11.1222 1.20292 11.0993C1.31371 11.0764 1.41762 11.0358 1.51464 10.9776L6.00015 8.2863L10.4857 10.9776C10.542 11.0114 10.601 11.0394 10.6628 11.0615C10.7246 11.0836 10.788 11.0995 10.853 11.1092C10.9179 11.1189 10.9832 11.1221 11.0487 11.1189C11.1143 11.1157 11.179 11.1061 11.2427 11.0902C11.3064 11.0743 11.3679 11.0524 11.4272 11.0243C11.4866 10.9963 11.5427 10.9627 11.5954 10.9236C11.6482 10.8845 11.6967 10.8406 11.7407 10.792C11.7849 10.7434 11.8238 10.6909 11.8576 10.6346C11.9158 10.5376 11.9564 10.4337 11.9794 10.323C12.0023 10.2122 12.0063 10.1007 11.9914 9.98859L10.7815 0.868591C10.7088 0.321109 10.2061 -0.0638356 9.65863 0.00880134Z" fill-rule="evenodd" transform="matrix(1 0 0 1 5.99985 12.8799)" fill="rgb(255, 255, 255)"/>
				</g>
			</g>
		</g>
	</g>
</svg>
