
<svg mexport="1" xmlns="http://www.w3.org/2000/svg" xmlns:xlink="http://www.w3.org/1999/xlink" width="20" height="20" viewBox="0 0 20 20">
	<defs>
		<clipPath id="clipPath0:0:0">
			<path d="M0 0L20 0L20 20L0 20L0 0Z" fill-rule="nonzero" transform="matrix(1 0 0 1 0 0)"/>
		</clipPath>
	</defs>
	<g clip-path="url(#clipPath0:0:0)">
		<defs>
			<mask id="mask0:0:1" style="mask-type:alpha">
				<path d="M0 0L20 0L20 20L0 20L0 0Z" fill-rule="nonzero" transform="matrix(1 0 0 1 0 0)" fill="rgb(0, 0, 0)"/>
			</mask>
		</defs>
		<g mask="url(#mask0:0:1)">
			<defs>
				<mask id="mask0:0:2" style="mask-type:alpha">
					<path d="M0 0L20 0L20 20L0 20L0 0Z" fill-rule="nonzero" transform="matrix(1 0 0 1 0 0)" fill="rgb(0, 0, 0)"/>
				</mask>
			</defs>
			<g mask="url(#mask0:0:2)">
				<defs>
					<mask id="mask0:0:3" style="mask-type:alpha">
						<path d="M0 0L20 0L20 20L0 20L0 0Z" fill-rule="nonzero" transform="matrix(1 0 0 1 0 0)" fill="rgb(0, 0, 0)"/>
					</mask>
				</defs>
				<g mask="url(#mask0:0:3)">
					<defs>
						<mask id="mask0:0:4" style="mask-type:alpha">
							<path d="M0 0L20 0L20 20L0 20L0 0Z" fill-rule="nonzero" transform="matrix(1 0 0 1 0 0)" fill="rgb(0, 0, 0)"/>
						</mask>
					</defs>
					<g mask="url(#mask0:0:4)">
						<path d="M2.5 13.3333C1.80964 13.3333 1.22039 13.0893 0.732234 12.6011C0.244078 12.1129 0 11.5237 0 10.8333L0 3.34459L0 3.32053L0 2.5C0 1.80964 0.244077 1.22039 0.732232 0.732233C1.22039 0.244078 1.80964 0 2.5 0L14.1666 0C14.857 0 15.4463 0.244077 15.9344 0.732231C16.4226 1.22039 16.6666 1.80964 16.6666 2.5L16.6666 3.32051L16.6666 3.34461L16.6666 10.8333C16.6666 11.5237 16.4226 12.1129 15.9344 12.6011C15.4463 13.0893 14.857 13.3333 14.1666 13.3333L2.5 13.3333ZM15 2.88734L15 2.5C15 2.26988 14.9187 2.07346 14.7559 1.91074C14.5932 1.74803 14.3968 1.66667 14.1666 1.66667L2.5 1.66667C2.26988 1.66667 2.07346 1.74803 1.91074 1.91074C1.74803 2.07346 1.66667 2.26988 1.66667 2.5L1.66667 2.88734L7.87058 7.02329C8.01076 7.11682 8.16501 7.16358 8.33333 7.16358C8.50165 7.16358 8.65582 7.11687 8.79583 7.02345L15 2.88734ZM1.66667 4.89043L6.94608 8.41004C7.36596 8.69018 7.82838 8.83025 8.33333 8.83025C8.83829 8.83025 9.30079 8.69013 9.72083 8.40987L15 4.89043L15 10.8333C15 11.0635 14.9187 11.2599 14.7559 11.4226C14.5932 11.5853 14.3968 11.6666 14.1666 11.6666L2.5 11.6666C2.26988 11.6666 2.07346 11.5853 1.91074 11.4226C1.74803 11.2599 1.66667 11.0635 1.66667 10.8333L1.66667 4.89043Z" fill-rule="evenodd" transform="matrix(1 0 0 1 1.66667 3.33334)" fill="rgb(59, 130, 246)"/>
					</g>
				</g>
			</g>
		</g>
	</g>
</svg>
