
<svg mexport="1" xmlns="http://www.w3.org/2000/svg" xmlns:xlink="http://www.w3.org/1999/xlink" width="24" height="24" viewBox="0 0 24 24">
	<defs>
		<clipPath id="clipPath0:0:0">
			<path d="M0 0L24 0L24 24L0 24L0 0Z" fill-rule="nonzero" transform="matrix(1 0 0 1 0 0)"/>
		</clipPath>
	</defs>
	<g clip-path="url(#clipPath0:0:0)">
		<defs>
			<mask id="mask0:0:1" style="mask-type:alpha">
				<path d="M0 0L24 0L24 24L0 24L0 0Z" fill-rule="nonzero" transform="matrix(1 0 0 1 0 0)" fill="rgb(0, 0, 0)"/>
			</mask>
		</defs>
		<g mask="url(#mask0:0:1)">
			<defs>
				<mask id="mask0:0:2" style="mask-type:alpha">
					<path d="M0 0L24 0L24 24L0 24L0 0Z" fill-rule="nonzero" transform="matrix(1 0 0 1 0 0)" fill="rgb(0, 0, 0)"/>
				</mask>
			</defs>
			<g mask="url(#mask0:0:2)">
				<path d="M1 0C0.44772 0 0 0.44772 0 1L0 9C0 9.55228 0.44772 10 1 10C1.55228 10 2 9.55228 2 9L2 1C2 0.44772 1.55228 0 1 0Z" fill-rule="evenodd" transform="matrix(1 0 0 1 11 7)" fill="rgb(59, 130, 246)"/>
				<path d="M0 1C0 1.55228 0.44772 2 1 2L9 2C9.55228 2 10 1.55228 10 1C10 0.44772 9.55228 0 9 0L1 0C0.44772 0 0 0.44772 0 1Z" fill-rule="evenodd" transform="matrix(1 0 0 1 7 11)" fill="rgb(59, 130, 246)"/>
				<path d="M8 20L14 20C15.1649 20 16.1374 19.8837 16.9173 19.6511C17.6463 19.4337 18.2298 19.106 18.6679 18.6679C19.106 18.2298 19.4337 17.6463 19.6511 16.9173C19.8837 16.1374 20 15.1649 20 14L20 8C20 6.83505 19.8837 5.86261 19.6511 5.08268C19.4337 4.35367 19.106 3.77014 18.6679 3.33211C18.2298 2.89407 17.6463 2.56634 16.9173 2.34891C16.1374 2.1163 15.1649 2 14 2L8 2C6.83504 2 5.8626 2.1163 5.08268 2.34891C4.35367 2.56634 3.77014 2.89407 3.33211 3.33211C2.89407 3.77014 2.56634 4.35367 2.34891 5.08268C2.1163 5.8626 2 6.83504 2 8L2 14C2 15.1649 2.1163 16.1374 2.34891 16.9173C2.56634 17.6463 2.89407 18.2298 3.33211 18.6679C3.77014 19.106 4.35367 19.4337 5.08268 19.6511C5.86261 19.8837 6.83505 20 8 20ZM8 22C6.64045 22 5.47747 21.8559 4.51107 21.5677C3.45883 21.2538 2.59444 20.7586 1.91789 20.0821C1.24135 19.4056 0.746163 18.5412 0.432337 17.4889C0.144112 16.5225 0 15.3595 0 14L0 8C0 6.64045 0.144112 5.47747 0.432337 4.51107C0.746163 3.45883 1.24135 2.59444 1.91789 1.91789C2.59444 1.24135 3.45883 0.746163 4.51107 0.432337C5.47747 0.144112 6.64045 0 8 0L14 0C15.3595 0 16.5225 0.144112 17.4889 0.432337C18.5412 0.746163 19.4056 1.24135 20.0821 1.91789C20.7586 2.59444 21.2538 3.45883 21.5677 4.51107C21.8559 5.47747 22 6.64045 22 8L22 14C22 15.3595 21.8559 16.5225 21.5677 17.4889C21.2538 18.5412 20.7586 19.4056 20.0821 20.0821C19.4056 20.7586 18.5412 21.2538 17.4889 21.5677C16.5225 21.8559 15.3595 22 14 22L8 22Z" fill-rule="nonzero" transform="matrix(1 0 0 1 1 1)" fill="rgb(59, 130, 246)"/>
			</g>
		</g>
	</g>
</svg>
