
<svg mexport="1" xmlns="http://www.w3.org/2000/svg" xmlns:xlink="http://www.w3.org/1999/xlink" width="20" height="20" viewBox="0 0 20 20">
	<defs>
		<clipPath id="clipPath0:0:0">
			<path d="M0 0L20 0L20 20L0 20L0 0Z" fill-rule="nonzero" transform="matrix(1 0 0 1 0 0)"/>
		</clipPath>
	</defs>
	<g clip-path="url(#clipPath0:0:0)">
		<path d="M-0.662913 -0.662913C-1.02903 -0.296799 -1.02903 0.296799 -0.662913 0.662913L4.29918 5.625L-0.662913 10.5871C-1.02903 10.9532 -1.02903 11.5468 -0.662913 11.9129C-0.296799 12.279 0.296799 12.279 0.662913 11.9129L6.28791 6.28791Q6.41977 6.15605 6.49114 5.98377Q6.5625 5.81148 6.5625 5.625Q6.5625 5.43852 6.49114 5.26623Q6.41977 5.09395 6.28791 4.96209L0.662913 -0.662913C0.296799 -1.02903 -0.296799 -1.02903 -0.662913 -0.662913Z" fill-rule="evenodd" transform="matrix(1 0 0 1 7.1875 4.375)" fill="rgb(96, 165, 250)"/>
	</g>
</svg>
