
<svg mexport="1" xmlns="http://www.w3.org/2000/svg" xmlns:xlink="http://www.w3.org/1999/xlink" width="16" height="16" viewBox="0 0 16 16">
	<defs>
		<clipPath id="clipPath0:0:0">
			<path d="M0 0L16 0L16 16L0 16L0 0Z" fill-rule="nonzero" transform="matrix(1 0 0 1 0 0)"/>
		</clipPath>
	</defs>
	<g clip-path="url(#clipPath0:0:0)">
		<path d="M3.65333 5.26667C2.14 4.87333 1.65333 4.46667 1.65333 3.83333C1.65333 3.10667 2.32667 2.6 3.45333 2.6C4.64 2.6 5.08 3.16667 5.12 4L6.59333 4C6.54667 2.85333 5.84667 1.8 4.45333 1.46L4.45333 0L2.45333 0L2.45333 1.44C1.16 1.72 0.12 2.56 0.12 3.84667C0.12 5.38667 1.39333 6.15333 3.25333 6.6C4.92 7 5.25333 7.58667 5.25333 8.20667C5.25333 8.66667 4.92667 9.4 3.45333 9.4C2.08 9.4 1.54 8.78667 1.46667 8L0 8C0.0799999 9.46 1.17333 10.28 2.45333 10.5533L2.45333 12L4.45333 12L4.45333 10.5667C5.75333 10.32 6.78667 9.56667 6.78667 8.2C6.78667 6.30667 5.16667 5.66 3.65333 5.26667Z" fill-rule="nonzero" transform="matrix(1 0 0 1 4.21333 2)" fill="rgb(255, 255, 255)"/>
	</g>
</svg>
