
<svg mexport="1" xmlns="http://www.w3.org/2000/svg" xmlns:xlink="http://www.w3.org/1999/xlink" width="24" height="24" viewBox="0 0 24 24">
	<defs>
		<clipPath id="clipPath0:0:0">
			<path d="M0 0L24 0L24 24L0 24L0 0Z" fill-rule="nonzero" transform="matrix(1 0 0 1 0 0)"/>
		</clipPath>
	</defs>
	<g clip-path="url(#clipPath0:0:0)">
		<path d="M11.25 0.75L2.25 0.75Q1.62868 0.75 1.18934 1.18934Q0.75 1.62868 0.75 2.25L0.75 19.5L0 19.5L-0.498273 18.9394L6.25173 12.9394Q6.30278 12.8941 6.3612 12.8586Q6.41961 12.8232 6.48346 12.799Q6.54732 12.7747 6.6145 12.7623Q6.68169 12.75 6.75 12.75Q6.81831 12.75 6.8855 12.7623Q6.95268 12.7747 7.01654 12.799Q7.08039 12.8232 7.1388 12.8586Q7.19722 12.8941 7.24827 12.9394L13.9983 18.9394L13.5 19.5L12.75 19.5L12.75 2.25Q12.75 1.62868 12.3107 1.18934Q11.8713 0.75 11.25 0.75ZM11.25 -0.75Q12.4926 -0.75 13.3713 0.12868Q14.25 1.00736 14.25 2.25L14.25 19.5Q14.25 19.6378 14.201 19.7665Q14.1521 19.8953 14.0606 19.9983Q14.0115 20.0535 13.9526 20.0981Q13.8937 20.1426 13.8272 20.1749Q13.7607 20.2071 13.6893 20.2257Q13.6178 20.2444 13.544 20.2487Q13.4703 20.253 13.3971 20.2429Q13.324 20.2328 13.2542 20.2086Q13.1844 20.1844 13.1207 20.147Q13.0569 20.1096 13.0017 20.0606L6.25173 14.0606L6.75 13.5L7.24827 14.0606L0.498273 20.0606Q0.395307 20.1521 0.266535 20.201Q0.137764 20.25 0 20.25Q-0.0738685 20.25 -0.146318 20.2356Q-0.218767 20.2212 -0.287013 20.1929Q-0.355258 20.1646 -0.416678 20.1236Q-0.478097 20.0826 -0.53033 20.0303Q-0.582563 19.9781 -0.623602 19.9167Q-0.664641 19.8553 -0.69291 19.787Q-0.721178 19.7188 -0.735589 19.6463Q-0.75 19.5739 -0.75 19.5L-0.75 2.25Q-0.75 1.00736 0.128679 0.12868Q1.00736 -0.75 2.25 -0.75L11.25 -0.75Z" fill-rule="nonzero" transform="matrix(1 0 0 1 5.25 2.25)" fill="rgb(255, 255, 255)"/>
	</g>
</svg>
