
<svg mexport="1" xmlns="http://www.w3.org/2000/svg" xmlns:xlink="http://www.w3.org/1999/xlink" width="16" height="16" viewBox="0 0 16 16">
	<defs>
		<clipPath id="clipPath0:0:0">
			<path d="M0 0L16 0L16 16L0 16L0 0Z" fill-rule="nonzero" transform="matrix(1 0 0 1 0 0)"/>
		</clipPath>
	</defs>
	<g clip-path="url(#clipPath0:0:0)">
		<path d="M6.66667 0.5L1.33333 0.5Q0.988155 0.5 0.744078 0.744078Q0.5 0.988155 0.5 1.33333L0.5 10.6667Q0.5 11.0119 0.744076 11.2559Q0.98815 11.5 1.33333 11.5L6.66667 11.5Q7.01186 11.5 7.25593 11.2559Q7.5 11.0119 7.5 10.6667L7.5 1.33333Q7.5 0.98815 7.25593 0.744076Q7.01186 0.5 6.66667 0.5L6.66667 0.5ZM6.66667 -0.5Q7.42607 -0.5 7.96304 0.0369728Q8.5 0.57394 8.5 1.33333L8.5 10.6667Q8.5 11.4261 7.96304 11.963Q7.42608 12.5 6.66667 12.5L1.33333 12.5Q0.573939 12.5 0.0369728 11.963Q-0.5 11.4261 -0.5 10.6667L-0.5 1.33333Q-0.5 0.573942 0.0369709 0.0369708Q0.573942 -0.5 1.33333 -0.5L6.66667 -0.5L6.66667 -0.5Z" fill-rule="nonzero" transform="matrix(1 0 0 1 4 2)" fill="rgb(156, 163, 175)"/>
		<path d="M0 0.666667C-0.368187 0.666667 -0.666667 0.368187 -0.666667 0C-0.666667 -0.368187 -0.368187 -0.666667 0 -0.666667L0 0.666667ZM0.673334 0C0.673334 -0.368187 0.374853 -0.666667 0.00666682 -0.666667L0.00666682 0.666667C0.374853 0.666667 0.673334 0.368187 0.673334 0Z" fill-rule="evenodd" transform="matrix(1 0 0 1 8 12)" fill="rgb(156, 163, 175)"/>
	</g>
</svg>
