
<svg mexport="1" xmlns="http://www.w3.org/2000/svg" xmlns:xlink="http://www.w3.org/1999/xlink" width="16" height="16" viewBox="0 0 16 16">
	<defs>
		<clipPath id="clipPath0:0:0">
			<path d="M0 0L16 0L16 16L0 16L0 0Z" fill-rule="nonzero" transform="matrix(1 0 0 1 0 0)"/>
		</clipPath>
	</defs>
	<g clip-path="url(#clipPath0:0:0)">
		<path d="M2 3.5Q2.62134 3.5 3.06067 3.06067Q3.5 2.62134 3.5 2Q3.5 1.37866 3.06067 0.939328Q2.62134 0.5 2 0.5Q1.37866 0.5 0.939328 0.939328Q0.5 1.37866 0.5 2Q0.5 2.62134 0.939328 3.06067Q1.37866 3.5 2 3.5ZM2 4.5Q1.4917 4.5 1.02673 4.30334Q0.577987 4.11354 0.232222 3.76778Q-0.113544 3.42201 -0.303339 2.97327Q-0.5 2.5083 -0.5 2Q-0.5 1.4917 -0.303339 1.02673Q-0.113544 0.577987 0.232222 0.232222Q0.577987 -0.113544 1.02673 -0.303339Q1.4917 -0.5 2 -0.5Q2.5083 -0.5 2.97327 -0.303339Q3.42201 -0.113544 3.76778 0.232222Q4.11354 0.577987 4.30334 1.02673Q4.5 1.4917 4.5 2Q4.5 2.5083 4.30334 2.97327Q4.11354 3.42201 3.76778 3.76778Q3.42201 4.11354 2.97327 4.30334Q2.5083 4.5 2 4.5Z" fill-rule="nonzero" transform="matrix(1 0 0 1 6 6)" fill="rgb(156, 163, 175)"/>
	</g>
</svg>
