
<svg mexport="1" xmlns="http://www.w3.org/2000/svg" xmlns:xlink="http://www.w3.org/1999/xlink" width="16" height="16" viewBox="0 0 16 16">
	<defs>
		<clipPath id="clipPath0:0:0">
			<path d="M0 0L16 0L16 16L0 16L0 0Z" fill-rule="nonzero" transform="matrix(1 0 0 1 0 0)"/>
		</clipPath>
	</defs>
	<g clip-path="url(#clipPath0:0:0)">
		<path d="M14 5.5L8.625 5.5Q8.54581 5.5 8.4705 5.47553Q8.39519 5.45106 8.33112 5.40452Q8.26706 5.35798 8.22051 5.29391Q8.17396 5.22985 8.14948 5.15454L6.52448 0.154543L7 0L7.47552 0.154543L5.85052 5.15454Q5.82604 5.22985 5.77949 5.29391Q5.73294 5.35798 5.66888 5.40452Q5.60481 5.45106 5.5295 5.47553Q5.45419 5.5 5.375 5.5L0 5.5L0 5L0.282764 4.58764L4.65776 7.58764Q4.72512 7.63382 4.77427 7.69903Q4.82343 7.76425 4.84928 7.84171Q4.87514 7.91918 4.875 8.00085Q4.87486 8.08251 4.84875 8.15989L3.16125 13.1599L2.6875 13L2.39411 12.5951L6.70661 9.47013Q6.77061 9.42375 6.84579 9.39938Q6.92097 9.375 7 9.375Q7.07903 9.375 7.15421 9.39938Q7.22939 9.42375 7.29339 9.47013L11.6059 12.5951L11.3125 13L10.8388 13.1599L9.15125 8.15989Q9.12514 8.08251 9.125 8.00085Q9.12486 7.91918 9.15072 7.84171Q9.17657 7.76425 9.22573 7.69903Q9.27488 7.63382 9.34224 7.58764L13.7172 4.58764L14 5L14 5.5ZM14 4.5Q14.1236 4.5 14.233 4.55763Q14.3424 4.61526 14.4124 4.71724Q14.4402 4.75785 14.4596 4.80312Q14.479 4.84838 14.4892 4.89656Q14.4994 4.94475 14.5 4.99399Q14.5006 5.04323 14.4915 5.09164Q14.4825 5.14005 14.4642 5.18577Q14.4459 5.23149 14.419 5.27277Q14.3922 5.31404 14.3578 5.34928Q14.3234 5.38451 14.2828 5.41236L9.90776 8.41236L9.625 8L10.0987 7.84011L11.7862 12.8401Q11.8251 12.9551 11.8068 13.0751Q11.7886 13.1951 11.7174 13.2934Q11.6885 13.3333 11.6524 13.3667Q11.6162 13.4002 11.5743 13.426Q11.5323 13.4518 11.4861 13.4689Q11.44 13.486 11.3913 13.4937Q11.3427 13.5015 11.2935 13.4996Q11.2443 13.4978 11.1964 13.4863Q11.1485 13.4749 11.1037 13.4543Q11.059 13.4338 11.0191 13.4049L6.70661 10.2799L7 9.875L7.29339 10.2799L2.98089 13.4049Q2.88261 13.4761 2.76261 13.4943Q2.64261 13.5126 2.52761 13.4737Q2.48095 13.458 2.43826 13.4334Q2.39557 13.4089 2.35849 13.3765Q2.3214 13.3441 2.29136 13.3051Q2.26131 13.2661 2.23945 13.2219Q2.21759 13.1778 2.20476 13.1303Q2.19194 13.0827 2.18863 13.0336Q2.18532 12.9844 2.19166 12.9356Q2.19801 12.8868 2.21375 12.8401L3.90125 7.84011L4.375 8L4.09224 8.41236L-0.282764 5.41236Q-0.38474 5.34244 -0.44237 5.23304Q-0.5 5.12365 -0.5 5Q-0.5 4.95075 -0.490393 4.90245Q-0.480785 4.85415 -0.46194 4.80866Q-0.443094 4.76316 -0.415735 4.72221Q-0.388375 4.68127 -0.353553 4.64645Q-0.318731 4.61162 -0.277785 4.58426Q-0.236839 4.55691 -0.191342 4.53806Q-0.145845 4.51921 -0.0975452 4.50961Q-0.0492457 4.5 0 4.5L5.375 4.5L5.375 5L4.89948 4.84546L6.52448 -0.154543Q6.56158 -0.268686 6.64645 -0.353553Q6.73131 -0.43842 6.84546 -0.475517Q6.89229 -0.490738 6.9412 -0.49653Q6.9901 -0.502322 7.03919 -0.498461Q7.08829 -0.494601 7.13568 -0.481237Q7.18308 -0.467874 7.22696 -0.44552Q7.27084 -0.423166 7.30952 -0.392681Q7.34819 -0.362196 7.38018 -0.324752Q7.41216 -0.287307 7.43623 -0.244342Q7.4603 -0.201377 7.47552 -0.154543L9.10052 4.84546L8.625 5L8.625 4.5L14 4.5Z" fill-rule="nonzero" transform="matrix(1 0 0 1 1 1.5)" fill="rgb(250, 204, 21)"/>
	</g>
</svg>
