
<svg mexport="1" xmlns="http://www.w3.org/2000/svg" xmlns:xlink="http://www.w3.org/1999/xlink" width="16" height="16" viewBox="0 0 16 16">
	<defs>
		<clipPath id="clipPath0:0:0">
			<path d="M0 0L16 0L16 16L0 16L0 0Z" fill-rule="nonzero" transform="matrix(1 0 0 1 0 0)"/>
		</clipPath>
	</defs>
	<g clip-path="url(#clipPath0:0:0)">
		<path d="M8.75153 0.0686988C8.8523 0.127119 8.92391 0.210565 8.96637 0.319036C9.00882 0.427507 9.01287 0.537395 8.97853 0.648699L7.17753 6.5007L10.5005 6.5007C10.6003 6.50066 10.6919 6.52804 10.7753 6.58285C10.8587 6.63766 10.9202 6.71087 10.9598 6.80249C10.9993 6.89411 11.0105 6.98906 10.9932 7.08735C10.9759 7.18564 10.933 7.27109 10.8645 7.3437L2.86453 15.8437C2.78483 15.9284 2.68742 15.9792 2.5723 15.996C2.45718 16.0127 2.34934 15.9918 2.2488 15.9333C2.14825 15.8748 2.07682 15.7914 2.03452 15.683C1.99221 15.5746 1.98821 15.4649 2.02253 15.3537L3.82353 9.5007L0.500526 9.5007C0.400729 9.50074 0.309131 9.47335 0.225731 9.41855C0.142331 9.36374 0.0808511 9.29053 0.0412903 9.19891C0.00172917 9.10729 -0.00940371 9.01233 0.00789165 8.91405C0.025187 8.81576 0.068065 8.73031 0.136526 8.6577L8.13653 0.157698C8.21612 0.0730728 8.31339 0.022349 8.42834 0.00552697C8.54329 -0.0112951 8.65102 0.0104291 8.75153 0.0686988ZM1.65753 8.5007L4.50053 8.5007C4.66874 8.50066 4.80282 8.5683 4.90277 8.70359C5.00273 8.83888 5.02798 8.98692 4.97853 9.1477L3.61053 13.5907L9.34253 7.5007L6.50053 7.5007C6.33231 7.50073 6.19823 7.4331 6.09828 7.29781C5.99832 7.16251 5.97307 7.01448 6.02253 6.8537L7.39053 2.4107L1.65753 8.5007Z" fill-rule="nonzero" transform="matrix(1 0 0 1 2.49947 -0.000698764)" fill="rgb(255, 255, 255)"/>
	</g>
</svg>
