
<svg mexport="1" xmlns="http://www.w3.org/2000/svg" xmlns:xlink="http://www.w3.org/1999/xlink" width="12" height="12" viewBox="0 0 12 12">
	<defs>
		<clipPath id="clipPath0:0:0">
			<path d="M0 0L12 0L12 12L0 12L0 0Z" fill-rule="nonzero" transform="matrix(1 0 0 1 0 0)"/>
		</clipPath>
	</defs>
	<g clip-path="url(#clipPath0:0:0)">
		<path d="M1.3125 2.625C0.950063 2.625 0.640704 2.49686 0.384422 2.24058C0.128141 1.9843 0 1.67494 0 1.3125C0 0.950063 0.128141 0.640704 0.384422 0.384422C0.640704 0.128141 0.950063 0 1.3125 0C1.67494 0 1.9843 0.128141 2.24058 0.384422C2.49686 0.640704 2.625 0.950063 2.625 1.3125C2.62461 1.67478 2.49633 1.984 2.24017 2.24017C1.984 2.49634 1.67478 2.62461 1.3125 2.625ZM4.875 2.625C4.51256 2.625 4.2032 2.49686 3.94692 2.24058C3.69064 1.9843 3.5625 1.67494 3.5625 1.3125C3.5625 0.950063 3.69064 0.640704 3.94692 0.384422C4.2032 0.128141 4.51256 0 4.875 0C5.23744 0 5.5468 0.128141 5.80308 0.384422C6.05936 0.640704 6.1875 0.950063 6.1875 1.3125C6.18711 1.67478 6.05883 1.984 5.80267 2.24017C5.5465 2.49633 5.23728 2.62461 4.875 2.625ZM8.4375 2.625C8.07506 2.625 7.7657 2.49686 7.50942 2.24058C7.25314 1.9843 7.125 1.67494 7.125 1.3125C7.125 0.950063 7.25314 0.640704 7.50942 0.384422C7.7657 0.128141 8.07506 0 8.4375 0C8.79994 0 9.1093 0.128141 9.36558 0.384422C9.62186 0.640704 9.75 0.950063 9.75 1.3125C9.74961 1.67478 9.62133 1.984 9.36517 2.24017C9.109 2.49633 8.79978 2.62461 8.4375 2.625ZM1.3125 6.1875C0.950063 6.1875 0.640704 6.05936 0.384422 5.80308C0.128141 5.5468 0 5.23744 0 4.875C0 4.51256 0.128141 4.2032 0.384422 3.94692C0.640704 3.69064 0.950063 3.5625 1.3125 3.5625C1.67494 3.5625 1.9843 3.69064 2.24058 3.94692C2.49686 4.2032 2.625 4.51256 2.625 4.875C2.62461 5.23728 2.49633 5.5465 2.24017 5.80267C1.984 6.05883 1.67478 6.18711 1.3125 6.1875ZM4.875 6.1875C4.51256 6.1875 4.2032 6.05936 3.94692 5.80308C3.69064 5.5468 3.5625 5.23744 3.5625 4.875C3.5625 4.51256 3.69064 4.2032 3.94692 3.94692C4.2032 3.69064 4.51256 3.5625 4.875 3.5625C5.23744 3.5625 5.5468 3.69064 5.80308 3.94692C6.05936 4.2032 6.1875 4.51256 6.1875 4.875C6.18711 5.23728 6.05884 5.5465 5.80267 5.80267C5.5465 6.05884 5.23728 6.18711 4.875 6.1875ZM8.4375 6.1875C8.07506 6.1875 7.7657 6.05936 7.50942 5.80308C7.25314 5.5468 7.125 5.23744 7.125 4.875C7.125 4.51256 7.25314 4.2032 7.50942 3.94692C7.7657 3.69064 8.07506 3.5625 8.4375 3.5625C8.79994 3.5625 9.1093 3.69064 9.36558 3.94692C9.62186 4.2032 9.75 4.51256 9.75 4.875C9.74961 5.23728 9.62134 5.5465 9.36517 5.80267C9.109 6.05884 8.79978 6.18711 8.4375 6.1875ZM1.3125 9.75C0.950063 9.75 0.640704 9.62186 0.384422 9.36558C0.128141 9.1093 0 8.79994 0 8.4375C0 8.07506 0.128141 7.7657 0.384422 7.50942C0.640704 7.25314 0.950063 7.125 1.3125 7.125C1.67494 7.125 1.9843 7.25314 2.24058 7.50942C2.49686 7.7657 2.625 8.07506 2.625 8.4375C2.62461 8.79978 2.49633 9.109 2.24017 9.36517C1.984 9.62133 1.67478 9.74961 1.3125 9.75ZM4.875 9.75C4.51256 9.75 4.2032 9.62186 3.94692 9.36558C3.69064 9.1093 3.5625 8.79994 3.5625 8.4375C3.5625 8.07506 3.69064 7.7657 3.94692 7.50942C4.2032 7.25314 4.51256 7.125 4.875 7.125C5.23744 7.125 5.5468 7.25314 5.80308 7.50942C6.05936 7.7657 6.1875 8.07506 6.1875 8.4375C6.18711 8.79978 6.05884 9.109 5.80267 9.36517C5.5465 9.62134 5.23728 9.74961 4.875 9.75ZM8.4375 9.75C8.07506 9.75 7.7657 9.62186 7.50942 9.36558C7.25314 9.1093 7.125 8.79994 7.125 8.4375C7.125 8.07506 7.25314 7.7657 7.50942 7.50942C7.7657 7.25314 8.07506 7.125 8.4375 7.125C8.79994 7.125 9.1093 7.25314 9.36558 7.50942C9.62186 7.7657 9.75 8.07506 9.75 8.4375C9.74961 8.79978 9.62133 9.109 9.36517 9.36517C9.109 9.62133 8.79978 9.74961 8.4375 9.75Z" fill-rule="nonzero" transform="matrix(1 0 0 1 1.125 1.125)" fill="rgb(16, 185, 129)"/>
	</g>
</svg>
