
<svg mexport="1" xmlns="http://www.w3.org/2000/svg" xmlns:xlink="http://www.w3.org/1999/xlink" width="55.4482" height="67" viewBox="0 0 55.4482 67">
	<defs>
		<clipPath id="clipPath0:0:0">
			<path d="M0 0L55.4483 0L55.4483 67L0 67L0 0Z" fill-rule="nonzero" transform="matrix(1 0 0 1 -1.71661e-05 0)"/>
		</clipPath>
	</defs>
	<g clip-path="url(#clipPath0:0:0)">
		<defs>
			<mask id="mask0:0:1" style="mask-type:alpha">
				<path d="M0 0L55.4483 0L55.4483 67L0 67L0 0Z" fill-rule="nonzero" transform="matrix(1 0 0 1 -2.28882e-05 0)" fill="rgb(0, 0, 0)"/>
			</mask>
		</defs>
		<g mask="url(#mask0:0:1)">
			<defs>
				<mask id="mask0:0:2" style="mask-type:alpha">
					<path d="M0 0L55.7486 0L55.7486 67L0 67L0 0Z" fill-rule="nonzero" transform="matrix(1 0 0 1 -0.150167 0)" fill="rgb(0, 0, 0)"/>
				</mask>
			</defs>
			<g mask="url(#mask0:0:2)">
				<defs>
					<mask id="mask0:0:3" style="mask-type:alpha">
						<path d="M0 0L55.7463 0L55.7463 67L0 67L0 0Z" fill-rule="nonzero" transform="matrix(1 0 0 1 -0.146703 -0.00031566)" fill="rgb(0, 0, 0)"/>
					</mask>
				</defs>
				<g mask="url(#mask0:0:3)">
					<defs>
						<mask id="mask0:0:4" style="mask-type:alpha">
							<path d="M0 0L55.7463 0L55.7463 55.7463L0 55.7463L0 0Z" fill-rule="nonzero" transform="matrix(1 0 0 1 -0.144395 -0.00031566)" fill="rgb(0, 0, 0)"/>
						</mask>
					</defs>
					<g mask="url(#mask0:0:4)">
						<defs>
							<mask id="mask0:0:5" style="mask-type:alpha">
								<path d="M0 0L55.7463 0L55.7463 55.7463L0 55.7463L0 0Z" fill-rule="nonzero" transform="matrix(1 0 0 1 -0.142087 -0.00031566)" fill="rgb(0, 0, 0)"/>
							</mask>
						</defs>
						<g mask="url(#mask0:0:5)">
							<path d="M26.9007 4.61138C27.2424 4.44307 27.5268 4.21763 27.7537 3.93503C28.1416 3.45177 28.2828 2.91616 28.1777 2.32827C28.07 1.72632 27.7299 1.25194 27.1567 0.905128C26.6233 0.581992 25.7382 0.351875 24.5024 0.214769C23.2116 0.0715897 21.4317 0 19.1628 0C13.8711 0 9.3544 1.87088 5.61264 5.61264C1.87088 9.3544 0 13.8711 0 19.1628C0 24.4545 1.87088 28.971 5.61264 32.7129C9.3544 36.4545 13.8711 38.3256 19.1628 38.3256C24.4545 38.3256 28.971 36.4545 32.7129 32.7129C36.4545 28.971 38.3256 24.4545 38.3256 19.1628C38.3256 18.2007 37.5456 17.4207 36.5834 17.4207C35.6214 17.4207 34.8414 18.2007 34.8414 19.1628C34.8414 23.492 33.3108 27.1877 30.2493 30.2493C27.1877 33.3108 23.492 34.8414 19.1628 34.8414C14.8332 34.8414 11.1378 33.3108 8.0763 30.2493C5.01486 27.1877 3.48414 23.492 3.48414 19.1628C3.48414 14.8332 5.01486 11.1378 8.0763 8.0763C11.1378 5.01486 14.8332 3.48414 19.1628 3.48414C21.3033 3.48414 22.9551 3.54864 24.1182 3.67768C24.2642 3.6939 24.4007 3.71085 24.5271 3.72862C24.54 3.75877 24.5537 3.78869 24.5682 3.81845C24.9933 4.68152 26.0378 5.03653 26.9007 4.61138Z" fill-rule="evenodd" transform="matrix(1 0 0 1 8.56826 12.8474)" fill="rgb(59, 130, 246)"/>
							<path d="M0.510235 2.9739C-0.170078 2.29358 -0.170078 1.19055 0.510235 0.510235C1.19055 -0.170078 2.29358 -0.170078 2.9739 0.510235L11.6842 9.22059C11.7651 9.30147 11.8374 9.38945 11.9009 9.48457C11.9644 9.57968 12.0181 9.68007 12.0619 9.78577C12.1057 9.89142 12.1387 10.0004 12.161 10.1126C12.1833 10.2247 12.1945 10.338 12.1945 10.4524C12.1945 10.5668 12.1833 10.6801 12.161 10.7923C12.1387 10.9045 12.1057 11.0134 12.0619 11.1191C12.0181 11.2248 11.9644 11.3251 11.9009 11.4203C11.8374 11.5154 11.7651 11.6034 11.6842 11.6842L2.9739 20.3946C2.29358 21.0749 1.19055 21.0749 0.510235 20.3946C-0.170078 19.7143 -0.170078 18.6113 0.510235 17.9309L7.98876 10.4524L0.510235 2.9739Z" fill-rule="evenodd" transform="matrix(1 0 0 1 25.989 4.57261)" fill="rgb(59, 130, 246)"/>
						</g>
					</g>
				</g>
			</g>
		</g>
	</g>
</svg>
