
<svg mexport="1" xmlns="http://www.w3.org/2000/svg" xmlns:xlink="http://www.w3.org/1999/xlink" width="16" height="16" viewBox="0 0 16 16">
	<defs>
		<clipPath id="clipPath0:0:0">
			<path d="M0 0L16 0L16 16L0 16L0 0Z" fill-rule="nonzero" transform="matrix(1 0 0 1 0 0)"/>
		</clipPath>
	</defs>
	<g clip-path="url(#clipPath0:0:0)">
		<circle cx="2" cy="2" r="2" transform="matrix(1 0 0 1 6 6)" fill="rgb(107, 114, 128)"/>
		<path d="M14.8394 4.45625C14.0125 3.1775 12.9397 2.09125 11.7372 1.31469C10.4069 0.454688 8.93814 0 7.49001 0C6.16126 0 4.8547 0.379688 3.60657 1.12844C2.33376 1.89188 1.18064 3.00719 0.179075 4.44312C0.0634504 4.60908 0.0038174 4.79317 0.000175714 4.9954C-0.00346597 5.19762 0.0495004 5.38374 0.159075 5.55375C0.984387 6.84531 2.04657 7.93312 3.23032 8.69906C4.56314 9.5625 5.99751 10 7.49001 10C8.9497 10 10.4216 9.54906 11.7463 8.69625C12.9481 7.92219 14.0188 6.83187 14.8425 5.5425C14.9481 5.3767 15.0007 5.19551 15.0001 4.99892C14.9995 4.80233 14.946 4.62144 14.8394 4.45625ZM7.50064 8C6.67221 8 5.9651 7.70711 5.37932 7.12132C4.79353 6.53553 4.50064 5.82843 4.50064 5C4.50064 4.17157 4.79353 3.46447 5.37932 2.87868C5.9651 2.29289 6.67221 2 7.50064 2C8.32906 2 9.03617 2.29289 9.62196 2.87868C10.2077 3.46447 10.5006 4.17157 10.5006 5C10.4997 5.82803 10.2065 6.53481 9.62095 7.12032C9.03544 7.70582 8.32867 7.99905 7.50064 8Z" fill-rule="nonzero" transform="matrix(1 0 0 1 0.499363 3)" fill="rgb(107, 114, 128)"/>
	</g>
</svg>
