
<svg mexport="1" xmlns="http://www.w3.org/2000/svg" xmlns:xlink="http://www.w3.org/1999/xlink" width="20" height="20" viewBox="0 0 20 20">
	<defs>
		<clipPath id="clipPath0:0:0">
			<path d="M0 0L20 0L20 20L0 20L0 0Z" fill-rule="nonzero" transform="matrix(1 0 0 1 0 0)"/>
		</clipPath>
	</defs>
	<g clip-path="url(#clipPath0:0:0)">
		<path d="M0 0.833333C0 0.3731 0.3731 0 0.833333 0L12.5 0C12.9602 0 13.3333 0.3731 13.3333 0.833333L13.3333 2.5C13.3333 2.96023 12.9602 3.33333 12.5 3.33333L0.833333 3.33333C0.3731 3.33333 0 2.96023 0 2.5L0 0.833333Z" fill-rule="nonzero" transform="matrix(1 0 0 1 3.33333 3.33333)" fill="rgb(255, 255, 255)"/>
		<path d="M0 0.833333C0 0.373083 0.3731 0 0.833333 0L12.5 0C12.9602 0 13.3333 0.373083 13.3333 0.833333L13.3333 2.5C13.3333 2.96025 12.9602 3.33333 12.5 3.33333L0.833333 3.33333C0.3731 3.33333 0 2.96025 0 2.5L0 0.833333Z" fill-rule="nonzero" transform="matrix(1 0 0 1 3.33333 8.33333)" fill="rgb(255, 255, 255)"/>
		<path d="M0.833333 0C0.3731 0 0 0.373084 0 0.833333L0 2.5C0 2.96025 0.3731 3.33333 0.833333 3.33333L12.5 3.33333C12.9602 3.33333 13.3333 2.96025 13.3333 2.5L13.3333 0.833333C13.3333 0.373084 12.9602 0 12.5 0L0.833333 0Z" fill-rule="nonzero" transform="matrix(1 0 0 1 3.33333 13.3333)" fill="rgb(255, 255, 255)"/>
	</g>
</svg>
