
<svg mexport="1" xmlns="http://www.w3.org/2000/svg" xmlns:xlink="http://www.w3.org/1999/xlink" width="24" height="24" viewBox="0 0 24 24">
	<defs>
		<clipPath id="clipPath0:0:0">
			<path d="M0 0L24 0L24 24L0 24L0 0Z" fill-rule="nonzero" transform="matrix(1 0 0 1 0 0)"/>
		</clipPath>
	</defs>
	<g clip-path="url(#clipPath0:0:0)">
		<path d="M6.70711 -0.707107C6.31659 -1.09763 5.68341 -1.09763 5.29289 -0.707107L-0.707107 5.29289Q-0.847759 5.43355 -0.92388 5.61732Q-1 5.80109 -1 6Q-1 6.19891 -0.923879 6.38268Q-0.847759 6.56645 -0.707107 6.70711L5.29289 12.7071C5.68341 13.0976 6.31659 13.0976 6.70711 12.7071C7.09763 12.3166 7.09763 11.6834 6.70711 11.2929L1.41421 6L6.70711 0.707107C7.09763 0.316586 7.09763 -0.316586 6.70711 -0.707107Z" fill-rule="evenodd" transform="matrix(1 0 0 1 9 6)" fill="rgb(107, 114, 128)"/>
	</g>
</svg>
