
<svg mexport="1" xmlns="http://www.w3.org/2000/svg" xmlns:xlink="http://www.w3.org/1999/xlink" width="16" height="16" viewBox="0 0 16 16">
	<defs>
		<clipPath id="clipPath0:0:0">
			<path d="M0 0L16 0L16 16L0 16L0 0Z" fill-rule="nonzero" transform="matrix(1 0 0 1 0 0)"/>
		</clipPath>
	</defs>
	<g clip-path="url(#clipPath0:0:0)">
		<defs>
			<mask id="mask0:0:1" style="mask-type:alpha">
				<path d="M0 0L16 0L16 16L0 16L0 0Z" fill-rule="nonzero" transform="matrix(1 0 0 1 0 0)" fill="rgb(0, 0, 0)"/>
			</mask>
		</defs>
		<g mask="url(#mask0:0:1)">
			<path d="M3.5084 6L1.83333 6C1.32705 6 0.894926 6.179 0.536959 6.53699C0.178986 6.89498 0 7.3271 0 7.83333L0 12.5C0 13.0063 0.178988 13.4384 0.536964 13.7963C0.894928 14.1543 1.32705 14.3333 1.83333 14.3333L11.3533 14.3333C11.8066 14.3385 12.2075 14.1931 12.5558 13.897C12.9041 13.6009 13.1125 13.2268 13.181 12.7749L14.1009 6.77578C14.1414 6.50928 14.1241 6.24691 14.049 5.98868C13.9741 5.73053 13.8484 5.49996 13.6719 5.29696C13.4954 5.09395 13.2844 4.93741 13.0391 4.82732C12.7938 4.7172 12.5366 4.66366 12.2677 4.6667L9 4.66667L9 2.5C9 2.16848 8.93656 1.84957 8.80969 1.54328C8.68282 1.237 8.50217 0.966657 8.26776 0.732236C8.03334 0.497816 7.76298 0.317171 7.45669 0.190301C7.1504 0.0634337 6.83151 0 6.5 0C6.45164 0 6.40428 0.006871 6.35791 0.020613C6.31155 0.0343557 6.26809 0.0544027 6.22754 0.080754C6.18699 0.107105 6.15103 0.138675 6.11964 0.175463C6.08825 0.21225 6.06273 0.25274 6.04309 0.296931L3.5084 6ZM4.33333 6.60611L6.81166 1.02987C7.09447 1.08633 7.34413 1.22282 7.56064 1.43934C7.85355 1.73225 8 2.0858 8 2.5L8 5.16667C8 5.1995 8.0032 5.23201 8.00961 5.26421C8.01601 5.29641 8.02549 5.32768 8.03806 5.35801C8.05062 5.38834 8.06602 5.41716 8.08426 5.44445C8.1025 5.47175 8.12323 5.49701 8.14645 5.52022C8.16966 5.54343 8.19492 5.56416 8.22221 5.5824C8.24951 5.60064 8.27833 5.61604 8.30866 5.62861C8.33899 5.64117 8.37025 5.65065 8.40245 5.65706C8.43465 5.66347 8.46717 5.66667 8.5 5.66667L12.279 5.66664C12.4013 5.66525 12.5182 5.68959 12.6297 5.73964C12.7412 5.78969 12.837 5.86082 12.9173 5.95305C12.9975 6.04532 13.0546 6.15021 13.0887 6.26772C13.1228 6.38501 13.1307 6.50384 13.1124 6.62422L12.1923 12.6251C12.1612 12.8304 12.0664 13.0004 11.9081 13.135C11.7498 13.2696 11.5648 13.3357 11.3533 13.3333L4.33333 13.3333L4.33333 6.60611ZM3.33333 7L3.33333 13.3333L1.83333 13.3333C1.60321 13.3333 1.40679 13.252 1.24409 13.0893C1.08136 12.9266 1 12.7301 1 12.5L1 7.83333C1 7.60323 1.08136 7.40681 1.24409 7.24407C1.4068 7.08136 1.60321 7 1.83333 7L3.33333 7Z" fill-rule="evenodd" transform="matrix(1 0 0 1 0.83333 0.83333)" fill="rgb(156, 163, 175)"/>
		</g>
	</g>
</svg>
