
<svg mexport="1" xmlns="http://www.w3.org/2000/svg" xmlns:xlink="http://www.w3.org/1999/xlink" width="16" height="16" viewBox="0 0 16 16">
	<defs>
		<clipPath id="clipPath0:0:0">
			<path d="M0 0L16 0L16 16L0 16L0 0Z" fill-rule="nonzero" transform="matrix(1 0 0 1 0 0)"/>
		</clipPath>
	</defs>
	<g clip-path="url(#clipPath0:0:0)">
		<defs>
			<mask id="mask0:0:1" style="mask-type:alpha">
				<path d="M0 0L16 0L16 16L0 16L0 0Z" fill-rule="nonzero" transform="matrix(1 0 0 1 0 0)" fill="rgb(0, 0, 0)"/>
			</mask>
		</defs>
		<g mask="url(#mask0:0:1)">
			<path d="M7.16667 1L1.83333 1C1.60321 1 1.4068 1.08136 1.24408 1.24408C1.08136 1.4068 1 1.60321 1 1.83333L1 11.1667C1 11.3968 1.08136 11.5932 1.24408 11.7559C1.40679 11.9186 1.60321 12 1.83333 12L7.16667 12C7.3968 12 7.59322 11.9186 7.75593 11.7559C7.91864 11.5932 8 11.3968 8 11.1667L8 1.83333C8 1.60321 7.91864 1.40679 7.75593 1.24408C7.59322 1.08136 7.3968 1 7.16667 1ZM7.16667 0C7.67294 0 8.10506 0.178991 8.46304 0.536973C8.82101 0.894951 9 1.32707 9 1.83333L9 11.1667C9 11.673 8.82101 12.1051 8.46304 12.463C8.10507 12.821 7.67294 13 7.16667 13L1.83333 13C1.32707 13 0.89495 12.821 0.536973 12.463C0.178991 12.1051 0 11.673 0 11.1667L0 1.83333C0 1.32707 0.17899 0.894952 0.536971 0.536971C0.894952 0.17899 1.32707 0 1.83333 0L7.16667 0Z" fill-rule="nonzero" transform="matrix(1 0 0 1 3.5 1.5)" fill="rgb(156, 163, 175)"/>
			<path d="M0.666667 1.33333C0.29848 1.33333 0 1.03485 0 0.666667C0 0.29848 0.29848 0 0.666667 0L0.666667 1.33333ZM1.34 0.666667C1.34 0.29848 1.04152 0 0.666667 0L0.666667 1.33333C1.04152 1.33333 1.34 1.03485 1.34 0.666667Z" fill-rule="evenodd" transform="matrix(1 0 0 1 7.33333 11.3333)" fill="rgb(156, 163, 175)"/>
		</g>
	</g>
</svg>
