
<svg mexport="1" xmlns="http://www.w3.org/2000/svg" xmlns:xlink="http://www.w3.org/1999/xlink" width="16" height="16" viewBox="0 0 16 16">
	<defs>
		<clipPath id="clipPath0:0:0">
			<path d="M0 0L16 0L16 16L0 16L0 0Z" fill-rule="nonzero" transform="matrix(1 0 0 1 0 0)"/>
		</clipPath>
	</defs>
	<g clip-path="url(#clipPath0:0:0)">
		<defs>
			<mask id="mask0:0:1" style="mask-type:alpha">
				<path d="M0 0L16 0L16 16L0 16L0 0Z" fill-rule="nonzero" transform="matrix(1 0 0 1 0 0)" fill="rgb(0, 0, 0)"/>
			</mask>
		</defs>
		<g mask="url(#mask0:0:1)">
			<path d="M9.83333 11L3.16667 11C2.73738 11 2.32646 10.917 1.9339 10.7509C1.55499 10.5906 1.21952 10.3645 0.927494 10.0725C0.635471 9.78047 0.409325 9.445 0.249058 9.06609C0.0830193 8.67353 0 8.26261 0 7.83333L0 3.16667C0 2.73738 0.0830193 2.32646 0.249058 1.9339C0.409325 1.55499 0.635471 1.21952 0.927495 0.927495C1.21952 0.635471 1.55499 0.409325 1.9339 0.249058C2.32646 0.0830193 2.73738 0 3.16667 0L9.83333 0C10.2626 0 10.6735 0.0830193 11.0661 0.249058C11.445 0.409325 11.7805 0.63547 12.0725 0.927494C12.3645 1.21952 12.5906 1.55499 12.7509 1.9339C12.917 2.32646 13 2.73738 13 3.16667L13 7.83333C13 8.26261 12.917 8.67353 12.7509 9.06609C12.5906 9.445 12.3645 9.78047 12.0725 10.0725C11.7805 10.3645 11.445 10.5906 11.0661 10.7509C10.6735 10.917 10.2626 11 9.83333 11ZM9.83333 10C10.4316 10 10.9423 9.78846 11.3654 9.36539C11.7885 8.94232 12 8.43163 12 7.83333L12 3.16667C12 2.56836 11.7885 2.05767 11.3654 1.6346C10.9423 1.21153 10.4316 1 9.83333 1L3.16667 1C2.56836 1 2.05767 1.21153 1.6346 1.6346C1.21153 2.05767 1 2.56836 1 3.16667L1 7.83333C1 8.43163 1.21153 8.94232 1.6346 9.36539C2.05767 9.78846 2.56836 10 3.16667 10L9.83333 10Z" fill-rule="nonzero" transform="matrix(1 0 0 1 1.5 3.5)" fill="rgb(156, 163, 175)"/>
			<path d="M6.66667 1.83333L6.66667 2.5C6.66667 2.77614 6.89053 3 7.16667 3C7.44281 3 7.66667 2.77614 7.66667 2.5L7.66667 1.83333C7.66667 1.32707 7.48768 0.894951 7.12971 0.536973C6.77173 0.178991 6.3396 0 5.83333 0L1.83333 0C1.32707 0 0.894952 0.17899 0.536971 0.536971C0.17899 0.894952 0 1.32707 0 1.83333L0 2.5C0 2.77614 0.22386 3 0.5 3C0.77614 3 1 2.77614 1 2.5L1 1.83333C1 1.60321 1.08136 1.4068 1.24408 1.24408C1.4068 1.08136 1.60321 1 1.83333 1L5.83333 1C6.06346 1 6.25988 1.08136 6.4226 1.24408C6.58531 1.40679 6.66667 1.60321 6.66667 1.83333Z" fill-rule="evenodd" transform="matrix(1 0 0 1 4.16667 1.5)" fill="rgb(156, 163, 175)"/>
			<path d="M6.18689 0.146446C5.99163 -0.0488153 5.67504 -0.0488153 5.47978 0.146446L2.16667 3.45956L0.853552 2.14645C0.658292 1.95119 0.341706 1.95119 0.146446 2.14645C-0.0488153 2.34171 -0.0488153 2.65829 0.146446 2.85355L1.81311 4.52022C1.83633 4.54343 1.86159 4.56416 1.88888 4.5824C1.91618 4.60064 1.94499 4.61604 1.97532 4.62861C2.00565 4.64117 2.03692 4.65065 2.06912 4.65706C2.10132 4.66347 2.13384 4.66667 2.16667 4.66667C2.1995 4.66667 2.23201 4.66347 2.26421 4.65706C2.29641 4.65065 2.32768 4.64117 2.35801 4.62861C2.38834 4.61604 2.41716 4.60064 2.44445 4.5824C2.47175 4.56416 2.49701 4.54343 2.52022 4.52022L6.18689 0.853552C6.38215 0.658292 6.38215 0.341706 6.18689 0.146446Z" fill-rule="evenodd" transform="matrix(1 0 0 1 4.83333 5.5)" fill="rgb(156, 163, 175)"/>
		</g>
	</g>
</svg>
