
<svg mexport="1" xmlns="http://www.w3.org/2000/svg" xmlns:xlink="http://www.w3.org/1999/xlink" width="16" height="16" viewBox="0 0 16 16">
	<defs>
		<clipPath id="clipPath0:0:0">
			<path d="M0 0L16 0L16 16L0 16L0 0Z" fill-rule="nonzero" transform="matrix(1 0 0 1 0 0)"/>
		</clipPath>
	</defs>
	<g clip-path="url(#clipPath0:0:0)">
		<defs>
			<mask id="mask0:0:1" style="mask-type:alpha">
				<path d="M0 0L16 0L16 16L0 16L0 0Z" fill-rule="nonzero" transform="matrix(1 0 0 1 0 0)" fill="rgb(0, 0, 0)"/>
			</mask>
		</defs>
		<g mask="url(#mask0:0:1)">
			<path d="M2.5 4C2.91423 4 3.26778 3.85355 3.56067 3.56066C3.85356 3.26777 4 2.91422 4 2.5C4 2.08578 3.85356 1.73223 3.56067 1.43934C3.26778 1.14645 2.91423 1 2.5 1C2.08577 1 1.73222 1.14645 1.43933 1.43934C1.14644 1.73223 1 2.08578 1 2.5C1 2.91422 1.14644 3.26777 1.43933 3.56066C1.73222 3.85355 2.08577 4 2.5 4ZM2.5 5C2.16113 5 1.83671 4.93444 1.52672 4.80333C1.22756 4.6768 0.96273 4.49827 0.732219 4.26776C0.50171 4.03725 0.323191 3.77242 0.196662 3.47326C0.065554 3.16328 0 2.83886 0 2.5C0 2.16114 0.065554 1.83672 0.196662 1.52674C0.323192 1.22758 0.501711 0.962747 0.732219 0.732236C0.96273 0.501723 1.22756 0.323201 1.52672 0.196668C1.83671 0.065556 2.16113 0 2.5 0C2.83887 0 3.16329 0.065556 3.47328 0.196668C3.77244 0.323201 4.03727 0.501723 4.26778 0.732236C4.49829 0.962747 4.67681 1.22758 4.80334 1.52674C4.93445 1.83672 5 2.16114 5 2.5C5 2.83886 4.93445 3.16328 4.80334 3.47326C4.67681 3.77242 4.49829 4.03725 4.26778 4.26776C4.03727 4.49827 3.77244 4.6768 3.47328 4.80333C3.16329 4.93444 2.83887 5 2.5 5Z" fill-rule="nonzero" transform="matrix(1 0 0 1 9.5 0.83333)" fill="rgb(156, 163, 175)"/>
			<path d="M2.5 4C2.91422 4 3.26777 3.85356 3.56066 3.56067C3.85355 3.26778 4 2.91423 4 2.5C4 2.08577 3.85355 1.73222 3.56066 1.43933C3.26777 1.14644 2.91422 1 2.5 1C2.08578 1 1.73223 1.14644 1.43934 1.43933C1.14645 1.73222 1 2.08577 1 2.5C1 2.91423 1.14645 3.26778 1.43934 3.56067C1.73223 3.85356 2.08578 4 2.5 4ZM2.5 5C2.16114 5 1.83672 4.93445 1.52674 4.80334C1.22758 4.67681 0.962748 4.49829 0.732236 4.26778C0.501723 4.03727 0.323201 3.77244 0.196668 3.47328C0.065556 3.16329 0 2.83887 0 2.5C0 2.16113 0.065556 1.83671 0.196668 1.52672C0.323201 1.22756 0.501723 0.96273 0.732236 0.732219C0.962747 0.501711 1.22758 0.323192 1.52674 0.196662C1.83672 0.065554 2.16114 0 2.5 0C2.83886 0 3.16328 0.065554 3.47326 0.196662C3.77242 0.323192 4.03725 0.501711 4.26776 0.732219C4.49827 0.96273 4.6768 1.22756 4.80333 1.52672C4.93444 1.83671 5 2.16113 5 2.5C5 2.83887 4.93444 3.16329 4.80333 3.47328C4.6768 3.77243 4.49827 4.03727 4.26776 4.26778C4.03725 4.49829 3.77242 4.67681 3.47326 4.80334C3.16328 4.93445 2.83886 5 2.5 5Z" fill-rule="nonzero" transform="matrix(1 0 0 1 1.5 5.5)" fill="rgb(156, 163, 175)"/>
			<path d="M2.5 4C2.91423 4 3.26778 3.85356 3.56067 3.56067C3.85356 3.26778 4 2.91423 4 2.5C4 2.08577 3.85356 1.73222 3.56067 1.43933C3.26778 1.14644 2.91423 1 2.5 1C2.08577 1 1.73222 1.14644 1.43933 1.43933C1.14644 1.73222 1 2.08577 1 2.5C1 2.91423 1.14644 3.26778 1.43933 3.56067C1.73222 3.85356 2.08577 4 2.5 4ZM2.5 5C2.16113 5 1.83671 4.93445 1.52673 4.80334C1.22757 4.67681 0.962732 4.49829 0.732222 4.26778C0.501711 4.03727 0.323191 3.77243 0.196661 3.47327C0.0655537 3.16329 0 2.83887 0 2.5C0 2.16113 0.0655537 1.83671 0.196661 1.52673C0.323191 1.22757 0.501711 0.962732 0.732222 0.732222C0.962732 0.501711 1.22757 0.323191 1.52673 0.196661C1.83671 0.0655537 2.16113 0 2.5 0C2.83887 0 3.16329 0.0655537 3.47327 0.196661C3.77243 0.323191 4.03727 0.501711 4.26778 0.732222C4.49829 0.962732 4.67681 1.22757 4.80334 1.52673C4.93445 1.83671 5 2.16113 5 2.5C5 2.83887 4.93445 3.16329 4.80334 3.47327C4.67681 3.77243 4.49829 4.03727 4.26778 4.26778C4.03727 4.49829 3.77243 4.67681 3.47327 4.80334C3.16329 4.93445 2.83887 5 2.5 5Z" fill-rule="nonzero" transform="matrix(1 0 0 1 9.5 10.1667)" fill="rgb(156, 163, 175)"/>
			<path d="M0.0680764 0.248341C-0.0709536 0.486929 0.00975442 0.793054 0.248341 0.932084L4.80167 3.58542C5.04026 3.72445 5.34639 3.64374 5.48542 3.40515C5.62445 3.16656 5.54374 2.86044 5.30515 2.72141L0.751819 0.0680764C0.513232 -0.0709536 0.207106 0.00975442 0.0680764 0.248341Z" fill-rule="evenodd" transform="matrix(1 0 0 1 5.22659 8.50659)" fill="rgb(156, 163, 175)"/>
			<path d="M4.79473 0.0682365C5.03323 -0.0709455 5.33941 0.00956753 5.47859 0.248067C5.61777 0.486565 5.53726 0.792742 5.29876 0.931925L0.752094 3.58526C0.513596 3.72444 0.207419 3.64393 0.0682372 3.40543C-0.0709458 3.16693 0.00956723 2.86075 0.248066 2.72157L4.79473 0.0682365Z" fill-rule="evenodd" transform="matrix(1 0 0 1 5.22659 3.83992)" fill="rgb(156, 163, 175)"/>
		</g>
	</g>
</svg>
