
<svg mexport="1" xmlns="http://www.w3.org/2000/svg" xmlns:xlink="http://www.w3.org/1999/xlink" width="20" height="20" viewBox="0 0 20 20">
	<defs>
		<clipPath id="clipPath0:0:0">
			<path d="M0 0L20 0L20 20L0 20L0 0Z" fill-rule="nonzero" transform="matrix(1 0 0 1 0 0)"/>
		</clipPath>
	</defs>
	<g clip-path="url(#clipPath0:0:0)">
		<path d="M0 1.66667C0 0.746192 0.746192 0 1.66667 0L3.33333 0C4.25381 0 5 0.746192 5 1.66667L5 3.33333C5 4.25381 4.25381 5 3.33333 5L1.66667 5C0.746192 5 0 4.25381 0 3.33333L0 1.66667Z" fill-rule="nonzero" transform="matrix(1 0 0 1 3.33333 3.33333)" fill="rgb(255, 255, 255)"/>
		<path d="M0 1.66667C0 0.746167 0.746192 0 1.66667 0L3.33333 0C4.25381 0 5 0.746167 5 1.66667L5 3.33333C5 4.25383 4.25381 5 3.33333 5L1.66667 5C0.746192 5 0 4.25383 0 3.33333L0 1.66667Z" fill-rule="nonzero" transform="matrix(1 0 0 1 3.33333 11.6667)" fill="rgb(255, 255, 255)"/>
		<path d="M0 1.66667C0 0.746192 0.746167 0 1.66667 0L3.33333 0C4.25383 0 5 0.746192 5 1.66667L5 3.33333C5 4.25381 4.25383 5 3.33333 5L1.66667 5C0.746167 5 0 4.25381 0 3.33333L0 1.66667Z" fill-rule="nonzero" transform="matrix(1 0 0 1 11.6667 3.33333)" fill="rgb(255, 255, 255)"/>
		<path d="M0 1.66667C0 0.746167 0.746167 0 1.66667 0L3.33333 0C4.25383 0 5 0.746167 5 1.66667L5 3.33333C5 4.25383 4.25383 5 3.33333 5L1.66667 5C0.746167 5 0 4.25383 0 3.33333L0 1.66667Z" fill-rule="nonzero" transform="matrix(1 0 0 1 11.6667 11.6667)" fill="rgb(255, 255, 255)"/>
	</g>
</svg>
