
<svg mexport="1" xmlns="http://www.w3.org/2000/svg" xmlns:xlink="http://www.w3.org/1999/xlink" width="24" height="29" viewBox="0 0 24 29">
	<defs>
		<clipPath id="clipPath0:0:0">
			<path d="M0 0L24 0L24 29L0 29L0 0Z" fill-rule="nonzero" transform="matrix(1 0 0 1 0 0)"/>
		</clipPath>
	</defs>
	<g clip-path="url(#clipPath0:0:0)">
		<defs>
			<clipPath id="clipPath0:0:1">
				<path d="M0 0L24.13 0L24.13 29L0 29L0 0Z" fill-rule="nonzero" transform="matrix(1 0 0 1 -0.0649845 0)"/>
			</clipPath>
		</defs>
		<g clip-path="url(#clipPath0:0:1)">
			<defs>
				<mask id="mask0:0:2" style="mask-type:alpha">
					<path d="M0 0L24.129 0L24.129 29L0 29L0 0Z" fill-rule="nonzero" transform="matrix(1 0 0 1 -0.0634825 -0.000136629)" fill="rgb(0, 0, 0)"/>
				</mask>
			</defs>
			<g mask="url(#mask0:0:2)">
				<defs>
					<mask id="mask0:0:3" style="mask-type:alpha">
						<path d="M0 0L24.129 0L24.129 24.129L0 24.129L0 0Z" fill-rule="nonzero" transform="matrix(1 0 0 1 -0.0624811 -0.000136629)" fill="rgb(0, 0, 0)"/>
					</mask>
				</defs>
				<g mask="url(#mask0:0:3)">
					<defs>
						<mask id="mask0:0:4" style="mask-type:alpha">
							<path d="M0 0L24.129 0L24.129 24.129L0 24.129L0 0Z" fill-rule="nonzero" transform="matrix(1 0 0 1 -0.0614797 -0.000136629)" fill="rgb(0, 0, 0)"/>
						</mask>
					</defs>
					<g mask="url(#mask0:0:4)">
						<path d="M11.6436 1.99597C11.7915 1.92312 11.9146 1.82554 12.0128 1.70322C12.1807 1.49405 12.2418 1.26222 12.1963 1.00776C12.1497 0.747214 12.0025 0.541885 11.7544 0.391772C11.5235 0.251907 11.1404 0.152304 10.6055 0.0929599C10.0468 0.0309866 9.27641 0 8.29433 0C6.00392 0 4.04892 0.809785 2.42935 2.42935C0.809785 4.04892 0 6.00392 0 8.29433C0 10.5848 0.809785 12.5397 2.42935 14.1593C4.04892 15.7788 6.00392 16.5887 8.29433 16.5887C10.5848 16.5887 12.5397 15.7788 14.1593 14.1593C15.7788 12.5397 16.5887 10.5848 16.5887 8.29433C16.5887 7.8779 16.2511 7.5403 15.8346 7.5403C15.4182 7.5403 15.0806 7.8779 15.0806 8.29433C15.0806 10.1682 14.4181 11.7678 13.093 13.093C11.7678 14.4181 10.1682 15.0806 8.29433 15.0806C6.42036 15.0806 4.82082 14.4181 3.49571 13.093C2.17061 11.7678 1.50806 10.1682 1.50806 8.29433C1.50806 6.42036 2.17061 4.82082 3.49571 3.49571C4.82082 2.17061 6.42036 1.50806 8.29433 1.50806C9.22081 1.50806 9.93578 1.53598 10.4392 1.59183C10.5024 1.59885 10.5615 1.60619 10.6162 1.61388C10.6218 1.62693 10.6277 1.63988 10.634 1.65276C10.818 2.02633 11.2701 2.17999 11.6436 1.99597Z" fill-rule="evenodd" transform="matrix(1 0 0 1 3.70867 5.56083)" fill="rgb(59, 130, 246)"/>
						<path d="M0.220848 1.28721C-0.0736161 0.992743 -0.0736161 0.515313 0.220848 0.220848C0.515313 -0.0736161 0.992743 -0.0736161 1.28721 0.220848L5.05736 3.991C5.09237 4.02601 5.12363 4.06409 5.15113 4.10526C5.17864 4.14643 5.20186 4.18988 5.22081 4.23563C5.23976 4.28136 5.25406 4.32852 5.26372 4.37708C5.27338 4.42563 5.27821 4.47467 5.27821 4.52418C5.27821 4.57369 5.27338 4.62273 5.26372 4.67129C5.25406 4.71985 5.23976 4.76699 5.22081 4.81273C5.20186 4.85848 5.17864 4.90193 5.15113 4.9431C5.12363 4.98426 5.09237 5.02235 5.05736 5.05736L1.28721 8.82751C0.992743 9.12198 0.515313 9.12198 0.220848 8.82751C-0.0736161 8.53305 -0.0736161 8.05562 0.220848 7.76115L3.45782 4.52418L0.220848 1.28721Z" fill-rule="evenodd" transform="matrix(1 0 0 1 11.249 1.97919)" fill="rgb(59, 130, 246)"/>
					</g>
				</g>
			</g>
		</g>
	</g>
</svg>
