
<svg mexport="1" xmlns="http://www.w3.org/2000/svg" xmlns:xlink="http://www.w3.org/1999/xlink" width="14" height="14" viewBox="0 0 14 14">
	<defs>
		<clipPath id="clipPath0:0:0">
			<path d="M0 0L14 0L14 14L0 14L0 0Z" fill-rule="nonzero" transform="matrix(1 0 0 1 0 0)"/>
		</clipPath>
	</defs>
	<g clip-path="url(#clipPath0:0:0)">
		<defs>
			<mask id="mask0:0:1" style="mask-type:alpha">
				<path d="M0 0L14 0L14 14L0 14L0 0Z" fill-rule="nonzero" transform="matrix(1 0 0 1 0 0)" fill="rgb(0, 0, 0)"/>
			</mask>
		</defs>
		<g mask="url(#mask0:0:1)">
			<defs>
				<mask id="mask0:0:2" style="mask-type:alpha">
					<path d="M0 0L14 0L14 14L0 14L0 0Z" fill-rule="nonzero" transform="matrix(1 0 0 1 0 0)" fill="rgb(0, 0, 0)"/>
				</mask>
			</defs>
			<g mask="url(#mask0:0:2)">
				<path d="M8.06658 3.98325C8.52219 3.52764 8.75 2.97767 8.75 2.33333C8.75 1.689 8.52219 1.13903 8.06658 0.683417C7.61097 0.227806 7.061 0 6.41666 0C5.77233 0 5.22236 0.227806 4.76675 0.683417C4.31114 1.13903 4.08333 1.689 4.08333 2.33333C4.08333 2.97767 4.31114 3.52764 4.76675 3.98325C5.22237 4.43886 5.77234 4.66666 6.41666 4.66666C7.061 4.66666 7.61097 4.43886 8.06658 3.98325ZM7.24162 1.50837C7.46943 1.73618 7.58333 2.01117 7.58333 2.33333C7.58333 2.6555 7.46943 2.93049 7.24162 3.15829C7.01382 3.3861 6.73883 3.5 6.41666 3.5C6.0945 3.5 5.81951 3.3861 5.59171 3.15829C5.36391 2.93049 5.25 2.6555 5.25 2.33333C5.25 2.01117 5.36391 1.73618 5.59171 1.50837C5.81951 1.28057 6.0945 1.16667 6.41666 1.16667C6.73883 1.16667 7.01382 1.28057 7.24162 1.50837ZM4.08333 4.08333C4.08333 4.56658 3.91248 4.97906 3.57077 5.32077C3.22906 5.66248 2.81658 5.83333 2.33333 5.83333C1.85009 5.83333 1.43761 5.66248 1.0959 5.32077C0.754187 4.97906 0.583333 4.56658 0.583333 4.08333C0.583333 3.60009 0.754187 3.18761 1.0959 2.84589C1.43761 2.50419 1.85009 2.33333 2.33333 2.33333C2.81658 2.33333 3.22906 2.50419 3.57077 2.84589C3.91248 3.1876 4.08333 3.60008 4.08333 4.08333ZM12.25 4.08333C12.25 4.56658 12.0792 4.97906 11.7374 5.32077C11.3957 5.66248 10.9832 5.83333 10.5 5.83333C10.0167 5.83333 9.60427 5.66248 9.26256 5.32077C8.92086 4.97906 8.75 4.56658 8.75 4.08333C8.75 3.60009 8.92086 3.18761 9.26256 2.84589C9.60427 2.50419 10.0167 2.33333 10.5 2.33333C10.9832 2.33333 11.3957 2.50419 11.7374 2.84589C12.0792 3.1876 12.25 3.60008 12.25 4.08333ZM2.91666 4.08333C2.91666 3.92225 2.85971 3.78475 2.74581 3.67085C2.63191 3.55695 2.49441 3.5 2.33333 3.5C2.17225 3.5 2.03476 3.55695 1.92085 3.67085C1.80695 3.78475 1.75 3.92225 1.75 4.08333C1.75 4.24441 1.80695 4.38191 1.92085 4.49581C2.03476 4.60971 2.17225 4.66666 2.33333 4.66666C2.49441 4.66666 2.63191 4.60971 2.74581 4.49581C2.85971 4.38191 2.91666 4.24441 2.91666 4.08333ZM11.0833 4.08333C11.0833 3.92225 11.0264 3.78476 10.9124 3.67085C10.7986 3.55695 10.6611 3.5 10.5 3.5C10.3389 3.5 10.2014 3.55695 10.0875 3.67085C9.97362 3.78475 9.91666 3.92225 9.91666 4.08333C9.91666 4.24441 9.97362 4.38191 10.0875 4.49581C10.2014 4.60971 10.3389 4.66666 10.5 4.66666C10.6611 4.66666 10.7986 4.60971 10.9124 4.49581C11.0264 4.38191 11.0833 4.24441 11.0833 4.08333ZM9.84453 6.51075C9.64625 6.56879 9.46259 6.64849 9.29356 6.74985C9.05167 6.39974 8.74693 6.10027 8.37933 5.85143C7.78663 5.45021 7.1324 5.24959 6.41666 5.24959C5.70092 5.24959 5.0467 5.4502 4.454 5.85142C4.08638 6.10028 3.78163 6.39976 3.53975 6.74984C3.37073 6.64848 3.18707 6.56879 2.98879 6.51075C2.51181 6.37114 2.03854 6.38274 1.56897 6.54554C1.0994 6.70835 0.720524 6.99221 0.432336 7.39711C0.144148 7.80201 3.60012e-05 8.25296 0 8.74995L0 9.91666C0 9.95497 0.003736 9.9929 0.011208 10.0305C0.0186807 10.068 0.0297457 10.1045 0.044403 10.1399C0.059061 10.1753 0.0770297 10.2089 0.098309 10.2407C0.119588 10.2726 0.14377 10.3021 0.170854 10.3291C0.197938 10.3562 0.227403 10.3804 0.25925 10.4017C0.291097 10.423 0.324714 10.4409 0.360101 10.4556C0.395488 10.4703 0.431964 10.4813 0.46953 10.4888C0.507096 10.4963 0.545031 10.5 0.583333 10.5L12.25 10.5C12.2883 10.5 12.3262 10.4963 12.3638 10.4888C12.4014 10.4813 12.4378 10.4703 12.4732 10.4556C12.5086 10.4409 12.5422 10.423 12.574 10.4017C12.6059 10.3804 12.6354 10.3562 12.6624 10.3291C12.6896 10.3021 12.7138 10.2726 12.735 10.2407C12.7563 10.2089 12.7743 10.1753 12.7889 10.1399C12.8036 10.1045 12.8147 10.068 12.8221 10.0305C12.8296 9.9929 12.8333 9.95497 12.8333 9.91666L12.8333 8.75C12.8333 8.25298 12.6892 7.80201 12.401 7.39711C12.1128 6.99221 11.7339 6.70835 11.2643 6.54554C10.7948 6.38274 10.3215 6.37114 9.84453 6.51075ZM8.73963 8.52616C8.71893 8.30502 8.66708 8.09078 8.58408 7.88346C8.40678 7.44038 8.12053 7.08508 7.72533 6.81754C7.33013 6.55002 6.8939 6.41625 6.41666 6.41625C5.93942 6.41625 5.5032 6.55002 5.108 6.81755C4.7128 7.08508 4.42652 7.44047 4.24914 7.88372C4.1386 8.1596 4.08333 8.44836 4.08333 8.75L4.08333 9.33333L8.75 9.33333L8.75 8.75C8.75 8.67458 8.74655 8.59997 8.73963 8.52616ZM2.91666 9.33333L2.91666 8.75C2.91666 8.43122 2.9581 8.12153 3.04096 7.82095L3.02334 7.80772C2.91598 7.7288 2.79522 7.6697 2.66106 7.63044C2.42258 7.56064 2.18594 7.56643 1.95115 7.64783C1.71637 7.72924 1.52693 7.87117 1.38284 8.07362C1.23874 8.27607 1.16668 8.50154 1.16667 8.75004L1.16667 9.33333L2.91666 9.33333ZM10.1723 7.63044C10.0307 7.67187 9.9041 7.73537 9.79238 7.82094C9.83856 7.98842 9.87186 8.15874 9.8923 8.3319C9.90854 8.46948 9.91666 8.60884 9.91666 8.75L9.91666 9.33333L11.6666 9.33333L11.6666 8.75C11.6666 8.50153 11.5946 8.27607 11.4505 8.07361C11.3064 7.87117 11.1169 7.72924 10.8821 7.64783C10.6474 7.56643 10.4108 7.56064 10.1723 7.63044Z" fill-rule="evenodd" transform="matrix(1 0 0 1 0.583337 1.75)" fill="#FB923C"/>
			</g>
		</g>
	</g>
</svg>
