
<svg mexport="1" xmlns="http://www.w3.org/2000/svg" xmlns:xlink="http://www.w3.org/1999/xlink" width="16" height="16" viewBox="0 0 16 16">
	<defs>
		<clipPath id="clipPath0:0:0">
			<path d="M0 0L16 0L16 16L0 16L0 0Z" fill-rule="nonzero" transform="matrix(1 0 0 1 0 0)"/>
		</clipPath>
	</defs>
	<g clip-path="url(#clipPath0:0:0)">
		<rect width="10.5" height="10.5" rx="1.78125" ry="1.78125" stroke-width="1" stroke-linejoin="round" transform="matrix(1 0 0 1 4 4)" stroke="rgb(96, 165, 250)" fill="transparent"/>
		<path d="M9.99998 1.74595L9.98448 2.48959C9.97873 2.76567 10.1979 2.99414 10.474 2.99989C10.75 3.00564 10.9785 2.78649 10.9843 2.51041L11 1.74858Q10.9974 0.818284 10.3395 0.160467Q9.68172 -0.497352 8.75142 -0.499998L2 -0.5Q0.964869 -0.496943 0.233963 0.233963Q-0.496943 0.96487 -0.499998 1.99852L-0.5 8.75Q-0.497352 9.68171 0.160467 10.3395Q0.818284 10.9973 1.74858 11L2.5 11C2.77614 11 3 10.7761 3 10.5C3 10.2239 2.77614 10 2.5 10L1.75142 10Q1.23368 9.99853 0.867574 9.63243Q0.501471 9.26632 0.5 8.75L0.499998 2.00148Q0.501834 1.38031 0.94107 0.94107Q1.38031 0.501834 2 0.5L8.74858 0.499998Q9.26632 0.501471 9.63243 0.867574Q9.99659 1.23174 9.99998 1.74595Z" fill-rule="evenodd" transform="matrix(1 0 0 1 1.5 1.5)" fill="rgb(96, 165, 250)"/>
	</g>
</svg>
