
<svg mexport="1" xmlns="http://www.w3.org/2000/svg" xmlns:xlink="http://www.w3.org/1999/xlink" width="16" height="16" viewBox="0 0 16 16">
	<defs>
		<clipPath id="clipPath0:0:0">
			<path d="M0 0L16 0L16 16L0 16L0 0Z" fill-rule="nonzero" transform="matrix(1 0 0 1 0 0)"/>
		</clipPath>
	</defs>
	<g clip-path="url(#clipPath0:0:0)">
		<path d="M6.5 0C2.91031 0 0 2.91031 0 6.5C0 10.0897 2.91031 13 6.5 13C10.0897 13 13 10.0897 13 6.5C13 2.91031 10.0897 0 6.5 0ZM9.5 7.5L6.5 7.5C6.36193 7.5 6.24408 7.45118 6.14645 7.35355C6.04881 7.25592 6 7.13807 6 7L6 2.5C6 2.36193 6.04881 2.24408 6.14645 2.14645C6.24408 2.04882 6.36193 2 6.5 2C6.63807 2 6.75592 2.04882 6.85355 2.14645C6.95118 2.24408 7 2.36193 7 2.5L7 6.5L9.5 6.5C9.63807 6.5 9.75592 6.54882 9.85355 6.64645C9.95118 6.74408 10 6.86193 10 7C10 7.13807 9.95118 7.25592 9.85355 7.35355C9.75592 7.45118 9.63807 7.5 9.5 7.5Z" fill-rule="nonzero" transform="matrix(1 0 0 1 1.5 1.5)" fill="rgb(107, 114, 128)"/>
	</g>
</svg>
