
<svg mexport="1" xmlns="http://www.w3.org/2000/svg" xmlns:xlink="http://www.w3.org/1999/xlink" width="20" height="20" viewBox="0 0 20 20">
	<defs>
		<clipPath id="clipPath0:0:0">
			<path d="M0 0L20 0L20 20L0 20L0 0Z" fill-rule="nonzero" transform="matrix(1 0 0 1 0 0)"/>
		</clipPath>
	</defs>
	<g clip-path="url(#clipPath0:0:0)">
		<defs>
			<mask id="mask0:0:1" style="mask-type:alpha">
				<path d="M0 0L20 0L20 20L0 20L0 0Z" fill-rule="nonzero" transform="matrix(0.999999 0 0 1 -2.19345e-05 0)" fill="rgb(0, 0, 0)"/>
			</mask>
		</defs>
		<g mask="url(#mask0:0:1)">
			<path d="M15 0L1.66667 0C0.75 0 0.00833333 0.75 0.00833333 1.66667L0 11.6667C0 12.5833 0.75 13.3333 1.66667 13.3333L15 13.3333C15.9167 13.3333 16.6667 12.5833 16.6667 11.6667L16.6667 1.66667C16.6667 0.75 15.9167 0 15 0ZM15 3.33333L8.33333 7.5L1.66667 3.33333L1.66667 1.66667L8.33333 5.83333L15 1.66667L15 3.33333Z" fill-rule="nonzero" transform="matrix(0.999999 0 0 1 1.66664 3.33333)" fill="rgb(59, 130, 246)"/>
		</g>
	</g>
</svg>
