
<svg mexport="1" xmlns="http://www.w3.org/2000/svg" xmlns:xlink="http://www.w3.org/1999/xlink" width="20" height="20" viewBox="0 0 20 20">
	<defs>
		<clipPath id="clipPath0:0:0">
			<path d="M0 0L20 0L20 20L0 20L0 0Z" fill-rule="nonzero" transform="matrix(1 0 0 1 0 0)"/>
		</clipPath>
	</defs>
	<g clip-path="url(#clipPath0:0:0)">
		<defs>
			<mask id="mask0:0:1" style="mask-type:alpha">
				<path d="M0 0L20 0L20 20L0 20L0 0Z" fill-rule="nonzero" transform="matrix(1 0 0 1 0 0)" fill="rgb(0, 0, 0)"/>
			</mask>
		</defs>
		<g mask="url(#mask0:0:1)">
			<path d="M0.625 0C0.279825 0 0 0.279825 0 0.625L0 9.84375C0 10.1889 0.122038 10.4835 0.366115 10.7276C0.610193 10.9717 0.904821 11.0938 1.25 11.0938L5 11.0938C5.04104 11.0938 5.08168 11.0898 5.12193 11.0817C5.16218 11.0737 5.20127 11.0619 5.23918 11.0462C5.27709 11.0305 5.31311 11.0112 5.34723 10.9884C5.38135 10.9656 5.41292 10.9397 5.44194 10.9107C5.47096 10.8817 5.49687 10.8501 5.51967 10.816C5.54247 10.7819 5.56172 10.7458 5.57742 10.7079C5.59313 10.67 5.60498 10.631 5.61299 10.5907C5.621 10.5504 5.625 10.5098 5.625 10.4688L5.625 5.15625C5.625 5.06996 5.65551 4.9963 5.71653 4.93528C5.77755 4.87426 5.85121 4.84375 5.9375 4.84375L9.0625 4.84375C9.14879 4.84375 9.22245 4.87426 9.28347 4.93528C9.34449 4.9963 9.375 5.06996 9.375 5.15625L9.375 10.4688C9.375 10.5098 9.379 10.5504 9.38701 10.5907C9.39502 10.631 9.40687 10.67 9.42257 10.7079C9.43828 10.7458 9.45753 10.7819 9.48033 10.816C9.50313 10.8501 9.52904 10.8817 9.55806 10.9107C9.58708 10.9397 9.61865 10.9656 9.65277 10.9884C9.68689 11.0112 9.72291 11.0305 9.76082 11.0462C9.79873 11.0619 9.83782 11.0737 9.87807 11.0817C9.91832 11.0898 9.95896 11.0938 10 11.0938L13.75 11.0938C14.0952 11.0938 14.3898 10.9717 14.6339 10.7276C14.878 10.4835 15 10.1889 15 9.84375L15 0.625C15 0.279825 14.7202 0 14.375 0C14.0298 0 13.75 0.279825 13.75 0.625L13.75 9.84375L10.625 9.84375L10.625 5.15625C10.625 4.72478 10.4725 4.35649 10.1673 4.05139C9.86226 3.7463 9.49397 3.59375 9.0625 3.59375L5.9375 3.59375C5.50603 3.59375 5.13774 3.7463 4.83265 4.0514C4.52755 4.35649 4.375 4.72478 4.375 5.15625L4.375 9.84375L1.25 9.84375L1.25 0.625C1.25 0.279825 0.970175 0 0.625 0Z" fill-rule="evenodd" transform="matrix(1 0 0 1 2.5 7.65625)" fill="rgb(156, 163, 175)"/>
			<path d="M17.6928 9.2008L9.38738 1.25041L9.3752 1.25L9.36264 1.25039L1.05719 9.2008C0.807838 9.43949 0.4122 9.43085 0.173513 9.1815C-0.0651749 8.93216 -0.0565339 8.53652 0.192813 8.29783L8.50901 0.337137C8.73015 0.111739 9.01963 -0.000638604 9.37744 2.74181e-06C9.73419 0.000642737 10.0222 0.113204 10.2416 0.337687L12.5 2.49958L12.5 1.24932C12.5 1.20828 12.504 1.16764 12.512 1.12739C12.52 1.08714 12.5319 1.04806 12.5476 1.01014C12.5633 0.972227 12.5825 0.936209 12.6053 0.902087C12.6281 0.867965 12.654 0.836395 12.6831 0.807377C12.7121 0.778358 12.7437 0.752449 12.7778 0.72965C12.8119 0.70685 12.8479 0.687598 12.8858 0.671894C12.9237 0.656189 12.9628 0.644334 13.0031 0.636328C13.0433 0.628321 13.0839 0.624318 13.125 0.624318L15 0.624318C15.0411 0.624318 15.0817 0.628321 15.1219 0.636328C15.1622 0.644334 15.2013 0.656189 15.2392 0.671894C15.2771 0.687598 15.3131 0.70685 15.3472 0.72965C15.3813 0.752449 15.4129 0.778358 15.4419 0.807377C15.471 0.836395 15.4969 0.867965 15.5197 0.902087C15.5425 0.936209 15.5617 0.972227 15.5774 1.01014C15.5931 1.04806 15.605 1.08714 15.613 1.12739C15.621 1.16764 15.625 1.20828 15.625 1.24932L15.625 5.49099L18.5572 8.29783C18.8065 8.53652 18.8152 8.93216 18.5765 9.1815C18.3378 9.43085 17.9422 9.43949 17.6928 9.2008ZM14.375 1.87432L14.375 4.29442L13.75 3.69614L13.75 1.87432L14.375 1.87432Z" fill-rule="evenodd" transform="matrix(1 0 0 1 0.625001 1.25068)" fill="rgb(156, 163, 175)"/>
		</g>
	</g>
</svg>
