
<svg mexport="1" xmlns="http://www.w3.org/2000/svg" xmlns:xlink="http://www.w3.org/1999/xlink" width="24" height="19.2" viewBox="0 0 24 19.2">
	<defs>
		<clipPath id="clipPath0:0:0">
			<path d="M0 0L24 0L24 19.2L0 19.2L0 0Z" fill-rule="nonzero" transform="matrix(1 0 0 1 0 0)"/>
		</clipPath>
	</defs>
	<g clip-path="url(#clipPath0:0:0)">
		<path d="M3.6 5.76C4.92375 5.76 6 4.899 6 3.84C6 2.781 4.92375 1.92 3.6 1.92C2.27625 1.92 1.2 2.781 1.2 3.84C1.2 4.899 2.27625 5.76 3.6 5.76ZM20.4 5.76C21.7238 5.76 22.8 4.899 22.8 3.84C22.8 2.781 21.7238 1.92 20.4 1.92C19.0763 1.92 18 2.781 18 3.84C18 4.899 19.0763 5.76 20.4 5.76ZM21.6 6.72L19.2 6.72C18.54 6.72 17.9438 6.933 17.5088 7.278C19.02 7.941 20.0925 9.138 20.325 10.56L22.8 10.56C23.4638 10.56 24 10.131 24 9.6L24 8.64C24 7.581 22.9237 6.72 21.6 6.72ZM12 6.72C14.3212 6.72 16.2 5.217 16.2 3.36C16.2 1.503 14.3212 0 12 0C9.67875 0 7.8 1.503 7.8 3.36C7.8 5.217 9.67875 6.72 12 6.72ZM14.88 7.68L14.5688 7.68C13.7888 7.98 12.9225 8.16 12 8.16C11.0775 8.16 10.215 7.98 9.43125 7.68L9.12 7.68C6.735 7.68 4.8 9.228 4.8 11.136L4.8 12C4.8 12.795 5.60625 13.44 6.6 13.44L17.4 13.44C18.3938 13.44 19.2 12.795 19.2 12L19.2 11.136C19.2 9.228 17.265 7.68 14.88 7.68ZM6.49125 7.278C6.05625 6.933 5.46 6.72 4.8 6.72L2.4 6.72C1.07625 6.72 0 7.581 0 8.64L0 9.6C0 10.131 0.53625 10.56 1.2 10.56L3.67125 10.56C3.9075 9.138 4.98 7.941 6.49125 7.278Z" fill-rule="nonzero" transform="matrix(1 0 0 1 0 2.88)" fill="rgb(255, 255, 255)"/>
	</g>
</svg>
