
<svg mexport="1" xmlns="http://www.w3.org/2000/svg" xmlns:xlink="http://www.w3.org/1999/xlink" width="18" height="18" viewBox="0 0 18 18">
	<defs>
		<clipPath id="clipPath0:0:0">
			<path d="M0 0L18 0L18 18L0 18L0 0Z" fill-rule="nonzero" transform="matrix(1 0 0 1 0 0)"/>
		</clipPath>
	</defs>
	<g clip-path="url(#clipPath0:0:0)">
		<path d="M-0.5625 0C-0.5625 0.310658 -0.310658 0.5625 0 0.5625L10.125 0.5625C10.4357 0.5625 10.6875 0.310658 10.6875 0C10.6875 -0.310658 10.4357 -0.5625 10.125 -0.5625L0 -0.5625C-0.310658 -0.5625 -0.5625 -0.310658 -0.5625 0ZM-0.5625 3.9375C-0.5625 4.24816 -0.310658 4.5 0 4.5L10.125 4.5C10.4357 4.5 10.6875 4.24816 10.6875 3.9375C10.6875 3.62684 10.4357 3.375 10.125 3.375L0 3.375C-0.310658 3.375 -0.5625 3.62684 -0.5625 3.9375ZM-0.5625 7.875C-0.5625 8.18566 -0.310658 8.4375 0 8.4375L10.125 8.4375C10.4357 8.4375 10.6875 8.18566 10.6875 7.875C10.6875 7.56434 10.4357 7.3125 10.125 7.3125L0 7.3125C-0.310658 7.3125 -0.5625 7.56434 -0.5625 7.875Z" fill-rule="evenodd" transform="matrix(1 0 0 1 5.625 5.0625)" fill="rgb(156, 163, 175)"/>
		<circle cx="0.5625" cy="0.5625" r="0.5625" stroke-width="1.125" transform="matrix(1 0 0 1 2.25 4.5)" stroke="rgb(156, 163, 175)" fill="transparent"/>
		<circle cx="0.5625" cy="0.5625" r="0.5625" stroke-width="1.125" transform="matrix(1 0 0 1 2.25 8.4375)" stroke="rgb(156, 163, 175)" fill="transparent"/>
		<circle cx="0.5625" cy="0.5625" r="0.5625" stroke-width="1.125" transform="matrix(1 0 0 1 2.25 12.375)" stroke="rgb(156, 163, 175)" fill="transparent"/>
	</g>
</svg>
