
<svg mexport="1" xmlns="http://www.w3.org/2000/svg" xmlns:xlink="http://www.w3.org/1999/xlink" width="24" height="24" viewBox="0 0 24 24">
	<defs>
		<clipPath id="clipPath0:0:0">
			<path d="M0 0L24 0L24 24L0 24L0 0Z" fill-rule="nonzero" transform="matrix(1 0 0 1 0 0)"/>
		</clipPath>
	</defs>
	<g clip-path="url(#clipPath0:0:0)">
		<defs>
			<mask id="mask0:0:1" style="mask-type:alpha">
				<path d="M0 0L24 0L24 24L0 24L0 0Z" fill-rule="nonzero" transform="matrix(1 0 0 1 0 0)" fill="rgb(0, 0, 0)"/>
			</mask>
		</defs>
		<g mask="url(#mask0:0:1)">
			<defs>
				<mask id="mask0:0:2" style="mask-type:alpha">
					<path d="M0 0L24 0L24 24L0 24L0 0Z" fill-rule="nonzero" transform="matrix(1 0 0 1 0 0)" fill="rgb(0, 0, 0)"/>
				</mask>
			</defs>
			<g mask="url(#mask0:0:2)">
				<defs>
					<mask id="mask0:0:3" style="mask-type:alpha">
						<path d="M0 0L24 0L24 24L0 24L0 0Z" fill-rule="nonzero" transform="matrix(1 0 0 1 0 0)" fill="rgb(0, 0, 0)"/>
					</mask>
				</defs>
				<g mask="url(#mask0:0:3)">
					<path d="M22.0004 11.0064L22.0004 10.0864C22.0004 9.53412 21.5527 9.0864 21.0004 9.0864C20.4481 9.0864 20.0004 9.53412 20.0004 10.0864L20.0004 11.0064C19.9999 11.9764 19.8464 12.9218 19.54 13.8426C19.2335 14.7633 18.7898 15.6123 18.2088 16.3895C17.6278 17.1667 16.9391 17.8325 16.1427 18.387C15.3463 18.9414 14.4828 19.3562 13.5523 19.6314C12.6217 19.9065 11.6714 20.028 10.7016 19.9958C9.73172 19.9635 8.79166 19.7792 7.88139 19.443C6.97115 19.1067 6.13711 18.6355 5.37925 18.0295C4.62141 17.4233 3.97841 16.7133 3.45024 15.8993C2.92208 15.0851 2.53569 14.2086 2.29106 13.2696C2.04643 12.3305 1.95604 11.3768 2.01989 10.4085C2.08374 9.4402 2.29857 8.50666 2.66438 7.60787C3.0302 6.70907 3.52835 5.89084 4.15883 5.15318C4.78931 4.41552 5.51999 3.79603 6.35085 3.29471C7.18173 2.79339 8.07043 2.4358 9.01695 2.22194C9.96349 2.00808 10.9196 1.94886 11.8853 2.04427C12.851 2.13968 13.7771 2.38486 14.6634 2.77981C15.1679 3.00459 15.759 2.77786 15.9838 2.2734C16.2086 1.76893 15.9819 1.17774 15.4774 0.95296C14.3941 0.470241 13.2622 0.170575 12.082 0.0539619C10.9017 -0.0626481 9.73307 0.0097349 8.57618 0.271111C7.41932 0.532493 6.33313 0.969545 5.31762 1.58227C4.30212 2.19499 3.40908 2.95215 2.63849 3.85374C1.8679 4.75532 1.25905 5.75538 0.811942 6.85391C0.364833 7.95244 0.102261 9.09344 0.024228 10.2769C-0.0538085 11.4604 0.0566671 12.626 0.355655 13.7737C0.654639 14.9214 1.1269 15.9928 1.77244 16.9878C2.41798 17.9828 3.20387 18.8506 4.13011 19.5914C5.05638 20.3322 6.07578 20.9081 7.18831 21.3191C8.30085 21.7301 9.44981 21.9552 10.6352 21.9946C11.8205 22.034 12.9819 21.8855 14.1193 21.5493C15.2567 21.213 16.312 20.706 17.2854 20.0284C18.2588 19.3507 19.1005 18.5369 19.8106 17.587C20.5208 16.637 21.0631 15.5994 21.4376 14.4741C21.8121 13.3487 21.9997 12.1928 22.0004 11.0064Z" fill-rule="evenodd" transform="matrix(1 0 0 1 0.999617 0.993603)" fill="rgb(59, 130, 246)"/>
					<path d="M13.2925 0.293246C13.6829 -0.0974707 14.316 -0.0977907 14.7068 0.292539C15.0975 0.682865 15.0978 1.31604 14.7075 1.70675L4.70746 11.7168C4.66105 11.7632 4.61056 11.8047 4.55599 11.8412C4.50141 11.8777 4.44379 11.9086 4.38314 11.9337C4.32249 11.9588 4.25997 11.9778 4.19558 11.9907C4.13119 12.0035 4.06616 12.0099 4.0005 12.01C3.93484 12.01 3.86981 12.0036 3.8054 11.9909C3.74099 11.9781 3.67845 11.9592 3.61778 11.9341C3.55711 11.909 3.49946 11.8782 3.44485 11.8417C3.39024 11.8053 3.3397 11.7639 3.29325 11.7175L0.292892 8.71711C-0.0976307 8.32659 -0.0976307 7.69341 0.292892 7.30289C0.683413 6.91237 1.31659 6.91237 1.70711 7.30289L3.99965 9.59543L13.2925 0.293246Z" fill-rule="evenodd" transform="matrix(1 0 0 1 8 3)" fill="rgb(59, 130, 246)"/>
				</g>
			</g>
		</g>
	</g>
</svg>
