
<svg mexport="1" xmlns="http://www.w3.org/2000/svg" xmlns:xlink="http://www.w3.org/1999/xlink" width="12" height="12" viewBox="0 0 12 12">
	<defs>
		<clipPath id="clipPath0:0:0">
			<path d="M0 0L12 0L12 12L0 12L0 0Z" fill-rule="nonzero" transform="matrix(1 0 0 1 0 0)"/>
		</clipPath>
	</defs>
	<g clip-path="url(#clipPath0:0:0)">
		<path d="M5.22361 0.447214L0.223607 2.94721L0 2.5L0.223607 2.05279L5.22361 4.55279L5 5L4.77639 4.55279L9.77639 2.05279L10 2.5L9.77639 2.94721L4.77639 0.447214L5 0L5.22361 0.447214ZM4.77639 -0.447214Q4.88197 -0.5 5 -0.5Q5.11803 -0.5 5.22361 -0.447214L10.2236 2.05279Q10.3727 2.12732 10.4472 2.27639Q10.4692 2.32044 10.4822 2.36794Q10.4952 2.41543 10.4987 2.46456Q10.5022 2.51368 10.4961 2.56254Q10.4899 2.6114 10.4743 2.65811Q10.4588 2.70483 10.4344 2.74761Q10.41 2.7904 10.3777 2.8276Q10.3455 2.8648 10.3066 2.895Q10.2677 2.92519 10.2236 2.94721L5.22361 5.44721Q5.11803 5.5 5 5.5Q4.88197 5.5 4.77639 5.44721L-0.223607 2.94721Q-0.372678 2.87268 -0.447214 2.72361Q-0.469237 2.67956 -0.482244 2.63206Q-0.495251 2.58457 -0.498742 2.53544Q-0.502233 2.48632 -0.496074 2.43746Q-0.489914 2.3886 -0.474342 2.34189Q-0.458769 2.29517 -0.434381 2.25238Q-0.409993 2.2096 -0.377727 2.1724Q-0.345461 2.1352 -0.306557 2.105Q-0.267653 2.07481 -0.223607 2.05279L4.77639 -0.447214L4.77639 -0.447214Z" fill-rule="nonzero" transform="matrix(1 0 0 1 1 1)" fill="rgb(249, 115, 22)"/>
		<path d="M-0.223607 0.447214C-0.470594 0.32372 -0.570707 0.0233803 -0.447214 -0.223607C-0.32372 -0.470594 -0.0233803 -0.570707 0.223607 -0.447214L5 1.94098L9.77639 -0.447214C10.0234 -0.570707 10.3237 -0.470594 10.4472 -0.223607C10.5707 0.0233803 10.4706 0.32372 10.2236 0.447214L5.22361 2.94721Q5.11803 3 5 3Q4.88197 3 4.77639 2.94721L-0.223607 0.447214Z" fill-rule="evenodd" transform="matrix(1 0 0 1 1 8.5)" fill="rgb(249, 115, 22)"/>
		<path d="M-0.223607 0.447214C-0.470594 0.32372 -0.570707 0.0233803 -0.447214 -0.223607C-0.32372 -0.470594 -0.0233803 -0.570707 0.223607 -0.447214L5 1.94098L9.77639 -0.447214C10.0234 -0.570707 10.3237 -0.470594 10.4472 -0.223607C10.5707 0.0233803 10.4706 0.32372 10.2236 0.447214L5.22361 2.94721Q5.11803 3 5 3Q4.88197 3 4.77639 2.94721L-0.223607 0.447214Z" fill-rule="evenodd" transform="matrix(1 0 0 1 1 6)" fill="rgb(249, 115, 22)"/>
	</g>
</svg>
