
<svg mexport="1" xmlns="http://www.w3.org/2000/svg" xmlns:xlink="http://www.w3.org/1999/xlink" width="72" height="48" viewBox="0 0 72 48">
	<defs>
		<clipPath id="clipPath0:0:0">
			<path d="M0 0L72 0L72 48L0 48L0 0Z" fill-rule="nonzero" transform="matrix(1 0 0 1 0 0)"/>
		</clipPath>
	</defs>
	<g clip-path="url(#clipPath0:0:0)">
		<defs>
			<mask id="mask0:0:1" style="mask-type:alpha">
				<path d="M0 0L71.9949 0L71.9949 71.9949L0 71.9949L0 0Z" fill-rule="nonzero" transform="matrix(1 0 0 1 0.00764465 -23.9949)" fill="rgb(0, 0, 0)"/>
			</mask>
		</defs>
		<g mask="url(#mask0:0:1)">
			<defs>
				<mask id="mask0:0:2" style="mask-type:alpha">
					<path d="M0 0L31.9977 0L31.9977 31.9977L0 31.9977L0 0Z" fill-rule="nonzero" transform="matrix(1 0 0 1 20.0113 -3.9963)" fill="rgb(0, 0, 0)"/>
				</mask>
			</defs>
			<g mask="url(#mask0:0:2)">
				<defs>
					<filter id="filter0:0:3" filterUnits="userSpaceOnUse" color-interpolation-filters="sRGB">
						<feGaussianBlur in="SourceGraphic" stdDeviation="5"/>
					</filter>
				</defs>
				<g filter="url(#filter0:0:3)">
					<path d="M5.99958 0C2.6861 0 0 2.6861 0 5.99958C0 9.32205 2.6771 11.9992 5.99058 11.9992C9.31305 11.9992 11.9992 9.32205 11.9992 6.00857C11.9992 2.6861 9.32205 0 5.99958 0Z" fill-rule="nonzero" transform="matrix(1 0 0 1 30.0132 6.003)" fill="rgb(59, 130, 246)" fill-opacity="0.6"/>
				</g>
			</g>
		</g>
	</g>
</svg>
