
<svg mexport="1" xmlns="http://www.w3.org/2000/svg" xmlns:xlink="http://www.w3.org/1999/xlink" width="16" height="16" viewBox="0 0 16 16">
	<defs>
		<clipPath id="clipPath0:0:0">
			<path d="M0 0L16 0L16 16L0 16L0 0Z" fill-rule="nonzero" transform="matrix(1 0 0 1 0 0)"/>
		</clipPath>
	</defs>
	<g clip-path="url(#clipPath0:0:0)">
		<path d="M-0.5 0C-0.5 0.27614 -0.27614 0.5 0 0.5L14 0.5C14.2761 0.5 14.5 0.27614 14.5 0C14.5 -0.27614 14.2761 -0.5 14 -0.5L0 -0.5C-0.27614 -0.5 -0.5 -0.27614 -0.5 0ZM2 3.5C2 3.77614 2.22386 4 2.5 4L11.5 4C11.7761 4 12 3.77614 12 3.5C12 3.22386 11.7761 3 11.5 3L2.5 3C2.22386 3 2 3.22386 2 3.5ZM5 7C5 7.27614 5.22386 7.5 5.5 7.5L8.5 7.5C8.77614 7.5 9 7.27614 9 7C9 6.72386 8.77614 6.5 8.5 6.5L5.5 6.5C5.22386 6.5 5 6.72386 5 7Z" fill-rule="evenodd" transform="matrix(1 0 0 1 1 4.5)" fill="rgb(255, 255, 255)"/>
	</g>
</svg>
