
<svg mexport="1" xmlns="http://www.w3.org/2000/svg" xmlns:xlink="http://www.w3.org/1999/xlink" width="16" height="16" viewBox="0 0 16 16">
	<defs>
		<clipPath id="clipPath0:0:0">
			<path d="M0 0L16 0L16 16L0 16L0 0Z" fill-rule="nonzero" transform="matrix(1 0 0 1 0 0)"/>
		</clipPath>
	</defs>
	<g clip-path="url(#clipPath0:0:0)">
		<path d="M4.90906 0.5Q3.08277 0.5 1.79138 1.79138Q0.5 3.08277 0.5 4.90906Q0.5 6.73535 1.79138 8.02674Q3.08277 9.31812 4.90906 9.31812Q6.73535 9.31812 8.02674 8.02674Q9.31812 6.73536 9.31812 4.90906Q9.318 3.08284 8.02665 1.79148Q6.73529 0.500116 4.90903 0.5L4.90906 0.5ZM4.90909 -0.5Q7.14953 -0.499857 8.73376 1.08437Q10.318 2.66859 10.3181 4.90906Q10.3181 7.14957 8.73385 8.73385Q7.14957 10.3181 4.90906 10.3181Q2.66856 10.3181 1.08428 8.73385Q-0.5 7.14957 -0.5 4.90906Q-0.5 2.66856 1.08428 1.08428Q2.66856 -0.5 4.90906 -0.5L4.90909 -0.5Z" fill-rule="nonzero" transform="matrix(1 0 0 1 2 2)" fill="rgb(156, 163, 175)"/>
		<path d="M-0.353553 -0.353553C-0.548814 -0.158293 -0.548814 0.158293 -0.353553 0.353553L3.07488 3.78199C3.27014 3.97725 3.58673 3.97725 3.78199 3.78199C3.97725 3.58673 3.97725 3.27014 3.78199 3.07488L0.353553 -0.353553C0.158293 -0.548814 -0.158293 -0.548814 -0.353553 -0.353553Z" fill-rule="evenodd" transform="matrix(1 0 0 1 10.5716 10.5716)" fill="rgb(156, 163, 175)"/>
	</g>
</svg>
