
<svg mexport="1" xmlns="http://www.w3.org/2000/svg" xmlns:xlink="http://www.w3.org/1999/xlink" width="20" height="20" viewBox="0 0 20 20">
	<defs>
		<clipPath id="clipPath0:0:0">
			<path d="M0 0L20 0L20 20L0 20L0 0Z" fill-rule="nonzero" transform="matrix(1 0 0 1 0 0)"/>
		</clipPath>
	</defs>
	<g clip-path="url(#clipPath0:0:0)">
		<defs>
			<mask id="mask0:0:1" style="mask-type:alpha">
				<path d="M0 0L20 0L20 20L0 20L0 0Z" fill-rule="nonzero" transform="matrix(1 0 0 1 0 0)" fill="rgb(0, 0, 0)"/>
			</mask>
		</defs>
		<g mask="url(#mask0:0:1)">
			<path d="M15.6421 8.98805C15.6411 9.138 15.6352 9.28776 15.6242 9.43731C15.6222 9.46492 15.62 9.49251 15.6176 9.52008L17.109 10.6899L17.1222 10.7005C17.3191 10.8637 17.44 11.0712 17.4849 11.323C17.5297 11.5748 17.4879 11.8113 17.3595 12.0326L15.6894 14.9221C15.5572 15.1452 15.3709 15.2987 15.1305 15.3827C14.8901 15.4666 14.6509 15.4634 14.4129 15.3729L12.6459 14.6636C12.4971 14.766 12.3456 14.8621 12.1916 14.9518C12.038 15.0412 11.8813 15.1247 11.7215 15.2022L11.4586 17.0725L11.4554 17.0931C11.4118 17.3421 11.2942 17.5489 11.1025 17.7136C10.9107 17.8783 10.6884 17.9633 10.4357 17.9686L7.0811 17.9688C6.82606 17.9644 6.60315 17.8831 6.41239 17.7248C6.22163 17.5665 6.10128 17.366 6.05134 17.1232C6.04868 17.1103 6.04644 17.0973 6.0446 17.0842L5.78087 15.2163C5.61771 15.1376 5.45895 15.053 5.30459 14.9626C5.15063 14.8724 5.0005 14.7762 4.85422 14.674L3.10082 15.3798C2.85562 15.4733 2.61283 15.4781 2.37246 15.3943C2.13209 15.3105 1.94689 15.1592 1.81686 14.9404L0.142322 12.0432C0.0141885 11.8229 -0.0274255 11.5868 0.0174805 11.3347C0.0623865 11.0827 0.183447 10.8751 0.380661 10.7119L0.393182 10.7018L1.88387 9.53026C1.86691 9.33407 1.85844 9.15172 1.85844 8.98321C1.85844 8.81046 1.86673 8.63208 1.88333 8.44807L0.391104 7.27587L0.373637 7.26163C0.179836 7.09776 0.0612735 6.89078 0.0179495 6.6407C-0.0253745 6.39063 0.0166538 6.15583 0.144034 5.93631L1.8142 3.04662C1.94645 2.82357 2.13277 2.67006 2.37316 2.58609C2.61354 2.50212 2.85274 2.50538 3.09074 2.59589L4.85775 3.3052C5.00652 3.20274 5.15795 3.10666 5.31205 3.01695C5.46559 2.92756 5.6223 2.84409 5.78216 2.76655L6.045 0.896226L6.04825 0.875604C6.09176 0.626622 6.2094 0.419804 6.40117 0.255149C6.59293 0.0904943 6.81517 0.00549136 7.06787 0.000140011L10.4225 0C10.6775 0.00434999 10.9005 0.0856676 11.0913 0.243953C11.282 0.402235 11.4023 0.602775 11.4523 0.845572C11.4549 0.85848 11.4572 0.871459 11.459 0.884509L11.7228 2.75245C11.8859 2.8312 12.0446 2.91579 12.199 3.0062C12.353 3.09639 12.5031 3.19258 12.6494 3.29478L14.4028 2.58896C14.648 2.49551 14.8908 2.49067 15.1312 2.57446C15.3715 2.65824 15.5567 2.80954 15.6868 3.02837L17.3613 5.92553C17.4894 6.14584 17.531 6.382 17.4862 6.63403C17.4412 6.88605 17.3202 7.09367 17.123 7.25688L17.1105 7.26698L15.6179 8.43993C15.634 8.64126 15.6421 8.82642 15.6421 8.98805ZM14.3921 8.98251C14.392 8.85452 14.3857 8.71189 14.3732 8.55461C14.3537 8.3434 14.3858 8.14037 14.4696 7.9455C14.5533 7.75063 14.6787 7.58735 14.8459 7.45568L16.1914 6.39932L14.699 3.8172L13.116 4.45444C12.9205 4.53307 12.7181 4.56054 12.5089 4.53685C12.2995 4.51316 12.108 4.44091 11.9344 4.32008C11.8152 4.23674 11.6928 4.15831 11.5673 4.08479C11.4417 4.01127 11.3145 3.94339 11.1856 3.88114C10.9963 3.79107 10.8395 3.66165 10.7153 3.49288C10.5909 3.32411 10.5137 3.1353 10.4837 2.92643L10.2481 1.24999L7.25758 1.24987L7.02006 2.94002C6.9914 3.14603 6.91594 3.33318 6.79369 3.50145C6.67143 3.66972 6.51657 3.79942 6.32911 3.89053C6.19711 3.95452 6.06772 4.02341 5.94095 4.09722C5.81417 4.17103 5.69133 4.24887 5.57242 4.33074C5.39952 4.45123 5.20839 4.52355 4.99904 4.5477C4.78968 4.57185 4.58635 4.54465 4.38905 4.46609L2.80604 3.82854L1.3135 6.4109L2.65466 7.46443C2.82039 7.5944 2.9453 7.75593 3.02939 7.94904C3.11347 8.14214 3.14653 8.34487 3.12855 8.55723C3.11514 8.705 3.10844 8.847 3.10844 8.98321C3.10844 9.11582 3.11507 9.25899 3.12833 9.41272C3.14824 9.62357 3.11669 9.82641 3.03367 10.0212C2.95064 10.2161 2.82531 10.38 2.65769 10.5131L1.31224 11.5694L2.8046 14.1516L4.38767 13.5143C4.58309 13.4357 4.78547 13.4082 4.99479 13.4319C5.2041 13.4556 5.39558 13.5278 5.56923 13.6487C5.68847 13.732 5.81085 13.8105 5.93636 13.884C6.06188 13.9575 6.18911 14.0253 6.31805 14.0876C6.50731 14.1777 6.66408 14.3071 6.78838 14.4759C6.91268 14.6446 6.98986 14.8334 7.01994 15.0423L7.25553 16.7188L10.246 16.7189L10.4835 15.0287C10.5122 14.8227 10.5876 14.6356 10.7099 14.4673C10.8321 14.299 10.987 14.1693 11.1745 14.0782C11.3065 14.0142 11.4359 13.9453 11.5627 13.8715C11.6895 13.7977 11.8123 13.7199 11.9312 13.638C12.1041 13.5175 12.2952 13.4452 12.5046 13.421C12.7139 13.3969 12.9172 13.4241 13.1146 13.5027L14.6976 14.1402L16.1902 11.5578L14.5716 10.2883C14.5284 10.2544 14.4904 10.2156 14.4575 10.1717C14.4245 10.1279 14.3978 10.0805 14.3774 10.0297C14.3569 9.97879 14.3434 9.92613 14.3368 9.8717C14.3302 9.81727 14.3307 9.76292 14.3385 9.70863C14.3556 9.58803 14.3686 9.46701 14.3776 9.34557C14.3864 9.22534 14.3913 9.10307 14.3921 8.98251ZM10.9605 6.77572C10.4341 6.24937 9.80061 5.949 9.05997 5.87461C8.16107 5.78583 7.37098 6.03906 6.69176 6.63451C6.01254 7.22996 5.65811 7.97907 5.62848 8.88185C5.59884 9.78464 5.90338 10.5554 6.54209 11.1941C7.18079 11.8328 7.95154 12.1373 8.85432 12.1077C9.7571 12.078 10.5062 11.7236 11.1017 11.0444C11.6971 10.3652 11.9505 9.57614 11.8617 8.67725C11.7872 7.93592 11.4868 7.30207 10.9605 6.77572ZM8.93505 7.11836C9.37947 7.16322 9.76066 7.3437 10.0766 7.65961C10.3927 7.97576 10.5731 8.35592 10.6177 8.8001C10.671 9.33944 10.519 9.81287 10.1617 10.2204C9.80445 10.6279 9.35498 10.8406 8.81331 10.8584C8.27164 10.8761 7.80919 10.6934 7.42597 10.3102C7.04275 9.92698 6.86003 9.46453 6.87781 8.92286C6.89559 8.38119 7.10824 7.93173 7.51578 7.57446C7.92304 7.21742 8.39613 7.06539 8.93505 7.11836Z" fill-rule="evenodd" transform="matrix(1 0 0 1 1.2482 1.01562)" fill="rgb(156, 163, 175)"/>
		</g>
	</g>
</svg>
