
<svg mexport="1" xmlns="http://www.w3.org/2000/svg" xmlns:xlink="http://www.w3.org/1999/xlink" width="16" height="16" viewBox="0 0 16 16">
	<defs>
		<clipPath id="clipPath0:0:0">
			<path d="M0 0L16 0L16 16L0 16L0 0Z" fill-rule="nonzero" transform="matrix(1 0 0 1 0 0)"/>
		</clipPath>
	</defs>
	<g clip-path="url(#clipPath0:0:0)">
		<path d="M2 3.5Q2.62134 3.5 3.06067 3.06066Q3.5 2.62133 3.5 2Q3.5 1.37867 3.06067 0.939339Q2.62134 0.5 2 0.5Q1.37866 0.5 0.93933 0.939339Q0.5 1.37867 0.5 2Q0.5 2.62133 0.93933 3.06066Q1.37866 3.5 2 3.5ZM2 4.5Q1.4917 4.5 1.02672 4.30333Q0.577985 4.11353 0.232219 3.76776Q-0.113544 3.422 -0.303338 2.97326Q-0.5 2.50829 -0.5 2Q-0.5 1.49171 -0.303338 1.02674Q-0.113543 0.578003 0.232219 0.232236Q0.577985 -0.113533 1.02672 -0.303332Q1.4917 -0.5 2 -0.5Q2.5083 -0.5 2.97328 -0.303332Q3.42202 -0.113533 3.76778 0.232236Q4.11354 0.578003 4.30334 1.02674Q4.5 1.49171 4.5 2Q4.5 2.50829 4.30334 2.97326Q4.11354 3.422 3.76778 3.76776Q3.42202 4.11353 2.97328 4.30333Q2.5083 4.5 2 4.5Z" fill-rule="nonzero" transform="matrix(1 0 0 1 10 1.33333)" fill="rgb(156, 163, 175)"/>
		<path d="M2 3.5Q2.62133 3.5 3.06066 3.06067Q3.5 2.62134 3.5 2Q3.5 1.37866 3.06066 0.93933Q2.62133 0.5 2 0.5Q1.37867 0.5 0.939339 0.93933Q0.5 1.37866 0.5 2Q0.5 2.62134 0.939339 3.06067Q1.37867 3.5 2 3.5ZM2 4.5Q1.49171 4.5 1.02674 4.30334Q0.578004 4.11354 0.232236 3.76778Q-0.113533 3.42202 -0.303332 2.97328Q-0.5 2.5083 -0.5 2Q-0.5 1.4917 -0.303332 1.02672Q-0.113533 0.577985 0.232236 0.232219Q0.578003 -0.113543 1.02674 -0.303338Q1.49171 -0.5 2 -0.5Q2.50829 -0.5 2.97326 -0.303338Q3.422 -0.113543 3.76776 0.232219Q4.11353 0.577985 4.30333 1.02672Q4.5 1.4917 4.5 2Q4.5 2.5083 4.30333 2.97328Q4.11353 3.42201 3.76776 3.76778Q3.422 4.11354 2.97326 4.30334Q2.50829 4.5 2 4.5Z" fill-rule="nonzero" transform="matrix(1 0 0 1 2 6)" fill="rgb(156, 163, 175)"/>
		<path d="M2 3.5Q2.62134 3.5 3.06067 3.06067Q3.5 2.62134 3.5 2Q3.5 1.37866 3.06067 0.939328Q2.62134 0.5 2 0.5Q1.37866 0.5 0.939328 0.939328Q0.5 1.37866 0.5 2Q0.5 2.62134 0.939328 3.06067Q1.37866 3.5 2 3.5ZM2 4.5Q1.4917 4.5 1.02673 4.30334Q0.577987 4.11354 0.232222 3.76778Q-0.113544 3.42201 -0.303339 2.97327Q-0.5 2.5083 -0.5 2Q-0.5 1.4917 -0.303339 1.02673Q-0.113544 0.577987 0.232222 0.232222Q0.577987 -0.113544 1.02673 -0.303339Q1.4917 -0.5 2 -0.5Q2.5083 -0.5 2.97327 -0.303339Q3.42201 -0.113544 3.76778 0.232222Q4.11354 0.577987 4.30334 1.02673Q4.5 1.4917 4.5 2Q4.5 2.5083 4.30334 2.97327Q4.11354 3.42201 3.76778 3.76778Q3.42201 4.11354 2.97327 4.30334Q2.5083 4.5 2 4.5Z" fill-rule="nonzero" transform="matrix(1 0 0 1 10 10.6667)" fill="rgb(156, 163, 175)"/>
		<path d="M-0.432004 -0.251739C-0.571034 -0.0131516 -0.490326 0.292974 -0.251739 0.432004L4.30159 3.08534C4.54018 3.22437 4.84631 3.14366 4.98534 2.90507C5.12437 2.66648 5.04366 2.36036 4.80507 2.22133L0.251739 -0.432004C0.0131516 -0.571034 -0.292974 -0.490326 -0.432004 -0.251739Z" fill-rule="evenodd" transform="matrix(1 0 0 1 5.72667 9.00667)" fill="rgb(156, 163, 175)"/>
		<path d="M4.29465 -0.431844C4.53315 -0.571026 4.83933 -0.490513 4.97851 -0.252014C5.11769 -0.0135157 5.03718 0.292661 4.79868 0.431844L0.252014 3.08518C0.0135158 3.22436 -0.292661 3.14385 -0.431843 2.90535C-0.571026 2.66685 -0.490513 2.36067 -0.252014 2.22149L4.29465 -0.431844Z" fill-rule="evenodd" transform="matrix(1 0 0 1 5.72667 4.34)" fill="rgb(156, 163, 175)"/>
	</g>
</svg>
