
<svg mexport="1" xmlns="http://www.w3.org/2000/svg" xmlns:xlink="http://www.w3.org/1999/xlink" width="16" height="18" viewBox="0 0 16 18">
	<defs>
		<clipPath id="clipPath0:0:0">
			<path d="M0 0L16 0L16 18L0 18L0 0Z" fill-rule="nonzero" transform="matrix(1 0 0 1 0 0)"/>
		</clipPath>
	</defs>
	<g clip-path="url(#clipPath0:0:0)">
		<defs>
			<clipPath id="clipPath0:0:1">
				<path d="M0 0L16 0L16 18.2656L0 18.2656L0 0Z" fill-rule="nonzero" transform="matrix(1 0 0 1 0 -0.1328)"/>
			</clipPath>
		</defs>
		<g clip-path="url(#clipPath0:0:1)">
			<defs>
				<mask id="mask0:0:2" style="mask-type:alpha">
					<path d="M0 0L15.9825 0L15.9825 18.2657L0 18.2657L0 0Z" fill-rule="nonzero" transform="matrix(1 0 0 1 0.0262513 -0.133079)" fill="rgb(0, 0, 0)"/>
				</mask>
			</defs>
			<g mask="url(#mask0:0:2)">
				<defs>
					<mask id="mask0:0:3" style="mask-type:alpha">
						<path d="M0 0L15.9825 0L15.9825 15.9825L0 15.9825L0 0Z" fill-rule="nonzero" transform="matrix(1 0 0 1 0.0437522 -0.133079)" fill="rgb(0, 0, 0)"/>
					</mask>
				</defs>
				<g mask="url(#mask0:0:3)">
					<defs>
						<mask id="mask0:0:4" style="mask-type:alpha">
							<path d="M0 0L15.9825 0L15.9825 15.9825L0 15.9825L0 0Z" fill-rule="nonzero" transform="matrix(1 0 0 1 0.0612531 -0.133079)" fill="rgb(0, 0, 0)"/>
						</mask>
					</defs>
					<g mask="url(#mask0:0:4)">
						<circle cx="1.9978124" cy="1.9978124" r="1.9978124" transform="matrix(1 0 0 1 6.05469 5.86036)" fill="rgb(107, 114, 128)"/>
						<path d="M14.8232 4.45138C13.9972 3.17402 12.9255 2.08896 11.7244 1.31325C10.3955 0.454191 8.92836 0 7.48182 0C6.15452 0 4.84939 0.379273 3.60263 1.12721C2.33121 1.88981 1.17935 3.0039 0.178879 4.43826C0.063381 4.60404 0.00381321 4.78793 0.000175514 4.98994C-0.00346219 5.19194 0.0494462 5.37785 0.158901 5.54768C0.98331 6.83782 2.04433 7.92444 3.22679 8.68955C4.55815 9.55204 5.99095 9.98906 7.48182 9.98906C8.93991 9.98906 10.4102 9.53862 11.7335 8.68674C12.9339 7.91352 14.0035 6.8244 14.8263 5.53644C14.9318 5.37082 14.9843 5.18983 14.9837 4.99345C14.9831 4.79708 14.9297 4.61638 14.8232 4.45138ZM7.49244 7.99125C6.66491 7.99125 5.95858 7.69868 5.37344 7.11353C4.78829 6.52838 4.49572 5.82206 4.49572 4.99453C4.49572 4.16701 4.78829 3.46068 5.37344 2.87553C5.95858 2.29038 6.66491 1.99781 7.49244 1.99781C8.31995 1.99781 9.02629 2.29038 9.61143 2.87553C10.1965 3.46068 10.4891 4.16701 10.4891 4.99453C10.4882 5.82166 10.1953 6.52766 9.61043 7.11253C9.02556 7.69739 8.31956 7.9903 7.49244 7.99125Z" fill-rule="nonzero" transform="matrix(1 0 0 1 0.56007 2.86364)" fill="rgb(107, 114, 128)"/>
					</g>
				</g>
			</g>
		</g>
	</g>
</svg>
