
<svg mexport="1" xmlns="http://www.w3.org/2000/svg" xmlns:xlink="http://www.w3.org/1999/xlink" width="12" height="12" viewBox="0 0 12 12">
	<defs>
		<clipPath id="clipPath0:0:0">
			<path d="M0 0L12 0L12 12L0 12L0 0Z" fill-rule="nonzero" transform="matrix(1 0 0 1 0 0)"/>
		</clipPath>
	</defs>
	<g clip-path="url(#clipPath0:0:0)">
		<path d="M7.14682 0C6.01971 0 5.27182 0.692344 4.87526 1.19531C4.47963 0.691641 3.73081 0 2.6037 0C1.18292 0 0.0150256 1.18453 0.000259995 2.64023C-0.0123963 3.91078 0.436901 5.08406 1.37393 6.22617C1.81385 6.76242 2.61143 7.61977 4.45338 8.87016C4.58051 8.95728 4.72114 9.00085 4.87526 9.00085C5.02938 9.00085 5.17001 8.95728 5.29713 8.87016C7.13909 7.61977 7.93667 6.76242 8.37659 6.22617C9.31409 5.08383 9.76292 3.91055 9.75026 2.64023C9.73549 1.18453 8.5676 0 7.14682 0ZM4.87526 8.25L4.87526 3.36516C4.87526 2.90508 4.99784 2.45672 5.20831 2.0475C5.20857 2.04685 5.20886 2.04622 5.20917 2.04559C5.20949 2.04496 5.20982 2.04435 5.21018 2.04375C5.27844 1.92051 5.35531 1.80291 5.44081 1.69095C5.5263 1.57898 5.61951 1.47385 5.72042 1.37555C6.14534 0.960938 6.6251 0.75 7.14682 0.75C8.15815 0.75 8.98948 1.60125 9.00003 2.64844C9.0237 5.10023 6.92909 6.8557 4.87526 8.25Z" fill-rule="nonzero" transform="matrix(1 0 0 1 1.12474 1.5)" fill="rgb(249, 115, 22)"/>
	</g>
</svg>
