
<svg mexport="1" xmlns="http://www.w3.org/2000/svg" xmlns:xlink="http://www.w3.org/1999/xlink" width="20" height="20" viewBox="0 0 20 20">
	<defs>
		<clipPath id="clipPath0:0:0">
			<path d="M0 0L20 0L20 20L0 20L0 0Z" fill-rule="nonzero" transform="matrix(1 0 0 1 0 0)"/>
		</clipPath>
	</defs>
	<g clip-path="url(#clipPath0:0:0)">
		<path d="M8.75 0C3.91797 0 0 3.91797 0 8.75C0 13.582 3.91797 17.5 8.75 17.5C13.582 17.5 17.5 13.582 17.5 8.75C17.5 3.91797 13.582 0 8.75 0ZM12.5293 5.89258L8.41602 11.5957C8.29213 11.7686 8.12384 11.8551 7.91113 11.8551C7.69843 11.8551 7.53013 11.7686 7.40625 11.5957L4.9707 8.2207C4.89648 8.11719 4.9707 7.97266 5.09766 7.97266L6.01367 7.97266C6.21289 7.97266 6.40234 8.06836 6.51953 8.23242L7.91016 10.1621L10.9805 5.9043C11.0977 5.74219 11.2852 5.64453 11.4863 5.64453L12.4023 5.64453C12.5293 5.64453 12.6035 5.78906 12.5293 5.89258Z" fill-rule="nonzero" transform="matrix(1 0 0 1 1.25 1.25)" fill="rgb(59, 130, 246)"/>
	</g>
</svg>
