
<svg mexport="1" xmlns="http://www.w3.org/2000/svg" xmlns:xlink="http://www.w3.org/1999/xlink" width="24" height="24" viewBox="0 0 24 24">
	<defs>
		<clipPath id="clipPath0:0:0">
			<path d="M0 0L24 0L24 24L0 24L0 0Z" fill-rule="nonzero" transform="matrix(1 0 0 1 0 0)"/>
		</clipPath>
	</defs>
	<g clip-path="url(#clipPath0:0:0)">
		<path d="M7.27001 11.1689C6.95222 11.3312 6.56305 11.2122 6.39034 10.9L6.34672 10.8054L4.52921 6.8069C4.52171 6.7588 4.52171 6.7097 4.52921 6.6615C4.52919 6.5735 4.56466 6.48916 4.62759 6.4276C4.69052 6.36603 4.77562 6.33243 4.86364 6.33438C4.93469 6.33269 5.0041 6.35582 5.05993 6.39981L7.24093 7.9265C7.40231 8.0346 7.59195 8.0928 7.78618 8.0937C7.90326 8.0945 8.01932 8.0723 8.12792 8.0283L18.175 3.52816C16.09 1.22544 13.1093 -0.0606866 10.0035 0.00220323C4.47832 0.00220323 0 3.73172 0 8.37C0.06583 10.9052 1.35548 13.2515 3.46052 14.6658C3.68682 14.8326 3.78304 15.1241 3.70043 15.3928L3.24969 17.094C3.22238 17.1714 3.20527 17.2521 3.1988 17.3339C3.19679 17.4232 3.23138 17.5094 3.29454 17.5726C3.3577 17.6358 3.44393 17.6703 3.53322 17.6684C3.6 17.6645 3.66485 17.6445 3.72224 17.6102L5.90325 16.3452C6.06285 16.2467 6.24642 16.1939 6.43396 16.1925C6.53254 16.1923 6.63059 16.207 6.72476 16.2361C7.78683 16.5363 8.88532 16.688 9.98902 16.6869C15.5142 16.6869 20 12.9574 20 8.3554C20.0098 6.9834 19.6291 5.63687 18.902 4.47326L7.34998 11.1253L7.27001 11.1689Z" fill-rule="nonzero" transform="matrix(1 0 0 1 2.00098 3.5)" fill="rgb(34, 197, 94)"/>
	</g>
</svg>
