
<svg mexport="1" xmlns="http://www.w3.org/2000/svg" xmlns:xlink="http://www.w3.org/1999/xlink" width="20" height="20" viewBox="0 0 20 20">
	<defs>
		<clipPath id="clipPath0:0:0">
			<path d="M0 0L20 0L20 20L0 20L0 0Z" fill-rule="nonzero" transform="matrix(1 0 0 1 0 0)"/>
		</clipPath>
	</defs>
	<g clip-path="url(#clipPath0:0:0)">
		<path d="M6.48047 15.2109C6.48047 15.2891 6.39062 15.3516 6.27734 15.3516C6.14844 15.3633 6.05859 15.3008 6.05859 15.2109C6.05859 15.1328 6.14844 15.0703 6.26172 15.0703C6.37891 15.0586 6.48047 15.1211 6.48047 15.2109ZM5.26562 15.0352C5.23828 15.1133 5.31641 15.2031 5.43359 15.2266C5.53516 15.2656 5.65234 15.2266 5.67578 15.1484C5.69922 15.0703 5.625 14.9805 5.50781 14.9453C5.40625 14.918 5.29297 14.957 5.26562 15.0352ZM6.99219 14.9687C6.87891 14.9961 6.80078 15.0703 6.8125 15.1602C6.82422 15.2383 6.92578 15.2891 7.04297 15.2617C7.15625 15.2344 7.23437 15.1602 7.22266 15.082C7.21094 15.0078 7.10547 14.957 6.99219 14.9687ZM9.5625 0C4.14453 0 0 4.11328 0 9.53125C0 13.8633 2.72656 17.5703 6.62109 18.875C7.12109 18.9648 7.29688 18.6562 7.29688 18.4023C7.29688 18.1602 7.28516 16.8242 7.28516 16.0039C7.28516 16.0039 4.55078 16.5898 3.97656 14.8398C3.97656 14.8398 3.53125 13.7031 2.89062 13.4102C2.89062 13.4102 1.99609 12.7969 2.95312 12.8086C2.95312 12.8086 3.92578 12.8867 4.46094 13.8164C5.31641 15.3242 6.75 14.8906 7.30859 14.6328C7.39844 14.0078 7.65234 13.5742 7.93359 13.3164C5.75 13.0742 3.54688 12.7578 3.54688 9C3.54688 7.92578 3.84375 7.38672 4.46875 6.69922C4.36719 6.44531 4.03516 5.39844 4.57031 4.04688C5.38672 3.79297 7.26562 5.10156 7.26562 5.10156C8.04688 4.88281 8.88672 4.76953 9.71875 4.76953C10.5508 4.76953 11.3906 4.88281 12.1719 5.10156C12.1719 5.10156 14.0508 3.78906 14.8672 4.04688C15.4023 5.40234 15.0703 6.44531 14.9688 6.69922C15.5938 7.39062 15.9766 7.92969 15.9766 9C15.9766 12.7695 13.6758 13.0703 11.4922 13.3164C11.8516 13.625 12.1562 14.2109 12.1562 15.1289C12.1562 16.4453 12.1445 18.0742 12.1445 18.3945C12.1445 18.6484 12.3242 18.957 12.8203 18.8672C16.7266 17.5703 19.375 13.8633 19.375 9.53125C19.375 4.11328 14.9805 0 9.5625 0ZM3.79688 13.4727C3.74609 13.5117 3.75781 13.6016 3.82422 13.6758C3.88672 13.7383 3.97656 13.7656 4.02734 13.7148C4.07812 13.6758 4.06641 13.5859 4 13.5117C3.9375 13.4492 3.84766 13.4219 3.79688 13.4727ZM3.375 13.1562C3.34766 13.207 3.38672 13.2695 3.46484 13.3086C3.52734 13.3477 3.60547 13.3359 3.63281 13.2812C3.66016 13.2305 3.62109 13.168 3.54297 13.1289C3.46484 13.1055 3.40234 13.1172 3.375 13.1562ZM4.64062 14.5469C4.57812 14.5977 4.60156 14.7148 4.69141 14.7891C4.78125 14.8789 4.89453 14.8906 4.94531 14.8281C4.99609 14.7773 4.97266 14.6602 4.89453 14.5859C4.80859 14.4961 4.69141 14.4844 4.64062 14.5469ZM4.19531 13.9727C4.13281 14.0117 4.13281 14.1133 4.19531 14.2031C4.25781 14.293 4.36328 14.332 4.41406 14.293C4.47656 14.2422 4.47656 14.1406 4.41406 14.0508C4.35937 13.9609 4.25781 13.9219 4.19531 13.9727Z" fill-rule="nonzero" transform="matrix(1 0 0 1 0.3125 0.3125)" fill="rgb(255, 255, 255)"/>
	</g>
</svg>
