
<svg mexport="1" xmlns="http://www.w3.org/2000/svg" xmlns:xlink="http://www.w3.org/1999/xlink" width="12" height="12" viewBox="0 0 12 12">
	<defs>
		<clipPath id="clipPath0:0:0">
			<path d="M0 0L12 0L12 12L0 12L0 0Z" fill-rule="nonzero" transform="matrix(1 0 0 1 0 0)"/>
		</clipPath>
	</defs>
	<g clip-path="url(#clipPath0:0:0)">
		<path d="M6.75 4.125L6.375 4.125L6.375 2.25C6.375 1.62868 6.15533 1.09835 5.71599 0.65901C5.27665 0.21967 4.74632 0 4.125 0C3.50368 0 2.97335 0.21967 2.53401 0.65901C2.09467 1.09835 1.875 1.62868 1.875 2.25L1.875 4.125L1.5 4.125C1.08597 4.12545 0.73258 4.27206 0.439819 4.56482C0.147058 4.85758 0.000452042 5.21097 0 5.625L0 9.75C0.000452042 10.164 0.147058 10.5174 0.439819 10.8102C0.73258 11.1029 1.08597 11.2495 1.5 11.25L6.75 11.25C7.16403 11.2495 7.51742 11.1029 7.81018 10.8102C8.10294 10.5174 8.24955 10.164 8.25 9.75L8.25 5.625C8.24955 5.21097 8.10294 4.85758 7.81018 4.56482C7.51742 4.27206 7.16403 4.12545 6.75 4.125ZM5.625 4.125L2.625 4.125L2.625 2.25C2.625 1.83579 2.77145 1.48223 3.06434 1.18934C3.35723 0.896447 3.71079 0.75 4.125 0.75C4.53921 0.75 4.89277 0.896447 5.18566 1.18934C5.47855 1.48223 5.625 1.83579 5.625 2.25L5.625 4.125Z" fill-rule="nonzero" transform="matrix(1 0 0 1 1.875 0.375)" fill="rgb(107, 114, 128)"/>
	</g>
</svg>
