
<svg mexport="1" xmlns="http://www.w3.org/2000/svg" xmlns:xlink="http://www.w3.org/1999/xlink" width="24" height="24" viewBox="0 0 24 24">
	<defs>
		<clipPath id="clipPath0:0:0">
			<path d="M0 0L24 0L24 24L0 24L0 0Z" fill-rule="nonzero" transform="matrix(1 0 0 1 0 0)"/>
		</clipPath>
	</defs>
	<g clip-path="url(#clipPath0:0:0)">
		<path d="M-0.707107 -0.707107C-1.09763 -0.316586 -1.09763 0.316586 -0.707107 0.707107L4.58579 6L-0.707107 11.2929C-1.09763 11.6834 -1.09763 12.3166 -0.707107 12.7071C-0.316586 13.0976 0.316586 13.0976 0.707107 12.7071L6.70711 6.70711Q6.84776 6.56645 6.92388 6.38268Q7 6.19891 7 6Q7 5.80109 6.92388 5.61732Q6.84776 5.43355 6.70711 5.29289L0.707107 -0.707107C0.316586 -1.09763 -0.316586 -1.09763 -0.707107 -0.707107Z" fill-rule="evenodd" transform="matrix(1 0 0 1 9 6)" fill="rgb(107, 114, 128)"/>
	</g>
</svg>
