
<svg mexport="1" xmlns="http://www.w3.org/2000/svg" xmlns:xlink="http://www.w3.org/1999/xlink" width="12" height="12" viewBox="0 0 12 12">
	<defs>
		<clipPath id="clipPath0:0:0">
			<path d="M0 0L12 0L12 12L0 12L0 0Z" fill-rule="nonzero" transform="matrix(1 0 0 1 0 0)"/>
		</clipPath>
	</defs>
	<g clip-path="url(#clipPath0:0:0)">
		<defs>
			<mask id="mask0:0:1" style="mask-type:alpha">
				<path d="M0 0L12 0L12 12L0 12L0 0Z" fill-rule="nonzero" transform="matrix(1 0 0 1 0 0)" fill="rgb(0, 0, 0)"/>
			</mask>
		</defs>
		<g mask="url(#mask0:0:1)">
			<defs>
				<mask id="mask0:0:2" style="mask-type:alpha">
					<path d="M0 0L12 0L12 12L0 12L0 0Z" fill-rule="nonzero" transform="matrix(1 0 0 1 0 0)" fill="rgb(0, 0, 0)"/>
				</mask>
			</defs>
			<g mask="url(#mask0:0:2)">
				<defs>
					<mask id="mask0:0:3" style="mask-type:alpha">
						<path d="M0 0L12 0L12 12L0 12L0 0Z" fill-rule="nonzero" transform="matrix(1 0 0 1 0 0)" fill="rgb(0, 0, 0)"/>
					</mask>
				</defs>
				<g mask="url(#mask0:0:3)">
					<defs>
						<mask id="mask0:0:4" style="mask-type:alpha">
							<path d="M0 0L12 0L12 12L0 12L0 0Z" fill-rule="nonzero" transform="matrix(1 0 0 1 0 0)" fill="rgb(0, 0, 0)"/>
						</mask>
					</defs>
					<g mask="url(#mask0:0:4)">
						<path d="M4.875 0.75C4.31561 0.75 3.78058 0.858039 3.26991 1.07412C2.77647 1.28291 2.33934 1.57771 1.95852 1.95852C1.57771 2.33934 1.28291 2.77647 1.07412 3.26991C0.858039 3.78058 0.75 4.31561 0.75 4.875C0.75 5.43439 0.858039 5.96942 1.07412 6.48009C1.28291 6.97353 1.57771 7.41066 1.95852 7.79148C2.33934 8.17229 2.77647 8.46709 3.26991 8.67588C3.78058 8.89196 4.31561 9 4.875 9C5.4344 9 5.96943 8.89196 6.48009 8.67588C6.97353 8.46709 7.41066 8.17229 7.79148 7.79148C8.17229 7.41066 8.46709 6.97353 8.67588 6.48009C8.89196 5.96943 9 5.4344 9 4.875C9 4.31561 8.89196 3.78058 8.67588 3.26991C8.46709 2.77647 8.17229 2.33934 7.79148 1.95852C7.41066 1.57771 6.97353 1.28291 6.48009 1.07412C5.96942 0.858039 5.43439 0.75 4.875 0.75ZM4.875 0C5.53583 0 6.16828 0.127801 6.77235 0.383404C7.35557 0.630181 7.87206 0.978443 8.32181 1.42819C8.77156 1.87794 9.11982 2.39443 9.3666 2.97765C9.6222 3.58172 9.75 4.21417 9.75 4.875C9.75 5.53583 9.6222 6.16828 9.3666 6.77235C9.11982 7.35557 8.77156 7.87206 8.32181 8.32181C7.87206 8.77156 7.35557 9.11982 6.77235 9.3666C6.16828 9.6222 5.53583 9.75 4.875 9.75C4.21417 9.75 3.58172 9.6222 2.97765 9.3666C2.39443 9.11982 1.87794 8.77156 1.42819 8.32181C0.978443 7.87206 0.630181 7.35557 0.383404 6.77235C0.127801 6.16828 0 5.53583 0 4.875C0 4.21417 0.127801 3.58172 0.383404 2.97765C0.630181 2.39443 0.978443 1.87794 1.42819 1.42819C1.87794 0.978443 2.39443 0.630181 2.97765 0.383404C3.58172 0.127801 4.21417 0 4.875 0Z" fill-rule="nonzero" transform="matrix(1 0 0 1 1.125 1.125)" fill="rgb(107, 114, 128)"/>
						<path d="M0.375 0C0.167895 0 0 0.167895 0 0.375L0 3.75C0 3.77462 0.002402 3.79901 0.00720599 3.82316C0.0120093 3.84731 0.0191223 3.87076 0.028545 3.89351C0.0379677 3.91626 0.049519 3.93787 0.063199 3.95834C0.076879 3.97881 0.0924243 3.99775 0.109835 4.01516C0.127246 4.03257 0.146188 4.04812 0.166661 4.0618C0.187134 4.07548 0.208745 4.08703 0.231494 4.09645C0.254243 4.10588 0.277692 4.11299 0.301841 4.11779C0.325991 4.1226 0.350377 4.125 0.375 4.125L2.625 4.125C2.8321 4.125 3 3.9571 3 3.75C3 3.5429 2.8321 3.375 2.625 3.375L0.75 3.375L0.75 0.375C0.75 0.167895 0.582105 0 0.375 0Z" fill-rule="evenodd" transform="matrix(1 0 0 1 5.625 2.625)" fill="rgb(107, 114, 128)"/>
					</g>
				</g>
			</g>
		</g>
	</g>
</svg>
