
<svg mexport="1" xmlns="http://www.w3.org/2000/svg" xmlns:xlink="http://www.w3.org/1999/xlink" width="20" height="20" viewBox="0 0 20 20">
	<defs>
		<clipPath id="clipPath0:0:0">
			<path d="M0 0L20 0L20 20L0 20L0 0Z" fill-rule="nonzero" transform="matrix(1 0 0 1 0 0)"/>
		</clipPath>
	</defs>
	<g clip-path="url(#clipPath0:0:0)">
		<defs>
			<mask id="mask0:0:1" style="mask-type:alpha">
				<path d="M0 0L20 0L20 20L0 20L0 0Z" fill-rule="nonzero" transform="matrix(1 0 0 1 0 0)" fill="rgb(0, 0, 0)"/>
			</mask>
		</defs>
		<g mask="url(#mask0:0:1)">
			<defs>
				<mask id="mask0:0:2" style="mask-type:alpha">
					<path d="M0 0L20 0L20 20L0 20L0 0Z" fill-rule="nonzero" transform="matrix(1 0 0 1 0 0)" fill="rgb(0, 0, 0)"/>
				</mask>
			</defs>
			<g mask="url(#mask0:0:2)">
				<defs>
					<mask id="mask0:0:3" style="mask-type:alpha">
						<path d="M0 0L20 0L20 20L0 20L0 0Z" fill-rule="nonzero" transform="matrix(1 0 0 1 0 0)" fill="rgb(0, 0, 0)"/>
					</mask>
				</defs>
				<g mask="url(#mask0:0:3)">
					<path d="M3.75234 17.7481C3.75273 17.9938 3.82539 18.2344 3.96172 18.4391L4.6293 19.4426C4.74511 19.6168 4.8952 19.7533 5.07957 19.8522C5.26395 19.951 5.46073 20.0004 5.66992 20.0004L8.08047 20.0004C8.28966 20.0004 8.48644 19.951 8.67082 19.8522C8.85519 19.7533 9.00528 19.6168 9.12109 19.4426L9.78867 18.4391C9.85681 18.3367 9.9087 18.2267 9.94436 18.109C9.98001 17.9914 9.99791 17.871 9.99805 17.7481L9.99961 16.25L3.75039 16.25L3.75234 17.7481ZM0 6.87503C0 8.60824 0.642578 10.1895 1.70156 11.3977C2.34688 12.134 3.35625 13.6723 3.74102 14.97C3.74258 14.9801 3.74375 14.9903 3.74531 15.0004L10.0047 15.0004C10.0063 14.9903 10.0074 14.9805 10.009 14.97C10.3937 13.6723 11.4031 12.134 12.0484 11.3977C13.1074 10.1895 13.75 8.60824 13.75 6.87503C13.75 3.07074 10.6605 -0.0116854 6.85352 3.33035e-05C2.86875 0.0121427 0 3.24105 0 6.87503ZM6.875 3.75003C5.15195 3.75003 3.75 5.15199 3.75 6.87503C3.75 7.22035 3.47031 7.50003 3.125 7.50003C2.77969 7.50003 2.5 7.22035 2.5 6.87503C2.5 4.46253 4.4625 2.50003 6.875 2.50003C7.22031 2.50003 7.5 2.77972 7.5 3.12503C7.5 3.47035 7.22031 3.75003 6.875 3.75003Z" fill-rule="nonzero" transform="matrix(1 0 0 1 3.125 -3.33035e-05)" fill="rgb(59, 130, 246)"/>
				</g>
			</g>
		</g>
	</g>
</svg>
