
<svg mexport="1" xmlns="http://www.w3.org/2000/svg" xmlns:xlink="http://www.w3.org/1999/xlink" width="16" height="16" viewBox="0 0 16 16">
	<defs>
		<clipPath id="clipPath0:0:0">
			<path d="M0 0L16 0L16 16L0 16L0 0Z" fill-rule="nonzero" transform="matrix(1 0 0 1 0 0)"/>
		</clipPath>
	</defs>
	<g clip-path="url(#clipPath0:0:0)">
		<path d="M14 3.00005C14 2.44776 13.8047 1.97636 13.4142 1.58583C13.0237 1.19531 12.5523 1.00005 12 1.00005L11.5 1.00005L11.5 0.51411C11.5 0.245047 11.2931 0.0141097 11.0241 0.000672162C10.8814 -0.00619934 10.7584 0.0396154 10.6551 0.138116C10.5517 0.236617 10.5 0.357261 10.5 0.500047L10.5 1.00005L3.5 1.00005L3.5 0.51411C3.5 0.245047 3.29313 0.0141097 3.02406 0.000672162C2.88144 -0.00619946 2.75845 0.0396153 2.65508 0.138116C2.5517 0.236617 2.50001 0.357261 2.5 0.500047L2.5 1.00005L2 1.00005C1.44772 1.00005 0.976311 1.19531 0.585786 1.58583C0.195262 1.97636 0 2.44776 0 3.00005L0 3.37505C-3.97364e-08 3.40956 0.0122038 3.43903 0.0366116 3.46344C0.0610193 3.48784 0.0904822 3.50005 0.125 3.50005L13.875 3.50005C13.9095 3.50005 13.939 3.48784 13.9634 3.46344C13.9878 3.43903 14 3.40956 14 3.37505L14 3.00005ZM0 12C-3.97364e-08 12.5523 0.195262 13.0237 0.585786 13.4143C0.976311 13.8048 1.44772 14 2 14L12 14C12.5523 14 13.0237 13.8048 13.4142 13.4143C13.8047 13.0237 14 12.5523 14 12L14 4.5938C14 4.56791 13.9908 4.54581 13.9725 4.52751C13.9542 4.5092 13.9321 4.50005 13.9062 4.50005L0.09375 4.50005C0.0678616 4.50005 0.0457645 4.5092 0.0274587 4.52751C0.00915289 4.54581 0 4.56791 0 4.5938L0 12ZM10.75 5.50005C10.9571 5.50005 11.1339 5.57327 11.2803 5.71972C11.4268 5.86616 11.5 6.04294 11.5 6.25005C11.5 6.45715 11.4268 6.63393 11.2803 6.78038C11.1339 6.92682 10.9571 7.00005 10.75 7.00005C10.5429 7.00005 10.3661 6.92682 10.2197 6.78038C10.0732 6.63393 10 6.45715 10 6.25005C10 6.04294 10.0732 5.86616 10.2197 5.71972C10.3661 5.57327 10.5429 5.50005 10.75 5.50005ZM10.75 8.00005C10.9571 8.00005 11.1339 8.07327 11.2803 8.21972C11.4268 8.36616 11.5 8.54294 11.5 8.75005C11.5 8.95715 11.4268 9.13393 11.2803 9.28038C11.1339 9.42682 10.9571 9.50005 10.75 9.50005C10.5429 9.50005 10.3661 9.42682 10.2197 9.28038C10.0732 9.13393 10 8.95715 10 8.75005C10 8.54294 10.0732 8.36616 10.2197 8.21972C10.3661 8.07327 10.5429 8.00005 10.75 8.00005ZM8.25 5.50005C8.45711 5.50005 8.63388 5.57327 8.78033 5.71972C8.92678 5.86616 9 6.04294 9 6.25005C9 6.45715 8.92678 6.63393 8.78033 6.78038C8.63388 6.92682 8.45711 7.00005 8.25 7.00005C8.04289 7.00005 7.86612 6.92682 7.71967 6.78038C7.57322 6.63393 7.5 6.45715 7.5 6.25005C7.5 6.04294 7.57322 5.86616 7.71967 5.71972C7.86612 5.57327 8.04289 5.50005 8.25 5.50005ZM8.25 8.00005C8.45711 8.00005 8.63388 8.07327 8.78033 8.21972C8.92678 8.36616 9 8.54294 9 8.75005C9 8.95715 8.92678 9.13393 8.78033 9.28038C8.63388 9.42682 8.45711 9.50005 8.25 9.50005C8.04289 9.50005 7.86612 9.42682 7.71967 9.28038C7.57322 9.13393 7.5 8.95715 7.5 8.75005C7.5 8.54294 7.57322 8.36616 7.71967 8.21972C7.86612 8.07327 8.04289 8.00005 8.25 8.00005ZM8.25 10.5C8.45711 10.5 8.63388 10.5733 8.78033 10.7197C8.92678 10.8662 9 11.0429 9 11.25C9 11.4572 8.92678 11.6339 8.78033 11.7804C8.63388 11.9268 8.45711 12 8.25 12C8.04289 12 7.86612 11.9268 7.71967 11.7804C7.57322 11.6339 7.5 11.4572 7.5 11.25C7.5 11.0429 7.57322 10.8662 7.71967 10.7197C7.86612 10.5733 8.04289 10.5 8.25 10.5ZM5.75 8.00005C5.95711 8.00005 6.13388 8.07327 6.28033 8.21972C6.42678 8.36616 6.5 8.54294 6.5 8.75005C6.5 8.95715 6.42678 9.13393 6.28033 9.28038C6.13388 9.42682 5.95711 9.50005 5.75 9.50005C5.54289 9.50005 5.36612 9.42682 5.21967 9.28038C5.07322 9.13393 5 8.95715 5 8.75005C5 8.54294 5.07322 8.36616 5.21967 8.21972C5.36612 8.07327 5.54289 8.00005 5.75 8.00005ZM5.75 10.5C5.95711 10.5 6.13388 10.5733 6.28033 10.7197C6.42678 10.8662 6.5 11.0429 6.5 11.25C6.5 11.4572 6.42678 11.6339 6.28033 11.7804C6.13388 11.9268 5.95711 12 5.75 12C5.54289 12 5.36612 11.9268 5.21967 11.7804C5.07322 11.6339 5 11.4572 5 11.25C5 11.0429 5.07322 10.8662 5.21967 10.7197C5.36612 10.5733 5.54289 10.5 5.75 10.5ZM3.25 8.00005C3.45711 8.00005 3.63388 8.07327 3.78033 8.21972C3.92678 8.36616 4 8.54294 4 8.75005C4 8.95715 3.92678 9.13393 3.78033 9.28038C3.63388 9.42682 3.45711 9.50005 3.25 9.50005C3.04289 9.50005 2.86612 9.42682 2.71967 9.28038C2.57322 9.13393 2.5 8.95715 2.5 8.75005C2.5 8.54294 2.57322 8.36616 2.71967 8.21972C2.86612 8.07327 3.04289 8.00005 3.25 8.00005ZM3.25 10.5C3.45711 10.5 3.63388 10.5733 3.78033 10.7197C3.92678 10.8662 4 11.0429 4 11.25C4 11.4572 3.92678 11.6339 3.78033 11.7804C3.63388 11.9268 3.45711 12 3.25 12C3.04289 12 2.86612 11.9268 2.71967 11.7804C2.57322 11.6339 2.5 11.4572 2.5 11.25C2.5 11.0429 2.57322 10.8662 2.71967 10.7197C2.86612 10.5733 3.04289 10.5 3.25 10.5Z" fill-rule="nonzero" transform="matrix(1 0 0 1 1 0.999953)" fill="rgb(107, 114, 128)"/>
	</g>
</svg>
