
<svg mexport="1" xmlns="http://www.w3.org/2000/svg" xmlns:xlink="http://www.w3.org/1999/xlink" width="16" height="16" viewBox="0 0 16 16">
	<defs>
		<clipPath id="clipPath0:0:0">
			<path d="M0 0L16 0L16 16L0 16L0 0Z" fill-rule="nonzero" transform="matrix(1 0 0 1 0 0)"/>
		</clipPath>
	</defs>
	<g clip-path="url(#clipPath0:0:0)">
		<path d="M8.75 -0.5L7.5 -0.5C7.22386 -0.5 7 -0.27614 7 0C7 0.27614 7.22386 0.5 7.5 0.5L8.75 0.5Q9.06066 0.5 9.28033 0.719669Q9.5 0.93934 9.5 1.25L9.5 7.75Q9.5 8.06066 9.28033 8.28033Q9.06066 8.5 8.75 8.5L1.25 8.5Q0.93934 8.5 0.719671 8.28033Q0.5 8.06066 0.5 7.75L0.5 1.25Q0.5 0.93934 0.71967 0.71967Q0.93934 0.5 1.25 0.5L2.5 0.5C2.77614 0.5 3 0.27614 3 0C3 -0.27614 2.77614 -0.5 2.5 -0.5L1.25 -0.5Q0.525126 -0.5 0.0125631 0.0125631Q-0.5 0.525126 -0.5 1.25L-0.5 7.75Q-0.5 8.47487 0.0125625 8.98744Q0.525126 9.5 1.25 9.5L8.75 9.5Q9.47488 9.5 9.98744 8.98744Q10.5 8.47487 10.5 7.75L10.5 1.25Q10.5 0.525125 9.98744 0.0125631Q9.47487 -0.5 8.75 -0.5Z" fill-rule="evenodd" transform="matrix(1 0 0 1 3 5.5)" fill="rgb(255, 255, 255)"/>
		<path d="M2.5 -0.5C2.22386 -0.5 2 -0.27614 2 0L2 8.29289L0.353553 6.64645C0.158293 6.45119 -0.158293 6.45119 -0.353553 6.64645C-0.548814 6.84171 -0.548814 7.15829 -0.353553 7.35355L2.14645 9.85355Q2.18127 9.88838 2.22221 9.91574Q2.26316 9.94309 2.30866 9.96194Q2.35416 9.98078 2.40245 9.99039Q2.45075 10 2.5 10Q2.54925 10 2.59754 9.99039Q2.64584 9.98078 2.69134 9.96194Q2.73684 9.94309 2.77778 9.91574Q2.81873 9.88838 2.85355 9.85355L5.35355 7.35355C5.54881 7.15829 5.54881 6.84171 5.35355 6.64645C5.15829 6.45119 4.84171 6.45119 4.64645 6.64645L3 8.29289L3 0C3 -0.27614 2.77614 -0.5 2.5 -0.5Z" fill-rule="evenodd" transform="matrix(1 0 0 1 5.5 1.5)" fill="rgb(255, 255, 255)"/>
	</g>
</svg>
