
<svg mexport="1" xmlns="http://www.w3.org/2000/svg" xmlns:xlink="http://www.w3.org/1999/xlink" width="20" height="20" viewBox="0 0 20 20">
	<defs>
		<clipPath id="clipPath0:0:0">
			<path d="M0 0L20 0L20 20L0 20L0 0Z" fill-rule="nonzero" transform="matrix(1 0 0 1 0 0)"/>
		</clipPath>
	</defs>
	<g clip-path="url(#clipPath0:0:0)">
		<path d="M13.3081 -0.441942C13.5521 -0.686017 13.9479 -0.686017 14.1919 -0.441942C14.436 -0.197866 14.436 0.197866 14.1919 0.441942L10.7544 3.87944C10.5104 4.12352 10.1146 4.12352 9.87056 3.87944C9.62648 3.63537 9.62648 3.23963 9.87056 2.99556L13.3081 -0.441942ZM4.50444 0.495558C4.26037 0.251483 3.86463 0.251483 3.62056 0.495558L-0.441942 4.55806C-0.686017 4.80213 -0.686017 5.19787 -0.441942 5.44194C-0.197866 5.68602 0.197866 5.68602 0.441942 5.44194L4.50444 1.37944C4.74852 1.13537 4.74852 0.739634 4.50444 0.495558ZM5.49556 1.37944C5.25148 1.13537 5.25148 0.739634 5.49556 0.495558C5.73963 0.251483 6.13537 0.251483 6.37944 0.495558L8.87944 2.99556C9.12352 3.23963 9.12352 3.63537 8.87944 3.87944C8.63537 4.12352 8.23963 4.12352 7.99556 3.87944L5.49556 1.37944Z" fill-rule="evenodd" transform="matrix(1 0 0 1 3.125 7.5)" fill="rgb(59, 130, 246)"/>
		<circle cx="0.9375" cy="0.9375" r="0.9375" stroke-width="1.25" transform="matrix(1 0 0 1 16.875 5.625)" stroke="rgb(59, 130, 246)" fill="transparent"/>
		<circle cx="0.9375" cy="0.9375" r="0.9375" stroke-width="1.25" transform="matrix(1 0 0 1 11.5625 10.9375)" stroke="rgb(59, 130, 246)" fill="transparent"/>
		<circle cx="0.9375" cy="0.9375" r="0.9375" stroke-width="1.25" transform="matrix(1 0 0 1 7.1875 6.5625)" stroke="rgb(59, 130, 246)" fill="transparent"/>
		<circle cx="0.9375" cy="0.9375" r="0.9375" stroke-width="1.25" transform="matrix(1 0 0 1 1.25 12.5)" stroke="rgb(59, 130, 246)" fill="transparent"/>
	</g>
</svg>
