
<svg mexport="1" xmlns="http://www.w3.org/2000/svg" xmlns:xlink="http://www.w3.org/1999/xlink" width="32" height="32" viewBox="0 0 32 32">
	<defs>
		<clipPath id="clipPath0:0:0">
			<path d="M0 0L32 0L32 32L0 32L0 0Z" fill-rule="nonzero" transform="matrix(1 0 0 1 0 0)"/>
		</clipPath>
	</defs>
	<g clip-path="url(#clipPath0:0:0)">
		<defs>
			<mask id="mask0:0:1" style="mask-type:alpha">
				<path d="M0 0L32 0L32 32L0 32L0 0Z" fill-rule="nonzero" transform="matrix(1 0 0 1 0 0)" fill="rgb(0, 0, 0)"/>
			</mask>
		</defs>
		<g mask="url(#mask0:0:1)">
			<defs>
				<mask id="mask0:0:2" style="mask-type:alpha">
					<path d="M0 0L32 0L32 32L0 32L0 0Z" fill-rule="nonzero" transform="matrix(1 0 0 1 0 0)" fill="rgb(0, 0, 0)"/>
				</mask>
			</defs>
			<g mask="url(#mask0:0:2)">
				<defs>
					<mask id="mask0:0:3" style="mask-type:alpha">
						<path d="M0 0L32 0L32 32L0 32L0 0Z" fill-rule="nonzero" transform="matrix(1 0 0 1 0 0)" fill="rgb(0, 0, 0)"/>
					</mask>
				</defs>
				<g mask="url(#mask0:0:3)">
					<path d="M3.5 7C2.5335 7 1.70854 6.65829 1.02513 5.97488C0.341709 5.29147 0 4.46651 0 3.5C0 2.5335 0.341709 1.70854 1.02513 1.02513C1.70854 0.341709 2.5335 0 3.5 0C4.46651 0 5.29147 0.341709 5.97488 1.02513C6.65829 1.70854 7 2.5335 7 3.5C6.99896 4.46608 6.65688 5.29067 5.97379 5.97379C5.29067 6.65691 4.46608 6.99896 3.5 7ZM13 7C12.0335 7 11.2085 6.65829 10.5251 5.97488C9.84171 5.29147 9.5 4.46651 9.5 3.5C9.5 2.5335 9.84171 1.70854 10.5251 1.02513C11.2085 0.341709 12.0335 0 13 0C13.9665 0 14.7915 0.341709 15.4749 1.02513C16.1583 1.70854 16.5 2.5335 16.5 3.5C16.499 4.46608 16.1569 5.29067 15.4738 5.97379C14.7907 6.65688 13.9661 6.99896 13 7ZM22.5 7C21.5335 7 20.7085 6.65829 20.0251 5.97488C19.3417 5.29147 19 4.46651 19 3.5C19 2.5335 19.3417 1.70854 20.0251 1.02513C20.7085 0.341709 21.5335 0 22.5 0C23.4665 0 24.2915 0.341709 24.9749 1.02513C25.6583 1.70854 26 2.5335 26 3.5C25.999 4.46608 25.6569 5.29067 24.9738 5.97379C24.2907 6.65688 23.4661 6.99896 22.5 7ZM3.5 16.5C2.5335 16.5 1.70854 16.1583 1.02513 15.4749C0.341709 14.7915 0 13.9665 0 13C0 12.0335 0.341709 11.2085 1.02513 10.5251C1.70854 9.84171 2.5335 9.5 3.5 9.5C4.46651 9.5 5.29147 9.84171 5.97488 10.5251C6.65829 11.2085 7 12.0335 7 13C6.99896 13.9661 6.65688 14.7907 5.97379 15.4738C5.29067 16.1569 4.46608 16.499 3.5 16.5ZM13 16.5C12.0335 16.5 11.2085 16.1583 10.5251 15.4749C9.84171 14.7915 9.5 13.9665 9.5 13C9.5 12.0335 9.84171 11.2085 10.5251 10.5251C11.2085 9.84171 12.0335 9.5 13 9.5C13.9665 9.5 14.7915 9.84171 15.4749 10.5251C16.1583 11.2085 16.5 12.0335 16.5 13C16.499 13.9661 16.1569 14.7907 15.4738 15.4738C14.7907 16.1569 13.9661 16.499 13 16.5ZM22.5 16.5C21.5335 16.5 20.7085 16.1583 20.0251 15.4749C19.3417 14.7915 19 13.9665 19 13C19 12.0335 19.3417 11.2085 20.0251 10.5251C20.7085 9.84171 21.5335 9.5 22.5 9.5C23.4665 9.5 24.2915 9.84171 24.9749 10.5251C25.6583 11.2085 26 12.0335 26 13C25.999 13.9661 25.6569 14.7907 24.9738 15.4738C24.2907 16.1569 23.4661 16.499 22.5 16.5ZM3.5 26C2.5335 26 1.70854 25.6583 1.02513 24.9749C0.341709 24.2915 0 23.4665 0 22.5C0 21.5335 0.341709 20.7085 1.02513 20.0251C1.70854 19.3417 2.5335 19 3.5 19C4.46651 19 5.29147 19.3417 5.97488 20.0251C6.65829 20.7085 7 21.5335 7 22.5C6.99896 23.4661 6.65688 24.2907 5.97379 24.9738C5.29067 25.6569 4.46608 25.999 3.5 26ZM13 26C12.0335 26 11.2085 25.6583 10.5251 24.9749C9.84171 24.2915 9.5 23.4665 9.5 22.5C9.5 21.5335 9.84171 20.7085 10.5251 20.0251C11.2085 19.3417 12.0335 19 13 19C13.9665 19 14.7915 19.3417 15.4749 20.0251C16.1583 20.7085 16.5 21.5335 16.5 22.5C16.499 23.4661 16.1569 24.2907 15.4738 24.9738C14.7907 25.6569 13.9661 25.999 13 26ZM22.5 26C21.5335 26 20.7085 25.6583 20.0251 24.9749C19.3417 24.2915 19 23.4665 19 22.5C19 21.5335 19.3417 20.7085 20.0251 20.0251C20.7085 19.3417 21.5335 19 22.5 19C23.4665 19 24.2915 19.3417 24.9749 20.0251C25.6583 20.7085 26 21.5335 26 22.5C25.999 23.4661 25.6569 24.2907 24.9738 24.9738C24.2907 25.6569 23.4661 25.999 22.5 26Z" fill-rule="nonzero" transform="matrix(1 0 0 1 3 3)" fill="rgb(16, 185, 129)"/>
				</g>
			</g>
		</g>
	</g>
</svg>
