
<svg mexport="1" xmlns="http://www.w3.org/2000/svg" xmlns:xlink="http://www.w3.org/1999/xlink" width="32" height="32" viewBox="0 0 32 32">
	<defs>
		<clipPath id="clipPath0:0:0">
			<path d="M0 0L32 0L32 32L0 32L0 0Z" fill-rule="nonzero" transform="matrix(1 0 0 1 0 0)"/>
		</clipPath>
	</defs>
	<g clip-path="url(#clipPath0:0:0)">
		<defs>
			<mask id="mask0:0:1" style="mask-type:alpha">
				<path d="M0 0L32 0L32 32L0 32L0 0Z" fill-rule="nonzero" transform="matrix(1 0 0 1 0 0)" fill="rgb(0, 0, 0)"/>
			</mask>
		</defs>
		<g mask="url(#mask0:0:1)">
			<defs>
				<mask id="mask0:0:2" style="mask-type:alpha">
					<path d="M0 0L32 0L32 32L0 32L0 0Z" fill-rule="nonzero" transform="matrix(1 0 0 1 0 0)" fill="rgb(0, 0, 0)"/>
				</mask>
			</defs>
			<g mask="url(#mask0:0:2)">
				<defs>
					<mask id="mask0:0:3" style="mask-type:alpha">
						<path d="M0 0L32 0L32 32L0 32L0 0Z" fill-rule="nonzero" transform="matrix(1 0 0 1 0 0)" fill="rgb(0, 0, 0)"/>
					</mask>
				</defs>
				<g mask="url(#mask0:0:3)">
					<path d="M28 6.0001C28 4.89552 27.6094 3.95272 26.8284 3.17166C26.0474 2.39062 25.1046 2.0001 24 2.0001L23 2.0001L23 1.02822C23 0.490094 22.5862 0.0282194 22.0482 0.00134435C21.7628 -0.0123987 21.5168 0.0792308 21.3102 0.276232C21.1034 0.473234 21 0.714522 21 1.00009L21 2.0001L7 2.0001L7 1.02822C7 0.490094 6.58626 0.0282194 6.04812 0.00134435C5.76288 -0.0123989 5.5169 0.0792306 5.31016 0.276232C5.1034 0.473234 5.00002 0.714522 5 1.00009L5 2.0001L4 2.0001C2.89544 2.0001 1.95262 2.39062 1.17157 3.17166C0.390524 3.95272 1.94075e-13 4.89552 1.94075e-13 6.0001L1.94075e-13 6.7501C-7.94726e-08 6.81912 0.0244076 6.87806 0.0732232 6.92688C0.122039 6.97568 0.180964 7.0001 0.25 7.0001L27.75 7.0001C27.819 7.0001 27.878 6.97568 27.9268 6.92688C27.9756 6.87806 28 6.81912 28 6.7501L28 6.0001ZM1.94075e-13 24C-7.94726e-08 25.1046 0.390524 26.0474 1.17157 26.8286C1.95262 27.6096 2.89544 28 4 28L24 28C25.1046 28 26.0474 27.6096 26.8284 26.8286C27.6094 26.0474 28 25.1046 28 24L28 9.1876C28 9.13582 27.9816 9.09162 27.945 9.05502C27.9084 9.0184 27.8642 9.0001 27.8124 9.0001L0.1875 9.0001C0.135723 9.0001 0.091529 9.0184 0.0549174 9.05502C0.0183058 9.09162 1.94075e-13 9.13582 1.94075e-13 9.1876L1.94075e-13 24ZM21.5 11.0001C21.9142 11.0001 22.2678 11.1465 22.5606 11.4394C22.8536 11.7323 23 12.0859 23 12.5001C23 12.9143 22.8536 13.2679 22.5606 13.5608C22.2678 13.8536 21.9142 14.0001 21.5 14.0001C21.0858 14.0001 20.7322 13.8536 20.4394 13.5608C20.1464 13.2679 20 12.9143 20 12.5001C20 12.0859 20.1464 11.7323 20.4394 11.4394C20.7322 11.1465 21.0858 11.0001 21.5 11.0001ZM21.5 16.0001C21.9142 16.0001 22.2678 16.1465 22.5606 16.4394C22.8536 16.7323 23 17.0859 23 17.5001C23 17.9143 22.8536 18.2679 22.5606 18.5608C22.2678 18.8536 21.9142 19.0001 21.5 19.0001C21.0858 19.0001 20.7322 18.8536 20.4394 18.5608C20.1464 18.2679 20 17.9143 20 17.5001C20 17.0859 20.1464 16.7323 20.4394 16.4394C20.7322 16.1465 21.0858 16.0001 21.5 16.0001ZM16.5 11.0001C16.9142 11.0001 17.2678 11.1465 17.5607 11.4394C17.8536 11.7323 18 12.0859 18 12.5001C18 12.9143 17.8536 13.2679 17.5607 13.5608C17.2678 13.8536 16.9142 14.0001 16.5 14.0001C16.0858 14.0001 15.7322 13.8536 15.4393 13.5608C15.1464 13.2679 15 12.9143 15 12.5001C15 12.0859 15.1464 11.7323 15.4393 11.4394C15.7322 11.1465 16.0858 11.0001 16.5 11.0001ZM16.5 16.0001C16.9142 16.0001 17.2678 16.1465 17.5607 16.4394C17.8536 16.7323 18 17.0859 18 17.5001C18 17.9143 17.8536 18.2679 17.5607 18.5608C17.2678 18.8536 16.9142 19.0001 16.5 19.0001C16.0858 19.0001 15.7322 18.8536 15.4393 18.5608C15.1464 18.2679 15 17.9143 15 17.5001C15 17.0859 15.1464 16.7323 15.4393 16.4394C15.7322 16.1465 16.0858 16.0001 16.5 16.0001ZM16.5 21C16.9142 21 17.2678 21.1466 17.5607 21.4394C17.8536 21.7324 18 22.0858 18 22.5C18 22.9144 17.8536 23.2678 17.5607 23.5608C17.2678 23.8536 16.9142 24 16.5 24C16.0858 24 15.7322 23.8536 15.4393 23.5608C15.1464 23.2678 15 22.9144 15 22.5C15 22.0858 15.1464 21.7324 15.4393 21.4394C15.7322 21.1466 16.0858 21 16.5 21ZM11.5 16.0001C11.9142 16.0001 12.2678 16.1465 12.5607 16.4394C12.8536 16.7323 13 17.0859 13 17.5001C13 17.9143 12.8536 18.2679 12.5607 18.5608C12.2678 18.8536 11.9142 19.0001 11.5 19.0001C11.0858 19.0001 10.7322 18.8536 10.4393 18.5608C10.1464 18.2679 10 17.9143 10 17.5001C10 17.0859 10.1464 16.7323 10.4393 16.4394C10.7322 16.1465 11.0858 16.0001 11.5 16.0001ZM11.5 21C11.9142 21 12.2678 21.1466 12.5607 21.4394C12.8536 21.7324 13 22.0858 13 22.5C13 22.9144 12.8536 23.2678 12.5607 23.5608C12.2678 23.8536 11.9142 24 11.5 24C11.0858 24 10.7322 23.8536 10.4393 23.5608C10.1464 23.2678 10 22.9144 10 22.5C10 22.0858 10.1464 21.7324 10.4393 21.4394C10.7322 21.1466 11.0858 21 11.5 21ZM6.5 16.0001C6.91422 16.0001 7.26776 16.1465 7.56066 16.4394C7.85356 16.7323 8 17.0859 8 17.5001C8 17.9143 7.85356 18.2679 7.56066 18.5608C7.26776 18.8536 6.91422 19.0001 6.5 19.0001C6.08578 19.0001 5.73224 18.8536 5.43934 18.5608C5.14644 18.2679 5 17.9143 5 17.5001C5 17.0859 5.14644 16.7323 5.43934 16.4394C5.73224 16.1465 6.08578 16.0001 6.5 16.0001ZM6.5 21C6.91422 21 7.26776 21.1466 7.56066 21.4394C7.85356 21.7324 8 22.0858 8 22.5C8 22.9144 7.85356 23.2678 7.56066 23.5608C7.26776 23.8536 6.91422 24 6.5 24C6.08578 24 5.73224 23.8536 5.43934 23.5608C5.14644 23.2678 5 22.9144 5 22.5C5 22.0858 5.14644 21.7324 5.43934 21.4394C5.73224 21.1466 6.08578 21 6.5 21Z" fill-rule="nonzero" transform="matrix(1 0 0 1 2 1.99991)" fill="rgb(107, 114, 128)"/>
				</g>
			</g>
		</g>
	</g>
</svg>
