
<svg mexport="1" xmlns="http://www.w3.org/2000/svg" xmlns:xlink="http://www.w3.org/1999/xlink" width="24" height="24" viewBox="0 0 24 24">
	<defs>
		<clipPath id="clipPath0:0:0">
			<path d="M0 0L24 0L24 24L0 24L0 0Z" fill-rule="nonzero" transform="matrix(1 0 0 1 0 0)"/>
		</clipPath>
	</defs>
	<g clip-path="url(#clipPath0:0:0)">
		<path d="M13.1273 0.103048C13.2784 0.190679 13.3859 0.315848 13.4495 0.478555C13.5132 0.641261 13.5193 0.806092 13.4678 0.973048L10.7663 9.75105L15.7508 9.75105C15.9005 9.75099 16.0379 9.79206 16.163 9.87427C16.2881 9.95648 16.3803 10.0663 16.4396 10.2037C16.499 10.3412 16.5157 10.4836 16.4897 10.631C16.4638 10.7785 16.3995 10.9066 16.2968 11.0155L4.29679 23.7655C4.17724 23.8927 4.03113 23.9688 3.85845 23.9939C3.68577 24.0191 3.52401 23.9877 3.37319 23.9C3.22237 23.8122 3.11523 23.687 3.05177 23.5245C2.98832 23.3619 2.98232 23.1973 3.03379 23.0305L5.73529 14.251L0.750789 14.251C0.601094 14.2511 0.463696 14.21 0.338597 14.1278C0.213497 14.0456 0.121277 13.9358 0.0619354 13.7984C0.00259375 13.6609 -0.0141056 13.5185 0.0118375 13.3711C0.0377805 13.2236 0.102097 13.0955 0.204788 12.9865L12.2048 0.236547C12.3242 0.109609 12.4701 0.0335235 12.6425 0.00829046C12.8149 -0.0169426 12.9765 0.0156437 13.1273 0.103048ZM2.48629 12.751L6.75079 12.751C7.00311 12.751 7.20423 12.8524 7.35416 13.0554C7.50409 13.2583 7.54197 13.4804 7.46779 13.7215L5.41579 20.386L14.0138 11.251L9.75079 11.251C9.49847 11.2511 9.29734 11.1496 9.14741 10.9467C8.99748 10.7438 8.95961 10.5217 9.03379 10.2805L11.0858 3.61605L2.48629 12.751Z" fill-rule="nonzero" transform="matrix(1 0 0 1 3.74921 -0.00104815)" fill="rgb(255, 255, 255)"/>
	</g>
</svg>
