
<svg mexport="1" xmlns="http://www.w3.org/2000/svg" xmlns:xlink="http://www.w3.org/1999/xlink" width="32" height="32" viewBox="0 0 32 32">
	<defs>
		<clipPath id="clipPath0:0:0">
			<path d="M0 0L32 0L32 32L0 32L0 0Z" fill-rule="nonzero" transform="matrix(1 0 0 1 0 0)"/>
		</clipPath>
	</defs>
	<g clip-path="url(#clipPath0:0:0)">
		<defs>
			<mask id="mask0:0:1" style="mask-type:alpha">
				<path d="M0 0L32 0L32 32L0 32L0 0Z" fill-rule="nonzero" transform="matrix(1 0 0 1 0 0)" fill="rgb(0, 0, 0)"/>
			</mask>
		</defs>
		<g mask="url(#mask0:0:1)">
			<defs>
				<mask id="mask0:0:2" style="mask-type:alpha">
					<path d="M0 0L32 0L32 32L0 32L0 0Z" fill-rule="nonzero" transform="matrix(1 0 0 1 0 0)" fill="rgb(0, 0, 0)"/>
				</mask>
			</defs>
			<g mask="url(#mask0:0:2)">
				<defs>
					<mask id="mask0:0:3" style="mask-type:alpha">
						<path d="M0 0L32 0L32 32L0 32L0 0Z" fill-rule="nonzero" transform="matrix(1 0 0 1 0 0)" fill="rgb(0, 0, 0)"/>
					</mask>
				</defs>
				<g mask="url(#mask0:0:3)">
					<path d="M13 0C5.82062 0 0 5.82062 0 13C0 20.1794 5.82062 26 13 26C20.1794 26 26 20.1794 26 13C26 5.82062 20.1794 0 13 0ZM19 15L13 15C12.7239 15 12.4882 14.9024 12.2929 14.7071C12.0976 14.5118 12 14.2761 12 14L12 5C12 4.72386 12.0976 4.48816 12.2929 4.2929C12.4882 4.09764 12.7239 4 13 4C13.2761 4 13.5118 4.09764 13.7071 4.2929C13.9024 4.48816 14 4.72386 14 5L14 13L19 13C19.2761 13 19.5118 13.0976 19.7071 13.2929C19.9024 13.4882 20 13.7239 20 14C20 14.2761 19.9024 14.5118 19.7071 14.7071C19.5118 14.9024 19.2761 15 19 15Z" fill-rule="nonzero" transform="matrix(1 0 0 1 3 3)" fill="rgb(107, 114, 128)"/>
				</g>
			</g>
		</g>
	</g>
</svg>
