
<svg mexport="1" xmlns="http://www.w3.org/2000/svg" xmlns:xlink="http://www.w3.org/1999/xlink" width="24" height="24" viewBox="0 0 24 24">
	<defs>
		<clipPath id="clipPath0:0:0">
			<path d="M0 0L24 0L24 24L0 24L0 0Z" fill-rule="nonzero" transform="matrix(1 0 0 1 0 0)"/>
		</clipPath>
	</defs>
	<g clip-path="url(#clipPath0:0:0)">
		<path d="M17.25 9Q17.25 7.32181 16.6018 5.78982Q15.9754 4.3095 14.833 3.16705Q13.6905 2.0246 12.2102 1.39823Q10.6782 0.75 9 0.75Q7.32181 0.75 5.78982 1.39823Q4.3095 2.0246 3.16705 3.16705Q2.0246 4.3095 1.39823 5.78982Q0.75 7.32181 0.75 9Q0.75 10.6782 1.39823 12.2102Q2.0246 13.6905 3.16705 14.833Q4.3095 15.9754 5.78982 16.6018Q7.32181 17.25 9 17.25Q10.6782 17.25 12.2102 16.6018Q13.6905 15.9754 14.833 14.833Q15.9754 13.6905 16.6018 12.2102Q17.25 10.6782 17.25 9ZM18.75 9Q18.75 10.9825 17.9832 12.7947Q17.2429 14.5444 15.8936 15.8936Q14.5444 17.2429 12.7947 17.9832Q10.9825 18.75 9 18.75Q7.01753 18.75 5.2053 17.9832Q3.45564 17.2429 2.10639 15.8936Q0.757141 14.5444 0.0168071 12.7947Q-0.75 10.9825 -0.75 9Q-0.75 7.01753 0.0168071 5.2053Q0.757139 3.45564 2.10639 2.10639Q3.45564 0.75714 5.2053 0.0168071Q7.01753 -0.75 9 -0.75Q10.9825 -0.75 12.7947 0.0168071Q14.5444 0.75714 15.8936 2.10639Q17.2429 3.45564 17.9832 5.2053Q18.75 7.01753 18.75 9Z" fill-rule="nonzero" transform="matrix(1 0 0 1 3 3)" fill="rgb(255, 255, 255)"/>
		<path d="M0.765008 7.42559L6.12985 4.18465C6.29311 4.0852 6.37473 3.93988 6.37473 3.74872C6.37473 3.55755 6.29311 3.41224 6.12985 3.31278L0.765009 0.0718417C0.686725 0.0249419 0.601957 0.00100493 0.510705 3.0756e-05C0.419452 -0.000942946 0.334193 0.0211797 0.254926 0.0663986C0.17566 0.111618 0.113225 0.17375 0.067621 0.252796C0.0220172 0.331841 -0.000519991 0.416992 9.29832e-06 0.508248L9.29832e-06 6.98919C-0.000520945 7.08044 0.0220158 7.16559 0.0676196 7.24464C0.113223 7.32368 0.175659 7.38582 0.254926 7.43104C0.334193 7.47625 0.419452 7.49838 0.510705 7.4974C0.601957 7.49643 0.686724 7.47249 0.765008 7.42559Z" fill-rule="nonzero" transform="matrix(1 0 0 1 9.37499 8.25128)" fill="rgb(255, 255, 255)"/>
	</g>
</svg>
