
<svg mexport="1" xmlns="http://www.w3.org/2000/svg" xmlns:xlink="http://www.w3.org/1999/xlink" width="42.2446" height="67" viewBox="0 0 42.2446 67">
	<defs>
		<clipPath id="clipPath0:0:0">
			<path d="M0 0L42.2445 0L42.2445 67L0 67L0 0Z" fill-rule="nonzero" transform="matrix(1 0 0 1 -0.000172615 0)"/>
		</clipPath>
	</defs>
	<g clip-path="url(#clipPath0:0:0)">
		<defs>
			<mask id="mask0:0:1" style="mask-type:alpha">
				<path d="M0 0L42.2445 0L42.2445 59.8464L0 59.8464L0 0Z" fill-rule="nonzero" transform="matrix(1 0 0 1 -0.000172615 10.7305)" fill="rgb(0, 0, 0)"/>
			</mask>
		</defs>
		<g mask="url(#mask0:0:1)">
			<defs>
				<mask id="mask0:0:2" style="mask-type:alpha">
					<path d="M0 0L42.2445 0L42.2445 60.3964L0 60.3964L0 0Z" fill-rule="nonzero" transform="matrix(1 0 0 1 -0.000172615 17.6091)" fill="rgb(0, 0, 0)"/>
				</mask>
			</defs>
			<g mask="url(#mask0:0:2)">
				<defs>
					<mask id="mask0:0:3" style="mask-type:alpha">
						<path d="M0 0L42.2302 0L42.2302 60.3964L0 60.3964L0 0Z" fill-rule="nonzero" transform="matrix(1 0 0 1 0.0212402 24.7628)" fill="rgb(0, 0, 0)"/>
					</mask>
				</defs>
				<g mask="url(#mask0:0:3)">
					<defs>
						<mask id="mask0:0:4" style="mask-type:alpha">
							<path d="M0 0L42.2302 0L42.2302 42.2302L0 42.2302L0 0Z" fill-rule="nonzero" transform="matrix(1 0 0 1 0.0355153 31.9165)" fill="rgb(0, 0, 0)"/>
						</mask>
					</defs>
					<g mask="url(#mask0:0:4)">
						<defs>
							<mask id="mask0:0:5" style="mask-type:alpha">
								<path d="M0 0L42.2302 0L42.2302 42.2302L0 42.2302L0 0Z" fill-rule="nonzero" transform="matrix(1 0 0 1 0.0497906 39.0701)" fill="rgb(0, 0, 0)"/>
							</mask>
						</defs>
						<g mask="url(#mask0:0:5)">
							<path d="M32.4429 6.19364L20.1235 0.576692C19.2823 0.19223 18.2905 0 17.1478 0C16.0051 0 15.0128 0.192401 14.1709 0.577202L1.86064 6.19378C1.33552 6.43246 0.917015 6.72742 0.605145 7.07857C0.201714 7.53282 0 8.03802 0 8.59409C0 9.15017 0.201714 9.65536 0.605145 10.1096C0.917017 10.4608 1.33608 10.756 1.86235 10.9952L14.068 16.5619C14.9385 16.9588 15.9676 17.1573 17.1552 17.1573C18.3427 17.1573 19.3717 16.9588 20.2421 16.562L32.4496 10.9945C32.975 10.7546 33.393 10.4587 33.7037 10.1068C34.1056 9.65218 34.3057 9.14697 34.3046 8.59128C34.3036 8.03585 34.1015 7.53136 33.6984 7.07785C33.3867 6.72713 32.9681 6.43239 32.4429 6.19364ZM19.0285 2.97824L31.3479 8.59519L19.1473 14.1604C18.6247 14.3987 17.9608 14.5179 17.1552 14.5179C16.3498 14.5179 15.6858 14.3987 15.1632 14.1605L2.95831 8.59409L15.2681 2.97773C15.7616 2.75216 16.3882 2.63938 17.1478 2.63938C17.9074 2.63938 18.5342 2.75233 19.0285 2.97824ZM24.7361 22.5649C24.0795 22.2488 23.8032 21.4602 24.1193 20.8035C24.4353 20.1467 25.224 19.8706 25.8807 20.1865L32.4482 23.3473C32.9745 23.5867 33.3936 23.8819 33.7053 24.2332C34.1087 24.6877 34.3104 25.1928 34.3104 25.7489C34.3104 26.3049 34.1087 26.8103 33.7053 27.2646C33.3936 27.6159 32.975 27.9108 32.4496 28.1496L20.2416 33.7174C19.3714 34.1137 18.3426 34.3118 17.1552 34.3118C15.9678 34.3118 14.9388 34.1135 14.068 33.7171L1.86235 28.1503C1.33601 27.9111 0.91689 27.6159 0.60498 27.2646C0.201659 26.8103 0 26.3049 0 25.7489C0 25.1928 0.201659 24.6877 0.60498 24.2332C0.91689 23.8819 1.33795 23.5858 1.86816 23.3447L8.68932 20.2839C9.35428 19.9855 10.1352 20.2826 10.4336 20.9476C10.732 21.6125 10.4349 22.3936 9.76988 22.6918L2.95745 25.7489L15.1632 31.3158C15.6856 31.5535 16.3495 31.6724 17.1552 31.6724C17.9609 31.6724 18.6251 31.5533 19.1478 31.3153L31.3532 25.7489L24.7361 22.5649Z" fill-rule="evenodd" transform="matrix(1 0 0 1 4.01712 43.0292)" fill="rgb(59, 130, 246)"/>
							<path d="M23.8699 0.780108C23.5719 1.44516 23.8692 2.22602 24.5344 2.52423L31.357 5.58324L19.1473 11.151C18.6247 11.3893 17.9608 11.5085 17.1552 11.5085C16.3498 11.5085 15.6858 11.3893 15.1632 11.1511L2.95745 5.58513L9.77821 2.52402C10.4431 2.2256 10.7403 1.44462 10.4418 0.779673C10.1434 0.114726 9.36245 -0.182405 8.6975 0.116018L1.86809 3.18101C1.33793 3.42198 0.91689 3.71815 0.60498 4.06948C0.201659 4.52379 0 5.02899 0 5.58511C0 6.1412 0.201659 6.64641 0.60498 7.10073C0.91689 7.45207 1.33601 7.74736 1.86235 7.9866L14.0681 13.5526C14.9385 13.9494 15.9676 14.1478 17.1552 14.1478C18.3427 14.1478 19.3717 13.9494 20.2421 13.5526L32.4496 7.98595C32.9748 7.7485 33.3941 7.45448 33.7074 7.10385C34.1128 6.65 34.3162 6.14479 34.3177 5.58822C34.3189 5.03116 34.1175 4.52504 33.7137 4.06982C33.402 3.71836 32.9829 3.42293 32.4564 3.1836L25.6141 0.115823C24.9491 -0.182359 24.1682 0.115054 23.8699 0.780108Z" fill-rule="evenodd" transform="matrix(1 0 0 1 4.00886 54.6158)" fill="rgb(59, 130, 246)"/>
						</g>
					</g>
				</g>
			</g>
		</g>
	</g>
</svg>
