
<svg mexport="1" xmlns="http://www.w3.org/2000/svg" xmlns:xlink="http://www.w3.org/1999/xlink" width="16" height="16" viewBox="0 0 16 16">
	<defs>
		<clipPath id="clipPath0:0:0">
			<path d="M0 0L16 0L16 16L0 16L0 0Z" fill-rule="nonzero" transform="matrix(1 0 0 1 0 0)"/>
		</clipPath>
	</defs>
	<g clip-path="url(#clipPath0:0:0)">
		<path d="M0.5 6.66667Q0.5 7.92159 0.984402 9.06684Q1.45244 10.1734 2.30617 11.0271Q3.15991 11.8809 4.26648 12.3489Q5.41173 12.8333 6.66667 12.8333Q7.92159 12.8333 9.06684 12.3489Q10.1734 11.8809 11.0271 11.0271Q11.8809 10.1734 12.3489 9.06684Q12.8333 7.92159 12.8333 6.66667Q12.8333 5.41173 12.3489 4.26648Q11.8809 3.15991 11.0271 2.30617Q10.1734 1.45244 9.06684 0.984401Q7.9216 0.5 6.66667 0.5Q5.41173 0.5 4.26647 0.984402Q3.15991 1.45244 2.30617 2.30617Q1.45244 3.15991 0.984401 4.26647Q0.5 5.41173 0.5 6.66667ZM-0.5 6.66667Q-0.5 5.20894 0.0633968 3.87692Q0.607414 2.59072 1.59907 1.59907Q2.59072 0.607415 3.87692 0.0633973Q5.20894 -0.5 6.66667 -0.5Q8.12438 -0.5 9.4564 0.063397Q10.7426 0.607415 11.7343 1.59907Q12.7259 2.59072 13.2699 3.87692Q13.8333 5.20894 13.8333 6.66667Q13.8333 8.12438 13.2699 9.4564Q12.7259 10.7426 11.7343 11.7343Q10.7426 12.7259 9.4564 13.2699Q8.12438 13.8333 6.66667 13.8333Q5.20894 13.8333 3.87692 13.2699Q2.59072 12.7259 1.59907 11.7343Q0.607417 10.7426 0.0633974 9.4564Q-0.5 8.12438 -0.5 6.66667Z" fill-rule="nonzero" transform="matrix(1 0 0 1 1.33333 1.33333)" fill="rgb(156, 163, 175)"/>
		<path d="M0 -0.5C-0.27614 -0.5 -0.5 -0.27614 -0.5 0L-0.5 4Q-0.5 4.06964 -0.480969 4.13663Q-0.461938 4.20362 -0.425325 4.26287Q-0.388712 4.32211 -0.337304 4.36909Q-0.285896 4.41607 -0.223607 4.44721L2.44306 5.78055C2.69005 5.90404 2.99039 5.80393 3.11388 5.55694C3.23737 5.30995 3.13726 5.00961 2.89027 4.88612L0.5 3.69098L0.5 0C0.5 -0.27614 0.27614 -0.5 0 -0.5Z" fill-rule="evenodd" transform="matrix(1 0 0 1 8 4)" fill="rgb(156, 163, 175)"/>
	</g>
</svg>
