
<svg mexport="1" xmlns="http://www.w3.org/2000/svg" xmlns:xlink="http://www.w3.org/1999/xlink" width="20" height="20" viewBox="0 0 20 20">
	<defs>
		<clipPath id="clipPath0:0:0">
			<path d="M0 0L20 0L20 20L0 20L0 0Z" fill-rule="nonzero" transform="matrix(1 0 0 1 -0 -0)"/>
		</clipPath>
	</defs>
	<g clip-path="url(#clipPath0:0:0)">
		<path d="M3.33333 5.83333Q3.8425 5.83333 4.30617 5.63721Q4.75466 5.44751 5.10109 5.10109Q5.44751 4.75467 5.63721 4.30617Q5.83333 3.8425 5.83333 3.33333Q5.83333 2.82416 5.63721 2.36048Q5.44751 1.91199 5.10109 1.56557Q4.75467 1.21915 4.30618 1.02945Q3.8425 0.833333 3.33333 0.833334Q2.82416 0.833333 2.36048 1.02945Q1.91198 1.21915 1.56557 1.56557Q1.21915 1.91198 1.02945 2.36048Q0.833334 2.82416 0.833334 3.33333Q0.833333 3.8425 1.02945 4.30618Q1.21915 4.75467 1.56557 5.10109Q1.91199 5.44751 2.36048 5.63721Q2.82416 5.83333 3.33333 5.83333L3.33333 5.83333ZM3.33333 7.5Q2.48618 7.5 1.71122 7.17221Q0.963332 6.85588 0.387053 6.2796Q-0.189223 5.70332 -0.505553 4.95543Q-0.833333 4.18048 -0.833333 3.33333Q-0.833333 2.48618 -0.505554 1.71122Q-0.189223 0.963333 0.387055 0.387055Q0.963333 -0.189223 1.71122 -0.505554Q2.48618 -0.833333 3.33333 -0.833333Q4.18048 -0.833333 4.95543 -0.505553Q5.70332 -0.189223 6.2796 0.387053Q6.85588 0.963332 7.17221 1.71122Q7.5 2.48618 7.5 3.33333Q7.5 4.18048 7.17221 4.95544Q6.85588 5.70332 6.2796 6.2796Q5.70332 6.85588 4.95543 7.17221Q4.18048 7.5 3.33333 7.5L3.33333 7.5Z" fill-rule="nonzero" transform="matrix(1 0 0 1 6.66667 6.66667)" fill="rgb(156, 163, 175)"/>
		<path d="M0 -0.833333C-0.460233 -0.833333 -0.833333 -0.460233 -0.833333 0L-0.833333 1.66667C-0.833333 2.1269 -0.460233 2.5 0 2.5C0.460233 2.5 0.833333 2.1269 0.833333 1.66667L0.833333 0C0.833333 -0.460233 0.460233 -0.833333 0 -0.833333Z" fill-rule="evenodd" transform="matrix(1 0 0 1 10 1.66667)" fill="rgb(156, 163, 175)"/>
		<path d="M0 -0.833333C-0.460233 -0.833333 -0.833333 -0.460233 -0.833333 0L-0.833333 1.66667C-0.833333 2.1269 -0.460233 2.5 0 2.5C0.460233 2.5 0.833333 2.1269 0.833333 1.66667L0.833333 0C0.833333 -0.460233 0.460233 -0.833333 0 -0.833333Z" fill-rule="evenodd" transform="matrix(1 0 0 1 10 16.6667)" fill="rgb(156, 163, 175)"/>
		<path d="M-0.589256 0.589256C-0.91469 0.263822 -0.91469 -0.263821 -0.589256 -0.589256C-0.263822 -0.91469 0.263821 -0.91469 0.589256 -0.589256L1.76426 0.585745C2.08969 0.911179 2.08969 1.43882 1.76426 1.76426C1.43882 2.08969 0.911179 2.08969 0.585745 1.76426L-0.589256 0.589256Z" fill-rule="evenodd" transform="matrix(1 0 0 1 4.10833 4.10833)" fill="rgb(156, 163, 175)"/>
		<path d="M-0.589256 0.589256C-0.91469 0.263822 -0.91469 -0.263821 -0.589256 -0.589256C-0.263822 -0.91469 0.263821 -0.91469 0.589256 -0.589256L1.76426 0.585744C2.08969 0.911178 2.08969 1.43882 1.76426 1.76426C1.43882 2.08969 0.911178 2.08969 0.585744 1.76426L-0.589256 0.589256Z" fill-rule="evenodd" transform="matrix(1 0 0 1 14.7167 14.7167)" fill="rgb(156, 163, 175)"/>
		<path d="M-0.833333 0C-0.833333 0.460233 -0.460233 0.833333 0 0.833333L1.66667 0.833333C2.1269 0.833333 2.5 0.460233 2.5 0C2.5 -0.460233 2.1269 -0.833333 1.66667 -0.833333L0 -0.833333C-0.460233 -0.833333 -0.833333 -0.460233 -0.833333 0Z" fill-rule="evenodd" transform="matrix(1 0 0 1 1.66667 10)" fill="rgb(156, 163, 175)"/>
		<path d="M-0.833333 0C-0.833333 0.460233 -0.460233 0.833333 0 0.833333L1.66667 0.833333C2.1269 0.833333 2.5 0.460233 2.5 0C2.5 -0.460233 2.1269 -0.833333 1.66667 -0.833333L0 -0.833333C-0.460233 -0.833333 -0.833333 -0.460233 -0.833333 0Z" fill-rule="evenodd" transform="matrix(1 0 0 1 16.6667 10)" fill="rgb(156, 163, 175)"/>
		<path d="M0.585745 -0.589256C0.911179 -0.91469 1.43882 -0.91469 1.76426 -0.589255C2.08969 -0.263821 2.08969 0.263822 1.76426 0.589256L0.589256 1.76426C0.263821 2.08969 -0.263822 2.08969 -0.589256 1.76426C-0.91469 1.43882 -0.91469 0.911178 -0.589255 0.585744L0.585745 -0.589256Z" fill-rule="evenodd" transform="matrix(1 0 0 1 4.10833 14.7167)" fill="rgb(156, 163, 175)"/>
		<path d="M1.76426 -0.589256C1.43882 -0.91469 0.911178 -0.91469 0.585744 -0.589256L-0.589256 0.585745C-0.91469 0.911179 -0.91469 1.43882 -0.589255 1.76426C-0.263821 2.08969 0.263822 2.08969 0.589256 1.76426L1.76426 0.589256C2.08969 0.263821 2.08969 -0.263822 1.76426 -0.589256Z" fill-rule="evenodd" transform="matrix(1 0 0 1 14.7167 4.10833)" fill="rgb(156, 163, 175)"/>
	</g>
</svg>
