
<svg mexport="1" xmlns="http://www.w3.org/2000/svg" xmlns:xlink="http://www.w3.org/1999/xlink" width="18" height="18" viewBox="0 0 18 18">
	<defs>
		<clipPath id="clipPath0:0:0">
			<path d="M0 0L18 0L18 18L0 18L0 0Z" fill-rule="nonzero" transform="matrix(1 0 0 1 0 0)"/>
		</clipPath>
	</defs>
	<g clip-path="url(#clipPath0:0:0)">
		<path d="M14.368 13.127L11.0602 9.81914C11.4583 9.28905 11.7622 8.7095 11.9718 8.08049C12.1813 7.45149 12.2857 6.80549 12.285 6.1425C12.285 2.75555 9.52945 0 6.1425 0C2.75555 0 0 2.75555 0 6.1425C0 9.52945 2.75555 12.285 6.1425 12.285C6.80549 12.2857 7.45149 12.1813 8.08049 11.9718C8.7095 11.7622 9.28905 11.4583 9.81914 11.0602L13.127 14.368C13.3008 14.5234 13.5043 14.5978 13.7373 14.5913C13.9704 14.5848 14.1694 14.4991 14.3342 14.3342C14.4991 14.1694 14.5848 13.9704 14.5913 13.7373C14.5978 13.5043 14.5234 13.3008 14.368 13.127ZM1.755 6.1425C1.755 4.93092 2.18336 3.89678 3.04007 3.04007C3.89678 2.18336 4.93092 1.755 6.1425 1.755C7.35407 1.755 8.38822 2.18336 9.24493 3.04007C10.1016 3.89678 10.53 4.93092 10.53 6.1425C10.53 7.35407 10.1016 8.38822 9.24493 9.24493C8.38822 10.1016 7.35407 10.53 6.1425 10.53C4.93153 10.5285 3.8979 10.0997 3.04161 9.24339C2.18532 8.3871 1.75645 7.35347 1.755 6.1425Z" fill-rule="nonzero" transform="matrix(1 0 0 1 1.6875 1.6875)" fill="rgb(156, 163, 175)"/>
	</g>
</svg>
