
<svg mexport="1" xmlns="http://www.w3.org/2000/svg" xmlns:xlink="http://www.w3.org/1999/xlink" width="32" height="32" viewBox="0 0 32 32">
	<defs>
		<clipPath id="clipPath0:0:0">
			<path d="M0 0L32 0L32 32L0 32L0 0Z" fill-rule="nonzero" transform="matrix(1 0 0 1 0 0)"/>
		</clipPath>
	</defs>
	<g clip-path="url(#clipPath0:0:0)">
		<defs>
			<mask id="mask0:0:1" style="mask-type:alpha">
				<path d="M0 0L32 0L32 32L0 32L0 0Z" fill-rule="nonzero" transform="matrix(1 0 0 1 0 0)" fill="rgb(0, 0, 0)"/>
			</mask>
		</defs>
		<g mask="url(#mask0:0:1)">
			<defs>
				<mask id="mask0:0:2" style="mask-type:alpha">
					<path d="M0 0L32 0L32 32L0 32L0 0Z" fill-rule="nonzero" transform="matrix(1 0 0 1 0 0)" fill="rgb(0, 0, 0)"/>
				</mask>
			</defs>
			<g mask="url(#mask0:0:2)">
				<defs>
					<mask id="mask0:0:3" style="mask-type:alpha">
						<path d="M0 0L32 0L32 32L0 32L0 0Z" fill-rule="nonzero" transform="matrix(1 0 0 1 0 0)" fill="rgb(0, 0, 0)"/>
					</mask>
				</defs>
				<g mask="url(#mask0:0:3)">
					<path d="M1.6739 3.28759e-06C1.1255 0.000304013 0.684491 0.218079 0.350875 0.653328C0.0172561 1.08858 -0.078454 1.57102 0.0637438 2.10067C0.205943 2.63031 0.530419 2.99995 1.03717 3.20957C1.54393 3.4192 2.03471 3.3868 2.50952 3.1124C2.98432 2.838 3.25741 2.42891 3.32875 1.88518C3.40011 1.34144 3.24184 0.875755 2.85389 0.488128C2.69757 0.331475 2.51714 0.210851 2.31263 0.126253C2.10813 0.0416546 1.89522 -0.000428408 1.6739 3.28759e-06Z" fill-rule="nonzero" transform="matrix(1 0 0 1 18.8792 9.79936)" fill="rgb(59, 130, 246)"/>
					<path d="M27.8424 1.12861C27.7885 0.886688 27.6763 0.682377 27.5059 0.510043C27.3355 0.33771 27.1323 0.223274 26.8968 0.166734C25.0342 -0.287642 22.1042 0.196734 18.8573 1.49673C15.5848 2.80923 12.5186 4.74672 10.4461 6.82299C10.1139 7.15336 9.79379 7.49496 9.48557 7.84779C9.17739 8.20061 8.88195 8.56381 8.5992 8.93736C7.2036 8.87485 5.97421 9.0736 4.93859 9.52549C1.32984 11.1136 0.299213 15.178 0.0248372 16.8467C-0.0602981 17.3552 0.0734326 17.7974 0.426029 18.1735C0.778627 18.5495 1.21135 18.7115 1.72421 18.6592L5.75235 18.2205C5.75733 18.2717 5.76296 18.3186 5.76733 18.3617C5.79315 18.6067 5.85915 18.8402 5.96533 19.0625C6.07149 19.2847 6.21176 19.4828 6.38608 19.6567L8.34797 21.6199C8.52168 21.7944 8.7196 21.9349 8.94173 22.0412C9.16389 22.1475 9.39741 22.2135 9.64235 22.2392L9.77672 22.2536L9.3392 26.2686C9.29189 26.7344 9.42141 27.1347 9.72776 27.4779C10.0341 27.8211 10.4173 27.9952 10.8773 27.9997C10.9208 28 10.9642 27.9981 11.0075 27.9947C11.0508 27.9909 11.0938 27.9856 11.1367 27.9787C12.8148 27.7085 16.8773 26.6904 18.4611 23.0623C18.9092 22.0336 19.1073 20.8092 19.0517 19.4161C19.4269 19.134 19.7916 18.8389 20.1457 18.5306C20.4998 18.2224 20.8424 17.902 21.1736 17.5692C23.263 15.4905 25.2067 12.4492 26.5055 9.22424C27.7987 6.01424 28.2853 3.06235 27.8424 1.12861ZM21.1511 12.0586C20.4341 12.7764 19.5683 13.1354 18.5537 13.1358C17.5391 13.1361 16.6731 12.7777 15.9556 12.0604C15.2381 11.3431 14.8793 10.4772 14.8793 9.46267C14.8793 8.44811 15.2381 7.58221 15.9556 6.86493C16.6731 6.14765 17.5392 5.7892 18.5537 5.78955C19.5683 5.78989 20.4341 6.14896 21.1511 6.86672C21.8756 7.58037 22.2379 8.44571 22.2379 9.46267C22.2379 10.4797 21.8756 11.345 21.1511 12.0586Z" fill-rule="nonzero" transform="matrix(1 0 0 1 1.99766 2.00014)" fill="rgb(59, 130, 246)"/>
					<path d="M7.12101 3.15411C7.00008 3.13909 6.88043 3.14597 6.762 3.17472C6.6436 3.20347 6.53411 3.25221 6.43352 3.32099C6.03413 3.59411 5.63288 3.86411 5.22789 4.12723C4.40851 4.65973 3.42851 3.72472 3.91539 2.87723L4.67475 1.56473C4.78563 1.40254 4.84365 1.22325 4.84885 1.02685C4.85405 0.830454 4.8056 0.648342 4.70347 0.480512C4.60131 0.312683 4.46184 0.185961 4.28501 0.100342C4.10816 0.0147265 3.92227 -0.0161014 3.72725 0.00785878C3.30584 0.0611501 2.90443 0.181252 2.52301 0.368166C2.14158 0.555078 1.8007 0.798726 1.50038 1.09911C1.27163 1.32848 0.576008 2.02473 0.201633 4.67787C0.148352 5.05891 0.10493 5.44104 0.0713657 5.82432C0.0378017 6.2076 0.0141406 6.59149 0.00038274 6.97597C-0.00682371 7.25712 0.0877353 7.49835 0.284059 7.69971C0.480384 7.90107 0.719157 8.00171 1.00038 8.0016C1.41018 7.98797 1.79437 7.96451 2.17795 7.93115C2.56154 7.89779 2.94403 7.85461 3.32539 7.8016C5.97976 7.42661 6.676 6.73035 6.90475 6.5016C7.20653 6.20115 7.45059 5.85947 7.63691 5.47656C7.82323 5.09363 7.94147 4.69075 7.99163 4.26787C8.02509 3.99389 7.95683 3.74821 7.78685 3.53077C7.61688 3.31333 7.39493 3.18779 7.12101 3.15411Z" fill-rule="nonzero" transform="matrix(1 0 0 1 2.99963 20.9984)" fill="rgb(59, 130, 246)"/>
				</g>
			</g>
		</g>
	</g>
</svg>
