
<svg mexport="1" xmlns="http://www.w3.org/2000/svg" xmlns:xlink="http://www.w3.org/1999/xlink" width="16" height="18" viewBox="0 0 16 18">
	<defs>
		<clipPath id="clipPath0:0:0">
			<path d="M0 0L16 0L16 18L0 18L0 0Z" fill-rule="nonzero" transform="matrix(1 0 0 1 0 0)"/>
		</clipPath>
	</defs>
	<g clip-path="url(#clipPath0:0:0)">
		<defs>
			<clipPath id="clipPath0:0:1">
				<path d="M0 0L16 0L16 18.2656L0 18.2656L0 0Z" fill-rule="nonzero" transform="matrix(1 0 0 1 0 -0.1328)"/>
			</clipPath>
		</defs>
		<g clip-path="url(#clipPath0:0:1)">
			<defs>
				<mask id="mask0:0:2" style="mask-type:alpha">
					<path d="M0 0L15.9825 0L15.9825 18.2657L0 18.2657L0 0Z" fill-rule="nonzero" transform="matrix(1 0 0 1 0.0262513 -0.133079)" fill="rgb(0, 0, 0)"/>
				</mask>
			</defs>
			<g mask="url(#mask0:0:2)">
				<defs>
					<mask id="mask0:0:3" style="mask-type:alpha">
						<path d="M0 0L15.9825 0L15.9825 15.9825L0 15.9825L0 0Z" fill-rule="nonzero" transform="matrix(1 0 0 1 0.0437522 -0.133079)" fill="rgb(0, 0, 0)"/>
					</mask>
				</defs>
				<g mask="url(#mask0:0:3)">
					<defs>
						<mask id="mask0:0:4" style="mask-type:alpha">
							<path d="M0 0L15.9825 0L15.9825 15.9825L0 15.9825L0 0Z" fill-rule="nonzero" transform="matrix(1 0 0 1 0.0612531 -0.133079)" fill="rgb(0, 0, 0)"/>
						</mask>
					</defs>
					<g mask="url(#mask0:0:4)">
						<path d="M13.9847 2.99677C13.9847 2.44508 13.7896 1.9742 13.3995 1.5841C13.0095 1.194 12.5386 0.998956 11.9869 0.998956L11.4874 0.998956L11.4874 0.513548C11.4874 0.244779 11.2807 0.0140943 11.012 0.000671439C10.8695 -0.00619255 10.7466 0.0395721 10.6434 0.137965C10.5402 0.236358 10.4885 0.35687 10.4885 0.4995L10.4885 0.998956L3.49617 0.998956L3.49617 0.513548C3.49617 0.244779 3.28953 0.0140943 3.02075 0.000671439C2.87829 -0.00619267 2.75543 0.039572 2.65218 0.137965C2.54891 0.236358 2.49728 0.35687 2.49727 0.4995L2.49727 0.998956L1.99781 0.998956C1.44614 0.998956 0.975243 1.194 0.585145 1.5841C0.195048 1.9742 9.69315e-14 2.44508 9.69315e-14 2.99677L9.69315e-14 3.37136C-3.96928e-08 3.40583 0.0121904 3.43527 0.0365716 3.45965C0.0609526 3.48403 0.0903832 3.49622 0.124863 3.49622L13.8598 3.49622C13.8943 3.49622 13.9238 3.48403 13.9481 3.45965C13.9725 3.43527 13.9847 3.40583 13.9847 3.37136L13.9847 2.99677ZM9.69315e-14 11.9869C-3.96928e-08 12.5386 0.195048 13.0095 0.585145 13.3996C0.975243 13.7897 1.44614 13.9847 1.99781 13.9847L11.9869 13.9847C12.5386 13.9847 13.0095 13.7897 13.3995 13.3996C13.7896 13.0095 13.9847 12.5386 13.9847 11.9869L13.9847 4.58878C13.9847 4.56291 13.9755 4.54084 13.9572 4.52256C13.9389 4.50427 13.9169 4.49513 13.891 4.49513L0.0936475 4.49513C0.0677874 4.49513 0.0457144 4.50427 0.0274287 4.52256C0.00914288 4.54084 9.69315e-14 4.56291 9.69315e-14 4.58878L9.69315e-14 11.9869ZM10.7382 5.49403C10.9451 5.49403 11.1217 5.56717 11.268 5.71346C11.4143 5.85974 11.4874 6.03633 11.4874 6.24321C11.4874 6.45009 11.4143 6.62667 11.268 6.77296C11.1217 6.91924 10.9451 6.99239 10.7382 6.99239C10.5314 6.99239 10.3548 6.91924 10.2085 6.77296C10.0622 6.62667 9.98906 6.45009 9.98906 6.24321C9.98906 6.03633 10.0622 5.85974 10.2085 5.71346C10.3548 5.56717 10.5314 5.49403 10.7382 5.49403ZM10.7382 7.9913C10.9451 7.9913 11.1217 8.06444 11.268 8.21073C11.4143 8.35701 11.4874 8.5336 11.4874 8.74048C11.4874 8.94735 11.4143 9.12394 11.268 9.27023C11.1217 9.41651 10.9451 9.48966 10.7382 9.48966C10.5314 9.48966 10.3548 9.41651 10.2085 9.27023C10.0622 9.12394 9.98906 8.94735 9.98906 8.74048C9.98906 8.5336 10.0622 8.35701 10.2085 8.21073C10.3548 8.06444 10.5314 7.9913 10.7382 7.9913ZM8.24098 5.49403C8.44786 5.49403 8.62444 5.56717 8.77073 5.71346C8.91702 5.85974 8.99016 6.03633 8.99016 6.24321C8.99016 6.45009 8.91702 6.62667 8.77073 6.77296C8.62444 6.91924 8.44786 6.99239 8.24098 6.99239C8.03409 6.99239 7.85752 6.91924 7.71123 6.77296C7.56494 6.62667 7.4918 6.45009 7.4918 6.24321C7.4918 6.03633 7.56494 5.85974 7.71123 5.71346C7.85752 5.56717 8.03409 5.49403 8.24098 5.49403ZM8.24098 7.9913C8.44786 7.9913 8.62444 8.06444 8.77073 8.21073C8.91702 8.35701 8.99016 8.5336 8.99016 8.74048C8.99016 8.94735 8.91702 9.12394 8.77073 9.27023C8.62444 9.41651 8.44786 9.48966 8.24098 9.48966C8.03409 9.48966 7.85752 9.41651 7.71123 9.27023C7.56494 9.12394 7.4918 8.94735 7.4918 8.74048C7.4918 8.5336 7.56494 8.35701 7.71123 8.21073C7.85752 8.06444 8.03409 7.9913 8.24098 7.9913ZM8.24098 10.4885C8.44786 10.4885 8.62444 10.5617 8.77073 10.708C8.91702 10.8543 8.99016 11.0308 8.99016 11.2377C8.99016 11.4447 8.91702 11.6212 8.77073 11.7675C8.62444 11.9138 8.44786 11.9869 8.24098 11.9869C8.03409 11.9869 7.85752 11.9138 7.71123 11.7675C7.56494 11.6212 7.4918 11.4447 7.4918 11.2377C7.4918 11.0308 7.56494 10.8543 7.71123 10.708C7.85752 10.5617 8.03409 10.4885 8.24098 10.4885ZM5.74371 7.9913C5.95059 7.9913 6.12717 8.06444 6.27346 8.21073C6.41975 8.35701 6.49289 8.5336 6.49289 8.74048C6.49289 8.94735 6.41975 9.12394 6.27346 9.27023C6.12717 9.41651 5.95059 9.48966 5.74371 9.48966C5.53683 9.48966 5.36025 9.41651 5.21396 9.27023C5.06767 9.12394 4.99453 8.94735 4.99453 8.74048C4.99453 8.5336 5.06767 8.35701 5.21396 8.21073C5.36025 8.06444 5.53683 7.9913 5.74371 7.9913ZM5.74371 10.4885C5.95059 10.4885 6.12717 10.5617 6.27346 10.708C6.41975 10.8543 6.49289 11.0308 6.49289 11.2377C6.49289 11.4447 6.41975 11.6212 6.27346 11.7675C6.12717 11.9138 5.95059 11.9869 5.74371 11.9869C5.53683 11.9869 5.36025 11.9138 5.21396 11.7675C5.06767 11.6212 4.99453 11.4447 4.99453 11.2377C4.99453 11.0308 5.06767 10.8543 5.21396 10.708C5.36025 10.5617 5.53683 10.4885 5.74371 10.4885ZM3.24645 7.9913C3.45333 7.9913 3.62991 8.06444 3.7762 8.21073C3.92248 8.35701 3.99562 8.5336 3.99562 8.74048C3.99562 8.94735 3.92248 9.12394 3.7762 9.27023C3.62991 9.41651 3.45333 9.48966 3.24645 9.48966C3.03956 9.48966 2.86299 9.41651 2.7167 9.27023C2.57041 9.12394 2.49727 8.94735 2.49727 8.74048C2.49727 8.5336 2.57041 8.35701 2.7167 8.21073C2.86299 8.06444 3.03956 7.9913 3.24645 7.9913ZM3.24645 10.4885C3.45333 10.4885 3.62991 10.5617 3.7762 10.708C3.92248 10.8543 3.99562 11.0308 3.99562 11.2377C3.99562 11.4447 3.92248 11.6212 3.7762 11.7675C3.62991 11.9138 3.45333 11.9869 3.24645 11.9869C3.03956 11.9869 2.86299 11.9138 2.7167 11.7675C2.57041 11.6212 2.49727 11.4447 2.49727 11.2377C2.49727 11.0308 2.57041 10.8543 2.7167 10.708C2.86299 10.5617 3.03956 10.4885 3.24645 10.4885Z" fill-rule="nonzero" transform="matrix(1 0 0 1 1.06016 0.865781)" fill="rgb(107, 114, 128)"/>
					</g>
				</g>
			</g>
		</g>
	</g>
</svg>
