
<svg mexport="1" xmlns="http://www.w3.org/2000/svg" xmlns:xlink="http://www.w3.org/1999/xlink" width="16" height="16" viewBox="0 0 16 16">
	<defs>
		<clipPath id="clipPath0:0:0">
			<path d="M0 0L16 0L16 16L0 16L0 0Z" fill-rule="nonzero" transform="matrix(1 0 0 1 0 0)"/>
		</clipPath>
	</defs>
	<g clip-path="url(#clipPath0:0:0)">
		<defs>
			<mask id="mask0:0:1" style="mask-type:alpha">
				<path d="M0 0L16 0L16 16L0 16L0 0Z" fill-rule="nonzero" transform="matrix(1 0 0 1 0 0)" fill="rgb(0, 0, 0)"/>
			</mask>
		</defs>
		<g mask="url(#mask0:0:1)">
			<defs>
				<mask id="mask0:0:2" style="mask-type:alpha">
					<path d="M0 0L16 0L16 16L0 16L0 0Z" fill-rule="nonzero" transform="matrix(1 0 0 1 0 0)" fill="rgb(0, 0, 0)"/>
				</mask>
			</defs>
			<g mask="url(#mask0:0:2)">
				<defs>
					<mask id="mask0:0:3" style="mask-type:alpha">
						<path d="M0 0L16 0L16 16L0 16L0 0Z" fill-rule="nonzero" transform="matrix(1 0 0 1 0 0)" fill="rgb(0, 0, 0)"/>
					</mask>
				</defs>
				<g mask="url(#mask0:0:3)">
					<path d="M7.33334 13.3334C8.14742 13.3334 8.92583 13.1763 9.66859 12.8621C10.3863 12.5585 11.0221 12.1298 11.576 11.576C12.1298 11.0221 12.5585 10.3863 12.8621 9.66859C13.1763 8.92583 13.3334 8.14742 13.3334 7.33334C13.3334 6.51924 13.1763 5.74082 12.8621 4.99807C12.5585 4.28032 12.1298 3.64453 11.576 3.0907C11.0221 2.53686 10.3863 2.10815 9.66859 1.80457C8.92583 1.49041 8.14742 1.33333 7.33334 1.33333C6.51924 1.33333 5.74082 1.49041 4.99807 1.80457C4.28031 2.10815 3.64452 2.53686 3.0907 3.0907C2.53686 3.64453 2.10815 4.28032 1.80457 4.99807C1.49041 5.74082 1.33333 6.51924 1.33333 7.33334C1.33333 8.14742 1.49041 8.92583 1.80457 9.66859C2.10815 10.3863 2.53686 11.0221 3.0907 11.576C3.64453 12.1298 4.28032 12.5585 4.99807 12.8621C5.74082 13.1763 6.51924 13.3334 7.33334 13.3334ZM7.33334 14.6667C6.33899 14.6667 5.38743 14.4745 4.47867 14.0901C3.60124 13.7189 2.82431 13.1952 2.14789 12.5188C1.47146 11.8424 0.947685 11.0654 0.576564 10.188C0.192188 9.27923 0 8.32768 0 7.33334C0 6.33899 0.192188 5.38743 0.576563 4.47867C0.947683 3.60124 1.47146 2.82431 2.14789 2.14789C2.82431 1.47146 3.60123 0.947685 4.47867 0.576564C5.38743 0.192188 6.33899 0 7.33334 0C8.32768 0 9.27923 0.192188 10.188 0.576563C11.0654 0.947684 11.8424 1.47146 12.5188 2.14789C13.1952 2.82431 13.7189 3.60124 14.0901 4.47867C14.4745 5.38743 14.6667 6.33899 14.6667 7.33334C14.6667 8.32768 14.4745 9.27923 14.0901 10.188C13.7189 11.0654 13.1952 11.8424 12.5188 12.5188C11.8424 13.1952 11.0654 13.7189 10.188 14.0901C9.27923 14.4745 8.32768 14.6667 7.33334 14.6667Z" fill-rule="nonzero" transform="matrix(1 0 0 1 0.666663 0.666663)" fill="rgb(255, 255, 255)"/>
				</g>
			</g>
		</g>
	</g>
</svg>
