
<svg mexport="1" xmlns="http://www.w3.org/2000/svg" xmlns:xlink="http://www.w3.org/1999/xlink" width="20" height="20" viewBox="0 0 20 20">
	<defs>
		<clipPath id="clipPath0:0:0">
			<path d="M0 0L20 0L20 20L0 20L0 0Z" fill-rule="nonzero" transform="matrix(1 0 0 1 0 0)"/>
		</clipPath>
	</defs>
	<g clip-path="url(#clipPath0:0:0)">
		<defs>
			<mask id="mask0:0:1" style="mask-type:alpha">
				<path d="M0 0L20 0L20 20L0 20L0 0Z" fill-rule="nonzero" transform="matrix(1 0 0 1 0 0)" fill="rgb(0, 0, 0)"/>
			</mask>
		</defs>
		<g mask="url(#mask0:0:1)">
			<rect width="16.25" height="11.25" rx="1.875" ry="1.875" stroke-width="1.25" stroke-linejoin="round" transform="matrix(1 0 0 1 1.875 5.625)" stroke="rgb(156, 163, 175)" fill="transparent"/>
			<path d="M14.1937 3.75534L14.1937 2.58347C14.1936 2.16709 14.033 1.82616 13.7121 1.5607C13.3912 1.29522 13.0261 1.20147 12.617 1.27944L2.31765 3.03745C2.0122 3.09573 1.75785 3.24779 1.55458 3.49363C1.35131 3.73946 1.24978 4.02187 1.25 4.34085L1.25 6.25534L6.55651e-07 6.25534L6.55651e-07 4.3417C-0.000418683 3.72249 0.196662 3.17429 0.591241 2.69709C0.985821 2.21988 1.49119 1.92261 2.10735 1.80527L12.383 0.0515422C13.1772 -0.0998118 13.8858 0.0821736 14.5088 0.597498C15.1319 1.11282 15.4435 1.77481 15.4437 2.58347L15.4437 3.75534L14.1937 3.75534Z" fill-rule="nonzero" transform="matrix(1 0 0 1 1.25 1.86966)" fill="rgb(156, 163, 175)"/>
			<path d="M1.25 2.5C0.904822 2.5 0.610193 2.37796 0.366116 2.13388C0.122039 1.88981 0 1.59518 0 1.25C0 0.904822 0.122039 0.610193 0.366116 0.366116C0.610193 0.122039 0.904822 0 1.25 0C1.59518 0 1.8898 0.122039 2.13388 0.366116C2.37796 0.610193 2.5 0.904822 2.5 1.25C2.5 1.59518 2.37796 1.88981 2.13388 2.13388C1.8898 2.37796 1.59518 2.5 1.25 2.5Z" fill-rule="nonzero" transform="matrix(1 0 0 1 13.125 10)" fill="rgb(156, 163, 175)"/>
		</g>
	</g>
</svg>
