
<svg mexport="1" xmlns="http://www.w3.org/2000/svg" xmlns:xlink="http://www.w3.org/1999/xlink" width="24" height="24" viewBox="0 0 24 24">
	<defs>
		<clipPath id="clipPath0:0:0">
			<path d="M0 0L24 0L24 24L0 24L0 0Z" fill-rule="nonzero" transform="matrix(1 0 0 1 0 0)"/>
		</clipPath>
	</defs>
	<g clip-path="url(#clipPath0:0:0)">
		<defs>
			<mask id="mask0:0:1" style="mask-type:alpha">
				<path d="M0 0L24 0L24 24L0 24L0 0Z" fill-rule="nonzero" transform="matrix(1 0 0 1 0 0)" fill="rgb(0, 0, 0)"/>
			</mask>
		</defs>
		<g mask="url(#mask0:0:1)">
			<defs>
				<mask id="mask0:0:2" style="mask-type:alpha">
					<path d="M0 0L24 0L24 24L0 24L0 0Z" fill-rule="nonzero" transform="matrix(1 0 0 1 0 0)" fill="rgb(0, 0, 0)"/>
				</mask>
			</defs>
			<g mask="url(#mask0:0:2)">
				<path d="M17.7208 11.0001L21 11.0001C21.5523 11.0001 22 10.5523 22 10.0001C22 9.44778 21.5523 9.00006 21 9.00006L17 9.00006C16.9479 9.00006 16.896 9.00412 16.8445 9.01223C16.793 9.02034 16.7424 9.0324 16.6928 9.04842C16.6431 9.06444 16.595 9.08422 16.5485 9.10777C16.502 9.13131 16.4576 9.15833 16.4153 9.18882C16.373 9.21932 16.3333 9.25291 16.2963 9.28961C16.2592 9.32631 16.2252 9.36567 16.1943 9.40769C16.1634 9.4497 16.136 9.49386 16.112 9.54016C16.0881 9.58647 16.0678 9.63436 16.0513 9.68384L14 15.8378L8.94868 0.683837C8.90675 0.558033 8.84234 0.445042 8.75545 0.344863C8.66857 0.244683 8.56582 0.164942 8.44721 0.105638C8.3286 0.0463337 8.20316 0.0119814 8.07089 0.00258071C7.93862 -0.0068166 7.80958 0.0094504 7.68377 0.0513817C7.61013 0.0759277 7.5403 0.108605 7.47427 0.149414C7.40824 0.190222 7.34778 0.23807 7.29289 0.292958C7.238 0.347845 7.19016 0.408304 7.14935 0.474334C7.10854 0.540363 7.07587 0.610197 7.05132 0.683837L4.27924 9.00006L1 9.00006C0.44772 9.00006 0 9.44778 0 10.0001C0 10.5523 0.44772 11.0001 1 11.0001L5 11.0001C5.05215 11.0001 5.10398 10.996 5.1555 10.9879C5.20701 10.9798 5.25758 10.9677 5.30721 10.9517C5.35684 10.9357 5.40492 10.9159 5.45145 10.8924C5.49798 10.8688 5.5424 10.8418 5.58471 10.8113C5.62702 10.7808 5.66669 10.7472 5.70374 10.7105C5.74079 10.6738 5.77477 10.6345 5.80566 10.5924C5.83655 10.5504 5.86399 10.5063 5.88797 10.46C5.91196 10.4137 5.93219 10.3658 5.94868 10.3163L8 4.16234L13.0513 19.3163C13.0758 19.3899 13.1085 19.4598 13.1493 19.5258C13.1902 19.5918 13.238 19.6523 13.2929 19.7072C13.3478 19.762 13.4082 19.8099 13.4743 19.8507C13.5403 19.8915 13.6101 19.9242 13.6838 19.9488C13.8096 19.9907 13.9386 20.007 14.0709 19.9976C14.2032 19.9882 14.3286 19.9538 14.4472 19.8945C14.5658 19.8352 14.6686 19.7555 14.7555 19.6553C14.8424 19.5551 14.9068 19.4421 14.9487 19.3163L17.7208 11.0001Z" fill-rule="evenodd" transform="matrix(1 0 0 1 1 1.99994)" fill="rgb(59, 130, 246)"/>
			</g>
		</g>
	</g>
</svg>
