
<svg mexport="1" xmlns="http://www.w3.org/2000/svg" xmlns:xlink="http://www.w3.org/1999/xlink" width="12" height="12" viewBox="0 0 12 12">
	<defs>
		<clipPath id="clipPath0:0:0">
			<path d="M0 0L12 0L12 12L0 12L0 0Z" fill-rule="nonzero" transform="matrix(1 0 0 1 0 0)"/>
		</clipPath>
	</defs>
	<g clip-path="url(#clipPath0:0:0)">
		<path d="M6.19129 4.94039L5.57933 4.3282C5.43343 4.18226 5.2573 4.10902 5.05093 4.10847C4.84457 4.10792 4.66804 4.18023 4.52137 4.32539L0.266756 8.25187C0.111834 8.39789 0.0101157 8.58399 0.000740647 8.79234C-0.00381854 8.89679 0.0126712 8.99781 0.05021 9.09538C0.0877487 9.19296 0.143212 9.27898 0.2166 9.35344L1.13066 10.2776C1.13091 10.2779 1.13116 10.2782 1.13144 10.2784C1.13171 10.2787 1.132 10.279 1.1323 10.2792C1.20293 10.3496 1.28429 10.4039 1.37638 10.4422C1.46848 10.4804 1.56438 10.4997 1.6641 10.5L1.69176 10.5C1.90012 10.4923 2.08668 10.3945 2.2348 10.2382L6.18871 6.00305C6.33618 5.85684 6.41016 5.67991 6.41067 5.47225C6.41117 5.2646 6.33805 5.08731 6.19129 4.94039ZM11.1094 3.70313L11.1021 3.69586L10.2989 2.90086C10.2514 2.8535 10.1966 2.81711 10.1346 2.79168C10.0725 2.76624 10.0079 2.75373 9.94082 2.75414C9.88701 2.75419 9.8345 2.7625 9.7833 2.77908C9.73211 2.79565 9.68469 2.81968 9.64105 2.85117C9.64105 2.84109 9.64246 2.83125 9.64316 2.82258C9.65371 2.67024 9.67012 2.44008 9.52129 2.23149C9.43281 2.11224 9.34007 1.9964 9.24307 1.88398C9.14606 1.77157 9.04505 1.66287 8.94004 1.55789C8.93975 1.55755 8.93946 1.55722 8.93914 1.55691C8.93883 1.5566 8.93851 1.5563 8.93816 1.55602C8.62598 1.24852 7.94652 0.669376 6.90566 0.244923C6.70829 0.163918 6.50494 0.102811 6.29561 0.0615994C6.08628 0.0203883 5.87495 -0.000144616 5.6616 7.59959e-07C4.92191 7.59959e-07 4.35941 0.333751 4.14402 0.531563C4.08304 0.589809 4.0248 0.650675 3.9693 0.714163C3.91379 0.777651 3.86125 0.843503 3.81168 0.91172C3.76304 0.978854 3.73928 1.05387 3.74039 1.13676C3.7415 1.21966 3.76727 1.294 3.81769 1.35981C3.86811 1.42561 3.9332 1.46984 4.01295 1.49248C4.0927 1.51512 4.17131 1.51169 4.24879 1.48219C4.28165 1.4699 4.31486 1.45862 4.3484 1.44834C4.38195 1.43805 4.41578 1.42879 4.44988 1.42055C4.52091 1.40553 4.59265 1.39576 4.66511 1.39124C4.73756 1.38673 4.80996 1.38751 4.8823 1.39359C5.19144 1.41914 5.55707 1.57266 5.71879 1.70039C5.99301 1.92094 6.12496 2.21813 6.14676 2.66344C6.15097 2.75297 5.96582 3.08859 5.67801 3.47156C5.62132 3.5463 5.5962 3.63045 5.60266 3.72403C5.60912 3.81761 5.64557 3.89752 5.71199 3.96375L6.51848 4.77024C6.58884 4.84076 6.67381 4.87743 6.77339 4.88024C6.87298 4.88304 6.95988 4.85122 7.0341 4.78477C7.26215 4.58109 7.60949 4.27406 7.7309 4.19883C7.91113 4.08797 8.04004 4.06664 8.07543 4.06289C8.12135 4.05839 8.16688 4.06089 8.21203 4.07041C8.25717 4.07993 8.29984 4.09602 8.34004 4.11867C8.34044 4.12273 8.34001 4.12669 8.33875 4.13057C8.33748 4.13444 8.33549 4.1379 8.33277 4.14094L8.29012 4.18148L8.28309 4.18805C8.18393 4.28684 8.13447 4.40621 8.1347 4.54618C8.13492 4.68615 8.18478 4.80537 8.28426 4.90383L9.08723 5.69859C9.13475 5.74592 9.18955 5.78228 9.25163 5.80767C9.31371 5.83306 9.37828 5.84553 9.44535 5.84508C9.51203 5.84518 9.57625 5.83265 9.638 5.8075C9.69975 5.78234 9.75444 5.74643 9.80207 5.69977L11.1029 4.41492C11.1073 4.41047 11.1118 4.40578 11.116 4.40109C11.2065 4.30187 11.2511 4.18512 11.2499 4.05082C11.2486 3.91652 11.2018 3.80063 11.1094 3.70313Z" fill-rule="nonzero" transform="matrix(1 0 0 1 0.374962 0.749999)" fill="rgb(139, 92, 246)"/>
	</g>
</svg>
