
<svg mexport="1" xmlns="http://www.w3.org/2000/svg" xmlns:xlink="http://www.w3.org/1999/xlink" width="12" height="12" viewBox="0 0 12 12">
	<defs>
		<clipPath id="clipPath0:0:0">
			<path d="M0 0L12 0L12 12L0 12L0 0Z" fill-rule="nonzero" transform="matrix(1 0 0 1 0 0)"/>
		</clipPath>
	</defs>
	<g clip-path="url(#clipPath0:0:0)">
		<path d="M0.627713 1.07288e-06C0.422063 0.000113845 0.256684 0.0817796 0.131578 0.244998C0.00647092 0.408217 -0.0294204 0.589134 0.0239038 0.78775C0.0772285 0.986367 0.198907 1.12498 0.38894 1.20359C0.578973 1.2822 0.763015 1.27005 0.941068 1.16715C1.11912 1.06425 1.22153 0.910842 1.24828 0.706941C1.27504 0.503039 1.21569 0.328408 1.07021 0.183048C1.01159 0.124303 0.943929 0.0790688 0.867238 0.0473446C0.790547 0.0156203 0.710706 -0.000160813 0.627713 1.07288e-06Z" fill-rule="nonzero" transform="matrix(1 0 0 1 7.07971 3.67476)" fill="rgb(59, 130, 246)"/>
		<path d="M10.4409 0.423228C10.4408 0.422879 10.4408 0.422527 10.4408 0.422173C10.4408 0.42182 10.4408 0.421468 10.4409 0.421119C10.4207 0.332508 10.3786 0.255891 10.3147 0.191266C10.2508 0.126641 10.1746 0.0837276 10.0863 0.0625251C9.38783 -0.107866 8.28908 0.073775 7.0715 0.561275C5.84431 1.05346 4.69447 1.78002 3.91728 2.55862C3.79273 2.68251 3.67267 2.81061 3.55709 2.94292C3.44152 3.07523 3.33073 3.21143 3.2247 3.35151C2.70135 3.32807 2.24033 3.4026 1.85197 3.57206C0.498689 4.1676 0.112205 5.69174 0.00931393 6.31752C-0.0226118 6.50819 0.0275372 6.67403 0.159761 6.81506C0.291985 6.95608 0.454258 7.0168 0.64658 6.99721L0.649626 6.99721L2.15713 6.83268C2.159 6.8519 2.16111 6.86948 2.16275 6.88565C2.17243 6.9775 2.19718 7.06509 2.237 7.14842C2.27681 7.23175 2.32941 7.30604 2.39478 7.37127L3.13049 8.10745C3.19563 8.17291 3.26985 8.22557 3.35315 8.26544C3.43646 8.3053 3.52403 8.33006 3.61588 8.33971L3.66627 8.3451L3.5022 9.85073L3.5022 9.85378C3.48446 10.0254 3.53303 10.1755 3.64791 10.3042C3.7628 10.4329 3.90649 10.4982 4.079 10.4999C4.09529 10.5 4.11156 10.4993 4.1278 10.498C4.14404 10.4966 4.16019 10.4946 4.17627 10.492C4.80556 10.3907 6.329 10.0089 6.92291 8.64838C7.09095 8.2626 7.16525 7.80346 7.14439 7.28104C7.2851 7.17525 7.42185 7.06457 7.55464 6.94899C7.68743 6.83341 7.81591 6.71324 7.94009 6.58846C8.72361 5.80893 9.45252 4.66846 9.93955 3.45909C10.4245 2.25534 10.607 1.14838 10.4409 0.423228ZM7.93166 4.52198C7.66277 4.79114 7.3381 4.92579 6.95764 4.92592C6.57718 4.92605 6.25242 4.79163 5.98335 4.52265C5.71428 4.25368 5.57974 3.92896 5.57974 3.5485C5.57974 3.16804 5.71428 2.84333 5.98335 2.57435C6.25242 2.30537 6.57719 2.17095 6.95764 2.17108C7.3381 2.17121 7.66277 2.30586 7.93166 2.57502C8.20336 2.84264 8.33921 3.16714 8.33921 3.5485C8.33921 3.92987 8.20336 4.25436 7.93166 4.52198Z" fill-rule="nonzero" transform="matrix(1 0 0 1 0.749124 0.750053)" fill="rgb(59, 130, 246)"/>
		<path d="M2.67038 1.18279C2.62503 1.17716 2.58016 1.17974 2.53575 1.19052C2.49135 1.2013 2.45029 1.21958 2.41257 1.24537C2.2628 1.34779 2.11233 1.44904 1.96046 1.54771C1.65319 1.7474 1.28569 1.39677 1.46827 1.07896L1.75303 0.586775C1.79461 0.525953 1.81637 0.458718 1.81832 0.385069C1.82027 0.31142 1.8021 0.243128 1.7638 0.180192C1.72549 0.117256 1.67319 0.0697351 1.60688 0.0376282C1.54056 0.00552225 1.47085 -0.00603819 1.39772 0.00294685C1.23969 0.0229311 1.08916 0.0679693 0.946128 0.138062C0.803092 0.208154 0.675264 0.299522 0.562644 0.412165C0.476862 0.498181 0.216003 0.759275 0.0756123 1.7542C0.055632 1.89709 0.0393486 2.04039 0.0267621 2.18412C0.0141756 2.32785 0.0053027 2.47181 0.000143498 2.61599C-0.00255892 2.72142 0.0329007 2.81188 0.106522 2.88739C0.180144 2.9629 0.269684 3.00064 0.375144 3.0006L0.384519 3.0006C0.528816 2.99549 0.672887 2.98669 0.816732 2.97418C0.960577 2.96167 1.10401 2.94548 1.24702 2.9256C2.24241 2.78498 2.5035 2.52388 2.58928 2.4381C2.70245 2.32543 2.79397 2.1973 2.86384 2.05371C2.93371 1.91011 2.97805 1.75903 2.99686 1.60045C3.00941 1.49771 2.98381 1.40558 2.92007 1.32404C2.85633 1.2425 2.7731 1.19542 2.67038 1.18279Z" fill-rule="nonzero" transform="matrix(1 0 0 1 1.12486 7.8744)" fill="rgb(59, 130, 246)"/>
	</g>
</svg>
