
<svg mexport="1" xmlns="http://www.w3.org/2000/svg" xmlns:xlink="http://www.w3.org/1999/xlink" width="20" height="20" viewBox="0 0 20 20">
	<defs>
		<clipPath id="clipPath0:0:0">
			<path d="M0 0L20 0L20 20L0 20L0 0Z" fill-rule="nonzero" transform="matrix(1 0 0 1 0 0)"/>
		</clipPath>
	</defs>
	<g clip-path="url(#clipPath0:0:0)">
		<path d="M15 10L15 2.66667C15 1.73325 15 1.26653 14.8183 0.910017C14.6586 0.596408 14.4036 0.341442 14.09 0.181658C13.7335 0 13.2667 0 12.3333 0L2.66667 0C1.73324 0 1.26653 0 0.910017 0.181658C0.596408 0.341442 0.341442 0.596408 0.181658 0.910017C0 1.26653 0 1.73325 0 2.66667L0 10.6667C0 11.6001 0 12.0668 0.181658 12.4233C0.341442 12.7369 0.596408 12.9919 0.910017 13.1517C1.26653 13.3333 1.73325 13.3333 2.66667 13.3333L12.3333 13.3333C13.2667 13.3333 13.7335 13.3333 14.09 13.1517C14.4036 12.9919 14.6586 12.7369 14.8183 12.4233C15 12.0668 15 11.6001 15 10.6667L15 10ZM3.33333 5.41667C3.33333 5.18658 3.51988 5 3.75 5L11.25 5C11.4801 5 11.6667 5.18658 11.6667 5.41667C11.6667 5.64675 11.4801 5.83333 11.25 5.83333L3.75 5.83333C3.51988 5.83333 3.33333 5.64675 3.33333 5.41667ZM3.33333 7.91667C3.33333 7.68658 3.51988 7.5 3.75 7.5L11.25 7.5C11.4801 7.5 11.6667 7.68658 11.6667 7.91667C11.6667 8.14675 11.4801 8.33333 11.25 8.33333L3.75 8.33333C3.51988 8.33333 3.33333 8.14675 3.33333 7.91667ZM3.33333 10.4167C3.33333 10.1866 3.51988 10 3.75 10L7.91667 10C8.14675 10 8.33333 10.1866 8.33333 10.4167C8.33333 10.6467 8.14675 10.8333 7.91667 10.8333L3.75 10.8333C3.51988 10.8333 3.33333 10.6467 3.33333 10.4167Z" fill-rule="nonzero" transform="matrix(1 0 0 1 2.5 3.33333)" fill="rgb(255, 255, 255)"/>
	</g>
</svg>
