
<svg mexport="1" xmlns="http://www.w3.org/2000/svg" xmlns:xlink="http://www.w3.org/1999/xlink" width="20" height="20" viewBox="0 0 20 20">
	<defs>
		<clipPath id="clipPath0:0:0">
			<path d="M0 0L20 0L20 20L0 20L0 0Z" fill-rule="nonzero" transform="matrix(1 0 0 1 -0 -0)"/>
		</clipPath>
	</defs>
	<g clip-path="url(#clipPath0:0:0)">
		<path d="M8.33333 15.8333Q9.85974 15.8333 11.2524 15.2443Q12.5982 14.6751 13.6366 13.6366Q14.6751 12.5982 15.2443 11.2524Q15.8333 9.85974 15.8333 8.33333Q15.8333 6.80691 15.2443 5.41425Q14.6751 4.06847 13.6366 3.03003Q12.5982 1.9916 11.2524 1.42238Q9.85974 0.833333 8.33333 0.833333Q6.80691 0.833333 5.41425 1.42238Q4.06847 1.9916 3.03003 3.03003Q1.99159 4.06847 1.42238 5.41425Q0.833333 6.80691 0.833333 8.33333Q0.833333 9.85974 1.42238 11.2524Q1.9916 12.5982 3.03003 13.6366Q4.06847 14.6751 5.41425 15.2443Q6.80691 15.8333 8.33333 15.8333ZM8.33333 17.5Q6.46893 17.5 4.76499 16.7793Q3.11982 16.0834 1.85152 14.8151Q0.583222 13.5468 -0.112629 11.9017Q-0.833333 10.1977 -0.833333 8.33333Q-0.833333 6.46893 -0.11263 4.765Q0.58322 3.11982 1.85152 1.85152Q3.11982 0.583221 4.765 -0.112629Q6.46893 -0.833333 8.33333 -0.833333Q10.1977 -0.833333 11.9017 -0.11263Q13.5468 0.583221 14.8151 1.85152Q16.0834 3.11982 16.7793 4.76499Q17.5 6.46893 17.5 8.33333Q17.5 10.1977 16.7793 11.9017Q16.0834 13.5468 14.8151 14.8151Q13.5468 16.0834 11.9017 16.7793Q10.1977 17.5 8.33333 17.5Z" fill-rule="nonzero" transform="matrix(1 0 0 1 1.66667 1.66667)" fill="rgb(156, 163, 175)"/>
		<path d="M-0.833333 0C-0.833333 0.460233 -0.460233 0.833333 0 0.833333L16.6667 0.833333C17.1269 0.833333 17.5 0.460233 17.5 0C17.5 -0.460233 17.1269 -0.833333 16.6667 -0.833333L0 -0.833333C-0.460233 -0.833333 -0.833333 -0.460233 -0.833333 0Z" fill-rule="evenodd" transform="matrix(1 0 0 1 1.66667 10)" fill="rgb(156, 163, 175)"/>
		<path d="M-0.562022 -0.615285C-0.901832 -0.304892 -0.925679 0.222212 -0.615285 0.562022Q0.868627 2.18657 1.67612 4.17694Q2.5 6.20772 2.5 8.33333Q2.5 10.459 1.67612 12.4897Q0.868634 14.4801 -0.61529 16.1047C-0.925681 16.4445 -0.901829 16.9716 -0.562016 17.282C-0.222204 17.5923 0.3049 17.5685 0.61529 17.2287Q2.30072 15.3835 3.22053 13.1163Q4.16667 10.7842 4.16667 8.33333Q4.16667 5.88251 3.22053 3.55038Q2.30071 1.28313 0.615285 -0.562022C0.304892 -0.901832 -0.222212 -0.925679 -0.562022 -0.615285Z" fill-rule="evenodd" transform="matrix(1 0 0 1 10 1.66667)" fill="rgb(156, 163, 175)"/>
		<path d="M3.89536 -0.615282C3.55555 -0.925677 3.02845 -0.901833 2.71805 -0.562026Q1.03261 1.28312 0.112796 3.55038Q-0.833333 5.8825 -0.833333 8.33333Q-0.833333 10.7842 0.112797 13.1163Q1.03261 15.3835 2.71805 17.2287C3.02844 17.5685 3.55554 17.5923 3.89535 17.282C4.23516 16.9716 4.25901 16.4445 3.94862 16.1046Q2.46469 14.4801 1.6572 12.4897Q0.833333 10.459 0.833334 8.33333Q0.833333 6.20771 1.65721 4.17694Q2.46469 2.18656 3.94862 0.562026C4.25901 0.222218 4.23517 -0.304886 3.89536 -0.615282Z" fill-rule="evenodd" transform="matrix(1 0 0 1 6.66667 1.66667)" fill="rgb(156, 163, 175)"/>
	</g>
</svg>
