
<svg mexport="1" xmlns="http://www.w3.org/2000/svg" xmlns:xlink="http://www.w3.org/1999/xlink" width="20" height="20" viewBox="0 0 20 20">
	<defs>
		<clipPath id="clipPath0:0:0">
			<path d="M0 0L20 0L20 20L0 20L0 0Z" fill-rule="nonzero" transform="matrix(1 0 0 1 0 0)"/>
		</clipPath>
	</defs>
	<g clip-path="url(#clipPath0:0:0)">
		<defs>
			<mask id="mask0:0:1" style="mask-type:alpha">
				<path d="M0 0L20 0L20 20L0 20L0 0Z" fill-rule="nonzero" transform="matrix(0.999999 0 0 1 -2.19345e-05 0)" fill="rgb(0, 0, 0)"/>
			</mask>
		</defs>
		<g mask="url(#mask0:0:1)">
			<path d="M6.66667 6.66667C8.50833 6.66667 10 5.175 10 3.33333C10 1.49167 8.50833 0 6.66667 0C4.825 0 3.33333 1.49167 3.33333 3.33333C3.33333 5.175 4.825 6.66667 6.66667 6.66667ZM6.66667 8.33333C4.44167 8.33333 0 9.45 0 11.6667L0 13.3333L13.3333 13.3333L13.3333 11.6667C13.3333 9.45 8.89167 8.33333 6.66667 8.33333Z" fill-rule="nonzero" transform="matrix(0.999999 0 0 1 3.33331 3.33333)" fill="rgb(59, 130, 246)"/>
		</g>
	</g>
</svg>
