
<svg mexport="1" xmlns="http://www.w3.org/2000/svg" xmlns:xlink="http://www.w3.org/1999/xlink" width="20" height="20" viewBox="0 0 20 20">
	<defs>
		<clipPath id="clipPath0:0:0">
			<path d="M0 0L20 0L20 20L0 20L0 0Z" fill-rule="nonzero" transform="matrix(1 0 0 1 0 0)"/>
		</clipPath>
	</defs>
	<g clip-path="url(#clipPath0:0:0)">
		<path d="M-0.625 1.875Q-0.625 0.839466 0.107233 0.107233Q0.839466 -0.625 1.875 -0.625L3.75 -0.625Q4.78553 -0.625 5.51777 0.107233Q6.25 0.839467 6.25 1.875L6.25 3.75Q6.25 4.78553 5.51777 5.51777Q4.78553 6.25 3.75 6.25L1.875 6.25Q0.839467 6.25 0.107233 5.51777Q-0.625 4.78553 -0.625 3.75L-0.625 1.875ZM7.5 1.875Q7.5 0.839466 8.23223 0.107233Q8.96446 -0.625 10 -0.625L11.875 -0.625Q12.9105 -0.625 13.6428 0.107234Q14.375 0.839466 14.375 1.875L14.375 3.75Q14.375 4.78553 13.6428 5.51777Q12.9105 6.25 11.875 6.25L10 6.25Q8.96447 6.25 8.23223 5.51777Q7.5 4.78553 7.5 3.75L7.5 1.875ZM0.625 1.875L0.625 3.75Q0.625 4.26777 0.991117 4.63388Q1.35723 5 1.875 5L3.75 5Q4.26777 5 4.63388 4.63388Q5 4.26777 5 3.75L5 1.875Q5 1.35723 4.63388 0.991117Q4.26777 0.625 3.75 0.625L1.875 0.625Q1.35723 0.625 0.991117 0.991117Q0.625 1.35723 0.625 1.875ZM8.75 1.875L8.75 3.75Q8.75 4.26777 9.11612 4.63388Q9.48223 5 10 5L11.875 5Q12.3928 5 12.7589 4.63388Q13.125 4.26777 13.125 3.75L13.125 1.875Q13.125 1.35723 12.7589 0.991116Q12.3928 0.625 11.875 0.625L10 0.625Q9.48223 0.625 9.11612 0.991117Q8.75 1.35723 8.75 1.875ZM-0.625 10Q-0.625 8.96447 0.107233 8.23223Q0.839466 7.5 1.875 7.5L3.75 7.5Q4.78553 7.5 5.51777 8.23223Q6.25 8.96447 6.25 10L6.25 11.875Q6.25 12.9105 5.51777 13.6428Q4.78553 14.375 3.75 14.375L1.875 14.375Q0.839467 14.375 0.107232 13.6428Q-0.625 12.9105 -0.625 11.875L-0.625 10ZM7.5 10Q7.5 8.96447 8.23223 8.23223Q8.96447 7.5 10 7.5L11.875 7.5Q12.9105 7.5 13.6428 8.23223Q14.375 8.96447 14.375 10L14.375 11.875Q14.375 12.9105 13.6428 13.6428Q12.9105 14.375 11.875 14.375L10 14.375Q8.96447 14.375 8.23223 13.6428Q7.5 12.9105 7.5 11.875L7.5 10ZM0.625 10L0.625 11.875Q0.625 12.3928 0.991117 12.7589Q1.35723 13.125 1.875 13.125L3.75 13.125Q4.26777 13.125 4.63388 12.7589Q5 12.3928 5 11.875L5 10Q5 9.48223 4.63388 9.11612Q4.26777 8.75 3.75 8.75L1.875 8.75Q1.35723 8.75 0.991117 9.11612Q0.625 9.48223 0.625 10ZM8.75 10L8.75 11.875Q8.75 12.3928 9.11612 12.7589Q9.48223 13.125 10 13.125L11.875 13.125Q12.3928 13.125 12.7589 12.7589Q13.125 12.3928 13.125 11.875L13.125 10Q13.125 9.48223 12.7589 9.11612Q12.3928 8.75 11.875 8.75L10 8.75Q9.48223 8.75 9.11612 9.11612Q8.75 9.48223 8.75 10Z" fill-rule="evenodd" transform="matrix(1 0 0 1 3.125 3.125)" fill="rgb(139, 92, 246)"/>
	</g>
</svg>
