
<svg mexport="1" xmlns="http://www.w3.org/2000/svg" xmlns:xlink="http://www.w3.org/1999/xlink" width="14" height="14" viewBox="0 0 14 14">
	<defs>
		<clipPath id="clipPath0:0:0">
			<path d="M0 0L14 0L14 14L0 14L0 0Z" fill-rule="nonzero" transform="matrix(1 0 0 1 0 0)"/>
		</clipPath>
	</defs>
	<g clip-path="url(#clipPath0:0:0)">
		<path d="M4.8125 0.4375Q3.00031 0.4375 1.71891 1.71891Q0.4375 3.00032 0.4375 4.8125Q0.4375 6.62468 1.71891 7.90609Q3.00032 9.1875 4.8125 9.1875Q6.62468 9.1875 7.90609 7.90609Q9.1875 6.62468 9.1875 4.8125Q9.1875 3.00032 7.90609 1.71891Q6.62469 0.4375 4.8125 0.4375L4.8125 0.4375ZM4.8125 -0.4375Q6.98712 -0.4375 8.52481 1.10019Q10.0625 2.63788 10.0625 4.8125Q10.0625 6.98712 8.52481 8.52481Q6.98712 10.0625 4.8125 10.0625Q2.63788 10.0625 1.10019 8.52481Q-0.4375 6.98712 -0.4375 4.8125Q-0.4375 2.63788 1.10019 1.10019Q2.63788 -0.4375 4.8125 -0.4375L4.8125 -0.4375Z" fill-rule="nonzero" transform="matrix(1 0 0 1 2.1875 2.1875)" fill="rgb(156, 163, 175)"/>
		<path d="M-0.278989 0.775994Q-0.373488 1.00782 -0.382372 1.19291C-0.392509 1.40408 -0.22953 1.5835 -0.0183538 1.59363C0.192823 1.60377 0.372236 1.44079 0.382372 1.22962Q0.384972 1.17545 0.429995 1.065Q0.532142 0.814409 0.775092 0.618933Q1.0591 0.390145 1.53699 0.382977Q1.90462 0.378269 2.09214 0.467535Q2.67969 0.747207 2.67969 1.24544Q2.67969 1.58203 2.47254 1.82504Q2.31881 2.00538 1.85479 2.31657Q1.01172 2.88195 1.01172 3.77364C1.01172 3.98506 1.18311 4.15646 1.39453 4.15646C1.60595 4.15646 1.77734 3.98506 1.77734 3.77364Q1.77734 3.54167 1.87005 3.36873Q1.98767 3.14931 2.28122 2.95244Q2.83296 2.58243 3.0552 2.32171Q3.44531 1.86406 3.44531 1.24544Q3.44531 0.652293 3.04266 0.218628Q2.79878 -0.0440399 2.42122 -0.223761Q2.07289 -0.389574 1.52551 -0.382562Q0.784056 -0.371441 0.295142 0.0224188Q-0.102093 0.342031 -0.278989 0.775994Z" fill-rule="evenodd" transform="matrix(1 0 0 1 5.46875 4.32011)" fill="rgb(156, 163, 175)"/>
		<circle cx="0.546875" cy="0.546875" r="0.546875" transform="matrix(1 0 0 1 6.28906 8.96875)" fill="rgb(156, 163, 175)"/>
	</g>
</svg>
