
<svg mexport="1" xmlns="http://www.w3.org/2000/svg" xmlns:xlink="http://www.w3.org/1999/xlink" width="18" height="18" viewBox="0 0 18 18">
	<defs>
		<clipPath id="clipPath0:0:0">
			<path d="M0 0L18 0L18 18L0 18L0 0Z" fill-rule="nonzero" transform="matrix(1 0 0 1 0 0)"/>
		</clipPath>
	</defs>
	<g clip-path="url(#clipPath0:0:0)">
		<path d="M-0.67082 5.66459Q-0.464889 5.25273 -0.0792483 4.65561Q0.683973 3.47384 1.6091 2.48704Q2.92063 1.08807 4.38379 0.280817Q6.25214 -0.75 8.25 -0.75Q10.2479 -0.75 12.1162 0.280817Q13.5794 1.08808 14.8909 2.48704Q15.816 3.47384 16.5792 4.65561Q16.9649 5.25272 17.1708 5.66459Q17.2099 5.7427 17.2299 5.82769Q17.25 5.91267 17.25 6Q17.25 6.08733 17.2299 6.17231Q17.2099 6.2573 17.1708 6.33541Q16.9649 6.74728 16.5792 7.34439Q15.816 8.52616 14.8909 9.51296Q13.5794 10.9119 12.1162 11.7192Q10.2479 12.75 8.25 12.75Q6.25214 12.75 4.38379 11.7192Q2.92063 10.9119 1.6091 9.51296Q0.683975 8.52616 -0.0792483 7.34439Q-0.464889 6.74727 -0.67082 6.33541Q-0.709873 6.2573 -0.729937 6.17231Q-0.75 6.08733 -0.75 6Q-0.75 5.91267 -0.729937 5.82769Q-0.709873 5.7427 -0.67082 5.66459ZM0.67082 6.33541L0 6L0.67082 5.66459Q0.839889 6.00273 1.18081 6.53061Q1.87071 7.59884 2.7034 8.48704Q3.85281 9.71308 5.1084 10.4058Q6.63849 11.25 8.25 11.25Q9.86152 11.25 11.3916 10.4058Q12.6472 9.71308 13.7966 8.48704Q14.6293 7.59884 15.3192 6.53061Q15.6601 6.00272 15.8292 5.66459L16.5 6L15.8292 6.33541Q15.6601 5.99728 15.3192 5.46939Q14.6293 4.40116 13.7966 3.51296Q12.6472 2.28693 11.3916 1.59418Q9.86152 0.75 8.25 0.75Q6.63848 0.75 5.1084 1.59418Q3.85281 2.28692 2.7034 3.51296Q1.87071 4.40116 1.18081 5.46939Q0.839888 5.99727 0.67082 6.33541Z" fill-rule="nonzero" transform="matrix(1 0 0 1 0.75 3)" fill="rgb(107, 114, 128)"/>
		<circle cx="2.25" cy="2.25" r="2.25" stroke-width="1.5" transform="matrix(1 0 0 1 6.75 6.75)" stroke="rgb(107, 114, 128)" fill="transparent"/>
	</g>
</svg>
