
<svg mexport="1" xmlns="http://www.w3.org/2000/svg" xmlns:xlink="http://www.w3.org/1999/xlink" width="370" height="4" viewBox="0 0 370 4">
	<path d="M2 0C0.89543 0 0 0.89543 0 2L0 2.003C0 3.10757 0.89543 4 2 4L368 4C369.105 4 370 3.10757 370 2.003L370 2C370 0.89543 369.105 0 368 0L2 0Z" fill-rule="nonzero" transform="matrix(1 0 0 1 0 0)" fill="rgb(18, 18, 18)" fill-opacity="0.5"/>
	<defs>
		<linearGradient id="linearGradient0:0:0" gradientTransform="matrix(277.5 0 0 4 0 0)" gradientUnits="userSpaceOnUse" x1="0" y1="0.5" x2="1" y2="0.5">
			<stop offset="0" stop-color="rgb(59, 130, 246)"/>
			<stop offset="1" stop-color="rgb(139, 92, 246)"/>
		</linearGradient>
	</defs>
	<path d="M2 0C0.89543 0 0 0.89543 0 2L0 2.003C0 3.10757 0.89543 4 2 4L275.5 4C276.605 4 277.5 3.10757 277.5 2.003L277.5 2C277.5 0.89543 276.605 0 275.5 0L2 0Z" fill-rule="nonzero" transform="matrix(1 0 0 1 0 0)" fill="url(#linearGradient0:0:0)"/>
</svg>
