
<svg mexport="1" xmlns="http://www.w3.org/2000/svg" xmlns:xlink="http://www.w3.org/1999/xlink" width="18" height="18" viewBox="0 0 18 18">
	<defs>
		<clipPath id="clipPath0:0:0">
			<path d="M0 0L18 0L18 18L0 18L0 0Z" fill-rule="nonzero" transform="matrix(1 0 0 1 0 0)"/>
		</clipPath>
	</defs>
	<g clip-path="url(#clipPath0:0:0)">
		<path d="M11.25 3L11.25 4.5C11.25 4.91421 11.5858 5.25 12 5.25C12.4142 5.25 12.75 4.91421 12.75 4.5L12.75 3Q12.75 1.4467 11.6516 0.348349Q10.5533 -0.75 9 -0.75L3 -0.75Q1.4467 -0.75 0.348349 0.34835Q-0.75 1.4467 -0.75 3L-0.75 4.5C-0.75 4.91421 -0.41421 5.25 0 5.25C0.41421 5.25 0.75 4.91421 0.75 4.5L0.75 3Q0.75 2.06802 1.40901 1.40901Q2.06802 0.75 3 0.75L9 0.75Q9.93198 0.75 10.591 1.40901Q11.25 2.06802 11.25 3Z" fill-rule="evenodd" transform="matrix(1 0 0 1 3 11.25)" fill="rgb(107, 114, 128)"/>
		<circle cx="3" cy="3" r="3" stroke-width="1.5" transform="matrix(1 0 0 1 6 2.25)" stroke="rgb(107, 114, 128)" fill="transparent"/>
	</g>
</svg>
