
<svg mexport="1" xmlns="http://www.w3.org/2000/svg" xmlns:xlink="http://www.w3.org/1999/xlink" width="24" height="24" viewBox="0 0 24 24">
	<defs>
		<clipPath id="clipPath0:0:0">
			<path d="M0 0L24 0L24 24L0 24L0 0Z" fill-rule="nonzero" transform="matrix(1 0 0 1 0 0)"/>
		</clipPath>
	</defs>
	<g clip-path="url(#clipPath0:0:0)">
		<rect width="19.5" height="13.5" rx="2.25" ry="2.25" stroke-width="1.5" stroke-linejoin="round" transform="matrix(1 0 0 1 2.25 6.75)" stroke="rgb(255, 255, 255)" fill="transparent"/>
		<path d="M16.2825 3.75467L16.2825 2.34842Q16.2823 1.59894 15.7046 1.1211Q15.1269 0.643251 14.3904 0.783598L2.03118 2.8932Q1.48138 2.99811 1.11549 3.44061Q0.749611 3.88311 0.75 4.45729L0.750001 6.75467L-0.749999 6.75467L-0.749999 4.4583Q-0.750755 3.34373 -0.0405114 2.48476Q0.669732 1.62579 1.77882 1.41458L14.1096 -0.689885Q15.5392 -0.962322 16.6606 -0.0347378Q17.782 0.892845 17.7825 2.34842L17.7825 3.75467L16.2825 3.75467Z" fill-rule="nonzero" transform="matrix(1 0 0 1 2.25 2.99533)" fill="rgb(255, 255, 255)"/>
		<path d="M1.5 3C1.08579 3 0.732232 2.85355 0.439339 2.56066C0.146446 2.26777 0 1.91421 0 1.5C0 1.08579 0.146446 0.732232 0.439339 0.439339C0.732232 0.146446 1.08579 0 1.5 0C1.91421 0 2.26777 0.146446 2.56066 0.439339C2.85355 0.732232 3 1.08579 3 1.5C3 1.91421 2.85355 2.26777 2.56066 2.56066C2.26777 2.85355 1.91421 3 1.5 3Z" fill-rule="nonzero" transform="matrix(1 0 0 1 15.75 12)" fill="rgb(255, 255, 255)"/>
	</g>
</svg>
