
<svg mexport="1" xmlns="http://www.w3.org/2000/svg" xmlns:xlink="http://www.w3.org/1999/xlink" width="32" height="32" viewBox="0 0 32 32">
	<defs>
		<clipPath id="clipPath0:0:0">
			<path d="M0 0L32 0L32 32L0 32L0 0Z" fill-rule="nonzero" transform="matrix(1 0 0 1 0 0)"/>
		</clipPath>
	</defs>
	<g clip-path="url(#clipPath0:0:0)">
		<rect width="5" height="5" rx="0.5" ry="0.5" transform="matrix(1 0 0 1 21 21)" fill="rgb(255, 255, 255)"/>
		<rect width="4" height="4" rx="0.5" ry="0.5" transform="matrix(1 0 0 1 17 17)" fill="rgb(255, 255, 255)"/>
		<rect width="4" height="4" rx="0.5" ry="0.5" transform="matrix(1 0 0 1 26 26)" fill="rgb(255, 255, 255)"/>
		<rect width="3" height="3" rx="0.5" ry="0.5" transform="matrix(1 0 0 1 27 17)" fill="rgb(255, 255, 255)"/>
		<rect width="3" height="3" rx="0.5" ry="0.5" transform="matrix(1 0 0 1 17 27)" fill="rgb(255, 255, 255)"/>
		<path d="M26 0L17 0C16.4477 0 15.9763 0.195262 15.5858 0.585786C15.1953 0.976311 15 1.44772 15 2L15 11C15 11.5523 15.1953 12.0237 15.5858 12.4142C15.9763 12.8047 16.4477 13 17 13L26 13C26.5523 13 27.0237 12.8047 27.4142 12.4142C27.8047 12.0237 28 11.5523 28 11L28 2C28 1.44772 27.8047 0.976311 27.4142 0.585786C27.0237 0.195262 26.5523 0 26 0ZM24 8.5C24 8.63807 23.9512 8.75592 23.8536 8.85355C23.7559 8.95118 23.6381 9 23.5 9L19.5 9C19.3619 9 19.2441 8.95118 19.1464 8.85355C19.0488 8.75592 19 8.63807 19 8.5L19 4.5C19 4.36193 19.0488 4.24408 19.1464 4.14645C19.2441 4.04882 19.3619 4 19.5 4L23.5 4C23.6381 4 23.7559 4.04882 23.8536 4.14645C23.9512 4.24408 24 4.36193 24 4.5L24 8.5ZM11 0L2 0C1.44772 0 0.976311 0.195262 0.585786 0.585786C0.195262 0.976311 0 1.44772 0 2L0 11C-7.94729e-08 11.5523 0.195262 12.0237 0.585786 12.4142C0.976311 12.8047 1.44772 13 2 13L11 13C11.5523 13 12.0237 12.8047 12.4142 12.4142C12.8047 12.0237 13 11.5523 13 11L13 2C13 1.44772 12.8047 0.976311 12.4142 0.585786C12.0237 0.195262 11.5523 0 11 0ZM9 8.5C9 8.63807 8.95118 8.75592 8.85355 8.85355C8.75592 8.95118 8.63807 9 8.5 9L4.5 9C4.36193 9 4.24408 8.95118 4.14645 8.85355C4.04882 8.75592 4 8.63807 4 8.5L4 4.5C4 4.36193 4.04882 4.24408 4.14645 4.14645C4.24408 4.04882 4.36193 4 4.5 4L8.5 4C8.63807 4 8.75592 4.04882 8.85355 4.14645C8.95118 4.24408 9 4.36193 9 4.5L9 8.5ZM11 15L2 15C1.44772 15 0.976311 15.1953 0.585786 15.5858C0.195262 15.9763 0 16.4477 0 17L0 26C-7.94729e-08 26.5523 0.195262 27.0237 0.585786 27.4142C0.976311 27.8047 1.44772 28 2 28L11 28C11.5523 28 12.0237 27.8047 12.4142 27.4142C12.8047 27.0237 13 26.5523 13 26L13 17C13 16.4477 12.8047 15.9763 12.4142 15.5858C12.0237 15.1953 11.5523 15 11 15ZM9 23.5C9 23.6381 8.95118 23.7559 8.85355 23.8536C8.75592 23.9512 8.63807 24 8.5 24L4.5 24C4.36193 24 4.24408 23.9512 4.14645 23.8536C4.04882 23.7559 4 23.6381 4 23.5L4 19.5C4 19.3619 4.04882 19.2441 4.14645 19.1464C4.24408 19.0488 4.36193 19 4.5 19L8.5 19C8.63807 19 8.75592 19.0488 8.85355 19.1464C8.95118 19.2441 9 19.3619 9 19.5L9 23.5Z" fill-rule="nonzero" transform="matrix(1 0 0 1 2 2)" fill="rgb(255, 255, 255)"/>
	</g>
</svg>
