
<svg mexport="1" xmlns="http://www.w3.org/2000/svg" xmlns:xlink="http://www.w3.org/1999/xlink" width="24" height="24" viewBox="0 0 24 24">
	<defs>
		<clipPath id="clipPath0:0:0">
			<path d="M0 0L24 0L24 24L0 24L0 0Z" fill-rule="nonzero" transform="matrix(1 0 0 1 0 0)"/>
		</clipPath>
	</defs>
	<g clip-path="url(#clipPath0:0:0)">
		<path d="M6.94544 3.42889Q6.88585 4.25601 6.56098 5.00504Q6.24701 5.72893 5.72633 6.28837Q5.19998 6.85391 4.54084 7.16786Q3.84351 7.5 3.10363 7.5Q2.3638 7.5 1.66629 7.16802Q1.00675 6.85411 0.480208 6.28871Q-0.0409676 5.72908 -0.354779 5.00507Q-0.679658 4.25552 -0.738247 3.42796Q-0.800597 2.54862 -0.537818 1.77088Q-0.279487 1.00631 0.260343 0.430712Q0.794098 -0.138415 1.52867 -0.444019Q2.26415 -0.75 3.10363 -0.75Q3.94378 -0.75 4.68286 -0.437151Q5.41498 -0.12725 5.94885 0.446309Q6.48648 1.02391 6.74478 1.78522Q7.0081 2.56133 6.94543 3.42902L6.94544 3.42889ZM5.44933 3.32098Q5.5304 2.19835 4.85088 1.4683Q4.53526 1.12922 4.09815 0.944192Q3.63938 0.75 3.10363 0.75Q2.56373 0.75 2.10484 0.940909Q1.66778 1.12274 1.35446 1.45683Q0.676975 2.1792 0.758008 3.32204Q0.798505 3.89405 1.0215 4.40854Q1.23266 4.89571 1.57791 5.26644Q1.90958 5.62258 2.31093 5.8136Q2.70256 6 3.10363 6Q3.50453 6 3.89581 5.81363Q4.29679 5.62264 4.62831 5.26643Q4.97342 4.89564 5.18484 4.40817Q5.40808 3.89347 5.44932 3.32111L5.44933 3.32098Z" fill-rule="nonzero" transform="matrix(1 0 0 1 12.6464 4.5)" fill="rgb(255, 255, 255)"/>
		<path d="M6.74981 0.75Q5.6873 0.75 4.70397 1.00859Q3.71142 1.26962 2.91105 1.76557Q1.20514 2.82266 0.749147 4.65359Q0.756106 4.62569 0.728369 4.58504Q0.670342 4.5 0.570752 4.5L12.9293 4.5Q12.8291 4.5 12.7709 4.58555Q12.7439 4.62507 12.7504 4.65137Q12.2959 2.79711 10.5913 1.74922Q9.79434 1.25933 8.79945 1.00285Q7.81861 0.749999 6.74981 0.75L6.74981 0.75ZM6.74981 -0.75Q8.00885 -0.75 9.1739 -0.449657Q10.3875 -0.136801 11.3768 0.471363Q12.4335 1.12092 13.1431 2.05242Q13.9019 3.04844 14.207 4.29332Q14.3603 4.91664 14.0106 5.43Q13.8317 5.69254 13.5567 5.84223Q13.2668 6 12.9293 6L0.570752 6Q0.233522 6 -0.0563976 5.84244Q-0.331632 5.69286 -0.510655 5.43051Q-0.862109 4.91546 -0.706393 4.29109Q-0.400472 3.06274 0.357853 2.07126Q1.06767 1.1432 2.12096 0.490523Q3.11246 -0.123871 4.32248 -0.442081Q5.49336 -0.75 6.74981 -0.75L6.74981 -0.75Z" fill-rule="nonzero" transform="matrix(1 0 0 1 9.00019 14.25)" fill="rgb(255, 255, 255)"/>
		<path d="M5.72458 2.76983Q5.67514 3.45618 5.40321 4.08226Q5.14063 4.68686 4.70569 5.15698Q4.26367 5.63476 3.71071 5.90175Q3.1189 6.1875 2.49215 6.1875Q1.86547 6.1875 1.27353 5.90192Q0.720242 5.63498 0.278066 5.15733Q-0.157316 4.68703 -0.419787 4.08229Q-0.691736 3.45571 -0.740356 2.7689Q-0.792208 2.03581 -0.570148 1.38212Q-0.351594 0.738757 0.103508 0.251863Q0.554014 -0.230113 1.17139 -0.489731Q1.79032 -0.75 2.49215 -0.75Q3.19501 -0.75 3.81717 -0.483833Q4.43232 -0.220666 4.8827 0.264822Q5.3357 0.753118 5.55414 1.39349Q5.77673 2.04605 5.72458 2.76984L5.72458 2.76983ZM4.22846 2.66204Q4.28843 1.82977 3.78304 1.28498Q3.28673 0.75 2.49215 0.75Q1.69113 0.75 1.19934 1.27614Q0.695904 1.81475 0.7559 2.66298Q0.817412 3.5319 1.37881 4.13833Q1.8872 4.6875 2.49215 4.6875Q3.09655 4.6875 3.60462 4.13833Q4.1658 3.53175 4.22846 2.66204L4.22846 2.66204Z" fill-rule="nonzero" transform="matrix(1 0 0 1 4.39848 6)" fill="rgb(255, 255, 255)"/>
		<path d="M5.39108 0.75Q6.82163 0.75 7.84431 1.21856C8.22088 1.39109 8.66602 1.22569 8.83855 0.849119C9.01108 0.472552 8.84568 0.0274109 8.46911 -0.145121Q7.14891 -0.75 5.39108 -0.75Q4.36887 -0.75 3.415 -0.499124Q2.42684 -0.239229 1.61558 0.263288Q0.750484 0.799148 0.166424 1.56223Q-0.458765 2.37905 -0.710869 3.39048Q-0.8509 3.9557 -0.532104 4.42248Q-0.368553 4.66195 -0.116878 4.79876Q0.148408 4.94297 0.456083 4.94297L5.71921 4.94297C6.13342 4.94297 6.46921 4.60718 6.46921 4.19297C6.46921 3.77876 6.13342 3.44297 5.71921 3.44297L0.836182 3.44297Q1.24279 2.25865 2.40546 1.53847Q3.0257 1.15428 3.79654 0.951541Q4.56282 0.75 5.39108 0.75Z" fill-rule="evenodd" transform="matrix(1 0 0 1 1.49954 13.807)" fill="rgb(255, 255, 255)"/>
	</g>
</svg>
