
<svg mexport="1" xmlns="http://www.w3.org/2000/svg" xmlns:xlink="http://www.w3.org/1999/xlink" width="14" height="14" viewBox="0 0 14 14">
	<defs>
		<clipPath id="clipPath0:0:0">
			<path d="M0 0L14 0L14 14L0 14L0 0Z" fill-rule="nonzero" transform="matrix(1 0 0 1 0 0)"/>
		</clipPath>
	</defs>
	<g clip-path="url(#clipPath0:0:0)">
		<path d="M11.8656 1.80307L10.4469 0.384426C10.3239 0.261354 10.1819 0.166515 10.0211 0.099909C9.86032 0.033303 9.6929 0 9.51885 0L4.8125 0C4.08762 0 3.5 0.587617 3.5 1.3125L3.5 2.625L1.3125 2.625C0.587617 2.625 0 3.21262 0 3.9375L0 12.6875C0 13.4124 0.587617 14 1.3125 14L7.4375 14C8.16238 14 8.75 13.4124 8.75 12.6875L8.75 11.375L10.9375 11.375C11.6624 11.375 12.25 10.7874 12.25 10.0625L12.25 2.73115C12.25 2.5571 12.2167 2.38968 12.1501 2.22888C12.0835 2.06808 11.9886 1.92614 11.8656 1.80307ZM7.27344 12.6875L1.47656 12.6875C1.43126 12.6875 1.39259 12.6715 1.36055 12.6394C1.32852 12.6074 1.3125 12.5687 1.3125 12.5234L1.3125 4.10156C1.3125 4.05626 1.32852 4.01759 1.36055 3.98555C1.39259 3.95352 1.43126 3.9375 1.47656 3.9375L3.5 3.9375L3.5 10.0625C3.5 10.7874 4.08762 11.375 4.8125 11.375L7.4375 11.375L7.4375 12.5234C7.4375 12.5687 7.42148 12.6074 7.38945 12.6394C7.35741 12.6715 7.31874 12.6875 7.27344 12.6875ZM10.7734 10.0625L4.97656 10.0625C4.93126 10.0625 4.89259 10.0465 4.86055 10.0144C4.82852 9.98241 4.8125 9.94374 4.8125 9.89844L4.8125 1.47656C4.8125 1.43126 4.82852 1.39259 4.86055 1.36055C4.89259 1.32852 4.93126 1.3125 4.97656 1.3125L7.875 1.3125L7.875 3.71875C7.875 4.08119 8.16881 4.375 8.53125 4.375L10.9375 4.375L10.9375 9.89844C10.9375 9.94374 10.9215 9.98241 10.8894 10.0144C10.8574 10.0465 10.8187 10.0625 10.7734 10.0625ZM10.9375 3.0625L9.1875 3.0625L9.1875 1.3125L9.45087 1.3125C9.49438 1.3125 9.53611 1.32978 9.56689 1.36054L10.8895 2.68311C10.9048 2.69849 10.9167 2.71623 10.925 2.73634C10.9333 2.75644 10.9375 2.77737 10.9375 2.79912L10.9375 3.0625Z" fill-rule="nonzero" transform="matrix(1 0 0 1 0.875 0)" fill="rgb(96, 165, 250)"/>
	</g>
</svg>
