
<svg mexport="1" xmlns="http://www.w3.org/2000/svg" xmlns:xlink="http://www.w3.org/1999/xlink" width="16" height="12.8" viewBox="0 0 16 12.8">
	<defs>
		<clipPath id="clipPath0:0:0">
			<path d="M0 0L16 0L16 12.8L0 12.8L0 0Z" fill-rule="nonzero" transform="matrix(1 0 0 1 0 3.05176e-05)"/>
		</clipPath>
	</defs>
	<g clip-path="url(#clipPath0:0:0)">
		<path d="M13.2 8.96L2.8 8.96C2.58 8.96 2.4 9.104 2.4 9.28L2.4 9.92C2.4 10.096 2.58 10.24 2.8 10.24L13.2 10.24C13.42 10.24 13.6 10.096 13.6 9.92L13.6 9.28C13.6 9.104 13.42 8.96 13.2 8.96ZM14.8 2.56C14.1375 2.56 13.6 2.99 13.6 3.52C13.6 3.662 13.64 3.794 13.71 3.916L11.9 4.784C11.515 4.968 11.0175 4.864 10.795 4.552L8.7575 1.7C9.025 1.524 9.2 1.26 9.2 0.96C9.2 0.43 8.6625 0 8 0C7.3375 0 6.8 0.43 6.8 0.96C6.8 1.26 6.975 1.524 7.2425 1.7L5.205 4.552C4.9825 4.864 4.4825 4.968 4.1 4.784L2.2925 3.916C2.36 3.796 2.4025 3.662 2.4025 3.52C2.4025 2.99 1.865 2.56 1.2025 2.56C0.54 2.56 0 2.99 0 3.52C0 4.05 0.5375 4.48 1.2 4.48C1.265 4.48 1.33 4.472 1.3925 4.464L3.2 8.32L12.8 8.32L14.6075 4.464C14.67 4.472 14.735 4.48 14.8 4.48C15.4625 4.48 16 4.05 16 3.52C16 2.99 15.4625 2.56 14.8 2.56Z" fill-rule="nonzero" transform="matrix(1 0 0 1 0 1.28004)" fill="rgb(234, 179, 8)"/>
	</g>
</svg>
