
<svg mexport="1" xmlns="http://www.w3.org/2000/svg" xmlns:xlink="http://www.w3.org/1999/xlink" width="16" height="16" viewBox="0 0 16 16">
	<defs>
		<clipPath id="clipPath0:0:0">
			<path d="M0 0L16 0L16 16L0 16L0 0Z" fill-rule="nonzero" transform="matrix(1 0 0 1 0 0)"/>
		</clipPath>
	</defs>
	<g clip-path="url(#clipPath0:0:0)">
		<path d="M9.33333 7.33333L9.33333 2C9.33333 0.895433 8.43793 0 7.33333 0L2 0C0.895433 0 0 0.895433 0 2L0 7.33333C0 8.43793 0.895433 9.33333 2 9.33333L7.33333 9.33333C8.43793 9.33333 9.33333 8.43793 9.33333 7.33333ZM7.33333 8C7.70153 8 8 7.70153 8 7.33333L8 2C8 1.63181 7.70153 1.33333 7.33333 1.33333L2 1.33333C1.63181 1.33333 1.33333 1.63181 1.33333 2L1.33333 7.33333C1.33333 7.70153 1.63181 8 2 8L7.33333 8Z" fill-rule="nonzero" transform="matrix(1 0 0 1 3.33333 2)" fill="rgb(255, 255, 255)"/>
		<path d="M0 2C0 0.895433 0.895433 0 2 0L2 1.33333C1.63181 1.33333 1.33333 1.63181 1.33333 2L1.33333 7.33333C1.33333 7.70153 1.63181 8 2 8L7.33333 8C7.70153 8 8 7.70153 8 7.33333L9.33333 7.33333C9.33333 8.43793 8.43793 9.33333 7.33333 9.33333L2 9.33333C0.895433 9.33333 0 8.43793 0 7.33333L0 2Z" fill-rule="nonzero" transform="matrix(1 0 0 1 2 3.33333)" fill="rgb(255, 255, 255)"/>
	</g>
</svg>
