
<svg mexport="1" xmlns="http://www.w3.org/2000/svg" xmlns:xlink="http://www.w3.org/1999/xlink" width="16" height="16" viewBox="0 0 16 16">
	<defs>
		<clipPath id="clipPath0:0:0">
			<path d="M0 0L16 0L16 16L0 16L0 0Z" fill-rule="nonzero" transform="matrix(1 0 0 1 0 0)"/>
		</clipPath>
	</defs>
	<g clip-path="url(#clipPath0:0:0)">
		<path d="M4.71967 0.53033C4.42678 0.237439 4.42678 -0.237439 4.71967 -0.53033C5.01256 -0.823221 5.48744 -0.823221 5.78033 -0.53033L10.2803 3.96967Q10.3858 4.07516 10.4429 4.21299Q10.5 4.35082 10.5 4.5Q10.5 4.64918 10.4429 4.78701Q10.3858 4.92484 10.2803 5.03033L5.78033 9.53033C5.48744 9.82322 5.01256 9.82322 4.71967 9.53033C4.42678 9.23744 4.42678 8.76256 4.71967 8.46967L7.93934 5.25L0 5.25C-0.41421 5.25 -0.75 4.91421 -0.75 4.5C-0.75 4.08579 -0.41421 3.75 0 3.75L7.93934 3.75L4.71967 0.53033Z" fill-rule="evenodd" transform="matrix(1 0 0 1 3.125 3.5)" fill="rgb(255, 255, 255)"/>
	</g>
</svg>
