
<svg mexport="1" xmlns="http://www.w3.org/2000/svg" xmlns:xlink="http://www.w3.org/1999/xlink" width="14" height="14" viewBox="0 0 14 14">
	<defs>
		<clipPath id="clipPath0:0:0">
			<path d="M0 0L14 0L14 14L0 14L0 0Z" fill-rule="nonzero" transform="matrix(1 0 0 1 0 0)"/>
		</clipPath>
	</defs>
	<g clip-path="url(#clipPath0:0:0)">
		<path d="M-0.464039 0.464039C-0.720318 0.207759 -0.720318 -0.207759 -0.464039 -0.464039C-0.207759 -0.720318 0.207759 -0.720318 0.464039 -0.464039L4.40154 3.47346Q4.44724 3.51917 4.48315 3.57291Q4.51906 3.62665 4.5438 3.68636Q4.56853 3.74608 4.58114 3.80947Q4.59375 3.87286 4.59375 3.9375Q4.59375 4.00213 4.58114 4.06553Q4.56853 4.12892 4.5438 4.18864Q4.51906 4.24835 4.48315 4.30209Q4.44724 4.35583 4.40154 4.40154L0.464039 8.33904C0.207759 8.59532 -0.207759 8.59532 -0.464039 8.33904C-0.720318 8.08276 -0.720318 7.66724 -0.464039 7.41096L3.00942 3.9375L-0.464039 0.464039Z" fill-rule="evenodd" transform="matrix(1 0 0 1 5.03125 3.0625)" fill="rgb(96, 165, 250)"/>
	</g>
</svg>
