
<svg mexport="1" xmlns="http://www.w3.org/2000/svg" xmlns:xlink="http://www.w3.org/1999/xlink" width="20" height="20" viewBox="0 0 20 20">
	<defs>
		<clipPath id="clipPath0:0:0">
			<path d="M0 0L20 0L20 20L0 20L0 0Z" fill-rule="nonzero" transform="matrix(1 0 0 1 0 0)"/>
		</clipPath>
	</defs>
	<g clip-path="url(#clipPath0:0:0)">
		<rect width="13.125" height="13.125" rx="2.2265625" ry="2.2265625" stroke-width="1.25" stroke-linejoin="round" transform="matrix(1 0 0 1 5 5)" stroke="rgb(255, 255, 255)" fill="transparent"/>
		<path d="M12.5 2.1824L12.4806 3.11198C12.4734 3.45708 12.7474 3.74267 13.0925 3.74986C13.4376 3.75705 13.7231 3.48312 13.7303 3.13802L13.7499 2.20052Q13.75 2.19312 13.75 2.18572Q13.7467 1.02286 12.9244 0.200584Q12.1021 -0.621689 10.9393 -0.624997L2.5 -0.625Q1.20609 -0.621179 0.292454 0.292454Q-0.621178 1.20609 -0.624997 2.49815L-0.625 10.9375Q-0.62169 12.1021 0.200584 12.9244Q1.02286 13.7467 2.18572 13.75L3.125 13.75C3.47018 13.75 3.75 13.4702 3.75 13.125C3.75 12.7798 3.47018 12.5 3.125 12.5L2.18928 12.5Q1.5421 12.4982 1.08447 12.0405Q0.626839 11.5829 0.625 10.9375L0.624997 2.50185Q0.627292 1.72538 1.17634 1.17634Q1.72538 0.627292 2.5 0.625L10.9357 0.624997Q11.5829 0.626839 12.0405 1.08447Q12.4957 1.53966 12.5 2.1824Z" fill-rule="evenodd" transform="matrix(1 0 0 1 1.875 1.875)" fill="rgb(255, 255, 255)"/>
	</g>
</svg>
