
<svg mexport="1" xmlns="http://www.w3.org/2000/svg" xmlns:xlink="http://www.w3.org/1999/xlink" width="16" height="16" viewBox="0 0 16 16">
	<defs>
		<clipPath id="clipPath0:0:0">
			<path d="M0 0L16 0L16 16L0 16L0 0Z" fill-rule="nonzero" transform="matrix(1 0 0 1 0 0)"/>
		</clipPath>
	</defs>
	<g clip-path="url(#clipPath0:0:0)">
		<rect width="14" height="8" rx="0.5" ry="0.5" stroke-width="1" stroke-linejoin="round" transform="matrix(-1 0 0 -1 15 10.5)" stroke="rgb(255, 255, 255)" fill="transparent"/>
		<path d="M-0.5 0C-0.5 0.27614 -0.27614 0.5 0 0.5L12 0.5C12.2761 0.5 12.5 0.27614 12.5 0C12.5 -0.27614 12.2761 -0.5 12 -0.5L0 -0.5C-0.27614 -0.5 -0.5 -0.27614 -0.5 0ZM0.5 1.5C0.5 1.77614 0.72386 2 1 2L11 2C11.2761 2 11.5 1.77614 11.5 1.5C11.5 1.22386 11.2761 1 11 1L1 1C0.72386 1 0.5 1.22386 0.5 1.5Z" fill-rule="evenodd" transform="matrix(1 0 0 1 2 12)" fill="rgb(255, 255, 255)"/>
		<circle cx="2.5" cy="2.5" r="2.5" stroke-width="1" transform="matrix(1 0 0 1 5.5 4)" stroke="rgb(255, 255, 255)" fill="transparent"/>
		<path d="M2.5 -0.5C2.22386 -0.5 2 -0.27614 2 0Q2 0.828427 1.41421 1.41421Q0.828427 2 0 2C-0.27614 2 -0.5 2.22386 -0.5 2.5C-0.5 2.77614 -0.27614 3 0 3Q1.24264 3 2.12132 2.12132Q3 1.24264 3 0C3 -0.27614 2.77614 -0.5 2.5 -0.5ZM11.5 -0.5C11.2239 -0.5 11 -0.27614 11 0Q11 1.24264 11.8787 2.12132Q12.7574 3 14 3C14.2761 3 14.5 2.77614 14.5 2.5C14.5 2.22386 14.2761 2 14 2Q13.1716 2 12.5858 1.41421Q12 0.828427 12 0C12 -0.27614 11.7761 -0.5 11.5 -0.5ZM-0.5 5.5C-0.5 5.77614 -0.27614 6 0 6Q0.828427 6 1.41421 6.58579Q2 7.17157 2 8C2 8.27614 2.22386 8.5 2.5 8.5C2.77614 8.5 3 8.27614 3 8Q3 6.75736 2.12132 5.87868Q1.24264 5 0 5C-0.27614 5 -0.5 5.22386 -0.5 5.5ZM12.5858 6.58579Q13.1716 6 14 6C14.2761 6 14.5 5.77614 14.5 5.5C14.5 5.22386 14.2761 5 14 5Q12.7574 5 11.8787 5.87868Q11 6.75736 11 8C11 8.27614 11.2239 8.5 11.5 8.5C11.7761 8.5 12 8.27614 12 8Q12 7.17157 12.5858 6.58579Z" fill-rule="evenodd" transform="matrix(1 0 0 1 1 2.5)" fill="rgb(255, 255, 255)"/>
	</g>
</svg>
