
<svg mexport="1" xmlns="http://www.w3.org/2000/svg" xmlns:xlink="http://www.w3.org/1999/xlink" width="24" height="24" viewBox="0 0 24 24">
	<defs>
		<clipPath id="clipPath0:0:0">
			<path d="M0 0L24 0L24 24L0 24L0 0Z" fill-rule="nonzero" transform="matrix(1 0 0 1 0 0)"/>
		</clipPath>
	</defs>
	<g clip-path="url(#clipPath0:0:0)">
		<path d="M19.593 15.069C23.019 16.227 23.796 16.289 23.796 16.289L23.796 3.845C23.796 1.721 22.091 0 19.986 0L3.812 0C1.706 7.25267e-08 0 1.721 0 3.845L0 20.155C0 22.278 1.706 24 3.813 24L19.986 24C22.091 24 23.796 22.278 23.796 20.155L23.796 19.998C23.796 19.998 17.606 17.396 14.481 15.879C12.385 18.481 9.681 20.06 6.874 20.06C2.124 20.06 0.513001 15.87 2.762 13.111C3.252 12.509 4.086 11.936 5.379 11.614C7.404 11.112 10.626 11.927 13.645 12.931C13.9264 12.406 14.1792 11.8676 14.4033 11.3157C14.6275 10.7638 14.8217 10.2016 14.986 9.629L5.679 9.629L5.679 8.677L10.478 8.677L10.478 6.974L4.668 6.974L4.668 6.021L10.478 6.021L10.478 3.59C10.478 3.59 10.478 3.181 10.889 3.181L13.236 3.181L13.236 6.021L18.98 6.021L18.98 6.972L13.236 6.972L13.236 8.676L17.926 8.676C17.715 9.56165 17.4432 10.4282 17.1106 11.2757C16.778 12.1232 16.3878 12.9433 15.94 13.736C17.364 14.256 18.642 14.747 19.593 15.069ZM5.784 13.037C5.188 13.097 4.074 13.362 3.463 13.906C1.633 15.514 2.728 18.456 6.431 18.456C8.582 18.456 10.732 17.068 12.421 14.846C10.018 13.664 7.983 12.818 5.784 13.037Z" fill-rule="nonzero" transform="matrix(1 0 0 1 0.102 0.000999928)" fill="rgb(59, 130, 246)"/>
	</g>
</svg>
