
<svg mexport="1" xmlns="http://www.w3.org/2000/svg" xmlns:xlink="http://www.w3.org/1999/xlink" width="24" height="24" viewBox="0 0 24 24">
	<defs>
		<clipPath id="clipPath0:0:0">
			<path d="M0 0L24 0L24 24L0 24L0 0Z" fill-rule="nonzero" transform="matrix(1 0 0 1 0 0)"/>
		</clipPath>
	</defs>
	<g clip-path="url(#clipPath0:0:0)">
		<path d="M18.6554 8.01445C19.3796 8.01445 19.682 7.08398 19.0937 6.65508L10.1429 0.14414C10.0118 0.0480468 9.86489 0 9.70229 0C9.5397 0 9.39283 0.0480468 9.26167 0.14414L0.310887 6.65508C-0.277394 7.08164 0.0249501 8.01445 0.751513 8.01445L2.20229 8.01445L2.20229 16.7801L0.514794 16.7801C0.411669 16.7801 0.327294 16.8645 0.327294 16.9676L0.327294 18.1863C0.327294 18.2895 0.411669 18.3738 0.514794 18.3738L18.8898 18.3738C18.9929 18.3738 19.0773 18.2895 19.0773 18.1863L19.0773 16.9676C19.0773 16.8645 18.9929 16.7801 18.8898 16.7801L17.2023 16.7801L17.2023 8.01445L18.6554 8.01445ZM9.70229 1.79648L16.0562 6.41836L3.34839 6.41836L9.70229 1.79648ZM3.88979 8.01445L6.63198 8.01445L6.63198 16.7801L3.88979 16.7801L3.88979 8.01445ZM8.31948 8.01445L11.0617 8.01445L11.0617 16.7801L8.31948 16.7801L8.31948 8.01445ZM15.5148 16.7801L12.7492 16.7801L12.7492 8.01445L15.5148 8.01445L15.5148 16.7801Z" fill-rule="nonzero" transform="matrix(1 0 0 1 2.29771 2.81367)" fill="rgb(239, 68, 68)"/>
	</g>
</svg>
